<?xml version="1.0" encoding="utf-8"?>
<!-- Generator: Adobe Illustrator 24.2.0, SVG Export Plug-In . SVG Version: 6.00 Build 0)  -->
<svg version="1.1" id="Layer_1" xmlns="http://www.w3.org/2000/svg" xmlns:xlink="http://www.w3.org/1999/xlink" x="0px" y="0px"
	 viewBox="0 0 347.8 223.7" style="enable-background:new 0 0 347.8 223.7;" xml:space="preserve">
<style type="text/css">
	.st0{fill:#A51B85;}
	.st1{fill:#6DA3F7;}
	.st2{fill:#114CA3;}
	.st3{fill:#AF9376;}
	.st4{fill:#F0D7F4;}
	.st5{enable-background:new    ;}
	.st6{clip-path:url(#SVGID_2_);}
	.st7{fill:#E269CB;}
	.st8{clip-path:url(#SVGID_4_);}
	.st9{fill:#F7CDF3;}
	.st10{clip-path:url(#SVGID_6_);}
	.st11{fill:#895486;}
	.st12{clip-path:url(#SVGID_8_);}
	.st13{fill:#FFFFFF;}
	.st14{clip-path:url(#SVGID_10_);}
	.st15{clip-path:url(#SVGID_12_);}
	.st16{clip-path:url(#SVGID_14_);}
	.st17{clip-path:url(#SVGID_16_);}
	.st18{clip-path:url(#SVGID_18_);}
	.st19{clip-path:url(#SVGID_20_);}
	.st20{clip-path:url(#SVGID_22_);}
	.st21{clip-path:url(#SVGID_24_);}
	.st22{clip-path:url(#SVGID_26_);}
	.st23{clip-path:url(#SVGID_28_);}
	.st24{fill:#001FFF;}
	.st25{clip-path:url(#SVGID_30_);}
	.st26{fill:#FF9100;}
	.st27{clip-path:url(#SVGID_32_);}
	.st28{clip-path:url(#SVGID_34_);}
	.st29{clip-path:url(#SVGID_36_);}
	.st30{clip-path:url(#SVGID_38_);}
	.st31{clip-path:url(#SVGID_40_);}
	.st32{clip-path:url(#SVGID_42_);}
	.st33{clip-path:url(#SVGID_44_);}
	.st34{clip-path:url(#SVGID_46_);}
	.st35{clip-path:url(#SVGID_48_);}
	.st36{clip-path:url(#SVGID_50_);}
	.st37{clip-path:url(#SVGID_52_);}
	.st38{fill:#EDECC7;}
</style>
<g>
	<polygon class="st0" points="280.8,116.2 216.1,153.6 92.6,82.7 157.3,45.3 	"/>
	<polygon class="st1" points="280.8,116.2 280.7,134.2 216,171.6 216.1,153.6 	"/>
	<polygon class="st2" points="216.1,153.6 216,171.6 92.5,100.7 92.6,82.7 	"/>
	<polygon class="st3" points="195.2,141.8 195.1,159.8 174.3,148 174.4,129.9 	"/>
</g>
<path class="st4" d="M157.4,45.3l123.5,71l-64.7,37.4l-123.5-71L157.4,45.3z M229.6,140.2l28-16.2c-7.5-4.3-7.6-11.4-0.1-15.7
	L171,58.6c-7.5,4.3-19.6,4.3-27.2,0l-28,16.2c7.5,4.3,7.6,11.4,0.1,15.7l86.5,49.7C209.9,135.9,222.1,135.9,229.6,140.2"/>
<g>
	<g>
		<g class="st5">
			<g>
				<defs>
					<polygon id="SVGID_1_" points="106.3,90.9 171.2,53.4 280.9,116.5 216,154 					"/>
				</defs>
				<clipPath id="SVGID_2_">
					<use xlink:href="#SVGID_1_"  style="overflow:visible;"/>
				</clipPath>
				<g class="st6">
					<g>
						<g>
							<g>
								<polyline class="st7" points="280.9,116.5 171.2,53.4 106.3,90.9 216,154 280.9,116.5 								"/>
							</g>
						</g>
					</g>
				</g>
			</g>
		</g>
	</g>
</g>
<g>
	<g>
		<g class="st5">
			<g>
				<defs>
					<polygon id="SVGID_3_" points="92.3,82.7 157.1,45.1 187.2,62.4 122.3,99.9 					"/>
				</defs>
				<clipPath id="SVGID_4_">
					<use xlink:href="#SVGID_3_"  style="overflow:visible;"/>
				</clipPath>
				<g class="st8">
					<g>
						<g>
							<g>
								<polyline class="st9" points="187.2,62.4 157.1,45.1 92.3,82.7 122.3,99.9 187.2,62.4 								"/>
							</g>
						</g>
					</g>
				</g>
			</g>
		</g>
	</g>
</g>
<g>
	<g>
		<g class="st5">
			<g>
				<defs>
					<polygon id="SVGID_5_" points="161.2,99.7 188.9,83.7 212.1,97.1 184.5,113.1 					"/>
				</defs>
				<clipPath id="SVGID_6_">
					<use xlink:href="#SVGID_5_"  style="overflow:visible;"/>
				</clipPath>
				<g class="st10">
					<g>
						<g>
							<g>
								<path class="st11" d="M204.2,92.6c-1.1-0.7-2.2-1.2-3.1-1.7s-2.2-0.9-3.7-1.4s-2.9-0.8-4.3-0.9c-1.4-0.1-2.8-0.1-4.4,0.2
									c-1.6,0.2-3.1,0.8-4.5,1.7l-0.7,0.4l-3.4-1.9l-3.9,2.2l3.4,1.9l-2.4,1.4l-3.4-1.9l-3.9,2.2l3.4,1.9l-1.1,0.7
									c-1.4,0.8-2.3,1.6-2.7,2.5s-0.5,1.7-0.3,2.4c0.3,0.7,0.8,1.5,1.8,2.4c0.9,0.9,1.8,1.6,2.6,2.1c0.8,0.6,1.8,1.2,3,1.9
									c3.1,1.7,5.6,3.1,7.8,3.9l4.4-2.6c-2.1-0.7-4.5-1.9-7.2-3.4c-0.9-0.6-1.7-1-2.3-1.4s-1.1-0.9-1.6-1.4
									c-0.5-0.5-0.8-1-0.6-1.5c0.1-0.5,0.5-0.9,1.3-1.4l1.1-0.6l8.7,4.9l5-1.6l-9.7-5.6l2.4-1.4l10.4,6l5-1.6l-11.5-6.6l0.9-0.6
									c0.8-0.4,1.6-0.7,2.4-0.9c0.8-0.1,1.6-0.1,2.5,0.2c0.9,0.2,1.6,0.5,2.3,0.8c0.6,0.3,1.4,0.7,2.4,1.2
									c1.8,1.1,3.8,2.4,5.8,4.2l5.5-1.7C208.4,95.3,206.1,93.7,204.2,92.6"/>
							</g>
						</g>
					</g>
				</g>
			</g>
		</g>
	</g>
</g>
<g>
	<g>
		<g>
			<g class="st5">
				<g>
					<defs>
						<polygon id="SVGID_7_" points="154.7,77.6 165.8,71.3 177.4,78 166.4,84.4 						"/>
					</defs>
					<clipPath id="SVGID_8_">
						<use xlink:href="#SVGID_7_"  style="overflow:visible;"/>
					</clipPath>
					<g class="st12">
						<g>
							<g>
								<g>
									<path class="st13" d="M171.5,74.6l-5.6,1.6l-4.5-2.6l1,3.6l-5.6,1.6l6.2,0.6l1,3.6l2.8-3.2l6.2,0.6l-4.5-2.6L171.5,74.6"/>
								</g>
							</g>
						</g>
					</g>
				</g>
			</g>
		</g>
	</g>
	<g>
		<g>
			<g class="st5">
				<g>
					<defs>
						<polygon id="SVGID_9_" points="181.2,74.9 192.2,68.6 203.9,75.3 192.9,81.6 						"/>
					</defs>
					<clipPath id="SVGID_10_">
						<use xlink:href="#SVGID_9_"  style="overflow:visible;"/>
					</clipPath>
					<g class="st14">
						<g>
							<g>
								<g>
									<path class="st13" d="M198,71.9l-5.6,1.6L188,71l1,3.6l-5.6,1.6l6.2,0.6l1,3.6l2.8-3.2l6.2,0.6l-4.5-2.6L198,71.9"/>
								</g>
							</g>
						</g>
					</g>
				</g>
			</g>
		</g>
	</g>
	<g>
		<g>
			<g class="st5">
				<g>
					<defs>
						<polygon id="SVGID_11_" points="203.5,83.5 214.5,77.1 226.1,83.8 215.2,90.2 						"/>
					</defs>
					<clipPath id="SVGID_12_">
						<use xlink:href="#SVGID_11_"  style="overflow:visible;"/>
					</clipPath>
					<g class="st15">
						<g>
							<g>
								<g>
									<path class="st13" d="M220.3,80.5l-5.6,1.6l-4.5-2.6l1,3.6l-5.6,1.6l6.2,0.6l1,3.6l2.8-3.2l6.2,0.6l-4.5-2.6L220.3,80.5"/>
								</g>
							</g>
						</g>
					</g>
				</g>
			</g>
		</g>
	</g>
	<g>
		<g>
			<g class="st5">
				<g>
					<defs>
						<polygon id="SVGID_13_" points="135.8,104.4 146.8,98 158.4,104.7 147.4,111.1 						"/>
					</defs>
					<clipPath id="SVGID_14_">
						<use xlink:href="#SVGID_13_"  style="overflow:visible;"/>
					</clipPath>
					<g class="st16">
						<g>
							<g>
								<g>
									<path class="st13" d="M152.6,101.4L147,103l-4.5-2.6l1,3.6l-5.6,1.6l6.2,0.6l1,3.6l2.8-3.2l6.2,0.6l-4.5-2.6L152.6,101.4"
										/>
								</g>
							</g>
						</g>
					</g>
				</g>
			</g>
		</g>
	</g>
	<g>
		<g>
			<g class="st5">
				<g>
					<defs>
						<polygon id="SVGID_15_" points="149.9,115.6 160.9,109.2 172.5,116 161.5,122.3 						"/>
					</defs>
					<clipPath id="SVGID_16_">
						<use xlink:href="#SVGID_15_"  style="overflow:visible;"/>
					</clipPath>
					<g class="st17">
						<g>
							<g>
								<g>
									<path class="st13" d="M166.6,112.6l-5.6,1.6l-4.5-2.6l1,3.6l-5.6,1.6l6.2,0.6l1,3.6l2.8-3.2l6.2,0.6l-4.5-2.6L166.6,112.6"
										/>
								</g>
							</g>
						</g>
					</g>
				</g>
			</g>
		</g>
	</g>
	<g>
		<g>
			<g class="st5">
				<g>
					<defs>
						<polygon id="SVGID_17_" points="168.1,122.5 179.1,116.1 190.7,122.8 179.7,129.2 						"/>
					</defs>
					<clipPath id="SVGID_18_">
						<use xlink:href="#SVGID_17_"  style="overflow:visible;"/>
					</clipPath>
					<g class="st18">
						<g>
							<g>
								<g>
									<path class="st13" d="M184.8,119.5l-5.6,1.6l-4.5-2.6l1,3.6l-5.6,1.6l6.2,0.6l1,3.6l2.8-3.2l6.2,0.6l-4.5-2.6L184.8,119.5"
										/>
								</g>
							</g>
						</g>
					</g>
				</g>
			</g>
		</g>
	</g>
	<g>
		<g>
			<g class="st5">
				<g>
					<defs>
						<polygon id="SVGID_19_" points="188.2,121.8 199.1,115.5 210.8,122.2 199.8,128.5 						"/>
					</defs>
					<clipPath id="SVGID_20_">
						<use xlink:href="#SVGID_19_"  style="overflow:visible;"/>
					</clipPath>
					<g class="st19">
						<g>
							<g>
								<g>
									<path class="st13" d="M205,118.8l-5.6,1.6l-4.5-2.6l1,3.6l-5.6,1.6l6.2,0.6l1,3.6l2.8-3.2l6.2,0.6l-4.5-2.6L205,118.8"/>
								</g>
							</g>
						</g>
					</g>
				</g>
			</g>
		</g>
	</g>
	<g>
		<g>
			<g class="st5">
				<g>
					<defs>
						<polygon id="SVGID_21_" points="207,113.7 218,107.4 229.6,114.1 218.6,120.4 						"/>
					</defs>
					<clipPath id="SVGID_22_">
						<use xlink:href="#SVGID_21_"  style="overflow:visible;"/>
					</clipPath>
					<g class="st20">
						<g>
							<g>
								<g>
									<path class="st13" d="M223.8,110.7l-5.6,1.6l-4.5-2.6l1,3.6l-5.6,1.6l6.2,0.6l1,3.6l2.8-3.2l6.2,0.6l-4.5-2.6L223.8,110.7"
										/>
								</g>
							</g>
						</g>
					</g>
				</g>
			</g>
		</g>
	</g>
	<g>
		<g>
			<g class="st5">
				<g>
					<defs>
						<polygon id="SVGID_23_" points="217,99.4 228,93 239.6,99.7 228.6,106 						"/>
					</defs>
					<clipPath id="SVGID_24_">
						<use xlink:href="#SVGID_23_"  style="overflow:visible;"/>
					</clipPath>
					<g class="st21">
						<g>
							<g>
								<g>
									<path class="st13" d="M233.9,96.4l-5.6,1.6l-4.5-2.6l1,3.6l-5.6,1.6l6.2,0.6l1,3.6l2.8-3.2l6.2,0.6l-4.5-2.6L233.9,96.4"/>
								</g>
							</g>
						</g>
					</g>
				</g>
			</g>
		</g>
	</g>
	<g>
		<g>
			<g class="st5">
				<g>
					<defs>
						<polygon id="SVGID_25_" points="138.5,88.5 149.4,82.1 161.1,88.9 150.1,95.2 						"/>
					</defs>
					<clipPath id="SVGID_26_">
						<use xlink:href="#SVGID_25_"  style="overflow:visible;"/>
					</clipPath>
					<g class="st22">
						<g>
							<g>
								<g>
									<path class="st13" d="M155.3,85.5l-5.6,1.6l-4.5-2.6l1,3.6l-5.6,1.6l6.2,0.6l1,3.6l2.8-3.2l6.2,0.6l-4.5-2.6L155.3,85.5"/>
								</g>
							</g>
						</g>
					</g>
				</g>
			</g>
		</g>
	</g>
</g>
<g>
	<g>
		<g class="st5">
			<g>
				<defs>
					<polygon id="SVGID_27_" points="152.3,57.9 161.4,52.8 177.6,62.1 168.6,67.3 					"/>
				</defs>
				<clipPath id="SVGID_28_">
					<use xlink:href="#SVGID_27_"  style="overflow:visible;"/>
				</clipPath>
				<g class="st23">
					<g>
						<g>
							<g>
								<polyline class="st24" points="177.6,62.1 161.4,52.8 152.3,57.9 168.6,67.3 177.6,62.1 								"/>
							</g>
						</g>
					</g>
				</g>
			</g>
		</g>
	</g>
</g>
<g>
	<g>
		<g>
			<g class="st5">
				<g>
					<defs>
						<polygon id="SVGID_29_" points="160.2,56.6 161.6,55.8 163.1,56.7 161.7,57.5 						"/>
					</defs>
					<clipPath id="SVGID_30_">
						<use xlink:href="#SVGID_29_"  style="overflow:visible;"/>
					</clipPath>
					<g class="st25">
						<g>
							<g>
								<g>
									<path class="st26" d="M162.4,56.3l-0.8,0.2l-0.6-0.3l0.1,0.5l-0.8,0.2l0.8,0.1l0.1,0.5l0.4-0.4l0.8,0.1l-0.6-0.3
										L162.4,56.3"/>
								</g>
							</g>
						</g>
					</g>
				</g>
			</g>
		</g>
	</g>
	<g>
		<g>
			<g class="st5">
				<g>
					<defs>
						<polygon id="SVGID_31_" points="163.6,56.3 165.1,55.4 166.6,56.3 165.2,57.1 						"/>
					</defs>
					<clipPath id="SVGID_32_">
						<use xlink:href="#SVGID_31_"  style="overflow:visible;"/>
					</clipPath>
					<g class="st27">
						<g>
							<g>
								<g>
									<path class="st26" d="M165.9,55.9l-0.8,0.2l-0.6-0.3l0.1,0.5l-0.8,0.2l0.8,0.1l0.1,0.5l0.4-0.4l0.8,0.1l-0.6-0.3
										L165.9,55.9"/>
								</g>
							</g>
						</g>
					</g>
				</g>
			</g>
		</g>
	</g>
	<g>
		<g>
			<g class="st5">
				<g>
					<defs>
						<polygon id="SVGID_33_" points="166.6,57.4 168,56.6 169.5,57.4 168.1,58.3 						"/>
					</defs>
					<clipPath id="SVGID_34_">
						<use xlink:href="#SVGID_33_"  style="overflow:visible;"/>
					</clipPath>
					<g class="st28">
						<g>
							<g>
								<g>
									<path class="st26" d="M168.8,57l-0.8,0.2l-0.6-0.3l0.1,0.5l-0.8,0.2l0.8,0.1l0.1,0.5l0.4-0.4l0.8,0.1l-0.6-0.3L168.8,57"/>
								</g>
							</g>
						</g>
					</g>
				</g>
			</g>
		</g>
	</g>
	<g>
		<g>
			<g class="st5">
				<g>
					<defs>
						<polygon id="SVGID_35_" points="157.7,60.1 159.1,59.3 160.7,60.2 159.2,61 						"/>
					</defs>
					<clipPath id="SVGID_36_">
						<use xlink:href="#SVGID_35_"  style="overflow:visible;"/>
					</clipPath>
					<g class="st29">
						<g>
							<g>
								<g>
									<path class="st26" d="M159.9,59.8l-0.8,0.2l-0.6-0.3l0.1,0.5l-0.8,0.2l0.8,0.1l0.1,0.4l0.4-0.4l0.8,0.1l-0.6-0.3
										L159.9,59.8"/>
								</g>
							</g>
						</g>
					</g>
				</g>
			</g>
		</g>
	</g>
	<g>
		<g>
			<g class="st5">
				<g>
					<defs>
						<polygon id="SVGID_37_" points="159.5,61.6 161,60.8 162.5,61.7 161.1,62.5 						"/>
					</defs>
					<clipPath id="SVGID_38_">
						<use xlink:href="#SVGID_37_"  style="overflow:visible;"/>
					</clipPath>
					<g class="st30">
						<g>
							<g>
								<g>
									<path class="st26" d="M161.7,61.3l-0.8,0.2l-0.6-0.3l0.1,0.4l-0.8,0.2l0.8,0.1l0.1,0.5l0.4-0.4l0.8,0.1l-0.6-0.3
										L161.7,61.3"/>
								</g>
							</g>
						</g>
					</g>
				</g>
			</g>
		</g>
	</g>
	<g>
		<g>
			<g class="st5">
				<g>
					<defs>
						<polygon id="SVGID_39_" points="161.9,62.5 163.4,61.7 164.9,62.6 163.4,63.4 						"/>
					</defs>
					<clipPath id="SVGID_40_">
						<use xlink:href="#SVGID_39_"  style="overflow:visible;"/>
					</clipPath>
					<g class="st31">
						<g>
							<g>
								<g>
									<path class="st26" d="M164.1,62.1l-0.8,0.2l-0.6-0.3l0.1,0.5l-0.8,0.2l0.8,0.1l0.1,0.5l0.4-0.4l0.8,0.1l-0.6-0.3
										L164.1,62.1"/>
								</g>
							</g>
						</g>
					</g>
				</g>
			</g>
		</g>
	</g>
	<g>
		<g>
			<g class="st5">
				<g>
					<defs>
						<polygon id="SVGID_41_" points="164.6,62.4 166,61.6 167.5,62.5 166.1,63.3 						"/>
					</defs>
					<clipPath id="SVGID_42_">
						<use xlink:href="#SVGID_41_"  style="overflow:visible;"/>
					</clipPath>
					<g class="st32">
						<g>
							<g>
								<g>
									<path class="st26" d="M166.8,62.1l-0.8,0.2l-0.6-0.3l0.1,0.5l-0.8,0.2l0.8,0.1l0.1,0.5l0.4-0.4l0.8,0.1l-0.6-0.3
										L166.8,62.1"/>
								</g>
							</g>
						</g>
					</g>
				</g>
			</g>
		</g>
	</g>
	<g>
		<g>
			<g class="st5">
				<g>
					<defs>
						<polygon id="SVGID_43_" points="167,61.4 168.5,60.6 170,61.4 168.6,62.3 						"/>
					</defs>
					<clipPath id="SVGID_44_">
						<use xlink:href="#SVGID_43_"  style="overflow:visible;"/>
					</clipPath>
					<g class="st33">
						<g>
							<g>
								<g>
									<path class="st26" d="M169.3,61l-0.8,0.2l-0.6-0.3l0.1,0.5l-0.8,0.2l0.8,0.1l0.1,0.5l0.4-0.4l0.8,0.1l-0.6-0.3L169.3,61"/>
								</g>
							</g>
						</g>
					</g>
				</g>
			</g>
		</g>
	</g>
	<g>
		<g>
			<g class="st5">
				<g>
					<defs>
						<polygon id="SVGID_45_" points="168.3,59.5 169.8,58.6 171.3,59.5 169.9,60.4 						"/>
					</defs>
					<clipPath id="SVGID_46_">
						<use xlink:href="#SVGID_45_"  style="overflow:visible;"/>
					</clipPath>
					<g class="st34">
						<g>
							<g>
								<g>
									<path class="st26" d="M170.6,59.1l-0.8,0.2l-0.6-0.3l0.1,0.5l-0.8,0.2l0.8,0.1l0.1,0.5l0.4-0.4l0.8,0.1l-0.6-0.3
										L170.6,59.1"/>
								</g>
							</g>
						</g>
					</g>
				</g>
			</g>
		</g>
	</g>
	<g>
		<g>
			<g class="st5">
				<g>
					<defs>
						<polygon id="SVGID_47_" points="158,58.1 159.5,57.3 161,58.1 159.5,58.9 						"/>
					</defs>
					<clipPath id="SVGID_48_">
						<use xlink:href="#SVGID_47_"  style="overflow:visible;"/>
					</clipPath>
					<g class="st35">
						<g>
							<g>
								<g>
									<path class="st26" d="M160.2,57.7l-0.8,0.2l-0.6-0.3l0.1,0.5l-0.8,0.2l0.8,0.1l0.1,0.5l0.4-0.4l0.8,0.1l-0.6-0.3
										L160.2,57.7"/>
								</g>
							</g>
						</g>
					</g>
				</g>
			</g>
		</g>
	</g>
</g>
<g>
	<g>
		<g class="st5">
			<defs>
				<polygon id="SVGID_49_" class="st5" points="88.3,81.2 154,43 282.9,117.5 217.2,155.7 				"/>
			</defs>
			<clipPath id="SVGID_50_">
				<use xlink:href="#SVGID_49_"  style="overflow:visible;"/>
			</clipPath>
			<g class="st36">
				<g>
					<g>
						<g>
							<g>
								<defs>
									<polyline id="SVGID_51_" points="282.6,117.5 154,43.3 88.6,81.2 217.2,155.5 282.6,117.5 									"/>
								</defs>
								<clipPath id="SVGID_52_">
									<use xlink:href="#SVGID_51_"  style="overflow:visible;"/>
								</clipPath>
								<g class="st37">
									<defs>
										<polyline id="SVGID_53_" points="217.2,155.7 88.3,81.2 154,43 282.9,117.5 217.2,155.7 										"/>
									</defs>
									<clipPath id="SVGID_54_">
										<use xlink:href="#SVGID_53_"  style="overflow:visible;"/>
									</clipPath>
									<g style="clip-path:url(#SVGID_54_);">
										
											<image style="overflow:visible;" width="195" height="113" xlink:href="20156609C7DD27AC.jpg"  transform="matrix(1 0 0 1 88.2642 43.0371)">
										</image>
									</g>
								</g>
							</g>
						</g>
					</g>
				</g>
			</g>
		</g>
	</g>
</g>
<polygon class="st38" points="195.2,141.8 262.9,105.7 242.1,93.8 174.4,129.9 "/>
</svg>
