<?xml version="1.0" encoding="utf-8"?>
<!-- Generator: Adobe Illustrator 24.2.0, SVG Export Plug-In . SVG Version: 6.00 Build 0)  -->
<svg version="1.1" id="Layer_1" xmlns="http://www.w3.org/2000/svg" xmlns:xlink="http://www.w3.org/1999/xlink" x="0px" y="0px"
	 viewBox="0 0 347.8 223.7" style="enable-background:new 0 0 347.8 223.7;" xml:space="preserve">
<style type="text/css">
	.st0{fill:#C3C99B;}
	.st1{fill:#A8B27F;}
	.st2{fill:#79891A;}
	.st3{fill:#AF9376;}
	.st4{enable-background:new    ;}
	.st5{clip-path:url(#SVGID_2_);}
	.st6{fill:#D6DBAD;}
	.st7{clip-path:url(#SVGID_4_);}
	.st8{fill:#425B0A;}
	.st9{clip-path:url(#SVGID_6_);}
	.st10{clip-path:url(#SVGID_8_);}
	.st11{clip-path:url(#SVGID_10_);}
	.st12{fill:#EDECC7;}
</style>
<g>
	<polygon class="st0" points="285.6,120.5 216.9,160.5 85.7,84.8 154.4,44.8 	"/>
	<polygon class="st1" points="285.6,120.5 285.5,139.8 216.7,179.7 216.9,160.5 	"/>
	<polygon class="st2" points="216.9,160.5 216.7,179.7 85.6,104 85.7,84.8 	"/>
	<polygon class="st3" points="194.7,147.8 194.6,167.1 172.5,154.4 172.5,135.2 	"/>
</g>
<g>
	<g>
		<g class="st4">
			<g>
				<g>
					<defs>
						<polygon id="SVGID_1_" points="156.1,104.8 192.5,83.6 217.5,98 181.1,119.2 						"/>
					</defs>
					<clipPath id="SVGID_2_">
						<use xlink:href="#SVGID_1_"  style="overflow:visible;"/>
					</clipPath>
					<g class="st5">
						<g>
							<g>
								<g>
									<path class="st6" d="M205.1,90.8c-6.9-4-20.7-2.5-30.7,3.3c-10.1,5.9-12.6,13.8-5.7,17.8c6.9,4,20.7,2.5,30.7-3.3
										C209.4,102.8,211.9,94.8,205.1,90.8"/>
								</g>
							</g>
						</g>
					</g>
				</g>
			</g>
		</g>
	</g>
</g>
<g>
	<g>
		<g class="st4">
			<g>
				<g>
					<defs>
						<polygon id="SVGID_3_" points="158.5,101.2 187.7,84.2 216.2,100.7 186.9,117.7 						"/>
					</defs>
					<clipPath id="SVGID_4_">
						<use xlink:href="#SVGID_3_"  style="overflow:visible;"/>
					</clipPath>
					<g class="st7">
						<g>
							<g>
								<g>
									<polyline class="st8" points="216.2,100.7 208.1,96 190.5,99.1 195.7,88.8 187.7,84.2 182.8,96.3 176.9,92.9 172.3,95.5 
										181.1,100.5 178.1,102.3 169.3,97.3 164.8,99.9 173.5,105 169.2,107.4 176.1,111.4 180.4,109 189.2,114 193.7,111.3 
										185,106.3 188,104.5 196.8,109.6 201.3,107 195.3,103.5 216.2,100.7 									"/>
								</g>
							</g>
						</g>
					</g>
				</g>
			</g>
		</g>
	</g>
</g>
<g>
	<g>
		<g class="st4">
			<g>
				<defs>
					<polygon id="SVGID_5_" points="86.6,84 154,44.9 284.1,120 216.6,159.1 					"/>
				</defs>
				<clipPath id="SVGID_6_">
					<use xlink:href="#SVGID_5_"  style="overflow:visible;"/>
				</clipPath>
				<g class="st9">
					<g>
						<g>
							<g>
								<g>
									<g>
										<defs>
											<polyline id="SVGID_7_" points="283.6,120 154,45.2 87.1,84 216.7,158.8 283.6,120 											"/>
										</defs>
										<clipPath id="SVGID_8_">
											<use xlink:href="#SVGID_7_"  style="overflow:visible;"/>
										</clipPath>
										<g class="st10">
											<g>
												<defs>
													<polyline id="SVGID_9_" points="216.6,159.1 86.6,84 154,44.9 284.1,120 216.6,159.1 													"/>
												</defs>
												<clipPath id="SVGID_10_">
													<use xlink:href="#SVGID_9_"  style="overflow:visible;"/>
												</clipPath>
												<g class="st11">
													
														<image style="overflow:visible;enable-background:new    ;" width="298" height="173" xlink:href="7073FCE4A586C420.jpg"  transform="matrix(0.664 0 0 0.664 86.6642 44.7543)">
													</image>
												</g>
											</g>
										</g>
									</g>
								</g>
							</g>
						</g>
					</g>
				</g>
			</g>
		</g>
	</g>
</g>
<polygon class="st12" points="194.7,147.8 266.6,109.3 244.5,96.6 172.5,135.2 "/>
</svg>
