<?xml version="1.0" encoding="utf-8"?>
<!-- Generator: Adobe Illustrator 24.2.0, SVG Export Plug-In . SVG Version: 6.00 Build 0)  -->
<svg version="1.1" id="Layer_1" xmlns="http://www.w3.org/2000/svg" xmlns:xlink="http://www.w3.org/1999/xlink" x="0px" y="0px"
	 viewBox="0 0 409.7 229.6" style="enable-background:new 0 0 409.7 229.6;" xml:space="preserve">
<style type="text/css">
	.st0{fill:#A51B85;}
	.st1{fill:#F9C0E4;}
	.st2{fill:#920E96;}
	.st3{fill:#AF9376;}
	.st4{fill:#FCB6F9;}
	.st5{fill:#F9386A;}
	.st6{fill:#FFFBE3;}
	.st7{enable-background:new    ;}
	.st8{clip-path:url(#SVGID_2_);}
	.st9{fill:#EF9ED4;}
	.st10{clip-path:url(#SVGID_4_);}
	.st11{clip-path:url(#SVGID_6_);}
	.st12{fill:#EDECC7;}
</style>
<g>
	<polygon class="st0" points="307.6,131.8 239,171.6 108.3,96.2 176.8,56.3 	"/>
	<polygon class="st1" points="307.6,131.8 307.5,151 238.9,190.8 239,171.6 	"/>
	<polygon class="st2" points="239,171.6 238.9,190.8 108.1,115.3 108.3,96.2 	"/>
	<polygon class="st3" points="217,159 216.8,178.2 194.8,165.6 194.8,146.4 	"/>
</g>
<path class="st4" d="M170,87.7c2.1,1.2,2.1,3.2,0,4.5c-2.4,1.2-5.3,1.2-7.6,0c-2.1-1.2-2.1-3.2,0-4.5
	C164.8,86.5,167.6,86.5,170,87.7z"/>
<path class="st5" d="M282.9,123.5c-7.9,4.6-7.8,12.1,0.1,16.7l-29.7,17.2c-8-4.6-20.9-4.6-28.8,0l-91.7-52.9
	c7.9-4.6,7.9-12-0.1-16.7l29.7-17.2c8,4.6,20.9,4.6,28.8,0L282.9,123.5z M183.9,127.9c13.4,7.7,35,7.7,48.3,0
	c13.3-7.7,13.2-20.2-0.1-27.9c-13.4-7.7-35-7.7-48.3,0C170.4,107.7,170.5,120.2,183.9,127.9 M162.4,92.1c2.4,1.2,5.3,1.2,7.6,0
	c2.1-1.2,2.1-3.2,0-4.5c-2.4-1.2-5.3-1.2-7.6,0C160.3,88.8,160.3,90.8,162.4,92.1 M245.8,140.2c2.4,1.2,5.3,1.2,7.6,0
	c2.1-1.2,2.1-3.2,0-4.5c-2.4-1.2-5.3-1.2-7.6,0C243.7,137,243.7,139,245.8,140.2"/>
<path class="st6" d="M176.8,56.3l130.8,75.5L239,171.6L108.3,96.2L176.8,56.3z M253.3,157.4l29.7-17.2c-8-4.6-8-12.1-0.1-16.7
	l-91.6-52.9c-7.9,4.6-20.8,4.6-28.8,0l-29.7,17.2c8,4.6,8,12.1,0.1,16.7l91.7,52.9C232.5,152.7,245.4,152.8,253.3,157.4"/>
<g>
	<g>
		<g class="st7">
			<g>
				<defs>
					<polygon id="SVGID_1_" points="181.4,114.1 211,96.9 233.5,109.9 203.9,127.1 					"/>
				</defs>
				<clipPath id="SVGID_2_">
					<use xlink:href="#SVGID_1_"  style="overflow:visible;"/>
				</clipPath>
				<g class="st8">
					<g>
						<g>
							<g>
								<path class="st9" d="M225.9,105.5c-1.7-1-3.3-1.8-4.7-2.3c-1.4-0.5-2.9-0.9-4.5-1.1c-1.6-0.2-3.2-0.1-4.9,0.4
									c-1.7,0.5-3.4,1.2-5.3,2.3l-3.4,1.9l-4.6-2.7l-4.6,2.7l4.6,2.7l-7.7,4.5l-4.6-2.7l-5,2.9l22.5,13l5-2.9l-11.3-6.5l7.7-4.5
									l7.7,4.5l4.6-2.7l-7.7-4.5l4.1-2.3c1.7-1,3.1-1.5,3.9-1.4c0.9,0.1,2.5,0.7,4.7,2c1.1,0.7,2.4,1.5,3.9,2.7l4.5-2.7
									C229.2,107.5,227.5,106.4,225.9,105.5"/>
							</g>
						</g>
					</g>
				</g>
			</g>
		</g>
	</g>
</g>
<g>
	<g>
		<g class="st7">
			<defs>
				<polygon id="SVGID_3_" class="st7" points="108.5,96.6 176.8,56.9 307.5,132.4 239.2,172.1 				"/>
			</defs>
			<clipPath id="SVGID_4_">
				<use xlink:href="#SVGID_3_"  style="overflow:visible;"/>
			</clipPath>
			<g class="st10">
				<g>
					<g>
						<g>
							<g>
								<defs>
									<polyline id="SVGID_5_" points="307.2,132.3 176.8,57.1 108.8,96.6 239.2,171.8 307.2,132.3 									"/>
								</defs>
								<clipPath id="SVGID_6_">
									<use xlink:href="#SVGID_5_"  style="overflow:visible;"/>
								</clipPath>
								<g class="st11">
									<defs>
										<polyline id="SVGID_7_" points="239.2,172.1 108.5,96.6 176.8,56.9 307.5,132.4 239.2,172.1 										"/>
									</defs>
									<clipPath id="SVGID_8_">
										<use xlink:href="#SVGID_7_"  style="overflow:visible;"/>
									</clipPath>
									<g style="clip-path:url(#SVGID_8_);">
										
											<image style="overflow:visible;" width="200" height="116" xlink:href="3267B32FAFE3C03D.jpg"  transform="matrix(1 0 0 1 108.4807 56.8881)">
										</image>
									</g>
								</g>
							</g>
						</g>
					</g>
				</g>
			</g>
		</g>
	</g>
</g>
<polygon class="st12" points="217,159 288.6,120.6 266.6,107.9 194.8,146.4 "/>
</svg>
