<?xml version="1.0" encoding="utf-8"?>
<!-- Generator: Adobe Illustrator 24.2.0, SVG Export Plug-In . SVG Version: 6.00 Build 0)  -->
<svg version="1.1" id="Layer_1" xmlns="http://www.w3.org/2000/svg" xmlns:xlink="http://www.w3.org/1999/xlink" x="0px" y="0px"
	 viewBox="0 0 347.8 223.7" style="enable-background:new 0 0 347.8 223.7;" xml:space="preserve">
<style type="text/css">
	.st0{fill:#E7BB89;}
	.st1{fill:#9D8484;}
	.st2{fill:#726262;}
	.st3{fill:#AF9376;}
	.st4{enable-background:new    ;}
	.st5{clip-path:url(#SVGID_2_);}
	.st6{fill:#5E5151;}
	.st7{clip-path:url(#SVGID_4_);}
	.st8{fill:#725F3D;}
	.st9{clip-path:url(#SVGID_6_);}
	.st10{clip-path:url(#SVGID_8_);}
	.st11{fill:#EDECC7;}
</style>
<g>
	<polygon class="st0" points="281.6,118.3 214.4,157.6 86.2,82.9 153.4,43.6 	"/>
	<polygon class="st1" points="281.6,118.3 281.5,137.2 214.3,176.6 214.4,157.6 	"/>
	<polygon class="st2" points="214.4,157.6 214.3,176.6 86.2,101.9 86.2,82.9 	"/>
	<polygon class="st3" points="192.7,145.1 192.7,164.1 171,151.7 171.1,132.7 	"/>
</g>
<g>
	<g>
		<g class="st4">
			<g>
				<defs>
					<polygon id="SVGID_1_" points="158.3,102.3 187.3,85.2 206,96.2 177,113.2 					"/>
				</defs>
				<clipPath id="SVGID_2_">
					<use xlink:href="#SVGID_1_"  style="overflow:visible;"/>
				</clipPath>
				<g class="st5">
					<g>
						<g>
							<g>
								<path class="st6" d="M206,96.2l-18.7-10.9l-2.9,1.7l3.1,1.8c3.8,2.2,5,4.3,3,6.2l-10-5.8l-2.2,1.3l10.1,5.9
									c-3.3,1.6-7.9,1.2-12.7-1.5l-2.4-1.4l-2.7,1.6c-0.3,5-0.8,9.1-1.5,13.6l4.2,2.5c0.8-4.9,1.6-9.7,1.6-13.8
									c5.9,3.2,12.3,3.6,17.3,1.2l4.8,2.8l2.2-1.3l-4.8-2.8c1.8-1.3,2.3-2.8,2-4.1l7.3,4.3L206,96.2"/>
							</g>
						</g>
					</g>
				</g>
			</g>
		</g>
	</g>
</g>
<g>
	<g>
		<g class="st4">
			<g>
				<defs>
					<polygon id="SVGID_3_" points="174.2,68.4 178.9,65.7 227.2,93.8 222.5,96.6 					"/>
				</defs>
				<clipPath id="SVGID_4_">
					<use xlink:href="#SVGID_3_"  style="overflow:visible;"/>
				</clipPath>
				<g class="st7">
					<g>
						<g>
							<g>
								<path class="st8" d="M177.4,67.2l1.4-0.9l0.3,0.2c0.3,0.1,0.3,0.3,0.3,0.4c0,0.1-0.1,0.1-0.1,0.2c-0.1,0.1-0.2,0.1-0.3,0.2
									c-0.1,0.1-0.2,0.1-0.3,0.2c-0.1,0.1-0.2,0.1-0.3,0.1c-0.1,0-0.2,0-0.3,0s-0.2-0.1-0.3-0.1L177.4,67.2 M179.9,66.3l-1-0.6
									l-4.6,2.7l0.7,0.4l2-1.1l0.4,0.3l-1.4,1.5l0.7,0.4l1.4-1.6c0.3,0.1,0.7,0.1,0.9,0c0.3-0.1,0.5-0.2,0.8-0.3
									C180.6,67.2,180.7,66.8,179.9,66.3"/>
								<polyline class="st8" points="183.6,68.4 181.6,67.3 177,70 179,71.1 179.6,70.7 178.3,70 179.6,69.2 180.8,69.9 
									181.4,69.5 180.3,68.8 181.7,68 183,68.8 183.6,68.4 								"/>
								<path class="st8" d="M185.1,69.3c-0.2-0.1-0.4-0.2-0.6-0.3c-0.2-0.1-0.4-0.1-0.6-0.1c-0.2,0-0.4,0.1-0.6,0.1
									c-0.2,0.1-0.4,0.1-0.6,0.3c-0.3,0.2-0.5,0.3-0.6,0.5c-0.1,0.2-0.1,0.4,0.1,0.6l0.3,0.4c0.1,0.1,0.1,0.1,0.1,0.2
									c0,0.1,0,0.1,0,0.1c0,0.1-0.1,0.1-0.1,0.1c-0.1,0.1-0.1,0.1-0.3,0.2c-0.1,0.1-0.2,0.1-0.3,0.1c-0.1,0.1-0.2,0.1-0.3,0.1
									c-0.1,0-0.2,0-0.3,0c-0.1,0-0.2-0.1-0.3-0.1c-0.2-0.1-0.3-0.2-0.2-0.3c0-0.1,0.1-0.2,0.2-0.3l0.2-0.1l-0.7-0.4l-0.3,0.1
									c-0.1,0.1-0.3,0.2-0.3,0.3s-0.1,0.2-0.1,0.3s0.1,0.2,0.1,0.3c0.1,0.1,0.2,0.2,0.4,0.3c0.2,0.1,0.4,0.2,0.7,0.3
									c0.2,0.1,0.4,0.1,0.7,0.1c0.2,0,0.4-0.1,0.6-0.1c0.2-0.1,0.4-0.2,0.6-0.3c0.2-0.1,0.3-0.2,0.4-0.3c0.1-0.1,0.2-0.2,0.3-0.3
									c0.1-0.1,0.1-0.2,0.1-0.3c0-0.1-0.1-0.2-0.1-0.3l-0.3-0.4c-0.1-0.1-0.1-0.1-0.1-0.2c0-0.1,0-0.1,0-0.1
									c0-0.1,0.1-0.1,0.1-0.1c0.1-0.1,0.1-0.1,0.2-0.1c0.1-0.1,0.1-0.1,0.3-0.1c0.1-0.1,0.2-0.1,0.3-0.1c0.1,0,0.2,0,0.3,0
									c0.1,0,0.2,0.1,0.3,0.1c0.2,0.1,0.3,0.2,0.2,0.3c-0.1,0.1-0.1,0.2-0.3,0.3l-0.1,0.1l0.7,0.4l0.3-0.2
									c0.3-0.1,0.4-0.3,0.4-0.6c0-0.1-0.1-0.3-0.1-0.3C185.3,69.5,185.2,69.3,185.1,69.3"/>
								<polyline class="st8" points="188.6,71.4 186.6,70.2 182.1,72.9 184,74 184.7,73.7 183.4,72.9 184.7,72.1 185.8,72.8 
									186.4,72.4 185.3,71.8 186.7,71 188,71.7 188.6,71.4 								"/>
								<path class="st8" d="M187.6,73.2l1.4-0.9l0.3,0.2c0.3,0.1,0.3,0.3,0.3,0.4c0,0.1-0.1,0.1-0.1,0.2c-0.1,0.1-0.2,0.1-0.3,0.2
									s-0.2,0.1-0.3,0.2s-0.2,0.1-0.3,0.1s-0.2,0-0.3,0s-0.2-0.1-0.3-0.1L187.6,73.2 M190.1,72.2l-1-0.6l-4.6,2.7l0.7,0.4l2-1.1
									l0.4,0.3l-1.4,1.5l0.7,0.4l1.4-1.6c0.3,0.1,0.7,0.1,0.9,0c0.3-0.1,0.5-0.2,0.8-0.3C190.8,73.2,190.8,72.7,190.1,72.2"/>
								<polyline class="st8" points="194,74.5 193.3,74.1 189.5,75.6 189.5,75.6 192.2,73.5 191.6,73.1 187.9,76.3 188.5,76.6 
									194,74.5 								"/>
								<polyline class="st8" points="196.4,75.9 194.4,74.7 189.8,77.4 191.8,78.5 192.4,78.2 191.1,77.4 192.5,76.6 193.6,77.3 
									194.2,77 193.1,76.3 194.4,75.5 195.7,76.2 196.4,75.9 								"/>
								<path class="st8" d="M194.8,79.5l1.5-0.9l0.3,0.2c0.1,0.1,0.2,0.1,0.3,0.2c0.1,0.1,0.1,0.1,0.1,0.2c0,0.1-0.1,0.1-0.1,0.2
									c-0.1,0.1-0.2,0.1-0.3,0.2c-0.1,0.1-0.2,0.1-0.3,0.2s-0.2,0.1-0.3,0.1c-0.1,0-0.2,0-0.3,0s-0.3-0.1-0.4-0.1L194.8,79.5
									 M196.8,78.3l1.2-0.7l0.3,0.1c0.2,0.1,0.3,0.3,0.3,0.3c0,0.1-0.1,0.2-0.3,0.3c-0.2,0.1-0.4,0.2-0.6,0.2
									c-0.2,0-0.4-0.1-0.6-0.1L196.8,78.3 M198.9,77.4l-1-0.6l-4.6,2.7l0.9,0.5c0.5,0.3,0.8,0.4,1.2,0.3c0.4,0,0.8-0.1,1.2-0.4
									l0.3-0.1c0.3-0.1,0.4-0.3,0.5-0.4c0.1-0.1,0.1-0.3,0-0.4c0.3,0.1,0.5,0.1,0.7,0c0.1,0,0.2-0.1,0.3-0.1
									c0.1-0.1,0.2-0.1,0.3-0.2l0.2-0.1c0.1-0.1,0.3-0.2,0.4-0.3c0.1-0.1,0.1-0.2,0.2-0.3c0-0.1,0-0.3-0.1-0.4
									C199.3,77.6,199.2,77.5,198.9,77.4"/>
								<path class="st8" d="M198.5,80.6l2-0.8l0,0l-1.3,1.2L198.5,80.6 M202.1,79.2l-0.5-0.3l-5.7,2.1l0.7,0.4l1.2-0.5l0.9,0.5
									l-0.8,0.7l0.7,0.4L202.1,79.2"/>
								<polyline class="st8" points="205.6,81.3 205,80.9 202.2,82.6 202.2,82.6 204,80.3 203.4,80 198.8,82.6 199.4,83 
									202.2,81.4 202.2,81.4 200.5,83.6 201.1,84 205.6,81.3 								"/>
								<polyline class="st8" points="208.6,83 207.9,82.6 204.9,83.3 204.9,83.3 206.9,82 206.2,81.6 201.7,84.3 202.3,84.7 
									203.7,83.9 204.7,83.7 203.4,85.4 204.1,85.8 205.8,83.5 208.6,83 								"/>
								<path class="st8" d="M207.3,86.9c-0.1-0.1-0.2-0.1-0.2-0.3c0-0.1,0.1-0.2,0.2-0.3l2.4-1.4c0.1-0.1,0.3-0.1,0.5-0.1
									c0.2,0,0.3,0.1,0.5,0.1s0.2,0.1,0.2,0.3c0,0.1-0.1,0.2-0.2,0.3l-2.4,1.4c-0.1,0.1-0.3,0.1-0.5,0.1
									C207.6,87,207.5,87,207.3,86.9 M211.3,84.6c-0.1-0.1-0.3-0.1-0.5-0.2c-0.2-0.1-0.4-0.1-0.6-0.1c-0.2,0-0.4,0-0.6,0.1
									c-0.2,0.1-0.4,0.1-0.6,0.3l-2.4,1.4c-0.2,0.1-0.3,0.3-0.4,0.3c-0.1,0.1-0.1,0.3-0.1,0.3c0,0.1,0.1,0.2,0.1,0.3
									c0.1,0.1,0.2,0.2,0.3,0.3s0.3,0.1,0.5,0.2s0.4,0.1,0.6,0.1c0.2,0,0.4,0,0.6-0.1c0.2-0.1,0.4-0.1,0.6-0.3l2.4-1.4
									c0.2-0.1,0.3-0.2,0.4-0.3c0.1-0.1,0.1-0.3,0.1-0.3c0-0.1-0.1-0.2-0.1-0.3C211.6,84.7,211.4,84.7,211.3,84.6"/>
								<polyline class="st8" points="215,86.7 213,85.6 208.4,88.3 209,88.6 211,87.5 212.2,88.1 212.7,87.8 211.6,87.2 213,86.3 
									214.3,87.1 215,86.7 								"/>
								<polyline class="st8" points="217.2,88.1 216.6,87.7 212,90.4 212.7,90.8 217.2,88.1 								"/>
								<polyline class="st8" points="220.2,89.8 219.5,89.4 216.8,91 216.7,91 218.5,88.8 217.9,88.4 213.3,91.1 213.9,91.5 
									216.7,89.9 216.7,89.9 215,92.1 215.6,92.4 220.2,89.8 								"/>
								<path class="st8" d="M217.5,92.8l3.3-2l0.3,0.2c0.2,0.1,0.3,0.2,0.3,0.3c0,0.1-0.1,0.2-0.3,0.3l-2.2,1.3
									c-0.2,0.1-0.4,0.2-0.5,0.2c-0.2,0-0.3-0.1-0.5-0.1L217.5,92.8 M221.7,90.6l-1-0.6l-4.6,2.7l0.9,0.5c0.4,0.3,0.8,0.3,1.2,0.3
									c0.4,0,0.8-0.1,1.2-0.4l2.1-1.2c0.4-0.2,0.6-0.5,0.6-0.7C222.3,91.1,222.1,90.9,221.7,90.6"/>
								<polyline class="st8" points="224.2,92.1 223.6,91.7 218.9,94.4 219.6,94.8 224.2,92.1 								"/>
								<path class="st8" d="M222.5,94.6l2-0.8l0,0l-1.3,1.2L222.5,94.6 M226.1,93.2l-0.5-0.3L220,95l0.7,0.4l1.2-0.5l0.9,0.5
									l-0.8,0.7l0.7,0.4L226.1,93.2"/>
							</g>
						</g>
					</g>
				</g>
			</g>
		</g>
	</g>
</g>
<g>
	<g>
		<g class="st4">
			<defs>
				<polygon id="SVGID_5_" class="st4" points="84.2,80.8 150.4,42.3 283.8,119.4 217.6,157.8 				"/>
			</defs>
			<clipPath id="SVGID_6_">
				<use xlink:href="#SVGID_5_"  style="overflow:visible;"/>
			</clipPath>
			<g class="st9">
				<g>
					<g>
						<g>
							<g>
								<defs>
									<polyline id="SVGID_7_" points="283.1,119.4 150.4,42.7 84.9,80.8 217.6,157.4 283.1,119.4 									"/>
								</defs>
								<clipPath id="SVGID_8_">
									<use xlink:href="#SVGID_7_"  style="overflow:visible;"/>
								</clipPath>
								<g class="st10">
									<defs>
										<polyline id="SVGID_9_" points="217.6,157.8 84.2,80.8 150.4,42.3 283.8,119.4 217.6,157.8 										"/>
									</defs>
									<clipPath id="SVGID_10_">
										<use xlink:href="#SVGID_9_"  style="overflow:visible;"/>
									</clipPath>
									<g style="clip-path:url(#SVGID_10_);">
										
											<image style="overflow:visible;" width="200" height="116" xlink:href="84FF605B2DC7E1F2.png"  transform="matrix(1 0 0 1 84.2246 42.3403)">
										</image>
									</g>
								</g>
							</g>
						</g>
					</g>
				</g>
			</g>
		</g>
	</g>
</g>
<polygon class="st11" points="193.7,145.8 263.2,108.6 241.9,96.4 172.4,133.6 "/>
</svg>
