<?xml version="1.0" encoding="utf-8"?>
<!-- Generator: Adobe Illustrator 24.2.0, SVG Export Plug-In . SVG Version: 6.00 Build 0)  -->
<svg version="1.1" id="Layer_1" xmlns="http://www.w3.org/2000/svg" xmlns:xlink="http://www.w3.org/1999/xlink" x="0px" y="0px"
	 viewBox="0 0 347.8 223.7" style="enable-background:new 0 0 347.8 223.7;" xml:space="preserve">
<style type="text/css">
	.st0{fill:#B5E589;}
	.st1{fill:#1BB258;}
	.st2{fill:#1E5607;}
	.st3{fill:#AF9376;}
	.st4{enable-background:new    ;}
	.st5{clip-path:url(#SVGID_2_);}
	.st6{clip-path:url(#SVGID_4_);}
	.st7{fill:#EDECC7;}
</style>
<g>
	<polygon class="st0" points="283.1,120.3 216,158.9 88.2,85.7 155.2,47 	"/>
	<polygon class="st1" points="283.1,120.3 283,138.9 216,177.5 216,158.9 	"/>
	<polygon class="st2" points="216,158.9 216,177.5 88.1,104.3 88.2,85.7 	"/>
	<polygon class="st3" points="194.5,146.6 194.4,165.3 172.8,153 172.9,134.4 	"/>
</g>
<g>
	<g>
		<g class="st4">
			<defs>
				<polygon id="SVGID_1_" class="st4" points="87.4,85.8 157.9,44.8 284.6,117.9 214.1,158.9 				"/>
			</defs>
			<clipPath id="SVGID_2_">
				<use xlink:href="#SVGID_1_"  style="overflow:visible;"/>
			</clipPath>
			<g class="st5">
				<g>
					<g>
						<g>
							<g>
								<defs>
									<polyline id="SVGID_3_" points="283.8,118 157.9,45.3 88.3,85.7 214.2,158.4 283.8,118 									"/>
								</defs>
								<clipPath id="SVGID_4_">
									<use xlink:href="#SVGID_3_"  style="overflow:visible;"/>
								</clipPath>
								<g class="st6">
									<defs>
										<polyline id="SVGID_5_" points="214.1,158.9 87.4,85.8 157.9,44.8 284.6,117.9 214.1,158.9 										"/>
									</defs>
									<clipPath id="SVGID_6_">
										<use xlink:href="#SVGID_5_"  style="overflow:visible;"/>
									</clipPath>
									<g style="clip-path:url(#SVGID_6_);">
										
											<image style="overflow:visible;" width="198" height="115" xlink:href="746FDDC387AA9A4F.jpg"  transform="matrix(1 0 0 1 87.4352 44.791)">
										</image>
									</g>
								</g>
							</g>
						</g>
					</g>
				</g>
			</g>
		</g>
	</g>
</g>
<polygon class="st7" points="194.5,146.6 264.6,109.4 243,97.1 172.9,134.4 "/>
</svg>
