<svg id="Layer_1" data-name="Layer 1" xmlns="http://www.w3.org/2000/svg" xmlns:xlink="http://www.w3.org/1999/xlink" viewBox="0 0 195.61 113.64"><defs><clipPath id="clip-path" transform="translate(-140.19 -405.18)"><polygon points="136.46 513.6 326.76 403.02 339.53 410.39 149.23 520.98 136.46 513.6" style="fill:none"/></clipPath></defs><g style="isolation:isolate"><g style="clip-path:url(#clip-path)"><path d="M155.53,509.92a14,14,0,0,0-12.72,0c-3.51,2-3.49,5.34,0,7.37a14,14,0,0,0,12.73,0c3.5-2,3.49-5.33-.05-7.37" transform="translate(-140.19 -405.18)" style="fill:#0023ff"/><path d="M180.91,495.17a14.07,14.07,0,0,0-12.73,0c-3.51,2-3.48,5.34,0,7.38a14.07,14.07,0,0,0,12.73,0c3.5-2,3.49-5.34,0-7.38" transform="translate(-140.19 -405.18)" style="fill:#0023ff"/><path d="M206.28,480.43a14,14,0,0,0-12.73,0c-3.51,2-3.48,5.34,0,7.37a14,14,0,0,0,12.73,0c3.5-2,3.49-5.33,0-7.37" transform="translate(-140.19 -405.18)" style="fill:#0023ff"/><path d="M231.65,465.68a14,14,0,0,0-12.72,0c-3.51,2-3.49,5.34,0,7.38a14,14,0,0,0,12.72,0c3.51-2,3.49-5.34,0-7.38" transform="translate(-140.19 -405.18)" style="fill:#0023ff"/><path d="M257,450.94a14,14,0,0,0-12.73,0c-3.51,2-3.49,5.34,0,7.37a14,14,0,0,0,12.73,0c3.5-2,3.49-5.33,0-7.37" transform="translate(-140.19 -405.18)" style="fill:#0023ff"/><path d="M282.4,436.19a14.07,14.07,0,0,0-12.73,0c-3.51,2-3.48,5.34,0,7.38a14.07,14.07,0,0,0,12.73,0c3.5-2,3.49-5.34,0-7.38" transform="translate(-140.19 -405.18)" style="fill:#0023ff"/><path d="M307.77,421.45a14,14,0,0,0-12.73,0c-3.5,2-3.48,5.34,0,7.37a14,14,0,0,0,12.73,0c3.5-2,3.49-5.33,0-7.37" transform="translate(-140.19 -405.18)" style="fill:#0023ff"/><path d="M333.14,406.7a14,14,0,0,0-12.72,0c-3.51,2-3.49,5.34,0,7.38a14,14,0,0,0,12.72,0c3.51-2,3.49-5.34,0-7.38" transform="translate(-140.19 -405.18)" style="fill:#0023ff"/></g></g></svg>