<svg id="Layer_1" data-name="Layer 1" xmlns="http://www.w3.org/2000/svg" xmlns:xlink="http://www.w3.org/1999/xlink" viewBox="0 0 94.05 237.86"><defs><clipPath id="clip-path" transform="translate(-64.98 -204.15)"><polygon points="64.82 444.53 65.25 214.66 159.12 201.47 158.69 431.33 64.82 444.53" style="fill:none"/></clipPath></defs><g style="isolation:isolate"><g style="clip-path:url(#clip-path)"><path d="M70.06,214l-1.75.25a4.66,4.66,0,0,1-.94,1.44,6,6,0,0,1-1.68,1.14v1.88A8.74,8.74,0,0,0,66.9,218a7.24,7.24,0,0,0,1-.83v5.5l2.15-.3V214" transform="translate(-64.98 -204.15)" style="fill:#c5c1f4"/><path d="M87.88,211.48l-1.76.25a4.5,4.5,0,0,1-.94,1.43,6.07,6.07,0,0,1-1.69,1.15v1.87a7.86,7.86,0,0,0,1.22-.67,8.82,8.82,0,0,0,1-.83v5.5l2.15-.31,0-8.39" transform="translate(-64.98 -204.15)" style="fill:#c5c1f4"/><path d="M96.85,217.18a.68.68,0,0,1-.75-.47,5.77,5.77,0,0,1-.25-2.12,6.67,6.67,0,0,1,.24-2.16,1,1,0,0,1,.76-.69.69.69,0,0,1,.77.46,5.92,5.92,0,0,1,.26,2.17,10.45,10.45,0,0,1-.12,1.67,1.74,1.74,0,0,1-.35.82.88.88,0,0,1-.56.32m.07-7a3.45,3.45,0,0,0-2.39,1.27,5.81,5.81,0,0,0-.79,3.41,9,9,0,0,0,.15,1.72,3.39,3.39,0,0,0,.43,1.19,2.17,2.17,0,0,0,1,.84,3.08,3.08,0,0,0,1.56.11,3.18,3.18,0,0,0,2.43-1.38A6.56,6.56,0,0,0,100,214a8.17,8.17,0,0,0-.21-1.89,3.19,3.19,0,0,0-.29-.81,2.57,2.57,0,0,0-.49-.62,1.84,1.84,0,0,0-.81-.42,3.08,3.08,0,0,0-1.27,0" transform="translate(-64.98 -204.15)" style="fill:#c5c1f4"/><path d="M121.78,213.68a.67.67,0,0,1-.74-.47,5.53,5.53,0,0,1-.26-2.12,6.7,6.7,0,0,1,.24-2.17,1,1,0,0,1,.76-.69.7.7,0,0,1,.77.47,5.64,5.64,0,0,1,.26,2.16,9.43,9.43,0,0,1-.11,1.67,1.89,1.89,0,0,1-.36.83.85.85,0,0,1-.56.32m.08-7a3.46,3.46,0,0,0-2.4,1.28,5.78,5.78,0,0,0-.79,3.41,8.25,8.25,0,0,0,.16,1.72,3.28,3.28,0,0,0,.42,1.19,2.18,2.18,0,0,0,1,.83,3,3,0,0,0,1.56.11,3.2,3.2,0,0,0,2.42-1.37,6.58,6.58,0,0,0,.71-3.4,8.29,8.29,0,0,0-.21-1.89,3.38,3.38,0,0,0-.28-.8,2.28,2.28,0,0,0-.5-.63,2,2,0,0,0-.81-.42,3.21,3.21,0,0,0-1.26,0" transform="translate(-64.98 -204.15)" style="fill:#c5c1f4"/><path d="M139.59,211.18a.68.68,0,0,1-.74-.48,5.44,5.44,0,0,1-.26-2.11,6.7,6.7,0,0,1,.24-2.17,1,1,0,0,1,.76-.69.71.71,0,0,1,.78.46,6.22,6.22,0,0,1,.25,2.17,8.51,8.51,0,0,1-.12,1.67,1.83,1.83,0,0,1-.35.83.87.87,0,0,1-.56.32m.08-7a3.36,3.36,0,0,0-2.39,1.28,5.68,5.68,0,0,0-.79,3.4,8.45,8.45,0,0,0,.15,1.73,3.21,3.21,0,0,0,.43,1.18,2.1,2.1,0,0,0,1,.84,3.08,3.08,0,0,0,1.56.11,3.18,3.18,0,0,0,2.43-1.38,6.54,6.54,0,0,0,.71-3.39,7.66,7.66,0,0,0-.21-1.89,3.19,3.19,0,0,0-.29-.81,2.16,2.16,0,0,0-.49-.62,1.89,1.89,0,0,0-.81-.42,3.22,3.22,0,0,0-1.26,0" transform="translate(-64.98 -204.15)" style="fill:#c5c1f4"/><path d="M68.33,235a.68.68,0,0,1-.75-.47,5.71,5.71,0,0,1-.26-2.12,6.63,6.63,0,0,1,.25-2.17,1,1,0,0,1,.76-.68.69.69,0,0,1,.77.46,5.88,5.88,0,0,1,.26,2.17,9.17,9.17,0,0,1-.12,1.66,1.89,1.89,0,0,1-.35.83.88.88,0,0,1-.56.32m.07-7A3.48,3.48,0,0,0,66,229.32a5.78,5.78,0,0,0-.79,3.41,8.28,8.28,0,0,0,.15,1.72,3.2,3.2,0,0,0,.43,1.19,2.17,2.17,0,0,0,1,.84,3.07,3.07,0,0,0,1.56.11,3.18,3.18,0,0,0,2.43-1.38,6.57,6.57,0,0,0,.7-3.39,7.67,7.67,0,0,0-.2-1.89,3.06,3.06,0,0,0-.29-.81,2.07,2.07,0,0,0-.49-.62,2,2,0,0,0-.81-.43,3.26,3.26,0,0,0-1.27,0" transform="translate(-64.98 -204.15)" style="fill:#c5c1f4"/><path d="M86.13,232.52a.69.69,0,0,1-.74-.47,5.8,5.8,0,0,1-.25-2.12,7.08,7.08,0,0,1,.23-2.17,1,1,0,0,1,.77-.69.71.71,0,0,1,.77.47,5.67,5.67,0,0,1,.25,2.16,9.43,9.43,0,0,1-.11,1.67,1.78,1.78,0,0,1-.35.83.92.92,0,0,1-.57.32m.08-7a3.44,3.44,0,0,0-2.39,1.28,5.7,5.7,0,0,0-.79,3.4,9.06,9.06,0,0,0,.15,1.73,3.33,3.33,0,0,0,.43,1.18,2.12,2.12,0,0,0,1,.84,3.08,3.08,0,0,0,1.56.11,3.24,3.24,0,0,0,2.43-1.37,6.68,6.68,0,0,0,.71-3.4,8.29,8.29,0,0,0-.21-1.89,3,3,0,0,0-.29-.8,2.28,2.28,0,0,0-.5-.63,1.85,1.85,0,0,0-.8-.42,3.27,3.27,0,0,0-1.27,0" transform="translate(-64.98 -204.15)" style="fill:#c5c1f4"/><path d="M98.54,223.81l-1.76.25a4.5,4.5,0,0,1-.94,1.43,5.86,5.86,0,0,1-1.69,1.15v1.87a7.86,7.86,0,0,0,1.22-.67,8.82,8.82,0,0,0,1-.83v5.5l2.15-.31,0-8.39" transform="translate(-64.98 -204.15)" style="fill:#c5c1f4"/><path d="M123.47,220.31l-1.76.24a4.38,4.38,0,0,1-.94,1.44,6.13,6.13,0,0,1-1.69,1.15V225a7.42,7.42,0,0,0,1.22-.67,8.06,8.06,0,0,0,1-.84V229l2.14-.3,0-8.39" transform="translate(-64.98 -204.15)" style="fill:#c5c1f4"/><path d="M132.44,226a.67.67,0,0,1-.74-.47,5.5,5.5,0,0,1-.26-2.12,6.7,6.7,0,0,1,.24-2.17,1,1,0,0,1,.76-.68.69.69,0,0,1,.77.46,5.67,5.67,0,0,1,.26,2.17,9.38,9.38,0,0,1-.11,1.66,1.89,1.89,0,0,1-.36.83.85.85,0,0,1-.56.32m.08-7a3.46,3.46,0,0,0-2.4,1.28,5.78,5.78,0,0,0-.79,3.41,9,9,0,0,0,.16,1.72,3.21,3.21,0,0,0,.42,1.19,2.26,2.26,0,0,0,1,.84,3.07,3.07,0,0,0,1.56.11,3.23,3.23,0,0,0,2.42-1.38,6.58,6.58,0,0,0,.71-3.4,8.29,8.29,0,0,0-.21-1.89,3.11,3.11,0,0,0-.29-.8,1.92,1.92,0,0,0-.49-.62,2,2,0,0,0-.81-.43,3.21,3.21,0,0,0-1.26,0" transform="translate(-64.98 -204.15)" style="fill:#c5c1f4"/><path d="M150.25,223.51a.68.68,0,0,1-.74-.48,5.44,5.44,0,0,1-.26-2.11,7,7,0,0,1,.24-2.17,1,1,0,0,1,.76-.69.71.71,0,0,1,.78.46,6.22,6.22,0,0,1,.25,2.17,8.37,8.37,0,0,1-.12,1.67,1.78,1.78,0,0,1-.35.83.87.87,0,0,1-.56.32m.08-7a3.4,3.4,0,0,0-2.39,1.28,5.7,5.7,0,0,0-.79,3.4,8.38,8.38,0,0,0,.15,1.73,3.14,3.14,0,0,0,.43,1.18,2.1,2.1,0,0,0,1,.84,3.08,3.08,0,0,0,1.56.11,3.18,3.18,0,0,0,2.43-1.38,6.51,6.51,0,0,0,.71-3.39,7.77,7.77,0,0,0-.21-1.89,3.38,3.38,0,0,0-.28-.8,2.28,2.28,0,0,0-.5-.63,1.89,1.89,0,0,0-.81-.42,3.22,3.22,0,0,0-1.26,0" transform="translate(-64.98 -204.15)" style="fill:#c5c1f4"/><path d="M70,241.65l-1.75.25a4.5,4.5,0,0,1-.94,1.43,6.13,6.13,0,0,1-1.69,1.15v1.87a7.86,7.86,0,0,0,1.22-.67,8,8,0,0,0,1-.83v5.5L70,250v-8.39" transform="translate(-64.98 -204.15)" style="fill:#c5c1f4"/><path d="M79,247.35a.68.68,0,0,1-.75-.47,5.71,5.71,0,0,1-.26-2.12,6.72,6.72,0,0,1,.25-2.17.94.94,0,0,1,.76-.67.68.68,0,0,1,.77.45,5.92,5.92,0,0,1,.26,2.17,9.38,9.38,0,0,1-.12,1.67,1.84,1.84,0,0,1-.35.82.88.88,0,0,1-.56.32m.07-7a3.4,3.4,0,0,0-2.39,1.28,5.75,5.75,0,0,0-.79,3.4,8.28,8.28,0,0,0,.15,1.72,3.2,3.2,0,0,0,.43,1.19,2.12,2.12,0,0,0,1,.84,3.07,3.07,0,0,0,1.56.11,3.18,3.18,0,0,0,2.43-1.38,6.57,6.57,0,0,0,.7-3.39,7.67,7.67,0,0,0-.2-1.89,3.19,3.19,0,0,0-.29-.81,2.35,2.35,0,0,0-.49-.62,1.84,1.84,0,0,0-.81-.42,2.92,2.92,0,0,0-1.27,0" transform="translate(-64.98 -204.15)" style="fill:#c5c1f4"/><path d="M98.51,237.64l-1.76.25a4.38,4.38,0,0,1-.94,1.44,6,6,0,0,1-1.68,1.14v1.88a10,10,0,0,0,1.22-.67,7.36,7.36,0,0,0,1-.84v5.5l2.16-.3v-8.4" transform="translate(-64.98 -204.15)" style="fill:#c5c1f4"/><path d="M123.44,234.14l-1.75.25a4.5,4.5,0,0,1-.94,1.43,5.92,5.92,0,0,1-1.69,1.15v1.87a7.56,7.56,0,0,0,1.23-.67,8.82,8.82,0,0,0,1-.83v5.5l2.15-.31v-8.39" transform="translate(-64.98 -204.15)" style="fill:#c5c1f4"/><path d="M132.42,239.85a.69.69,0,0,1-.75-.48,5.71,5.71,0,0,1-.26-2.12,6.6,6.6,0,0,1,.25-2.16.94.94,0,0,1,.76-.68.69.69,0,0,1,.77.45,5.92,5.92,0,0,1,.26,2.17,9.38,9.38,0,0,1-.12,1.67,1.84,1.84,0,0,1-.35.82.94.94,0,0,1-.56.33m.07-7a3.4,3.4,0,0,0-2.39,1.28,5.68,5.68,0,0,0-.79,3.4,8.28,8.28,0,0,0,.15,1.72,3.4,3.4,0,0,0,.42,1.19,2.19,2.19,0,0,0,1,.84,3.07,3.07,0,0,0,1.56.11,3.14,3.14,0,0,0,2.42-1.38,6.46,6.46,0,0,0,.71-3.39,8.18,8.18,0,0,0-.2-1.89,3.19,3.19,0,0,0-.3-.81,2.3,2.3,0,0,0-.48-.62,1.84,1.84,0,0,0-.81-.42,3.08,3.08,0,0,0-1.27,0" transform="translate(-64.98 -204.15)" style="fill:#c5c1f4"/><path d="M144.81,231.14l-1.75.24a4.54,4.54,0,0,1-.94,1.44,6.13,6.13,0,0,1-1.69,1.15v1.87a8,8,0,0,0,1.23-.67,7.36,7.36,0,0,0,1-.84v5.5l2.15-.3v-8.39" transform="translate(-64.98 -204.15)" style="fill:#c5c1f4"/><path d="M155.5,229.63l-1.75.25a4.54,4.54,0,0,1-.94,1.44,6.12,6.12,0,0,1-1.7,1.14v1.88a10.19,10.19,0,0,0,1.23-.67,8,8,0,0,0,1-.84v5.5l2.14-.3,0-8.4" transform="translate(-64.98 -204.15)" style="fill:#c5c1f4"/><path d="M70,255.48l-1.76.25a4.38,4.38,0,0,1-.94,1.44,6,6,0,0,1-1.68,1.14v1.88a9.17,9.17,0,0,0,1.21-.68,7.24,7.24,0,0,0,1-.83v5.5l2.15-.3,0-8.4" transform="translate(-64.98 -204.15)" style="fill:#c5c1f4"/><path d="M80.67,254l-1.75.25a4.5,4.5,0,0,1-.94,1.43,5.92,5.92,0,0,1-1.69,1.15v1.88a8.36,8.36,0,0,0,1.23-.68,8,8,0,0,0,1-.83v5.5l2.15-.3V254" transform="translate(-64.98 -204.15)" style="fill:#c5c1f4"/><path d="M91.36,252.48l-1.76.25a4.19,4.19,0,0,1-.94,1.43A6.13,6.13,0,0,1,87,255.31v1.87a8,8,0,0,0,1.23-.67,9.77,9.77,0,0,0,1-.83v5.5l2.14-.31,0-8.39" transform="translate(-64.98 -204.15)" style="fill:#c5c1f4"/><path d="M100.33,258.18a.67.67,0,0,1-.74-.47,5.5,5.5,0,0,1-.26-2.12,6.79,6.79,0,0,1,.24-2.17,1,1,0,0,1,.77-.67.67.67,0,0,1,.76.45,5.5,5.5,0,0,1,.26,2.17,9.59,9.59,0,0,1-.11,1.67,1.84,1.84,0,0,1-.36.82.85.85,0,0,1-.56.32m.08-7a3.43,3.43,0,0,0-2.4,1.28,5.82,5.82,0,0,0-.79,3.4,9,9,0,0,0,.16,1.72,3.21,3.21,0,0,0,.42,1.19,2.2,2.2,0,0,0,1,.84,3.07,3.07,0,0,0,1.56.11,3.18,3.18,0,0,0,2.42-1.38,6.56,6.56,0,0,0,.71-3.39,8.76,8.76,0,0,0-.2-1.89,3.63,3.63,0,0,0-.29-.81,2.24,2.24,0,0,0-.5-.62,1.8,1.8,0,0,0-.8-.42,2.92,2.92,0,0,0-1.27,0" transform="translate(-64.98 -204.15)" style="fill:#c5c1f4"/><path d="M125.27,254.68a.68.68,0,0,1-.75-.47,5.59,5.59,0,0,1-.25-2.12,7.08,7.08,0,0,1,.23-2.17,1,1,0,0,1,.76-.68.7.7,0,0,1,.78.46,5.7,5.7,0,0,1,.25,2.16,8.55,8.55,0,0,1-.11,1.67,2,2,0,0,1-.35.83.85.85,0,0,1-.56.32m.08-7A3.42,3.42,0,0,0,123,249a5.78,5.78,0,0,0-.79,3.41,8.28,8.28,0,0,0,.15,1.72,3.14,3.14,0,0,0,.43,1.18,2.07,2.07,0,0,0,1,.84,3,3,0,0,0,1.56.11,3.2,3.2,0,0,0,2.43-1.37,6.68,6.68,0,0,0,.71-3.4,7.77,7.77,0,0,0-.22-1.89,3.12,3.12,0,0,0-.28-.8,2.24,2.24,0,0,0-.49-.63,2,2,0,0,0-.81-.42,3.22,3.22,0,0,0-1.26,0" transform="translate(-64.98 -204.15)" style="fill:#c5c1f4"/><path d="M137.67,246l-1.76.25a4.51,4.51,0,0,1-.95,1.44,6,6,0,0,1-1.68,1.14v1.88a8.74,8.74,0,0,0,1.22-.68,8.63,8.63,0,0,0,1-.83v5.5l2.15-.3,0-8.4" transform="translate(-64.98 -204.15)" style="fill:#c5c1f4"/><path d="M148.35,244.47l-1.75.25a4.53,4.53,0,0,1-.95,1.43A6,6,0,0,1,144,247.3v1.87a8.51,8.51,0,0,0,1.23-.67,9.77,9.77,0,0,0,1-.83v5.5l2.15-.31v-8.39" transform="translate(-64.98 -204.15)" style="fill:#c5c1f4"/><path d="M159,243l-1.76.24a4.54,4.54,0,0,1-.94,1.44,6.29,6.29,0,0,1-1.69,1.15v1.87a8.51,8.51,0,0,0,1.23-.67,9.73,9.73,0,0,0,1-.84v5.5l2.14-.3,0-8.39" transform="translate(-64.98 -204.15)" style="fill:#c5c1f4"/><path d="M68.25,276.52a.67.67,0,0,1-.74-.47,5.3,5.3,0,0,1-.26-2.12,6.74,6.74,0,0,1,.24-2.17,1,1,0,0,1,.76-.68.7.7,0,0,1,.78.46,6,6,0,0,1,.25,2.17,8.32,8.32,0,0,1-.12,1.66,1.84,1.84,0,0,1-.35.83.85.85,0,0,1-.56.32m.08-7a3.43,3.43,0,0,0-2.4,1.27,5.81,5.81,0,0,0-.79,3.41A8.25,8.25,0,0,0,65.3,276a3,3,0,0,0,.42,1.19,2.17,2.17,0,0,0,1,.84,3.08,3.08,0,0,0,1.56.11,3.18,3.18,0,0,0,2.43-1.38,6.66,6.66,0,0,0,.71-3.39,7.66,7.66,0,0,0-.21-1.89,3.06,3.06,0,0,0-.28-.81,2.1,2.1,0,0,0-.5-.62,2,2,0,0,0-.81-.43,3.06,3.06,0,0,0-1.26,0" transform="translate(-64.98 -204.15)" style="fill:#c5c1f4"/><path d="M78.94,275a.68.68,0,0,1-.75-.47,5.71,5.71,0,0,1-.26-2.12,6.36,6.36,0,0,1,.25-2.17.94.94,0,0,1,.76-.68.69.69,0,0,1,.77.46,5.88,5.88,0,0,1,.26,2.17,10.2,10.2,0,0,1-.12,1.66,1.89,1.89,0,0,1-.35.83.88.88,0,0,1-.56.32m.07-7a3.44,3.44,0,0,0-2.39,1.28,5.78,5.78,0,0,0-.8,3.41,9,9,0,0,0,.16,1.72,3.48,3.48,0,0,0,.42,1.19,2.32,2.32,0,0,0,1,.84,3,3,0,0,0,1.56.1,3.2,3.2,0,0,0,2.43-1.37,6.59,6.59,0,0,0,.7-3.4,8.3,8.3,0,0,0-.2-1.89,3.11,3.11,0,0,0-.29-.8,2.24,2.24,0,0,0-.49-.62,2,2,0,0,0-.81-.43A3.26,3.26,0,0,0,79,268" transform="translate(-64.98 -204.15)" style="fill:#c5c1f4"/><path d="M91.33,266.31l-1.75.25a4.66,4.66,0,0,1-.94,1.44A5.91,5.91,0,0,1,87,269.14V271a8.36,8.36,0,0,0,1.23-.68,7.24,7.24,0,0,0,1-.83V275l2.15-.3v-8.4" transform="translate(-64.98 -204.15)" style="fill:#c5c1f4"/><path d="M100.31,272a.69.69,0,0,1-.75-.48,5.64,5.64,0,0,1-.26-2.11,6.92,6.92,0,0,1,.25-2.17,1,1,0,0,1,.76-.69.7.7,0,0,1,.77.46,5.92,5.92,0,0,1,.26,2.17,8.51,8.51,0,0,1-.12,1.67,1.94,1.94,0,0,1-.35.83.92.92,0,0,1-.56.32m.07-7A3.4,3.4,0,0,0,98,266.32a5.75,5.75,0,0,0-.79,3.4,9.21,9.21,0,0,0,.15,1.73,3.14,3.14,0,0,0,.43,1.18,2.17,2.17,0,0,0,1,.84,3.07,3.07,0,0,0,1.56.11,3.14,3.14,0,0,0,2.42-1.38,6.44,6.44,0,0,0,.71-3.39,7.72,7.72,0,0,0-.2-1.89,3.19,3.19,0,0,0-.29-.81,2.35,2.35,0,0,0-.49-.62,2,2,0,0,0-.81-.42,3.26,3.26,0,0,0-1.27,0" transform="translate(-64.98 -204.15)" style="fill:#c5c1f4"/><path d="M125.24,268.51a.69.69,0,0,1-.75-.47,5.77,5.77,0,0,1-.25-2.12,6.7,6.7,0,0,1,.24-2.17,1,1,0,0,1,.76-.68.69.69,0,0,1,.77.46,5.7,5.7,0,0,1,.26,2.17,9.38,9.38,0,0,1-.12,1.67,1.84,1.84,0,0,1-.34.82.9.9,0,0,1-.57.32m.08-7a3.45,3.45,0,0,0-2.4,1.27,5.88,5.88,0,0,0-.79,3.41,9,9,0,0,0,.15,1.72,3.6,3.6,0,0,0,.43,1.19,2.2,2.2,0,0,0,1,.84,3,3,0,0,0,1.55.11,3.18,3.18,0,0,0,2.43-1.38,6.56,6.56,0,0,0,.71-3.39,8.17,8.17,0,0,0-.21-1.89,3.19,3.19,0,0,0-.29-.81,2.07,2.07,0,0,0-.49-.62,1.92,1.92,0,0,0-.8-.43,3.11,3.11,0,0,0-1.27,0" transform="translate(-64.98 -204.15)" style="fill:#c5c1f4"/><path d="M144.76,258.8l-1.75.25a4.54,4.54,0,0,1-.94,1.44,5.91,5.91,0,0,1-1.69,1.14v1.88a8.91,8.91,0,0,0,1.23-.68,7.24,7.24,0,0,0,1-.83v5.5l2.15-.3v-8.4" transform="translate(-64.98 -204.15)" style="fill:#c5c1f4"/><path d="M153.74,264.51A.69.69,0,0,1,153,264a5.64,5.64,0,0,1-.26-2.11,6.63,6.63,0,0,1,.25-2.17,1,1,0,0,1,.76-.69.7.7,0,0,1,.77.47,5.82,5.82,0,0,1,.26,2.16,9.29,9.29,0,0,1-.12,1.67,1.89,1.89,0,0,1-.35.83.92.92,0,0,1-.56.32m.07-7a3.4,3.4,0,0,0-2.39,1.28,5.77,5.77,0,0,0-.79,3.4,8.32,8.32,0,0,0,.15,1.73,3.14,3.14,0,0,0,.43,1.18,2.17,2.17,0,0,0,1,.84,3.06,3.06,0,0,0,1.56.11,3.14,3.14,0,0,0,2.42-1.38,6.41,6.41,0,0,0,.71-3.39,8.3,8.3,0,0,0-.2-1.89,3.35,3.35,0,0,0-.3-.8,2.2,2.2,0,0,0-.48-.63,2,2,0,0,0-.81-.42,3.26,3.26,0,0,0-1.27,0" transform="translate(-64.98 -204.15)" style="fill:#c5c1f4"/><path d="M68.22,290.36a.69.69,0,0,1-.74-.48,5.44,5.44,0,0,1-.26-2.11,6.7,6.7,0,0,1,.24-2.17,1,1,0,0,1,.77-.69.7.7,0,0,1,.77.46,5.76,5.76,0,0,1,.25,2.17,9.59,9.59,0,0,1-.11,1.67,1.94,1.94,0,0,1-.35.83,1,1,0,0,1-.57.32m.08-7a3.43,3.43,0,0,0-2.4,1.28,5.82,5.82,0,0,0-.79,3.4,9.17,9.17,0,0,0,.16,1.73,3.41,3.41,0,0,0,.42,1.18,2.25,2.25,0,0,0,1,.84,3.07,3.07,0,0,0,1.56.11,3.21,3.21,0,0,0,2.43-1.38,6.65,6.65,0,0,0,.7-3.39,8.18,8.18,0,0,0-.2-1.89,3.19,3.19,0,0,0-.29-.81,2.39,2.39,0,0,0-.5-.62,1.91,1.91,0,0,0-.8-.42,3.27,3.27,0,0,0-1.27,0" transform="translate(-64.98 -204.15)" style="fill:#c5c1f4"/><path d="M80.62,281.65l-1.75.24a4.54,4.54,0,0,1-.94,1.44,6.29,6.29,0,0,1-1.69,1.15v1.87a7.56,7.56,0,0,0,1.23-.67,8.82,8.82,0,0,0,1-.83v5.49l2.15-.3v-8.39" transform="translate(-64.98 -204.15)" style="fill:#c5c1f4"/><path d="M98.44,279.14l-1.77.25a4.23,4.23,0,0,1-.94,1.44A6,6,0,0,1,94.05,282v1.88a10.8,10.8,0,0,0,1.22-.67,8.78,8.78,0,0,0,1-.84v5.5l2.15-.3,0-8.4" transform="translate(-64.98 -204.15)" style="fill:#c5c1f4"/><path d="M123.36,275.64l-1.75.25a4.34,4.34,0,0,1-.94,1.43,5.92,5.92,0,0,1-1.69,1.15v1.88a8.74,8.74,0,0,0,1.22-.68,8,8,0,0,0,1-.83v5.5l2.15-.3v-8.4" transform="translate(-64.98 -204.15)" style="fill:#c5c1f4"/><path d="M132.34,281.35a.67.67,0,0,1-.74-.48,5.24,5.24,0,0,1-.26-2.11,6.7,6.7,0,0,1,.24-2.17,1,1,0,0,1,.76-.69.7.7,0,0,1,.77.46,5.7,5.7,0,0,1,.26,2.17,8.51,8.51,0,0,1-.12,1.67,1.84,1.84,0,0,1-.35.82.91.91,0,0,1-.56.33m.08-7a3.41,3.41,0,0,0-2.4,1.28,5.75,5.75,0,0,0-.79,3.4,8.42,8.42,0,0,0,.16,1.73,3,3,0,0,0,.42,1.18,2.17,2.17,0,0,0,1,.84,3.08,3.08,0,0,0,1.56.11,3.18,3.18,0,0,0,2.43-1.38,6.66,6.66,0,0,0,.71-3.39,8.17,8.17,0,0,0-.21-1.89,3.19,3.19,0,0,0-.29-.81,2.16,2.16,0,0,0-.49-.62,1.84,1.84,0,0,0-.81-.42,3.22,3.22,0,0,0-1.26,0" transform="translate(-64.98 -204.15)" style="fill:#c5c1f4"/><path d="M144.74,272.64l-1.76.24a4.38,4.38,0,0,1-.94,1.44,6.13,6.13,0,0,1-1.69,1.15v1.87a7.86,7.86,0,0,0,1.22-.67,7.36,7.36,0,0,0,1-.84v5.5l2.15-.3,0-8.39" transform="translate(-64.98 -204.15)" style="fill:#c5c1f4"/><path d="M153.71,278.34a.67.67,0,0,1-.74-.47,5.5,5.5,0,0,1-.26-2.12,6.7,6.7,0,0,1,.24-2.17,1,1,0,0,1,.76-.68.69.69,0,0,1,.77.46,5.67,5.67,0,0,1,.26,2.17,9.38,9.38,0,0,1-.11,1.66,1.89,1.89,0,0,1-.36.83.85.85,0,0,1-.56.32m.08-7a3.44,3.44,0,0,0-2.4,1.28,5.78,5.78,0,0,0-.79,3.41,8.25,8.25,0,0,0,.16,1.72,3.21,3.21,0,0,0,.42,1.19,2.3,2.3,0,0,0,1,.84,3.11,3.11,0,0,0,1.57.11,3.23,3.23,0,0,0,2.42-1.38,6.58,6.58,0,0,0,.71-3.4,8.29,8.29,0,0,0-.21-1.89,3.53,3.53,0,0,0-.29-.8,2.07,2.07,0,0,0-.49-.62,2,2,0,0,0-.81-.43,3.21,3.21,0,0,0-1.26,0" transform="translate(-64.98 -204.15)" style="fill:#c5c1f4"/><path d="M69.91,297l-1.75.25a4.54,4.54,0,0,1-.94,1.44,6.21,6.21,0,0,1-1.69,1.14v1.88a8.74,8.74,0,0,0,1.22-.68,7.88,7.88,0,0,0,1-.83v5.5l2.14-.3,0-8.4" transform="translate(-64.98 -204.15)" style="fill:#c5c1f4"/><path d="M80.6,295.48l-1.76.25a4.34,4.34,0,0,1-.94,1.43,5.72,5.72,0,0,1-1.69,1.15v1.88a8.74,8.74,0,0,0,1.22-.68,8,8,0,0,0,1-.83v5.5l2.15-.3,0-8.4" transform="translate(-64.98 -204.15)" style="fill:#c5c1f4"/><path d="M91.28,294l-1.75.25a4.5,4.5,0,0,1-.94,1.43,6.29,6.29,0,0,1-1.69,1.15v1.87a7.56,7.56,0,0,0,1.23-.67,8.82,8.82,0,0,0,1-.83v5.5l2.15-.31V294" transform="translate(-64.98 -204.15)" style="fill:#c5c1f4"/><path d="M102,292.48l-1.76.24a4.38,4.38,0,0,1-.94,1.44,6.13,6.13,0,0,1-1.69,1.15v1.87a7.86,7.86,0,0,0,1.22-.67,8.06,8.06,0,0,0,1-.84l0,5.5,2.15-.3,0-8.39" transform="translate(-64.98 -204.15)" style="fill:#c5c1f4"/><path d="M125.19,296.18a.69.69,0,0,1-.75-.47,5.8,5.8,0,0,1-.25-2.12,7.08,7.08,0,0,1,.23-2.17,1,1,0,0,1,.77-.69.7.7,0,0,1,.77.47,5.53,5.53,0,0,1,.25,2.17,8.49,8.49,0,0,1-.11,1.66,1.78,1.78,0,0,1-.35.83.85.85,0,0,1-.56.32m.08-7a3.44,3.44,0,0,0-2.4,1.28,5.78,5.78,0,0,0-.79,3.41,9,9,0,0,0,.15,1.72,3.33,3.33,0,0,0,.43,1.18,2.14,2.14,0,0,0,1,.84,2.92,2.92,0,0,0,1.55.11,3.2,3.2,0,0,0,2.43-1.37,6.58,6.58,0,0,0,.71-3.4,8.29,8.29,0,0,0-.21-1.89,3.11,3.11,0,0,0-.29-.8,2.24,2.24,0,0,0-.49-.63,1.89,1.89,0,0,0-.81-.42,3.21,3.21,0,0,0-1.26,0" transform="translate(-64.98 -204.15)" style="fill:#c5c1f4"/><path d="M137.59,287.47l-1.75.25a4.87,4.87,0,0,1-1,1.44,5.91,5.91,0,0,1-1.69,1.14v1.88a7.43,7.43,0,0,0,2.24-1.51v5.5l2.14-.3,0-8.4" transform="translate(-64.98 -204.15)" style="fill:#c5c1f4"/><path d="M146.56,293.18a.7.7,0,0,1-.75-.48,5.7,5.7,0,0,1-.25-2.11,6.7,6.7,0,0,1,.24-2.17,1,1,0,0,1,.76-.69.7.7,0,0,1,.77.46,5.7,5.7,0,0,1,.26,2.17,8.51,8.51,0,0,1-.12,1.67,1.94,1.94,0,0,1-.34.83,1,1,0,0,1-.57.32m.08-7a3.43,3.43,0,0,0-2.4,1.28,5.82,5.82,0,0,0-.79,3.4,9.21,9.21,0,0,0,.15,1.73,3.62,3.62,0,0,0,.43,1.18,2.2,2.2,0,0,0,1,.84,3,3,0,0,0,1.55.11,3.18,3.18,0,0,0,2.43-1.38,6.54,6.54,0,0,0,.71-3.39,8.17,8.17,0,0,0-.21-1.89,3.19,3.19,0,0,0-.29-.81,2.35,2.35,0,0,0-.49-.62,1.8,1.8,0,0,0-.8-.42,3.28,3.28,0,0,0-1.27,0" transform="translate(-64.98 -204.15)" style="fill:#c5c1f4"/><path d="M159,284.47l-1.75.24a4.75,4.75,0,0,1-1,1.44,6.22,6.22,0,0,1-1.68,1.15v1.87a8.51,8.51,0,0,0,1.23-.67,8.78,8.78,0,0,0,1-.84v5.5l2.15-.3v-8.39" transform="translate(-64.98 -204.15)" style="fill:#c5c1f4"/><path d="M68.17,318a.67.67,0,0,1-.74-.47,5.5,5.5,0,0,1-.26-2.12,6.79,6.79,0,0,1,.24-2.17,1,1,0,0,1,.76-.67A.69.69,0,0,1,69,313a6,6,0,0,1,.25,2.17,9.38,9.38,0,0,1-.11,1.66,1.83,1.83,0,0,1-.36.83.85.85,0,0,1-.56.32m.08-7a3.45,3.45,0,0,0-2.4,1.27,5.81,5.81,0,0,0-.79,3.41,9,9,0,0,0,.16,1.72,3.21,3.21,0,0,0,.42,1.19,2.2,2.2,0,0,0,1,.84,3.07,3.07,0,0,0,1.56.11,3.21,3.21,0,0,0,2.43-1.38,6.67,6.67,0,0,0,.7-3.39,8.18,8.18,0,0,0-.2-1.89,3.45,3.45,0,0,0-.29-.81,2.1,2.1,0,0,0-.5-.62,1.79,1.79,0,0,0-.81-.42,2.87,2.87,0,0,0-1.26,0" transform="translate(-64.98 -204.15)" style="fill:#c5c1f4"/><path d="M87.7,308.31l-1.76.25A4.54,4.54,0,0,1,85,310a6.06,6.06,0,0,1-1.69,1.14V313a8.74,8.74,0,0,0,1.22-.68,7.88,7.88,0,0,0,1-.83V317l2.15-.3,0-8.4" transform="translate(-64.98 -204.15)" style="fill:#c5c1f4"/><path d="M96.67,314a.7.7,0,0,1-.75-.48,5.7,5.7,0,0,1-.25-2.11,6.7,6.7,0,0,1,.24-2.17,1,1,0,0,1,.76-.68.69.69,0,0,1,.77.45,5.92,5.92,0,0,1,.26,2.17,10.24,10.24,0,0,1-.12,1.67,1.83,1.83,0,0,1-.35.83.92.92,0,0,1-.56.32m.07-7a3.42,3.42,0,0,0-2.39,1.28,5.77,5.77,0,0,0-.79,3.4,9.14,9.14,0,0,0,.15,1.73,3.33,3.33,0,0,0,.43,1.18,2.12,2.12,0,0,0,1,.84,3.08,3.08,0,0,0,1.56.11,3.18,3.18,0,0,0,2.43-1.38,6.54,6.54,0,0,0,.71-3.39,8.23,8.23,0,0,0-.21-1.89,3.19,3.19,0,0,0-.29-.81,2.57,2.57,0,0,0-.49-.62,2,2,0,0,0-.81-.42,3.26,3.26,0,0,0-1.27,0" transform="translate(-64.98 -204.15)" style="fill:#c5c1f4"/><path d="M123.31,303.31l-1.75.24a4.54,4.54,0,0,1-.94,1.44,6.13,6.13,0,0,1-1.69,1.15V308a7.56,7.56,0,0,0,1.23-.67,7.36,7.36,0,0,0,1-.84V312l2.15-.3v-8.39" transform="translate(-64.98 -204.15)" style="fill:#c5c1f4"/><path d="M132.29,309a.68.68,0,0,1-.75-.47,5.71,5.71,0,0,1-.26-2.12,6.92,6.92,0,0,1,.25-2.17.92.92,0,0,1,.76-.67.68.68,0,0,1,.77.45,5.88,5.88,0,0,1,.26,2.17,8.32,8.32,0,0,1-.12,1.66,1.89,1.89,0,0,1-.35.83.88.88,0,0,1-.56.32m.08-7a3.48,3.48,0,0,0-2.4,1.28,5.78,5.78,0,0,0-.79,3.41,9,9,0,0,0,.15,1.72,3.2,3.2,0,0,0,.43,1.19,2.17,2.17,0,0,0,1,.84,3.07,3.07,0,0,0,1.56.11,3.17,3.17,0,0,0,2.42-1.38,6.55,6.55,0,0,0,.72-3.39,8.17,8.17,0,0,0-.21-1.89,3.06,3.06,0,0,0-.29-.81,2.07,2.07,0,0,0-.49-.62,2,2,0,0,0-.81-.43,3.22,3.22,0,0,0-1.26,0" transform="translate(-64.98 -204.15)" style="fill:#c5c1f4"/><path d="M151.81,299.3l-1.76.25a4.38,4.38,0,0,1-.94,1.44,6,6,0,0,1-1.68,1.14V304a9.17,9.17,0,0,0,1.21-.68,7.24,7.24,0,0,0,1-.83V308l2.16-.3v-8.4" transform="translate(-64.98 -204.15)" style="fill:#c5c1f4"/><path d="M69.86,324.65l-1.76.25a4.19,4.19,0,0,1-.94,1.43,6,6,0,0,1-1.68,1.15v1.87a8.35,8.35,0,0,0,1.22-.67,9.77,9.77,0,0,0,1-.83v5.5l2.14-.31,0-8.39" transform="translate(-64.98 -204.15)" style="fill:#c5c1f4"/><path d="M80.54,323.15l-1.75.24a4.54,4.54,0,0,1-.94,1.44A6.13,6.13,0,0,1,76.16,326v1.87a7.56,7.56,0,0,0,1.23-.67,8,8,0,0,0,1-.83v5.49l2.15-.3v-8.39" transform="translate(-64.98 -204.15)" style="fill:#c5c1f4"/><path d="M89.52,328.85a.68.68,0,0,1-.75-.47,5.71,5.71,0,0,1-.26-2.12,7,7,0,0,1,.25-2.17.94.94,0,0,1,.76-.67.68.68,0,0,1,.77.45,5.92,5.92,0,0,1,.26,2.17,8.32,8.32,0,0,1-.12,1.66,1.84,1.84,0,0,1-.35.83.85.85,0,0,1-.56.32m.08-7a3.43,3.43,0,0,0-2.4,1.27,5.81,5.81,0,0,0-.79,3.41,9,9,0,0,0,.15,1.72,3.2,3.2,0,0,0,.43,1.19,2.17,2.17,0,0,0,1,.84,3.08,3.08,0,0,0,1.56.11A3.14,3.14,0,0,0,91.94,329a6.55,6.55,0,0,0,.72-3.39,8.17,8.17,0,0,0-.21-1.89,3.06,3.06,0,0,0-.29-.81,2.07,2.07,0,0,0-.49-.62,2,2,0,0,0-.81-.43,3.06,3.06,0,0,0-1.26,0" transform="translate(-64.98 -204.15)" style="fill:#c5c1f4"/><path d="M100.2,327.35a.68.68,0,0,1-.74-.47,5.71,5.71,0,0,1-.26-2.12,6.7,6.7,0,0,1,.24-2.17,1,1,0,0,1,.77-.68.68.68,0,0,1,.76.46,5.47,5.47,0,0,1,.26,2.17,9.38,9.38,0,0,1-.11,1.66,1.89,1.89,0,0,1-.35.83.87.87,0,0,1-.57.32m.08-7a3.46,3.46,0,0,0-2.4,1.28,5.86,5.86,0,0,0-.79,3.41,9,9,0,0,0,.16,1.72,3.48,3.48,0,0,0,.42,1.19,2.32,2.32,0,0,0,1,.84,3,3,0,0,0,1.56.1,3.18,3.18,0,0,0,2.42-1.37,6.58,6.58,0,0,0,.71-3.4,8.9,8.9,0,0,0-.2-1.89,3.11,3.11,0,0,0-.29-.8,2.24,2.24,0,0,0-.49-.62,2,2,0,0,0-.81-.43,3.27,3.27,0,0,0-1.27,0" transform="translate(-64.98 -204.15)" style="fill:#c5c1f4"/><path d="M125.14,323.85a.69.69,0,0,1-.75-.48,5.49,5.49,0,0,1-.25-2.11,7.08,7.08,0,0,1,.23-2.17,1,1,0,0,1,.77-.68.69.69,0,0,1,.77.45,5.56,5.56,0,0,1,.25,2.17,8.68,8.68,0,0,1-.11,1.67,1.94,1.94,0,0,1-.35.83.9.9,0,0,1-.56.32m.08-7a3.38,3.38,0,0,0-2.4,1.28,5.75,5.75,0,0,0-.79,3.4,9.21,9.21,0,0,0,.15,1.73,3.4,3.4,0,0,0,.43,1.18,2.12,2.12,0,0,0,1,.84,3.08,3.08,0,0,0,1.56.11,3.18,3.18,0,0,0,2.43-1.38,6.54,6.54,0,0,0,.71-3.39,8.17,8.17,0,0,0-.21-1.89,3.63,3.63,0,0,0-.29-.81,2.35,2.35,0,0,0-.49-.62,2,2,0,0,0-.81-.42,3.21,3.21,0,0,0-1.26,0" transform="translate(-64.98 -204.15)" style="fill:#c5c1f4"/><path d="M137.54,315.14l-1.76.24a4.43,4.43,0,0,1-.94,1.44,6.29,6.29,0,0,1-1.69,1.15v1.87a8.51,8.51,0,0,0,1.23-.67,11,11,0,0,0,1-.83v5.49l2.14-.3,0-8.39" transform="translate(-64.98 -204.15)" style="fill:#c5c1f4"/><path d="M146.51,320.84a.69.69,0,0,1-.75-.47,5.77,5.77,0,0,1-.25-2.12,7.13,7.13,0,0,1,.23-2.17,1,1,0,0,1,.77-.67.68.68,0,0,1,.77.45,5.7,5.7,0,0,1,.26,2.17,9.38,9.38,0,0,1-.12,1.67,1.74,1.74,0,0,1-.35.82.85.85,0,0,1-.56.32m.08-7a3.43,3.43,0,0,0-2.4,1.27,5.81,5.81,0,0,0-.79,3.41,9,9,0,0,0,.15,1.72,3.39,3.39,0,0,0,.43,1.19,2.2,2.2,0,0,0,1,.84,3,3,0,0,0,1.55.11,3.18,3.18,0,0,0,2.43-1.38,6.56,6.56,0,0,0,.71-3.39,8.17,8.17,0,0,0-.21-1.89,3.19,3.19,0,0,0-.29-.81,2.07,2.07,0,0,0-.49-.62,1.92,1.92,0,0,0-.8-.43,3.12,3.12,0,0,0-1.27,0" transform="translate(-64.98 -204.15)" style="fill:#c5c1f4"/><path d="M158.91,312.13l-1.75.25a4.75,4.75,0,0,1-.95,1.44,5.91,5.91,0,0,1-1.69,1.14v1.88a11,11,0,0,0,1.23-.67,9.73,9.73,0,0,0,1-.84v5.5l2.14-.3,0-8.4" transform="translate(-64.98 -204.15)" style="fill:#c5c1f4"/><path d="M69.83,338.48l-1.75.25a4.54,4.54,0,0,1-.94,1.44,5.91,5.91,0,0,1-1.69,1.14v1.88a8.74,8.74,0,0,0,1.22-.68,7.24,7.24,0,0,0,1-.83v5.5l2.15-.3v-8.4" transform="translate(-64.98 -204.15)" style="fill:#c5c1f4"/><path d="M87.65,336l-1.76.25a4.5,4.5,0,0,1-.94,1.43,6.22,6.22,0,0,1-1.69,1.15v1.87a7.86,7.86,0,0,0,1.22-.67,8.82,8.82,0,0,0,1-.83v5.5l2.15-.31,0-8.39" transform="translate(-64.98 -204.15)" style="fill:#c5c1f4"/><path d="M96.61,341.69a.69.69,0,0,1-.74-.48,5.77,5.77,0,0,1-.25-2.12,7.05,7.05,0,0,1,.23-2.16,1,1,0,0,1,.77-.69.7.7,0,0,1,.77.46,5.76,5.76,0,0,1,.25,2.17,9.59,9.59,0,0,1-.11,1.67,1.74,1.74,0,0,1-.35.82.93.93,0,0,1-.57.33m.08-7A3.4,3.4,0,0,0,94.3,336a5.68,5.68,0,0,0-.79,3.4,9.21,9.21,0,0,0,.15,1.73,3.4,3.4,0,0,0,.43,1.18,2.17,2.17,0,0,0,1,.84,3.08,3.08,0,0,0,1.56.11,3.21,3.21,0,0,0,2.43-1.38,6.66,6.66,0,0,0,.71-3.39,8.17,8.17,0,0,0-.21-1.89,3.19,3.19,0,0,0-.29-.81,2.39,2.39,0,0,0-.5-.62,1.75,1.75,0,0,0-.8-.42,3.27,3.27,0,0,0-1.27,0" transform="translate(-64.98 -204.15)" style="fill:#c5c1f4"/><path d="M121.55,338.18a.67.67,0,0,1-.74-.47,5.3,5.3,0,0,1-.26-2.12,6.7,6.7,0,0,1,.24-2.17.94.94,0,0,1,.76-.68.69.69,0,0,1,.77.46,5.67,5.67,0,0,1,.26,2.17,9.38,9.38,0,0,1-.11,1.66,1.89,1.89,0,0,1-.36.83.85.85,0,0,1-.56.32m.08-7a3.44,3.44,0,0,0-2.4,1.28,5.78,5.78,0,0,0-.79,3.41,8.25,8.25,0,0,0,.16,1.72,3.28,3.28,0,0,0,.42,1.19,2.24,2.24,0,0,0,1,.84,3,3,0,0,0,1.57.1,3.2,3.2,0,0,0,2.42-1.37,6.58,6.58,0,0,0,.71-3.4,8.29,8.29,0,0,0-.21-1.89,3.55,3.55,0,0,0-.28-.8,2.1,2.1,0,0,0-.5-.62,2,2,0,0,0-.81-.43,3.22,3.22,0,0,0-1.26,0" transform="translate(-64.98 -204.15)" style="fill:#c5c1f4"/><path d="M139.36,335.68a.7.7,0,0,1-.75-.48,5.7,5.7,0,0,1-.25-2.11,6.7,6.7,0,0,1,.24-2.17,1,1,0,0,1,.76-.69.72.72,0,0,1,.78.46,6.22,6.22,0,0,1,.25,2.17,8.51,8.51,0,0,1-.12,1.67,1.83,1.83,0,0,1-.35.83.9.9,0,0,1-.56.32m.07-7a3.36,3.36,0,0,0-2.38,1.28,5.76,5.76,0,0,0-.8,3.4,9.14,9.14,0,0,0,.15,1.73,3.53,3.53,0,0,0,.43,1.18,2.17,2.17,0,0,0,1,.84,3.08,3.08,0,0,0,1.56.11,3.18,3.18,0,0,0,2.43-1.38,6.54,6.54,0,0,0,.71-3.39,8.17,8.17,0,0,0-.21-1.89,3.19,3.19,0,0,0-.29-.81,2.35,2.35,0,0,0-.49-.62,1.89,1.89,0,0,0-.81-.42,3.26,3.26,0,0,0-1.27,0" transform="translate(-64.98 -204.15)" style="fill:#c5c1f4"/><path d="M68.1,359.52a.68.68,0,0,1-.75-.47,5.71,5.71,0,0,1-.26-2.12,6.44,6.44,0,0,1,.25-2.17,1,1,0,0,1,.76-.68.69.69,0,0,1,.77.46,5.92,5.92,0,0,1,.26,2.17,10.2,10.2,0,0,1-.12,1.66,1.84,1.84,0,0,1-.35.83.88.88,0,0,1-.56.32m.07-7a3.43,3.43,0,0,0-2.39,1.27,5.8,5.8,0,0,0-.8,3.41,9,9,0,0,0,.16,1.72,3.4,3.4,0,0,0,.42,1.19,2.25,2.25,0,0,0,1,.84,3.07,3.07,0,0,0,1.56.11,3.18,3.18,0,0,0,2.43-1.38,6.57,6.57,0,0,0,.7-3.39,8.18,8.18,0,0,0-.2-1.89,3.06,3.06,0,0,0-.29-.81,2.24,2.24,0,0,0-.49-.62,1.84,1.84,0,0,0-.81-.42,2.92,2.92,0,0,0-1.27,0" transform="translate(-64.98 -204.15)" style="fill:#c5c1f4"/><path d="M85.9,357a.68.68,0,0,1-.74-.47,5.59,5.59,0,0,1-.25-2.12,7.08,7.08,0,0,1,.23-2.17,1,1,0,0,1,.76-.69.72.72,0,0,1,.78.47,5.7,5.7,0,0,1,.25,2.16,9.43,9.43,0,0,1-.11,1.67,1.78,1.78,0,0,1-.36.83.83.83,0,0,1-.56.32m.08-7a3.42,3.42,0,0,0-2.39,1.28,5.71,5.71,0,0,0-.79,3.41,9,9,0,0,0,.15,1.72,3.33,3.33,0,0,0,.43,1.18,2.15,2.15,0,0,0,1,.85,3.09,3.09,0,0,0,1.56.1,3.24,3.24,0,0,0,2.43-1.37,6.68,6.68,0,0,0,.71-3.4,8.29,8.29,0,0,0-.21-1.89,3.53,3.53,0,0,0-.29-.8,2.28,2.28,0,0,0-.5-.63,1.85,1.85,0,0,0-.8-.42A3.27,3.27,0,0,0,86,350" transform="translate(-64.98 -204.15)" style="fill:#c5c1f4"/><path d="M98.31,348.31l-1.76.25a4.66,4.66,0,0,1-.94,1.44,6.21,6.21,0,0,1-1.69,1.14V353a8.74,8.74,0,0,0,1.22-.68,7.88,7.88,0,0,0,1-.83V357l2.15-.3,0-8.4" transform="translate(-64.98 -204.15)" style="fill:#c5c1f4"/><path d="M123.24,344.81l-1.76.24a4.38,4.38,0,0,1-.94,1.44,6.13,6.13,0,0,1-1.69,1.15v1.87a7.86,7.86,0,0,0,1.22-.67,8,8,0,0,0,1-.83v5.49l2.15-.3,0-8.39" transform="translate(-64.98 -204.15)" style="fill:#c5c1f4"/><path d="M132.21,350.51a.67.67,0,0,1-.74-.47,5.3,5.3,0,0,1-.26-2.12,6.7,6.7,0,0,1,.24-2.17,1,1,0,0,1,.76-.68.69.69,0,0,1,.77.46,5.67,5.67,0,0,1,.26,2.17,9.38,9.38,0,0,1-.11,1.66,1.89,1.89,0,0,1-.36.83.85.85,0,0,1-.56.32m.08-7a3.48,3.48,0,0,0-2.4,1.28,5.78,5.78,0,0,0-.79,3.41,8.25,8.25,0,0,0,.16,1.72,3.21,3.21,0,0,0,.42,1.19,2.17,2.17,0,0,0,1,.84,3.11,3.11,0,0,0,1.57.11,3.18,3.18,0,0,0,2.42-1.38,6.56,6.56,0,0,0,.71-3.39,8.17,8.17,0,0,0-.21-1.89,3.06,3.06,0,0,0-.29-.81,1.92,1.92,0,0,0-.49-.62,2,2,0,0,0-.81-.43,3.21,3.21,0,0,0-1.26,0" transform="translate(-64.98 -204.15)" style="fill:#c5c1f4"/><path d="M150,348a.7.7,0,0,1-.75-.47,5.8,5.8,0,0,1-.25-2.12,6.7,6.7,0,0,1,.24-2.17,1,1,0,0,1,.76-.69.73.73,0,0,1,.78.47,6.12,6.12,0,0,1,.25,2.16,8.37,8.37,0,0,1-.12,1.67,1.78,1.78,0,0,1-.35.83.9.9,0,0,1-.56.32m.08-7a3.4,3.4,0,0,0-2.39,1.28,5.7,5.7,0,0,0-.79,3.4,8.36,8.36,0,0,0,.14,1.73,3.53,3.53,0,0,0,.43,1.18,2.17,2.17,0,0,0,1,.84,3.08,3.08,0,0,0,1.56.11,3.18,3.18,0,0,0,2.43-1.38,6.51,6.51,0,0,0,.71-3.39,8.29,8.29,0,0,0-.21-1.89,3,3,0,0,0-.29-.8,2.24,2.24,0,0,0-.49-.63,1.89,1.89,0,0,0-.81-.42,3.22,3.22,0,0,0-1.26,0" transform="translate(-64.98 -204.15)" style="fill:#c5c1f4"/><path d="M69.78,366.15,68,366.4a4.5,4.5,0,0,1-.94,1.43A6.07,6.07,0,0,1,65.4,369v1.87a7.86,7.86,0,0,0,1.22-.67,8.82,8.82,0,0,0,1-.83v5.5l2.15-.31v-8.39" transform="translate(-64.98 -204.15)" style="fill:#c5c1f4"/><path d="M78.76,371.85a.67.67,0,0,1-.75-.47,5.71,5.71,0,0,1-.26-2.12A6.33,6.33,0,0,1,78,367.1a1,1,0,0,1,.76-.69.69.69,0,0,1,.77.46,5.92,5.92,0,0,1,.26,2.17,10.45,10.45,0,0,1-.12,1.67,1.84,1.84,0,0,1-.35.82.88.88,0,0,1-.56.32m.07-7a3.4,3.4,0,0,0-2.39,1.28,5.74,5.74,0,0,0-.8,3.4,9,9,0,0,0,.16,1.72,3.4,3.4,0,0,0,.42,1.19,2.25,2.25,0,0,0,1,.84,3.07,3.07,0,0,0,1.56.11A3.18,3.18,0,0,0,81.19,372a6.57,6.57,0,0,0,.7-3.39,8.18,8.18,0,0,0-.2-1.89,3.19,3.19,0,0,0-.29-.81,2.57,2.57,0,0,0-.49-.62,1.84,1.84,0,0,0-.81-.42,3.08,3.08,0,0,0-1.27,0" transform="translate(-64.98 -204.15)" style="fill:#c5c1f4"/><path d="M98.28,362.14l-1.76.25a4.54,4.54,0,0,1-.94,1.44A6,6,0,0,1,93.9,365v1.88a10,10,0,0,0,1.22-.67,7.36,7.36,0,0,0,1-.84v5.5l2.16-.3v-8.4" transform="translate(-64.98 -204.15)" style="fill:#c5c1f4"/><path d="M123.21,358.64l-1.75.25a4.5,4.5,0,0,1-.94,1.43,6,6,0,0,1-1.7,1.15v1.88a8.36,8.36,0,0,0,1.23-.68,8.82,8.82,0,0,0,1-.83v5.5l2.14-.3,0-8.4" transform="translate(-64.98 -204.15)" style="fill:#c5c1f4"/><path d="M132.19,364.35a.69.69,0,0,1-.75-.48,5.64,5.64,0,0,1-.26-2.11,6.36,6.36,0,0,1,.25-2.17.94.94,0,0,1,.76-.69.7.7,0,0,1,.77.46,5.92,5.92,0,0,1,.26,2.17,10.45,10.45,0,0,1-.12,1.67,1.84,1.84,0,0,1-.35.82.89.89,0,0,1-.56.33m.07-7a3.4,3.4,0,0,0-2.39,1.28,5.74,5.74,0,0,0-.8,3.4,9.17,9.17,0,0,0,.16,1.73,3.41,3.41,0,0,0,.42,1.18,2.25,2.25,0,0,0,1,.84,3.07,3.07,0,0,0,1.56.11,3.14,3.14,0,0,0,2.42-1.38,6.44,6.44,0,0,0,.71-3.39,8.76,8.76,0,0,0-.2-1.89,3.19,3.19,0,0,0-.3-.81,2.3,2.3,0,0,0-.48-.62,1.84,1.84,0,0,0-.81-.42,3.27,3.27,0,0,0-1.27,0" transform="translate(-64.98 -204.15)" style="fill:#c5c1f4"/><path d="M144.58,355.64l-1.75.24a4.54,4.54,0,0,1-.94,1.44,6.13,6.13,0,0,1-1.69,1.15v1.87a8,8,0,0,0,1.23-.67,7.36,7.36,0,0,0,1-.84v5.5l2.15-.3v-8.39" transform="translate(-64.98 -204.15)" style="fill:#c5c1f4"/><path d="M155.27,354.13l-1.76.25a4.23,4.23,0,0,1-.94,1.44,5.91,5.91,0,0,1-1.69,1.14v1.88a9,9,0,0,0,1.23-.67,8.78,8.78,0,0,0,1-.84v5.5l2.14-.3,0-8.4" transform="translate(-64.98 -204.15)" style="fill:#c5c1f4"/><path d="M69.76,380l-1.76.25a4.38,4.38,0,0,1-.94,1.44,6,6,0,0,1-1.68,1.14v1.88a8.74,8.74,0,0,0,1.22-.68,7.24,7.24,0,0,0,1-.83v5.5l2.15-.3,0-8.4" transform="translate(-64.98 -204.15)" style="fill:#c5c1f4"/><path d="M80.44,378.48l-1.75.25a4.5,4.5,0,0,1-.94,1.43,5.86,5.86,0,0,1-1.69,1.15v1.88a8.36,8.36,0,0,0,1.23-.68,8.82,8.82,0,0,0,1-.83v5.5l2.15-.3v-8.4" transform="translate(-64.98 -204.15)" style="fill:#c5c1f4"/><path d="M91.13,377l-1.76.25a4.34,4.34,0,0,1-.94,1.43,5.92,5.92,0,0,1-1.69,1.15v1.87A7.86,7.86,0,0,0,88,381a8,8,0,0,0,1-.83v5.5l2.15-.31,0-8.39" transform="translate(-64.98 -204.15)" style="fill:#c5c1f4"/><path d="M100.1,382.68a.66.66,0,0,1-.74-.47,5.5,5.5,0,0,1-.26-2.12,6.67,6.67,0,0,1,.24-2.16,1,1,0,0,1,.76-.69.69.69,0,0,1,.77.46,5.7,5.7,0,0,1,.26,2.17,9.59,9.59,0,0,1-.11,1.67,1.84,1.84,0,0,1-.36.82.85.85,0,0,1-.56.32m.08-7a3.43,3.43,0,0,0-2.4,1.28,5.75,5.75,0,0,0-.79,3.4,8.25,8.25,0,0,0,.16,1.72,3.21,3.21,0,0,0,.42,1.19,2.2,2.2,0,0,0,1,.84,3.07,3.07,0,0,0,1.56.11,3.18,3.18,0,0,0,2.42-1.38,6.56,6.56,0,0,0,.71-3.39,8.17,8.17,0,0,0-.21-1.89,3.2,3.2,0,0,0-.28-.81,2.39,2.39,0,0,0-.5-.62,1.84,1.84,0,0,0-.81-.42,3,3,0,0,0-1.26,0" transform="translate(-64.98 -204.15)" style="fill:#c5c1f4"/><path d="M125,379.18a.68.68,0,0,1-.75-.47,5.74,5.74,0,0,1-.26-2.12,7.33,7.33,0,0,1,.24-2.17,1,1,0,0,1,.76-.68.7.7,0,0,1,.78.46,6,6,0,0,1,.25,2.17A8.49,8.49,0,0,1,126,378a2,2,0,0,1-.35.83.88.88,0,0,1-.56.32m.08-7a3.42,3.42,0,0,0-2.4,1.28,5.78,5.78,0,0,0-.79,3.41,8.28,8.28,0,0,0,.15,1.72,3.27,3.27,0,0,0,.43,1.19,2.1,2.1,0,0,0,1,.83,2.85,2.85,0,0,0,1.56.11,3.16,3.16,0,0,0,2.42-1.37,6.57,6.57,0,0,0,.72-3.4,7.77,7.77,0,0,0-.22-1.89,3.12,3.12,0,0,0-.28-.8,2.24,2.24,0,0,0-.49-.63,2,2,0,0,0-.81-.42,3.22,3.22,0,0,0-1.26,0" transform="translate(-64.98 -204.15)" style="fill:#c5c1f4"/><path d="M137.44,370.47l-1.76.25a4.57,4.57,0,0,1-1,1.44,6,6,0,0,1-1.68,1.14v1.88a9.36,9.36,0,0,0,1.22-.68,8.63,8.63,0,0,0,1-.83v5.5l2.15-.3,0-8.4" transform="translate(-64.98 -204.15)" style="fill:#c5c1f4"/><path d="M148.12,369l-1.75.25a4.7,4.7,0,0,1-1,1.43,6,6,0,0,1-1.68,1.15v1.87A8.51,8.51,0,0,0,145,373a9.77,9.77,0,0,0,1-.83v5.5l2.15-.31V369" transform="translate(-64.98 -204.15)" style="fill:#c5c1f4"/><path d="M75.14,400a.68.68,0,0,1-.74-.47,5.71,5.71,0,0,1-.26-2.12,7.33,7.33,0,0,1,.24-2.17,1,1,0,0,1,.76-.67.7.7,0,0,1,.78.45,6,6,0,0,1,.25,2.17,8.32,8.32,0,0,1-.12,1.66,1.78,1.78,0,0,1-.35.83.83.83,0,0,1-.56.32m.08-7a3.37,3.37,0,0,0-2.39,1.27,5.71,5.71,0,0,0-.79,3.41,8.28,8.28,0,0,0,.15,1.72,3.2,3.2,0,0,0,.43,1.19,2.1,2.1,0,0,0,1,.84,3.08,3.08,0,0,0,1.56.11,3.18,3.18,0,0,0,2.43-1.38,6.58,6.58,0,0,0,.71-3.4,7.18,7.18,0,0,0-.21-1.88,3.06,3.06,0,0,0-.28-.81,2.1,2.1,0,0,0-.5-.62,1.9,1.9,0,0,0-.81-.43,3.06,3.06,0,0,0-1.26,0" transform="translate(-64.98 -204.15)" style="fill:#c5c1f4"/><path d="M87.54,391.31l-1.76.25a4.38,4.38,0,0,1-.94,1.44,6,6,0,0,1-1.68,1.14V396a10.57,10.57,0,0,0,1.21-.67,7.36,7.36,0,0,0,1-.84V400l2.16-.3v-8.4" transform="translate(-64.98 -204.15)" style="fill:#c5c1f4"/><path d="M96.51,397a.69.69,0,0,1-.74-.48,5.49,5.49,0,0,1-.25-2.11,7.08,7.08,0,0,1,.23-2.17,1,1,0,0,1,.76-.68.71.71,0,0,1,.78.45,6,6,0,0,1,.25,2.17,9.43,9.43,0,0,1-.11,1.67,1.89,1.89,0,0,1-.36.83.87.87,0,0,1-.56.32m.08-7a3.42,3.42,0,0,0-2.39,1.28,5.7,5.7,0,0,0-.79,3.4,8.38,8.38,0,0,0,.15,1.73,3.14,3.14,0,0,0,.43,1.18,2.12,2.12,0,0,0,1,.84,3.08,3.08,0,0,0,1.56.11A3.21,3.21,0,0,0,99,397.2a6.72,6.72,0,0,0,.71-3.39,7.77,7.77,0,0,0-.22-1.89,3,3,0,0,0-.28-.8,2.28,2.28,0,0,0-.5-.63,1.89,1.89,0,0,0-.81-.42,3.21,3.21,0,0,0-1.26,0" transform="translate(-64.98 -204.15)" style="fill:#c5c1f4"/><path d="M121.45,393.51a.67.67,0,0,1-.75-.47,5.71,5.71,0,0,1-.26-2.12,7,7,0,0,1,.25-2.17.94.94,0,0,1,.76-.67.68.68,0,0,1,.77.45,5.92,5.92,0,0,1,.26,2.17,8.51,8.51,0,0,1-.12,1.67,1.84,1.84,0,0,1-.35.82.88.88,0,0,1-.56.32m.08-7a3.41,3.41,0,0,0-2.4,1.28,5.75,5.75,0,0,0-.79,3.4,9,9,0,0,0,.15,1.72,3.2,3.2,0,0,0,.43,1.19,2.17,2.17,0,0,0,1,.84,3.07,3.07,0,0,0,1.56.11,3.14,3.14,0,0,0,2.42-1.38,6.55,6.55,0,0,0,.72-3.39,8.17,8.17,0,0,0-.21-1.89,3.19,3.19,0,0,0-.29-.81,2.35,2.35,0,0,0-.49-.62,1.84,1.84,0,0,0-.81-.42,2.88,2.88,0,0,0-1.26,0" transform="translate(-64.98 -204.15)" style="fill:#c5c1f4"/><path d="M133.85,384.81l-1.76.24a4.38,4.38,0,0,1-.94,1.44,5.91,5.91,0,0,1-1.69,1.14v1.88a8.35,8.35,0,0,0,1.22-.67,7.36,7.36,0,0,0,1-.84v5.5l2.15-.3,0-8.39" transform="translate(-64.98 -204.15)" style="fill:#c5c1f4"/><path d="M144.53,383.3l-1.75.25a4.54,4.54,0,0,1-.94,1.44,6.06,6.06,0,0,1-1.69,1.14V388a10.19,10.19,0,0,0,1.23-.67,8,8,0,0,0,1-.84V392l2.15-.3v-8.4" transform="translate(-64.98 -204.15)" style="fill:#c5c1f4"/><path d="M76.83,406.65l-1.76.25a4.34,4.34,0,0,1-.94,1.43,6.22,6.22,0,0,1-1.68,1.15v1.87a7.86,7.86,0,0,0,1.22-.67,8,8,0,0,0,1-.83v5.5l2.16-.31v-8.39" transform="translate(-64.98 -204.15)" style="fill:#c5c1f4"/><path d="M85.8,412.35a.68.68,0,0,1-.74-.47,5.71,5.71,0,0,1-.26-2.12,7.43,7.43,0,0,1,.24-2.17,1,1,0,0,1,.76-.68.7.7,0,0,1,.78.46,6,6,0,0,1,.25,2.17,9.59,9.59,0,0,1-.11,1.67,1.84,1.84,0,0,1-.36.82.83.83,0,0,1-.56.32m.08-7a3.41,3.41,0,0,0-2.39,1.27,5.73,5.73,0,0,0-.79,3.41,8.28,8.28,0,0,0,.15,1.72,3.2,3.2,0,0,0,.43,1.19,2.1,2.1,0,0,0,1,.84,3.11,3.11,0,0,0,1.57.11,3.18,3.18,0,0,0,2.42-1.38,6.65,6.65,0,0,0,.72-3.39,7.65,7.65,0,0,0-.22-1.89,3.2,3.2,0,0,0-.28-.81,2.39,2.39,0,0,0-.5-.62,1.79,1.79,0,0,0-.81-.42,2.88,2.88,0,0,0-1.26,0" transform="translate(-64.98 -204.15)" style="fill:#c5c1f4"/><path d="M98.21,403.64l-1.77.25a4.38,4.38,0,0,1-.94,1.44,6,6,0,0,1-1.68,1.14v1.88a9.23,9.23,0,0,0,1.21-.67,7.36,7.36,0,0,0,1-.84v5.5l2.16-.3,0-8.4" transform="translate(-64.98 -204.15)" style="fill:#c5c1f4"/><path d="M123.13,400.14l-1.75.25a4.5,4.5,0,0,1-.94,1.43,5.72,5.72,0,0,1-1.69,1.15v1.88a8.36,8.36,0,0,0,1.23-.68,8,8,0,0,0,1-.83v5.5l2.15-.3v-8.4" transform="translate(-64.98 -204.15)" style="fill:#c5c1f4"/><path d="M132.11,405.85a.69.69,0,0,1-.75-.48,5.64,5.64,0,0,1-.26-2.11,6.92,6.92,0,0,1,.25-2.17,1,1,0,0,1,.76-.69.7.7,0,0,1,.77.46,5.92,5.92,0,0,1,.26,2.17,8.51,8.51,0,0,1-.12,1.67,1.94,1.94,0,0,1-.35.83.92.92,0,0,1-.56.32m.08-7a3.41,3.41,0,0,0-2.4,1.28,5.75,5.75,0,0,0-.79,3.4,9.21,9.21,0,0,0,.15,1.73,3.21,3.21,0,0,0,.43,1.18,2.17,2.17,0,0,0,1,.84,3.07,3.07,0,0,0,1.56.11,3.14,3.14,0,0,0,2.42-1.38,6.53,6.53,0,0,0,.72-3.39,8.17,8.17,0,0,0-.21-1.89,3.19,3.19,0,0,0-.29-.81,2.35,2.35,0,0,0-.49-.62,1.84,1.84,0,0,0-.81-.42,3.22,3.22,0,0,0-1.26,0" transform="translate(-64.98 -204.15)" style="fill:#c5c1f4"/><path d="M76.81,420.48l-1.76.25a4.54,4.54,0,0,1-.94,1.44,6.21,6.21,0,0,1-1.69,1.14v1.88a8.74,8.74,0,0,0,1.22-.68,7.88,7.88,0,0,0,1-.83v5.5l2.15-.3,0-8.4" transform="translate(-64.98 -204.15)" style="fill:#c5c1f4"/><path d="M87.49,419l-1.76.25a4.34,4.34,0,0,1-.94,1.43,6,6,0,0,1-1.68,1.15v1.87a7.86,7.86,0,0,0,1.22-.67,8,8,0,0,0,1-.83v5.5l2.16-.31V419" transform="translate(-64.98 -204.15)" style="fill:#c5c1f4"/><path d="M98.18,417.48l-1.76.25a4.5,4.5,0,0,1-.94,1.43,6.29,6.29,0,0,1-1.69,1.15v1.87a7.86,7.86,0,0,0,1.22-.67,8.82,8.82,0,0,0,1-.83v5.5l2.15-.31,0-8.39" transform="translate(-64.98 -204.15)" style="fill:#c5c1f4"/><path d="M121.4,421.18a.68.68,0,0,1-.75-.47,5.71,5.71,0,0,1-.26-2.12,6.63,6.63,0,0,1,.25-2.17,1,1,0,0,1,.76-.68.69.69,0,0,1,.77.46,5.88,5.88,0,0,1,.26,2.17,9.17,9.17,0,0,1-.12,1.66,1.89,1.89,0,0,1-.35.83.88.88,0,0,1-.56.32m.07-7a3.44,3.44,0,0,0-2.39,1.28,5.71,5.71,0,0,0-.79,3.41,8.28,8.28,0,0,0,.15,1.72,3.48,3.48,0,0,0,.42,1.19,2.32,2.32,0,0,0,1,.84,3.07,3.07,0,0,0,1.56.11,3.2,3.2,0,0,0,2.42-1.38,6.48,6.48,0,0,0,.71-3.4,8.3,8.3,0,0,0-.2-1.89,3.53,3.53,0,0,0-.29-.8,2.24,2.24,0,0,0-.49-.62,2,2,0,0,0-.81-.43,3.26,3.26,0,0,0-1.27,0" transform="translate(-64.98 -204.15)" style="fill:#c5c1f4"/><path d="M133.79,412.47l-1.75.25a4.54,4.54,0,0,1-.94,1.44,5.91,5.91,0,0,1-1.69,1.14v1.88a8.91,8.91,0,0,0,1.23-.68,7.24,7.24,0,0,0,1-.83v5.5l2.15-.3v-8.4" transform="translate(-64.98 -204.15)" style="fill:#c5c1f4"/><path d="M83.9,433.31l-1.75.25a4.57,4.57,0,0,1-1,1.44,5.85,5.85,0,0,1-1.68,1.14V438a11,11,0,0,0,1.23-.67,8.78,8.78,0,0,0,1-.84V442l2.15-.3v-8.4" transform="translate(-64.98 -204.15)" style="fill:#c5c1f4"/><path d="M92.88,439a.68.68,0,0,1-.75-.47,5.74,5.74,0,0,1-.26-2.12,7.33,7.33,0,0,1,.24-2.17,1,1,0,0,1,.76-.69.72.72,0,0,1,.78.47,5.92,5.92,0,0,1,.25,2.16,7.67,7.67,0,0,1-.12,1.67,1.78,1.78,0,0,1-.34.83.88.88,0,0,1-.56.32m.07-7a3.42,3.42,0,0,0-2.39,1.28,5.77,5.77,0,0,0-.79,3.4,8.32,8.32,0,0,0,.15,1.73,3.14,3.14,0,0,0,.43,1.18,2.07,2.07,0,0,0,1,.84,3,3,0,0,0,1.55.11,3.16,3.16,0,0,0,2.43-1.37,6.57,6.57,0,0,0,.72-3.4,7.77,7.77,0,0,0-.22-1.89,3,3,0,0,0-.28-.8,2.24,2.24,0,0,0-.49-.63,2,2,0,0,0-.81-.42A3.26,3.26,0,0,0,93,432" transform="translate(-64.98 -204.15)" style="fill:#c5c1f4"/><path d="M119.53,428.31l-1.77.24a4.28,4.28,0,0,1-.94,1.44,6.22,6.22,0,0,1-1.68,1.15V433a7.71,7.71,0,0,0,1.21-.67,8.87,8.87,0,0,0,1-.83V437l2.15-.31,0-8.39" transform="translate(-64.98 -204.15)" style="fill:#c5c1f4"/><path d="M128.49,434a.68.68,0,0,1-.74-.47,5.35,5.35,0,0,1-.25-2.12,6.82,6.82,0,0,1,.23-2.17,1,1,0,0,1,.76-.68.7.7,0,0,1,.78.46,6,6,0,0,1,.25,2.17,9.59,9.59,0,0,1-.11,1.67,1.84,1.84,0,0,1-.36.82.83.83,0,0,1-.56.32m.08-7a3.41,3.41,0,0,0-2.39,1.27,5.73,5.73,0,0,0-.79,3.41,9,9,0,0,0,.15,1.72,3.2,3.2,0,0,0,.43,1.19,2.12,2.12,0,0,0,1,.84,3.08,3.08,0,0,0,1.56.11,3.21,3.21,0,0,0,2.43-1.38,6.77,6.77,0,0,0,.71-3.39,7.65,7.65,0,0,0-.22-1.89,3.2,3.2,0,0,0-.28-.81,2.24,2.24,0,0,0-.5-.62,1.79,1.79,0,0,0-.81-.42,2.87,2.87,0,0,0-1.26,0" transform="translate(-64.98 -204.15)" style="fill:#c5c1f4"/></g></g></svg>