<?xml version="1.0" encoding="utf-8"?>
<!-- Generator: Adobe Illustrator 24.2.0, SVG Export Plug-In . SVG Version: 6.00 Build 0)  -->
<svg version="1.1" id="Layer_1" xmlns="http://www.w3.org/2000/svg" xmlns:xlink="http://www.w3.org/1999/xlink" x="0px" y="0px"
	 viewBox="0 0 2500 2500" style="enable-background:new 0 0 2500 2500;" xml:space="preserve">
<style type="text/css">
	.st0{fill:#100094;}
	.st1{fill:#2D254F;}
	.st2{fill:#1A006A;}
	.st3{fill:#05051E;}
	.st4{fill:url(#SVGID_1_);}
	.st5{fill:#A49BC6;}
	.st6{fill:#111A51;}
	.st7{fill:url(#SVGID_2_);}
	.st8{fill:#00EDFF;}
	.st9{fill:#FFFFFF;}
	.st10{enable-background:new    ;}
	.st11{fill:#808080;}
	.st12{fill:#898989;}
	.st13{fill:#DFDFDF;}
	.st14{fill:#838383;}
	.st15{clip-path:url(#SVGID_4_);enable-background:new    ;}
	.st16{fill:#949494;}
	.st17{fill:#8F8F8F;}
	.st18{fill:#8A8A8A;}
	.st19{fill:#858585;}
	.st20{clip-path:url(#SVGID_6_);enable-background:new    ;}
	.st21{clip-path:url(#SVGID_8_);enable-background:new    ;}
	.st22{clip-path:url(#SVGID_10_);enable-background:new    ;}
	.st23{clip-path:url(#SVGID_12_);enable-background:new    ;}
	.st24{clip-path:url(#SVGID_14_);enable-background:new    ;}
	.st25{clip-path:url(#SVGID_16_);enable-background:new    ;}
	.st26{clip-path:url(#SVGID_18_);enable-background:new    ;}
	.st27{clip-path:url(#SVGID_20_);enable-background:new    ;}
	.st28{clip-path:url(#SVGID_22_);enable-background:new    ;}
	.st29{clip-path:url(#SVGID_24_);enable-background:new    ;}
	.st30{clip-path:url(#SVGID_26_);enable-background:new    ;}
	.st31{clip-path:url(#SVGID_28_);enable-background:new    ;}
	.st32{clip-path:url(#SVGID_30_);enable-background:new    ;}
	.st33{clip-path:url(#SVGID_32_);enable-background:new    ;}
	.st34{clip-path:url(#SVGID_34_);enable-background:new    ;}
</style>
<path class="st0" d="M1250,1150c55.1,0,100,44.9,100,100c0,55.1-44.9,100-100,100s-100-44.9-100-100
	C1150,1194.9,1194.9,1150,1250,1150L1250,1150z"/>
<path class="st1" d="M1250,1156.9c51.3,0,93.1,41.8,93.1,93.1c0,51.3-41.8,93.1-93.1,93.1c-51.3,0-93.1-41.8-93.1-93.1
	C1156.9,1198.7,1198.7,1156.9,1250,1156.9L1250,1156.9z"/>
<path class="st2" d="M1250,1157.4c51,0,92.6,41.6,92.6,92.6c0,51-41.6,92.6-92.6,92.6s-92.6-41.6-92.6-92.6
	C1157.4,1199,1199,1157.4,1250,1157.4L1250,1157.4z"/>
<path class="st3" d="M1250,1184.5c36.1,0,65.5,29.4,65.5,65.5c0,36.1-29.4,65.5-65.5,65.5s-65.5-29.4-65.5-65.5
	C1184.5,1213.9,1213.9,1184.5,1250,1184.5z M1250,1179.3c38.9,0,70.7,31.8,70.7,70.7c0,38.9-31.8,70.7-70.7,70.7
	c-38.9,0-70.7-31.8-70.7-70.7C1179.3,1211.1,1211.1,1179.3,1250,1179.3z"/>
<radialGradient id="SVGID_1_" cx="-330.5177" cy="1154.9053" r="0.9096" gradientTransform="matrix(71.9893 0 0 -71.9893 25043.7207 84390.7734)" gradientUnits="userSpaceOnUse">
	<stop  offset="0" style="stop-color:#006CD0"/>
	<stop  offset="0.23" style="stop-color:#001F8B"/>
	<stop  offset="0.62" style="stop-color:#2717FF"/>
	<stop  offset="1" style="stop-color:#210073"/>
</radialGradient>
<circle class="st4" cx="1250" cy="1250" r="65.5"/>
<path class="st5" d="M1250,1156.9c25.7,0,48.9,10.5,65.8,27.3c16.9,16.9,27.3,40.2,27.3,65.8v0c0,25.6-10.5,48.9-27.3,65.8
	c-16.9,16.9-40.2,27.3-65.8,27.3h0c-25.7,0-48.9-10.5-65.8-27.3c-16.9-16.9-27.3-40.2-27.3-65.8v0c0-25.6,10.5-48.9,27.3-65.8
	C1201.1,1167.3,1224.3,1156.9,1250,1156.9L1250,1156.9z M1250,1157.9L1250,1157.9c-25.4,0-48.4,10.3-65.1,27s-27,39.7-27,65.1v0
	c0,25.4,10.3,48.4,27,65.1c16.7,16.7,39.7,27,65.1,27h0c25.4,0,48.4-10.3,65.1-27s27-39.7,27-65.1v0c0-25.4-10.3-48.4-27-65.1
	C1298.4,1168.2,1275.4,1157.9,1250,1157.9L1250,1157.9z"/>
<path class="st6" d="M1217.9,1180.3L1217.9,1180.3L1217.9,1180.3l2.2-1l5.6,7.1l7.2,12.3l7.1,12l8.8,17.1l8.9,19.2l0,0l0,0l0,0l0,0
	l0,0l0,0l0,0h0v0l0,0c2.4,5.2,4.8,10.5,7,15.7l2.2,5.1l2.1,4.9l1.9,4.7l9.8,24.2l5,17.6l-3.1,1.4l0,0l0,0l-2.2,1l-5.6-7.1l-7.2-12.3
	l-7.1-12l-8.8-17.1l-8.9-19.2l0,0l0,0l0,0l0,0l0,0l0,0l0,0v0v0c-8.9-19.2-16.1-37-20.6-50.2l-4.6-13.5l-1.8-8.9L1217.9,1180.3
	L1217.9,1180.3L1217.9,1180.3L1217.9,1180.3z M1218.4,1181.2L1218.4,1181.2L1218.4,1181.2c-1.7,0.8,0.3,9.2,4.7,22.1l4.5,13.2
	l7.2,17.8l8.8,19.2l0,0l0,0l0,0l0,0l0,0l0,0l0,0v0l0,0v0h0c8.8,19.2,17.6,36.2,24.7,48.2l7,11.8l5.1,6.9l1.7-0.8l2.5-1.2l-5.1-17.1
	l-9.5-23.7l-1.9-4.6l-2.1-4.9l-2.2-5.1l-2.2-5.1l-2.3-5.3l-2.5-5.4l0,0l0,0l0,0l0,0l0,0l0,0l0,0c-8.8-19.2-17.6-36.2-24.7-48.2
	l-6.9-11.8l-5.1-6.9L1218.4,1181.2L1218.4,1181.2z M1243.7,1253.5L1243.7,1253.5L1243.7,1253.5L1243.7,1253.5 M1243.7,1253.5
	C1243.7,1253.5,1243.7,1253.5,1243.7,1253.5 M1242.8,1253.9L1242.8,1253.9"/>
<path class="st6" d="M1243.9,1173.5L1243.9,1173.5L1243.9,1173.5L1243.9,1173.5L1243.9,1173.5c0.3,0,0.6,0.1,0.9,0.2l0.2,0.1
	l0.2,0.2l0.2,0.3l1.1,1.3l1.1,2.9l1.1,4.2v0l0,0l0.5,1.8l0.5,2l0.5,2.3l0.5,2.2l0.5,2.5l0.5,2.7l2.5,13.7l2.4,18.9l1.7,20.8l0,0l0,0
	l0,0.1h0l1.7,21l0.7,19.1l-0.2,14l-0.3,14.2l-1.4,8.9l-2.4,0.3v0l-0.1,0l0,0l0,0h0l0,0l0,0h0c-2.4,0.1-5.2-8.5-7.8-22.4l-2.5-13.7
	l-2.5-19l-1.7-21v0l0,0l0-0.1l0-0.1l0,0l0,0l0-0.1v0v0 M1244,1174.5L1244,1174.5L1244,1174.5L1244,1174.5
	C1244,1174.5,1244,1174.5,1244,1174.5L1244,1174.5L1244,1174.5L1244,1174.5C1244,1174.5,1244,1174.5,1244,1174.5L1244,1174.5z
	 M1244,1174.5L1244,1174.5L1244,1174.5L1244,1174.5L1244,1174.5L1244,1174.5L1244,1174.5L1244,1174.5l-1.8,0.2l-1.1,8.6l-0.2,13.7
	l-0.2,13.9l0.7,19.1l1.7,21v0l0,0l0,0.1l0,0.1l0,0.1l0,0l0,0.1l1.7,21l2.4,19l2.5,13.7l2.5,13.4l2.5,8.3l1.8-0.1v0h0v0l0,0h0l0,0h0
	l0,0h0h0l0,0h0v0v0v0h0l1.8-0.2l1.1-8.6l0.2-13.7l0.2-13.9l-0.7-19.1l-1.7-21l0,0l0-0.1l0-0.1l-1.7-20.9l-2.4-18.9l-2.5-13.7
	l-0.5-2.6l-0.5-2.5l-0.5-2.3l-0.5-2.2l-0.5-2l-0.5-1.8h0l0,0l0,0l-1.1-4.1l-1.1-2.8l-1-1.2l-0.2-0.2l-0.2-0.1l-0.1-0.1l-0.1-0.1
	L1244,1174.5L1244,1174.5L1244,1174.5z M1244,1174.5C1244,1174.5,1244,1174.5,1244,1174.5z M1256.6,1326.4
	C1256.6,1326.4,1256.6,1326.4,1256.6,1326.4z M1242.1,1250.9c-1.7-21-2.4-40.1-2.2-54.1l0.3-14.2l1.4-8.9l2.4-0.3v0l0.1,0l0,0h0"/>
<path class="st6" d="M1270.6,1175.9L1270.6,1175.9L1270.6,1175.9l2.4,0.7l-0.3,9l-2.3,14l-2.3,13.8l-4.2,18.7l-5.6,20.4h0l0,0.1
	c0,0,0,0,0,0.1v0l-5.6,20.4l-5.9,18.3l-5,13l-5.1,13.3l-4.3,7.9l-2.4-0.6h0l0,0l0,0l0,0l-2.3-0.7l0.3-9l2.4-14l2.3-13.8l4.2-18.7
	l5.6-20.4h0l0-0.1v0c0,0,0,0,0,0 M1270.4,1176.9L1270.4,1176.9L1270.4,1176.9c-1.8-0.5-5.7,7.2-10.6,20l-5,13l-5.9,18.2l-5.6,20.3h0
	l0,0.1c0,0,0,0,0,0v0l0,0l0,0c0,0,0,0,0,0.1v0l-5.6,20.4l-4.2,18.7l-2.3,13.7l-2.3,13.5l-0.5,8.6l1.8,0.5v0l0,0h0v0
	c1.8,0.5,5.7-7.2,10.6-20l5-13l5.9-18.2l5.6-20.3h0c0,0,0-0.1,0-0.1c0,0,0,0,0,0v0l0,0l0,0h0c0,0,0,0,0-0.1v0l5.6-20.4l4.2-18.7
	l2.3-13.7l2.3-13.5l0.5-8.6L1270.4,1176.9L1270.4,1176.9z M1258.3,1252.6C1258.3,1252.6,1258.3,1252.6,1258.3,1252.6L1258.3,1252.6
	L1258.3,1252.6L1258.3,1252.6 M1258.3,1252.6C1258.3,1252.6,1258.3,1252.6,1258.3,1252.6C1258.3,1252.6,1258.3,1252.6,1258.3,1252.6
	z M1258.3,1252.6L1258.3,1252.6L1258.3,1252.6z M1258.3,1252.6L1258.3,1252.6z M1258.3,1252.6L1258.3,1252.6L1258.3,1252.6
	L1258.3,1252.6C1258.3,1252.7,1258.3,1252.6,1258.3,1252.6L1258.3,1252.6L1258.3,1252.6 M1258.3,1252.6L1258.3,1252.6L1258.3,1252.6
	z M1258.3,1252.6C1258.3,1252.6,1258.3,1252.6,1258.3,1252.6L1258.3,1252.6z M1258.3,1252.6L1258.3,1252.6L1258.3,1252.6z
	 M1258.3,1252.6L1258.3,1252.6L1258.3,1252.6z M1257.3,1252.4C1257.3,1252.3,1257.3,1252.3,1257.3,1252.4L1257.3,1252.4
	C1257.3,1252.3,1257.3,1252.3,1257.3,1252.4L1257.3,1252.4L1257.3,1252.4L1257.3,1252.4L1257.3,1252.4z M1257.3,1252.3
	L1257.3,1252.3L1257.3,1252.3C1257.3,1252.3,1257.3,1252.3,1257.3,1252.3L1257.3,1252.3C1257.3,1252.3,1257.3,1252.3,1257.3,1252.3z
	 M1257.3,1252.3L1257.3,1252.3L1257.3,1252.3z M1257.3,1252.3C1257.3,1252.3,1257.3,1252.3,1257.3,1252.3
	C1257.3,1252.3,1257.3,1252.3,1257.3,1252.3z M1257.3,1252.3L1257.3,1252.3 M1257.3,1252.4
	C1257.3,1252.4,1257.3,1252.4,1257.3,1252.4z M1258.3,1252.6L1258.3,1252.6 M1258.3,1252.6
	C1258.3,1252.6,1258.3,1252.6,1258.3,1252.6 M1242.3,1248.3L1242.3,1248.3L1242.3,1248.3L1242.3,1248.3L1242.3,1248.3l5.6-20.4
	l5.9-18.3l5-13l5.1-13.3l4.3-7.9l2.4,0.6h0l0,0L1242.3,1248.3z M1242.3,1248.3L1242.3,1248.3L1242.3,1248.3z M1242.3,1248.3
	L1242.3,1248.3L1242.3,1248.3z M1242.3,1248.3C1242.3,1248.3,1242.3,1248.3,1242.3,1248.3
	C1242.3,1248.3,1242.3,1248.3,1242.3,1248.3L1242.3,1248.3L1242.3,1248.3L1242.3,1248.3 M1242.3,1248.3
	C1242.3,1248.2,1242.3,1248.2,1242.3,1248.3L1242.3,1248.3z M1242.3,1248.3L1242.3,1248.3z M1242.3,1248.3
	C1242.3,1248.3,1242.3,1248.3,1242.3,1248.3z M1242.3,1248.3L1242.3,1248.3z M1242.3,1248.3L1242.3,1248.3L1242.3,1248.3z
	 M1242.3,1248.3L1242.3,1248.3z M1243.3,1248.5L1243.3,1248.5L1243.3,1248.5z M1243.3,1248.5L1243.3,1248.5z M1243.3,1248.5
	L1243.3,1248.5L1243.3,1248.5z M1243.3,1248.6C1243.3,1248.6,1243.3,1248.6,1243.3,1248.6
	C1243.3,1248.6,1243.3,1248.6,1243.3,1248.6z M1243.3,1248.6L1243.3,1248.6z M1243.3,1248.6
	C1243.3,1248.6,1243.3,1248.6,1243.3,1248.6z M1243.3,1248.6C1243.3,1248.6,1243.3,1248.6,1243.3,1248.6z M1243.3,1248.6
	C1243.3,1248.6,1243.3,1248.6,1243.3,1248.6C1243.3,1248.6,1243.3,1248.6,1243.3,1248.6z M1243.3,1248.6L1243.3,1248.6
	L1243.3,1248.6z M1243.3,1248.5C1243.3,1248.5,1243.3,1248.5,1243.3,1248.5z M1242.3,1248.3
	C1242.3,1248.3,1242.3,1248.3,1242.3,1248.3z"/>
<path class="st6" d="M1294.9,1187.4L1294.9,1187.4C1294.9,1187.4,1294.9,1187.4,1294.9,1187.4L1294.9,1187.4
	C1294.9,1187.4,1295,1187.4,1294.9,1187.4c1.9,1.6-1.4,9.9-8.4,22.2c-6.9,12.2-17.3,28.3-29.5,45.6h0l0,0l0,0c0,0,0,0,0,0
	c0,0,0,0,0,0l0,0c-3.3,4.7-6.7,9.3-10.1,14c-3.2,4.3-6.4,8.5-9.6,12.6c-16.1,20.5-28.8,33.6-31.6,31.7l0,0l0,0l0,0l0,0l0,0l0,0l0,0
	c-1.9-1.6,1.5-9.9,8.4-22.2c6.9-12.2,17.3-28.3,29.5-45.6c0,0,0,0,0,0l0,0l0,0c3.3-4.7,6.7-9.3,10.1-14c3.2-4.3,6.4-8.5,9.6-12.6
	C1279.4,1198.6,1292.1,1185.5,1294.9,1187.4 M1294.4,1188.2C1294.4,1188.2,1294.4,1188.2,1294.4,1188.2L1294.4,1188.2
	c-2.3-1.6-14.5,11.4-30.2,31.5c-3.3,4.2-6.5,8.4-9.6,12.6c-3.4,4.6-6.8,9.2-10.1,13.9c0,0.1,0,0,0,0c0,0,0,0,0,0l0,0
	c-12.2,17.2-22.6,33.4-29.4,45.5c-6.7,11.9-10.2,19.8-8.7,20.9l0,0c2.3,1.6,14.5-11.4,30.2-31.5c3.1-3.9,6.3-8.2,9.6-12.6
	c3.3-4.4,6.7-9.1,10.1-13.9c0,0,0,0,0,0l0,0l0,0c12.2-17.2,22.6-33.4,29.4-45.5C1292.4,1197.2,1295.8,1189.3,1294.4,1188.2
	L1294.4,1188.2z M1257.1,1255.2L1257.1,1255.2 M1257,1255.2L1257,1255.2L1257,1255.2z M1256.2,1254.6L1256.2,1254.6
	C1256.2,1254.6,1256.2,1254.6,1256.2,1254.6z M1256.2,1254.6L1256.2,1254.6L1256.2,1254.6z M1256.2,1254.6
	C1256.2,1254.6,1256.2,1254.6,1256.2,1254.6C1256.2,1254.6,1256.2,1254.6,1256.2,1254.6z M1205.6,1313.5L1205.6,1313.5
	C1205.7,1313.5,1205.6,1313.5,1205.6,1313.5L1205.6,1313.5L1205.6,1313.5z M1243.6,1245.7L1243.6,1245.7L1243.6,1245.7
	L1243.6,1245.7C1243.6,1245.7,1243.6,1245.7,1243.6,1245.7L1243.6,1245.7 M1244.4,1246.3C1244.4,1246.3,1244.4,1246.3,1244.4,1246.3
	"/>
<path class="st6" d="M1313.8,1206.5L1313.8,1206.5L1313.8,1206.5c0.5,0.7,0.2,1.7-0.6,3.1l-0.8,1.2l-1.3,1.5l-1.7,1.8l-8.7,9.2
	l-20.7,16.5l-25,17.3l0,0l0,0c-4.7,3.3-9.5,6.5-14.3,9.6l-4.6,3l-4.5,2.9l-4.3,2.7l-22.1,13.8l-16.5,7.9l-1.9-2.8l0,0l0,0
	c-0.5-0.7-0.2-1.7,0.6-3.1l0.8-1.2l1.3-1.5l1.7-1.8l8.7-9.2l20.7-16.5l25-17.3l0,0l-0.1,0.1l0.1-0.1l0,0c4.7-3.3,9.5-6.5,14.3-9.6
	l4.6-3l4.5-2.9l4.3-2.7l22.1-13.8l16.5-7.9L1313.8,1206.5L1313.8,1206.5L1313.8,1206.5z M1313,1207L1313,1207
	c-1.6-2.3-17.5,5.8-39.2,19.2l-4.2,2.6l-4.5,2.9l-4.7,3.1l-4.7,3.1l-4.8,3.2l-4.8,3.3l0,0l0,0l0,0l0,0l0,0l0,0l0,0
	c-25,17.3-45.6,33.8-54.3,42.9l-1.7,1.8l-1.2,1.5l-0.7,1.2l-0.6,1l-0.2,0.7l0.2,0.3l0,0l0,0c1.6,2.3,17.5-5.8,39.2-19.2l4.2-2.6
	l4.5-2.9l4.7-3.1l4.7-3.1l4.8-3.2l4.8-3.3l0,0l0,0l0,0l0,0l0,0l0,0c25-17.3,45.6-33.8,54.3-42.9l1.7-1.8l1.2-1.5l0.7-1.2l0.6-1
	l0.2-0.7L1313,1207L1313,1207L1313,1207z M1255,1257.2C1255,1257.2,1255,1257.2,1255,1257.2L1255,1257.2L1255,1257.2L1255,1257.2
	 M1254.4,1256.4L1254.4,1256.4L1254.4,1256.4L1254.4,1256.4C1254.4,1256.4,1254.4,1256.4,1254.4,1256.4L1254.4,1256.4z
	 M1246.2,1244.5L1246.2,1244.5L1246.2,1244.5"/>
<path class="st6" d="M1325,1230.9L1325,1230.9L1325,1230.9l0.6,2.4l-8,4.3l-13.3,5l-13.1,4.9l-18.3,5.7l-20.4,5.4l0,0l-0.1,0l0,0h0
	l0,0l0,0l0,0v0c-5.6,1.5-11.1,2.9-16.7,4.2l-5.4,1.3l-5.2,1.2l-4.9,1l-25.5,5.4l-18.2,1.8l-0.9-3.3l0,0l0,0l-0.6-2.4l8-4.3l13.3-5
	l13.1-4.9l18.3-5.7l20.4-5.4l0,0l0.1,0l0,0l0,0l0,0l0,0l0,0v0c5.6-1.5,11.1-2.9,16.7-4.2l5.4-1.3l5.2-1.2l4.9-1l25.5-5.4l18.2-1.8
	L1325,1230.9L1325,1230.9z M1324.1,1231.1L1324.1,1231.1l-0.7-2.7l-17.7,2.1l-25,5.3l-4.9,1l-5.2,1.2l-5.4,1.3l-5.4,1.3l-5.6,1.4
	l-5.7,1.5l0,0l-0.1,0l0,0l0,0l0,0l0,0l0,0v0c-20.4,5.4-38.7,11-51.8,15.9l-12.8,4.8l-7.7,3.9l0.4,1.8v0l0.7,2.7l17.7-2.1l25-5.3
	l4.9-1l5.2-1.2l5.4-1.3l5.4-1.3l5.6-1.4l5.7-1.5l0,0l0.1,0l0,0l0,0l0,0l0,0l0,0h0c20.4-5.4,38.7-11,51.8-15.9l12.8-4.8l7.7-3.9
	L1324.1,1231.1z"/>
<path class="st6" d="M1327.2,1257.6C1327.2,1257.6,1327.2,1257.6,1327.2,1257.6l-0.1,0.8l-0.9,0.7l-1.5,0.5l-1.4,0.4l-2,0.4
	l-2.5,0.3l-12.6,1.4l-26.4-0.7l-30.2-2.8c0.1,0,0.2,0-0.3,0l0,0l-21-2l-19-2.6l-13.7-2.7l-13.9-2.7l-8.5-2.9l0.1-2.4v0v0v0
	 M1326.2,1257.5L1326.2,1257.5L1326.2,1257.5C1326.2,1257.5,1326.2,1257.5,1326.2,1257.5L1326.2,1257.5l0.1-1.8l-8.2-2.5l-13.4-2.6
	l-13.7-2.7l-18.9-2.6l-20.9-2v0l-0.8-0.1l1.1,0.1l-0.5,0l-30.2-2.8l-26.4-0.7l-12.6,1.4l-2.4,0.3l-1.9,0.4l-1.3,0.4l-1.1,0.4
	l-0.6,0.4l-0.1,0.4v0l-0.1,1.8l8.2,2.5l13.4,2.6l13.7,2.7l18.9,2.6l20.9,2v0l0.8,0.1l-1.1-0.1l0.5,0l30.2,2.8l26.4,0.7l12.6-1.4
	l2.4-0.3l1.9-0.3l1.3-0.4l1.1-0.4l0.6-0.4L1326.2,1257.5L1326.2,1257.5z M1326.2,1257.5L1326.2,1257.5 M1173.4,1243.3
	C1173.4,1243.3,1173.4,1243.3,1173.4,1243.3C1173.4,1243.3,1173.4,1243.3,1173.4,1243.3l0.1-0.9l0.9-0.7l1.5-0.5l1.4-0.4l2-0.4
	l2.5-0.3l12.6-1.4l26.3,0.6l30.2,2.8c-0.1,0-0.1,0,0.4,0l0,0l21,2l19,2.6l13.7,2.7l13.9,2.7l8.6,2.9l-0.2,2.4c0,0,0,0,0,0v0
	 M1174.4,1243.4L1174.4,1243.4 M1174.4,1243.4C1174.4,1243.4,1174.4,1243.4,1174.4,1243.4 M1174.4,1243.4L1174.4,1243.4
	L1174.4,1243.4z M1174.4,1243.4L1174.4,1243.4L1174.4,1243.4z M1250.9,1242.2L1250.9,1242.2L1250.9,1242.2z M1326.2,1257.5
	L1326.2,1257.5L1326.2,1257.5"/>
<path class="st6" d="M1320.1,1283.5L1320.1,1283.5L1320.1,1283.5z M1320.1,1283.5L1320.1,1283.5L1320.1,1283.5z M1320.1,1283.5
	C1320.1,1283.5,1320.1,1283.5,1320.1,1283.5C1320.1,1283.5,1320.1,1283.5,1320.1,1283.5z M1320.1,1283.5
	C1320.1,1283.5,1320.1,1283.5,1320.1,1283.5L1320.1,1283.5l-0.4,0.8l-1,0.3l-1.6,0l-1.4,0l-2-0.3l-2.4-0.6l-12.4-3l-24.7-9.7
	l-27.5-13h0l0,0l0,0l0,0l0,0l-5.4-2.5l-5.2-2.5l-4.9-2.5l-4.9-2.5l-4.7-2.4l-4.5-2.4l-22.9-12.3l-15.1-10.3l1.4-3.1c0,0,0,0,0,0l0,0
	v0c0.4-0.7,1.4-1.1,3-1l1.4,0l2,0.3l2.4,0.6l12.4,3l24.7,9.7l27.5,13h0l0,0l0,0l0,0l0,0l5.4,2.5l5.2,2.5l4.9,2.5l4.9,2.5l4.7,2.4
	l4.5,2.4l22.9,12.3l15.1,10.3L1320.1,1283.5L1320.1,1283.5z M1319.2,1283.1C1319.2,1283.1,1319.2,1283.1,1319.2,1283.1
	L1319.2,1283.1L1319.2,1283.1c1.2-2.5-13.7-12.3-36.2-24.3l-4.4-2.3l-4.7-2.4l-5-2.5l-5-2.5l-5.2-2.5l-5.3-2.5l0,0l0,0l0,0v0
	c-27.5-13-52.1-22.6-64.3-25.6l-2.4-0.6l-1.9-0.3l-1.4,0l-1.2,0l-0.7,0.1l-0.2,0.3l0,0v0c-1.2,2.5,13.7,12.3,36.2,24.3l4.4,2.3
	l4.7,2.4l5,2.5l5,2.5l5.2,2.5l5.3,2.5l0,0l0,0l0,0v0c27.5,13,52.1,22.6,64.3,25.6l2.4,0.6l1.9,0.3l1.4,0l1.2,0l0.7-0.1
	L1319.2,1283.1L1319.2,1283.1z M1319.2,1283.1L1319.2,1283.1 M1319.2,1283.1C1319.2,1283.1,1319.2,1283.1,1319.2,1283.1
	 M1180.5,1217.4L1180.5,1217.4C1180.5,1217.4,1180.5,1217.4,1180.5,1217.4z M1180.5,1217.4L1180.5,1217.4L1180.5,1217.4z
	 M1180.5,1217.4C1180.5,1217.4,1180.5,1217.4,1180.5,1217.4z"/>
<path class="st6" d="M1304.6,1305.4L1304.6,1305.4L1304.6,1305.4c-0.6,0.6-1.7,0.5-3.2-0.1c-1.3-0.5-3.1-1.5-5.2-2.9
	c-10.6-7-30.5-24.5-51.9-46.2l0,0c0,0,0,0,0,0c-14.9-15-27.7-29.3-36.5-40.2c-8.9-11.1-13.6-18.8-11.9-20.5l0,0l0,0l0,0l0,0
	c0.6-0.6,1.7-0.5,3.2,0.1c1.3,0.5,3.1,1.5,5.1,2.9c10.6,7,30.5,24.5,51.9,46.2l0,0l0,0c3.3,3.4,6.6,6.8,9.9,10.2
	c3.1,3.2,6.1,6.5,9.1,9.8c14.9,16.3,25.7,29.9,28.8,36.4h0l0,0v0c0.1,0.3,0.3,0.5,0.4,0.8c0.1,0.3,0.2,0.5,0.3,0.7
	C1305.2,1303.9,1305.1,1304.9,1304.6,1305.4z M1303.9,1304.7L1303.9,1304.7L1303.9,1304.7c0.2-0.2,0.2-0.8-0.1-1.8
	c-0.1-0.2-0.2-0.5-0.3-0.7c-0.1-0.2-0.2-0.5-0.3-0.8l0,0v0c-3.1-6.4-13.8-19.9-28.7-36.1c-3-3.3-6-6.5-9.1-9.8
	c-3.3-3.4-6.6-6.8-9.9-10.2h0l0,0l0,0c-21.4-21.6-41.2-39.1-51.7-46.1c-2-1.3-3.7-2.3-5-2.8c-1.1-0.4-1.8-0.5-2.1-0.3l0,0l0,0l0,0h0
	c-1.3,1.3,3.4,8.5,12,19.2c8.8,10.9,21.6,25.1,36.4,40.1l0,0c0,0,0,0,0,0v0c0,0,0,0,0,0l0,0c21.4,21.6,41.2,39.1,51.7,46.1
	c2,1.3,3.7,2.3,5,2.8C1302.9,1304.8,1303.6,1305,1303.9,1304.7z M1245.1,1255.5C1245.1,1255.5,1245.1,1255.5,1245.1,1255.5z"/>
<path class="st6" d="M1305.2,1196.1L1305.2,1196.1l0.2,0.2l0.1,0.3l0.1,0.3l0,0.3l0,0.3l-0.1,0.4l-0.3,1.7l-1.5,2.8l-2.5,3.6l0,0
	l0,0l-1.1,1.5l-1.2,1.7l-1.4,1.8l-1.4,1.8l-1.6,2l-1.7,2.1l-8.9,10.7l-12.9,14l-14.9,14.7h0l0,0h0l-2.8,2.7l-2.7,2.7l-2.7,2.6
	l-2.7,2.6l-2.7,2.5l-2.6,2.4l-13.3,12.4l-11.8,10l-8,5.7h0l0,0l-0.8,0.6l-0.8,0.5l-0.8,0.5l-0.7,0.5l-0.7,0.4l-0.7,0.4l-3.6,2.2
	l-2.4,0.7l-0.9-0.9h0l0,0l0,0l-0.2-0.2l-0.1-0.3l0-0.4l0-0.3l0-0.4l0.1-0.4l0.5-2l2-3.3l3.2-4.4l0,0l1.1-1.5l1.3-1.7l1.5-1.8
	l1.5-1.8l1.6-1.9l1.7-2l8.8-10.5l12.3-13.2l14-13.9l0,0l0,0h0l3.4-3.3l3.3-3.2l3.2-3.1l3.3-3.1l3.2-3l3.1-2.8l15.9-14.6l13.3-10.7
	l6.8-3.7l0,0l0,0l0,0l0,0l0,0h0v0l0,0l0,0v0h0h0v0l0,0l0,0v0 M1304.5,1196.8L1304.5,1196.8L1304.5,1196.8c-0.3-0.3-1-0.2-2.2,0.3
	l-0.3,0.1l-0.3,0.1l-0.3,0.1l-0.3,0.2l-0.3,0.2l-0.3,0.2l0,0l0.1-0.1l-0.1,0.1l0,0c-6.8,3.6-20,14.3-35.8,28.8l-3.1,2.8l-3.2,3
	l-3.2,3.1l-3.3,3.1l-3.3,3.2l-3.3,3.3l0,0h0l-14,13.9l-12.3,13.2l-8.8,10.5l-1.7,2.1l-1.6,1.9l-1.4,1.8l-1.4,1.8l-1.3,1.7l-1.1,1.6
	l0,0h0l-3.1,4.3l-1.9,3.2l-0.4,1.8l-0.1,0.3l0,0.3l0,0.2l0,0.1l0,0.1l0.1,0.1l0,0l0,0v0c0.6,0.6,2.5-0.2,5.7-2.1l0.7-0.4l0.7-0.4
	l0.7-0.5l0.7-0.5l0.8-0.5l0.8-0.6h0l0,0v0l8-5.7l11.8-9.9l13.3-12.4l2.6-2.4l2.6-2.5l2.7-2.6l2.7-2.6l2.7-2.7l2.7-2.7v0l0,0h0
	l14.9-14.7l12.9-14l8.9-10.7l1.7-2.1l1.6-2l1.4-1.8l1.4-1.8l1.2-1.7l1.1-1.5h0l0,0l0,0l2.4-3.5l1.4-2.6l0.3-1.5l0-0.2l0-0.2l0-0.2
	l0-0.1L1304.5,1196.8L1304.5,1196.8L1304.5,1196.8z M1305.2,1196.1L1305.2,1196.1 M1300,1197.1c0.3-0.2,0.7-0.3,0.9-0.5l0.3-0.1
	l0.3-0.1l0.3-0.1l1.6-0.6l1.1-0.1l0.6,0.6"/>
<path class="st6" d="M1319.6,1218.6L1319.6,1218.6l-0.8-1.7l-8.4,1.9l-12.9,4.4l-13.2,4.5l-17.8,7.2l-19.2,8.8l0,0l0,0l0,0l0,0l0,0
	l0,0l0,0v0c-19.2,8.8-36.2,17.6-48.2,24.7l-11.8,6.9l-6.9,5.1l0.8,1.7 M1320.5,1218.2L1320.5,1218.2L1320.5,1218.2l1.4,3.1
	l-15.2,10.1l-23.1,12l-4.5,2.3l-4.8,2.4l-5,2.4l-4.9,2.4l-5.2,2.5l-5.4,2.5l0,0l0,0l0,0l0,0l0,0l0,0l0,0v0
	c-19.2,8.8-37,16.1-50.2,20.6l-13.5,4.6l-8.9,1.8l-1-2.2v0l0,0l0,0l0,0l-1-2.2l7.1-5.6l12.3-7.2l12.1-7.1l17.1-8.8l19.2-8.8l0,0l0,0
	l0,0l0,0l0,0l0,0l0,0c19.2-8.8,37-16.1,50.2-20.6l13.5-4.6l8.9-1.8L1320.5,1218.2L1320.5,1218.2L1320.5,1218.2z M1181,1282.3
	l0.8,1.7l8.4-1.9l12.9-4.4l13.2-4.5l17.8-7.2l19.2-8.8l0,0l0,0l0,0l0,0l0,0l0,0l0,0v0c5.2-2.4,10.4-4.9,15.5-7.4l5-2.4l4.7-2.4
	l4.4-2.3l22.6-11.8l15-9.6l-1.2-2.5"/>
<path class="st6" d="M1230.6,1175.7L1230.6,1175.7L1230.6,1175.7l0.8-0.2l0.9,0.6l1,1.3l0.9,1.1l1,1.7l1.1,2.2l5.7,11.4l8.5,25.1
	l7.8,29.5l0,0l0,0l0,0l0,0v0c1.5,5.6,2.9,11.1,4.2,16.7l1.3,5.4l1.2,5.2l1,4.9l5.4,25.5l1.8,18.2l-3.3,0.9h0v0l-0.8,0.2l-0.9-0.6
	l-1-1.3l-0.9-1.1l-1-1.7l-1.1-2.2l-5.7-11.4l-8.5-25.1l-7.8-29.5l0,0l0,0v0c-5.4-20.4-9.4-39.2-11.6-53l-2.2-14.1l-0.2-9
	L1230.6,1175.7L1230.6,1175.7L1230.6,1175.7L1230.6,1175.7z M1230.9,1176.7L1230.9,1176.7L1230.9,1176.7L1230.9,1176.7
	L1230.9,1176.7c-1.8,0.5-1.3,9.1,0.8,22.6l2.2,13.8l4,18.7l5.4,20.4l0,0l0,0l0,0l0,0l7.7,29.4l8.4,25l5.7,11.3l1.1,2.2l1,1.7
	l0.8,1.1l0.7,0.9l0.6,0.4l0.4-0.1v0l0,0v0l2.7-0.7l-2.1-17.7l-5.3-25l-1-4.9l-1.2-5.2l-1.3-5.4l-1.3-5.4l-1.4-5.6l-1.5-5.7l0,0l0,0
	l0,0l0,0l-7.7-29.4l-8.4-25l-5.7-11.3l-1.1-2.2l-1-1.7l-0.8-1.1l-0.7-0.9l-0.6-0.4L1230.9,1176.7L1230.9,1176.7L1230.9,1176.7z"/>
<path class="st6" d="M1257.4,1173.5L1257.4,1173.5L1257.4,1173.5l0.8,0.1l0.7,0.9l0.5,1.5l0.4,1.4l0.4,2l0.3,2.5l1.4,12.6l-0.6,26.4
	l-2.8,30.2c0-0.1,0-0.2,0,0.3l0,0l-1.9,21l-2.6,19l-2.7,13.7l-2.7,13.9l-2.9,8.6l-2.4-0.2v0c0,0,0,0,0,0h0l0,0h0l-2.4-0.3l-1.3-8.9
	l-0.1-14.2l-0.1-13.9l0.9-19.1l1.9-21l0-0.3l0-0.4l-0.1,1.1l0.1-0.9l0,0l1.9-21l2.6-19l2.7-13.7l2.7-13.9l2.9-8.6L1257.4,1173.5
	C1257.4,1173.5,1257.4,1173.5,1257.4,1173.5L1257.4,1173.5L1257.4,1173.5z M1257.3,1174.5L1257.3,1174.5L1257.3,1174.5z
	 M1258.4,1176.3l-0.4-1.1l-0.4-0.6l-0.4,0h0l-1.8-0.1l-2.5,8.2l-2.6,13.4l-2.7,13.7l-2.6,18.9l-1.9,20.9h0l-0.1,0.8l0.1-1.1l0,0.5
	l0,0.3l-1.9,20.9l-0.9,19.1l0.1,13.9l0.1,13.6l1,8.6l1.8,0.2h0l1.8,0.1l2.5-8.2l2.6-13.4l2.7-13.7l2.6-18.9l1.9-20.9h0l0.1-0.8
	l-0.1,1.1l0-0.5l2.8-30.2l0.6-26.4l-1.4-12.6l-0.3-2.4l-0.4-1.9L1258.4,1176.3L1258.4,1176.3z"/>
<path class="st6" d="M1282.9,1181.5L1282.9,1181.5C1282.9,1181.5,1282.8,1181.5,1282.9,1181.5L1282.9,1181.5L1282.9,1181.5
	c-1.7-0.8-6.9,6.1-13.9,17.8l-7.2,12l-9,16.9l-9,19.1l0,0l0,0l0,0l0,0l0,0l0,0l0,0l-9,19.1l-7.4,17.7l-4.7,13.1l-4.6,12.9l-2,8.4
	l1.6,0.8v0c0,0,0,0,0,0c2.5,1.1,12.3-13.8,24.3-36.3l2.3-4.4l2.4-4.7l2.5-5l2.5-5l2.5-5.2l2.5-5.3l0,0l0,0l0,0l0,0l0,0l0,0l0,0
	l9-19.1l7.4-17.7l4.7-13.1l4.6-12.9l2-8.4L1282.9,1181.5L1282.9,1181.5z M1282.9,1181.5L1282.9,1181.5 M1282.8,1181.5
	C1282.8,1181.5,1282.8,1181.5,1282.8,1181.5z M1283.3,1180.6L1283.3,1180.6L1283.3,1180.6L1283.3,1180.6L1283.3,1180.6
	L1283.3,1180.6c2.2,1.1,0.4,9.9-4.4,23.3l-4.7,13.2l-7.4,17.7l-9,19.1v0l0,0h0l0,0 M1283.3,1180.6L1283.3,1180.6 M1257.8,1253.9
	L1257.8,1253.9L1257.8,1253.9L1257.8,1253.9L1257.8,1253.9L1257.8,1253.9l-2.6,5.4l-2.5,5.2l-2.5,4.9l-2.5,4.9l-2.4,4.7l-2.4,4.5
	l-12.2,23l-10.3,15.1l-3.1-1.4c0,0,0,0,0,0l0,0l0,0v0h0c-2.2-1.1-0.3-9.9,4.4-23.3l4.7-13.2l7.4-17.7l9-19.1l0,0l0,0l0,0l0,0l0,0
	l0,0l0,0l9-19.1l9-17l7.2-12l7.3-12.2l5.7-7.1l2.2,1 M1217.3,1320.3L1217.3,1320.3L1217.3,1320.3z M1217.7,1319.4
	C1217.7,1319.4,1217.7,1319.4,1217.7,1319.4"/>
<path class="st6" d="M1327.3,1244.1L1327.3,1244.1C1327.3,1244.1,1327.3,1244.1,1327.3,1244.1l0,0.8l-0.7,0.8l-1.4,0.8l-1.3,0.7
	l-1.9,0.7l-2.4,0.7l-12.2,3.6l-26.2,4l-30.3,2.5h0l-0.2,0l-5.9,0.5l-5.7,0.4l-5.6,0.3l-5.5,0.3l-5.3,0.2l-5,0.2l-26,0.9l-18.2-1.4
	l-0.3-3.4v0v0l0,0l0-0.8l0.7-0.8l1.4-0.8l1.3-0.7l1.9-0.7l2.4-0.7l12.2-3.6l26.2-4l30.3-2.5h0h0L1327.3,1244.1z M1326.3,1244.2
	C1326.3,1244.2,1326.3,1244.2,1326.3,1244.2z M1326.3,1244.2C1326.3,1244.2,1326.3,1244.2,1326.3,1244.2l-0.2-2.8l-17.7-1l-25.4,0.8
	l-5,0.2l-5.3,0.2l-5.5,0.3l-5.5,0.3l-5.7,0.4l-5.9,0.5l0,0l-0.1,0l-0.1,0h0l-30.2,2.5l-26.1,3.9l-12.1,3.6l-2.3,0.7l-1.8,0.7
	l-1.2,0.6l-1.1,0.6l-0.5,0.5l0,0.4v0c0,0,0,0,0,0v0l0.2,2.8l17.7,1l25.4-0.8l5-0.2l5.3-0.2l5.5-0.3l5.5-0.3l5.7-0.4l5.9-0.5l0,0
	l0.1,0l0.1,0h0l30.2-2.5l26.1-3.9l12.1-3.6l2.3-0.7l1.8-0.7l1.2-0.6l1.1-0.6l0.5-0.5L1326.3,1244.2L1326.3,1244.2L1326.3,1244.2z
	 M1251,1258.7L1251,1258.7 M1174.3,1256.7L1174.3,1256.7L1174.3,1256.7z M1174.3,1256.7C1174.3,1256.7,1174.3,1256.7,1174.3,1256.7z
	 M1249.6,1242.2c0.1,0,0.1,0,0.2,0l5.9-0.5l5.8-0.4l5.6-0.3l5.5-0.3l5.3-0.2l5-0.2l26-0.9l18.2,1.4l0.3,3.4"/>
<path class="st6" d="M1324.8,1270.9L1324.8,1270.9L1324.8,1270.9l-0.2,0.8l-1,0.5l-1.6,0.2l-1.4,0.2l-2,0l-2.5-0.2l-12.7-0.8
	l-26-5.2l-29.4-8.1l0,0h0l0,0l0,0h0l-20.4-5.6l-18.3-5.9l-13-5l-13.3-5.1l-7.9-4.3l0.6-2.4v0l0,0l0,0l0,0l0.2-0.8l1-0.5l1.6-0.2
	l1.4-0.2l2,0l2.5,0.2l12.7,0.8l26,5.2l29.4,8l0,0l0,0l0,0l0,0h0l20.4,5.6l18.3,5.9l13,5l13.3,5.1l7.9,4.4L1324.8,1270.9
	L1324.8,1270.9L1324.8,1270.9z M1323.8,1270.6L1323.8,1270.6L1323.8,1270.6L1323.8,1270.6c0.5-1.8-7.2-5.7-20-10.6l-13-5l-18.2-5.9
	l-20.4-5.6l-0.1,0v0l-29.3-8l-25.9-5.2l-12.6-0.8l-2.4-0.1l-1.9,0l-1.3,0.2l-1.2,0.2l-0.7,0.3l-0.1,0.4l0,0l0,0
	c-0.5,1.8,7.2,5.7,20,10.6l13,5l18.2,5.9l20.4,5.6l0.1,0v0l29.3,8l25.9,5.2l12.6,0.8l2.4,0.1l1.9,0l1.3-0.2l1.2-0.2l0.7-0.3
	L1323.8,1270.6L1323.8,1270.6z"/>
<path class="st6" d="M1313.3,1295.1L1313.3,1295.1L1313.3,1295.1L1313.3,1295.1L1313.3,1295.1L1313.3,1295.1L1313.3,1295.1
	c-0.5,0.7-1.6,0.8-3.1,0.5l-1.4-0.3l-1.9-0.7l-2.3-1l-11.6-5.1l-22.6-13.8l-24.8-17.6h0v0v0v0h0h0l0,0h0 M1312.5,1294.6
	C1312.5,1294.6,1312.5,1294.6,1312.5,1294.6L1312.5,1294.6L1312.5,1294.6z M1310.4,1294.6l1.1,0.2l0.7,0l0.2-0.3v0l0,0l0,0l0,0l0,0
	c1-1.5-4.9-7.8-15.1-16.8l-10.5-9.2l-15.1-11.8l-17.2-12.2v0l0,0l0,0l0,0l0,0l0,0l-17.2-12.2l-16.1-10.4l-12.1-6.9l-11.9-6.7
	l-7.9-3.4l-1.1,1.5l0,0l0,0l0,0l0,0v0c0,0,0,0,0,0c-1,1.5,4.9,7.8,15.1,16.8l10.5,9.2l15.1,11.8l17.2,12.2l0,0l0.1,0l-0.1-0.1l0,0
	l0,0l24.8,17.6l22.5,13.8l11.6,5l2.2,1l1.8,0.6L1310.4,1294.6L1310.4,1294.6z M1245.5,1257.2
	C1245.5,1257.2,1245.5,1257.2,1245.5,1257.2z M1245.5,1257.2C1245.5,1257.2,1245.5,1257.2,1245.5,1257.2 M1245.5,1257.2
	L1245.5,1257.2l-17.3-12.3l-15.2-11.8l-10.5-9.2l-10.7-9.4l-5.9-6.8l1.4-2c0,0,0,0,0,0l0,0l0,0l0,0c1.5-1.9,9.9,1.5,22.2,8.5
	l12.2,6.9l16.2,10.4l17.2,12.2l0,0l0,0l0,0l0,0l0,0l0,0l17.2,12.2l15.2,11.8l10.5,9.2l10.7,9.4l5.9,6.8l-1.4,2c0,0,0,0,0,0
	 M1187.3,1205.8C1187.3,1205.8,1187.3,1205.8,1187.3,1205.8C1187.3,1205.8,1187.3,1205.8,1187.3,1205.8z M1188.1,1206.4
	L1188.1,1206.4 M1188.1,1206.4L1188.1,1206.4 M1255.1,1243.7L1255.1,1243.7L1255.1,1243.7z M1254.5,1244.5L1254.5,1244.5
	L1254.5,1244.5L1254.5,1244.5L1254.5,1244.5z M1254.5,1244.5L1254.5,1244.5L1254.5,1244.5z M1254.5,1244.5
	C1254.5,1244.5,1254.5,1244.5,1254.5,1244.5C1254.5,1244.5,1254.5,1244.6,1254.5,1244.5z"/>
<path class="st6" d="M1294.2,1314L1294.2,1314L1294.2,1314c-0.7,0.5-1.7,0.2-3.1-0.6c-1.2-0.8-2.8-2-4.6-3.7
	c-9.2-8.7-25.7-29.5-43-54.5c0,0,0.1,0.1,0,0h0c-12-17.4-22.2-33.7-29-45.9c-6.9-12.5-10.1-20.9-8.2-22.3l0,0l0,0l0,0l0,0
	c2-1.4,8.7,4.7,18,15.5c9.1,10.6,20.7,25.9,32.7,43.3l0,0l0,0l0,0v0c2.4,3.4,4.7,6.9,7,10.3c2.2,3.3,4.4,6.6,6.5,9.9
	c10.7,16.6,18.7,30.8,22.2,39.2l0,0c0.3,0.7,0.5,1.3,0.7,1.8c0.2,0.6,0.4,1.1,0.6,1.6C1295.1,1311.5,1295.1,1313.4,1294.2,1314
	L1294.2,1314L1294.2,1314z M1293.7,1313.2L1293.7,1313.2L1293.7,1313.2c0.5-0.4,0.3-1.8-0.4-4.1c-0.2-0.5-0.3-1-0.6-1.6
	c-0.2-0.6-0.5-1.2-0.7-1.8l0,0c-3.5-8.4-11.5-22.5-22.1-39c-2.1-3.3-4.3-6.6-6.5-9.9c-2.3-3.5-4.6-6.9-7-10.3v0l0,0v0l0,0
	c-12-17.4-23.6-32.6-32.7-43.2c-8.9-10.4-15.1-16.4-16.6-15.3l0,0v0l0,0l0,0c-1.5,1.1,1.9,9,8.5,21c6.7,12.2,16.9,28.5,28.9,45.8
	l0,0l0,0l0,0l0,0c17.3,25,33.7,45.6,42.9,54.3c1.8,1.7,3.2,2.9,4.4,3.6C1292.7,1313.2,1293.3,1313.4,1293.7,1313.2L1293.7,1313.2z
	 M1244.4,1254.6L1244.4,1254.6 M1244.3,1254.6L1244.3,1254.6"/>
<radialGradient id="SVGID_2_" cx="320.4564" cy="895.517" r="5.8225" gradientTransform="matrix(12.6508 0 0 -12.6508 -2804.9863 12579.1797)" gradientUnits="userSpaceOnUse">
	<stop  offset="0" style="stop-color:#FFFFFF"/>
	<stop  offset="0.12" style="stop-color:#FFFFFF"/>
	<stop  offset="0.29" style="stop-color:#00408B"/>
	<stop  offset="0.42" style="stop-color:#0071E7"/>
	<stop  offset="0.599" style="stop-color:#0007D0"/>
	<stop  offset="1" style="stop-color:#06008B"/>
</radialGradient>
<path class="st7" d="M1244.8,1193.2c4.9-6.5,10.7-12.7,16.7-15.2c9.6-4.1,18.8,0.7,19.6,11.2c0.5,5.4-1.4,11.4-4.3,15.2
	c-4.3,5.5-12.3,9.7-16.8,13.4c-3.3,2.7-3.5,3.9-4.1,7.9c-0.4,2.9-0.5,6-0.4,9.1l-7,4.9c-0.1-4.8,0-9.5,0.4-14.1
	c0.2-2.7,0.6-5.1,1.1-6.8c1-3.1,2.8-4.8,6.8-7.7c4.1-3,9.7-6.4,13.1-9.5c3-2.8,5.9-6.9,6.6-11.1c0.5-3.1-0.3-6-2.1-7.9
	c-1.6-1.6-4-2.4-7.1-1.8c-2,0.4-4,1.4-5.6,2.7c-3.9,3.2-7.4,8.6-11.1,15.1C1248.6,1197,1246.7,1194.9,1244.8,1193.2L1244.8,1193.2z
	 M1241.2,1254.9l1.8,2.4l-8,4.1c2.4,2.7,4.2,6,6.2,9.2c-2.2,0.8-3.7,1.4-5.9,2.2c-0.6-3.3-1.8-6.2-4.2-9.5l-14.1,7.2
	c2.2,6.8,4,14.4-5.3,17.4c-7.6,2.4-13.9-0.3-18.9-5.1l-9.3,4.7l-1.8-2.4l9-4.6c-3.7-4.3-6.5-9.4-8.4-14.4c2.1-0.1,4.4-0.3,6.4-0.4
	c0.7,4.1,1.6,8.6,5.1,13.1l0.1,0.2l15.3-7.8c-2.2-6.3-3.8-13,4.9-15.9c5.3-1.7,13-1,18.6,3.9L1241.2,1254.9z M1210.4,1273.9
	l-14.2,7.2c3.7,3.3,8.7,4.8,12.7,3.4C1213.4,1283.1,1212.2,1278.8,1210.4,1273.9L1210.4,1273.9z M1216.2,1267.6l13-6.6
	c-3-2.5-7.9-4.1-12.3-2.7C1213.6,1259.4,1214.6,1263.1,1216.2,1267.6z M1252.1,1259.4l2.2-2l4.7,7.7c2.5-2.6,5.7-4.7,8.7-6.9
	c1,2.1,1.7,3.6,2.7,5.7c-3.2,0.8-6.1,2.2-9.1,4.8l8.2,13.5c6.6-2.7,14-5,17.7,4c3,7.4,0.7,13.9-3.7,19.2l5.4,8.9l-2.2,2l-5.2-8.6
	c-4,4-8.9,7.2-13.8,9.4c-0.3-2.1-0.6-4.3-0.9-6.4c4-1,8.4-2.2,12.7-6l0.1-0.1l-8.9-14.7c-6.2,2.7-12.7,4.7-16.2-3.8
	c-2.1-5.1-1.9-12.9,2.6-18.8L1252.1,1259.4L1252.1,1259.4z M1273.2,1288.7l8.2,13.7c3-4,4.1-9,2.5-13
	C1282.2,1285.1,1278,1286.6,1273.2,1288.7L1273.2,1288.7z M1266.6,1283.4l-7.5-12.4c-2.3,3.2-3.6,8.2-1.8,12.5
	C1258.5,1286.6,1262.2,1285.3,1266.6,1283.4L1266.6,1283.4z M1256.9,1244.8l-1.8-2.4l8.1-4c-2.4-2.7-4.1-6-6.1-9.3
	c2.2-0.8,3.7-1.4,5.9-2.2c0.5,3.3,1.7,6.2,4,9.5l14.2-6.9c-2.1-6.8-3.8-14.4,5.6-17.3c7.6-2.3,13.9,0.5,18.8,5.3l9.3-4.6l1.8,2.4
	l-9,4.4c3.7,4.3,6.4,9.5,8.2,14.6c-2.1,0.1-4.4,0.2-6.5,0.3c-0.6-4.1-1.5-8.6-4.9-13.1c0-0.1-0.1-0.1-0.1-0.2l-15.5,7.6
	c2.1,6.4,3.6,13.1-5.2,15.8c-5.3,1.6-13,0.8-18.5-4.2L1256.9,1244.8z M1288,1226.3l14.3-7c-3.7-3.4-8.6-4.9-12.7-3.6
	C1285.2,1217.1,1286.4,1221.4,1288,1226.3L1288,1226.3z M1282.2,1232.5l-13.1,6.4c3,2.6,7.8,4.3,12.2,2.9
	C1284.6,1240.8,1283.6,1237.1,1282.2,1232.5L1282.2,1232.5z M1245.9,1241.4l-2.3,2l-4.6-7.7c-2.6,2.6-5.7,4.6-8.8,6.8
	c-0.9-2.2-1.7-3.6-2.6-5.8c3.3-0.8,6.1-2.1,9.2-4.7l-8-13.6c-6.6,2.7-14.1,4.9-17.6-4.2c-2.9-7.4-0.6-13.9,3.9-19.2l-5.3-8.9l2.3-2
	l5.1,8.7c4-4,9-7.1,13.9-9.3c0.3,2.1,0.6,4.3,0.8,6.4c-4.1,0.9-8.4,2.1-12.7,5.9l-0.1,0.1l8.7,14.8c6.2-2.6,12.8-4.6,16.1,3.9
	c2,5.1,1.8,12.9-2.7,18.8L1245.9,1241.4z M1225,1211.9l-8.1-13.7c-3.1,3.9-4.2,8.9-2.6,12.9C1216,1215.4,1220.2,1213.9,1225,1211.9
	L1225,1211.9z M1231.6,1217.2l7.4,12.5c2.3-3.2,3.6-8.1,2-12.4C1239.7,1214.2,1236.1,1215.4,1231.6,1217.2L1231.6,1217.2z
	 M1305.9,1246.9c6.4,5,12.5,10.9,15,16.9c4,9.7-1,18.7-11.4,19.5c-5.4,0.4-11.4-1.5-15.1-4.5c-5.5-4.4-9.6-12.5-13.2-17
	c-2.7-3.3-3.9-3.6-7.9-4.2c-2.9-0.4-6-0.6-9.1-0.5l-4.9-7.1c4.8,0,9.5,0.1,14,0.6c2.7,0.3,5.1,0.6,6.8,1.2c3,1,4.7,2.8,7.6,6.9
	c2.9,4.2,6.2,9.7,9.3,13.2c2.8,3.1,6.8,6,11,6.7c3.1,0.5,6-0.2,7.9-2c1.7-1.6,2.5-4,1.9-7c-0.4-2-1.3-4-2.7-5.7
	c-3.1-3.9-8.5-7.5-15-11.3C1302,1250.6,1304.2,1248.8,1305.9,1246.9L1305.9,1246.9z M1252.3,1307.4c-5,6.4-10.8,12.5-16.9,15
	c-9.7,4-18.7-0.9-19.5-11.4c-0.4-5.4,1.5-11.4,4.5-15.1c4.4-5.5,12.4-9.6,16.9-13.2c3.3-2.7,3.6-3.9,4.2-7.9c0.4-2.9,0.6-6,0.5-9.1
	c2.4-1.6,4.7-3.3,7.1-4.9c0.1,4.7-0.1,9.4-0.5,14c-0.2,2.7-0.6,5.1-1.2,6.8c-1,3-2.8,4.7-6.9,7.6c-4.1,2.9-9.7,6.3-13.2,9.4
	c-3.1,2.8-6,6.8-6.7,11.1c-0.5,3.1,0.3,6,2.1,7.9c1.6,1.6,4,2.5,7.1,1.9c2-0.4,4-1.4,5.7-2.7c3.9-3.2,7.5-8.5,11.3-15
	C1248.6,1303.6,1250.5,1305.7,1252.3,1307.4L1252.3,1307.4z M1193.2,1254.6c-6.6-4.7-13-10.3-15.7-16.2c-4.4-9.5,0.1-18.8,10.5-20
	c5.4-0.6,11.4,1,15.3,3.9c5.7,4.2,10.1,12,13.9,16.4c2.8,3.2,4,3.4,8.1,3.8c3,0.3,6,0.3,9.1,0.1l5.2,6.9c-4.8,0.3-9.5,0.3-14.1,0.1
	c-2.7-0.1-5.1-0.4-6.8-0.9c-3.1-0.9-4.8-2.6-7.9-6.6c-3.1-4-6.7-9.5-9.9-12.8c-2.9-3-7.1-5.7-11.3-6.2c-3.1-0.4-6,0.5-7.8,2.4
	c-1.6,1.7-2.3,4.1-1.6,7.1c0.5,2,1.5,4,2.9,5.6c3.3,3.8,8.8,7.1,15.4,10.6C1196.9,1250.7,1194.8,1252.6,1193.2,1254.6L1193.2,1254.6
	z"/>
<path class="st8" d="M1276.4,1204.8c-0.9,1-1.8,2-2.9,2.9c-2.2-1.3-4.5-2.4-6.9-3.4c1.2-0.9,2.3-1.8,3.3-2.7l0.2-0.2
	C1272.3,1202.5,1274.4,1203.6,1276.4,1204.8L1276.4,1204.8z M1251.4,1197.1c-0.3,0.5-0.6,1.1-0.9,1.6c-0.6-0.5-1.2-1.1-1.8-1.7h0.1
	C1249.7,1197,1250.6,1197.1,1251.4,1197.1z M1286.2,1212.6c1,1,2,2.1,3,3.3c-1.6,0.6-2.4,1.7-2.6,3.1c-1.3-1.5-2.6-3-4.1-4.4
	C1283.5,1213.8,1284.7,1213.1,1286.2,1212.6L1286.2,1212.6z M1294.5,1223.2c0.5,0.8,1,1.7,1.4,2.6l-3.6,1.7
	c-0.5-0.9-0.9-1.7-1.4-2.6L1294.5,1223.2L1294.5,1223.2z M1301.8,1251c0,0.8,0,1.5-0.1,2.3c-0.4-0.3-0.9-0.5-1.4-0.8
	C1300.8,1252,1301.3,1251.5,1301.8,1251z M1297.1,1271.8c-1,2.2-2.1,4.3-3.4,6.3c-1-0.9-2-1.9-2.9-2.9c1.3-2.2,2.5-4.5,3.5-6.9
	C1295.2,1269.6,1296.1,1270.8,1297.1,1271.8z M1287.1,1286.5c-1,1-2,2-3.1,3c0,0,0-0.1,0-0.1c-0.6-1.6-1.6-2.4-2.8-2.7
	c1.4-1.2,2.7-2.5,3.9-3.9c0.7,0.9,1.4,2,1.9,3.4C1287,1286.4,1287.1,1286.4,1287.1,1286.5z M1276.9,1294.8c-0.8,0.5-1.7,1-2.5,1.5
	l-2.1-3.4c0.9-0.5,1.7-1,2.5-1.5L1276.9,1294.8L1276.9,1294.8z M1247.9,1302.9c-0.6,0-1.2,0-1.8-0.1c0.2-0.4,0.4-0.7,0.6-1.1
	C1247.1,1302.2,1247.5,1302.6,1247.9,1302.9z M1227.6,1298.5c-2.2-1-4.3-2.1-6.4-3.4c0.9-1,1.9-2,3-2.9c2.2,1.3,4.6,2.5,7,3.4
	C1229.8,1296.6,1228.6,1297.6,1227.6,1298.5z M1211.8,1287.8c-1.1-1-2.1-2.1-3-3.2c0.1,0,0.1,0,0.2,0c1.6-0.5,2.5-1.4,2.8-2.6
	c1.2,1.4,2.5,2.7,3.9,4C1214.6,1286.7,1213.4,1287.3,1211.8,1287.8C1211.8,1287.8,1211.8,1287.8,1211.8,1287.8z M1203.5,1277.4
	c-0.5-0.8-1-1.7-1.5-2.6l3.5-1.8c0.5,0.9,1,1.7,1.5,2.6L1203.5,1277.4z M1195.9,1251.7c0-1.4,0-2.9,0-4.3c0.9,0.5,1.7,0.9,2.6,1.4
	C1197.7,1249.7,1196.8,1250.7,1195.9,1251.7L1195.9,1251.7z M1200.3,1228.7c0.9-2.2,2-4.2,3.3-6.2c1.1,0.8,2.1,1.7,3,2.7
	c-1.3,2.2-2.4,4.4-3.3,6.8c-0.8-0.9-1.6-1.8-2.4-2.7C1200.7,1229.1,1200.5,1228.9,1200.3,1228.7L1200.3,1228.7z M1210.9,1213.1
	c1-1,2.1-2,3.1-3c0.1,0.3,0.2,0.6,0.3,0.9c0.5,1.2,1.2,2,2,2.4c-1.3,1.1-2.5,2.3-3.6,3.5c-0.6-0.9-1.1-1.8-1.5-2.8
	C1211.1,1213.8,1211,1213.5,1210.9,1213.1z M1221,1205c0.8-0.5,1.7-1,2.5-1.5l2,3.4c-0.9,0.5-1.7,1-2.5,1.5L1221,1205z"/>
<g>
	<g>
		<path class="st9" d="M1181.8,1209.9c-1.9,0.3-3.8,0.6-5.7,1.2c1.2,0.7,2.4,1.4,3.6,2.1c-0.5,0.8-0.9,1.6-1.4,2.5
			c-2.7-1.4-5.4-2.8-8.1-4.1c0.5-1,1.1-2,1.6-3c1.1,0.7,2.3,1.3,3.4,2c-0.4-1.9-0.8-3.8-1.1-5.7c0.7-1,1.4-2,2.2-3
			c0.2,2.2,0.5,4.3,0.9,6.3c2.1-0.4,4.3-0.7,6.3-0.8C1183,1208.2,1182.4,1209,1181.8,1209.9z"/>
		<path class="st9" d="M1187.6,1193.4c-0.9,0.7-1.7,1.4-2.6,2.1c1.6,1.8,3.1,3.6,4.7,5.3c-0.6,0.6-1.3,1.2-1.9,1.8
			c-1.7-1.7-3.3-3.4-5-5.1c-0.8,0.8-1.6,1.6-2.3,2.5c-0.5-0.4-1-0.9-1.5-1.3c2.3-2.5,4.7-4.8,7.3-6.9
			C1186.8,1192.4,1187.2,1192.9,1187.6,1193.4z"/>
		<path class="st9" d="M1192.5,1193.1c-1.5-2.2-0.1-5.7,3.3-7.4c3.4-1.7,7-0.8,7.9,1.7c0.9,2.5-0.8,5.3-3.6,6.7
			C1197.3,1195.5,1194,1195.3,1192.5,1193.1z M1201.1,1188.4c-0.6-1.5-2.6-1.9-4.4-0.9c-1.9,0.9-2.7,2.7-1.9,4.1
			c0.8,1.4,2.7,1.6,4.3,0.7C1200.8,1191.5,1201.7,1190,1201.1,1188.4z"/>
		<path class="st9" d="M1221.7,1188.6c-0.6-0.9-1.3-1.7-2-2.6c-0.6,0.9-1.2,1.8-1.7,2.7c-0.9,0.1-1.9,0.2-2.8,0.3
			c0.8-1.7,1.8-3.4,2.8-5c-1.2-1.4-2.6-2.7-4-4c1.1-0.2,2.2-0.3,3.3-0.4c0.7,0.7,1.4,1.5,2.1,2.3c0.6-0.8,1.2-1.7,1.9-2.5
			c1.1,0,2.2,0,3.3,0c-1.3,1.4-2.5,2.9-3.5,4.4c1.2,1.5,2.3,3.1,3.4,4.7C1223.6,1188.6,1222.7,1188.6,1221.7,1188.6z"/>
		<path class="st9" d="M1228.6,1184.4c0.2-2.7,3.5-4.4,7.1-3.6c3.7,0.8,5.8,3.8,4.9,6.3c-0.9,2.5-4,3.6-7,2.9
			C1230.7,1189.4,1228.4,1187.1,1228.6,1184.4z M1238.1,1186.3c0.5-1.6-0.7-3.1-2.7-3.5c-2-0.5-3.8,0.4-4,2c-0.2,1.6,1,2.9,2.8,3.3
			C1235.9,1188.5,1237.6,1187.9,1238.1,1186.3z"/>
		<path class="st9" d="M1255.4,1189.5c-1.7,2.5-3.4,5-5.1,7.6c-0.7-0.5-1.4-0.9-2.1-1.4c0.5-0.9,1.1-1.8,1.6-2.7
			c-0.7-0.2-1.3-0.4-1.9-0.7c-2-1.1-3.3-2.8-2.5-4.6c0.4-1,0.9-2,1.3-3c0.9,0.4,1.8,0.8,2.7,1.3c-0.4,0.9-0.9,1.7-1.3,2.6
			c-0.4,0.8,0,1.4,0.9,1.9c0.7,0.4,1.2,0.6,1.9,0.7c0.7-1.1,1.3-2.2,2-3.4C1253.7,1188.4,1254.6,1188.9,1255.4,1189.5z"/>
		<path class="st9" d="M1260.9,1203.7c-0.5,0.4-1,0.9-1.5,1.3c-1.6-1.8-3.3-3.5-5.2-5c1.9-2.3,3.9-4.7,5.8-7
			c2.1,1.8,4.2,3.7,6.1,5.9c-0.5,0.4-1,0.9-1.5,1.3c-1.2-1.3-2.4-2.5-3.6-3.7c-0.3,0.4-0.7,0.7-1,1.1c1.1,1,2.2,2.1,3.2,3.3
			c-0.5,0.4-1,0.9-1.5,1.3c-1-1.1-2-2.1-3.1-3.1c-0.4,0.4-0.7,0.8-1.1,1.2C1258.7,1201.3,1259.9,1202.5,1260.9,1203.7z"/>
		<path class="st9" d="M1273,1212.5c-0.6-1.1-1.1-2.2-1.8-3.2c-2,1.2-4.1,2.4-6.1,3.6c-0.5-0.8-1-1.6-1.5-2.4c2-1.3,3.9-2.6,5.9-4
			c-0.7-1-1.3-1.9-2-2.9c0.5-0.4,1.1-0.8,1.6-1.2c2.1,2.8,4,5.8,5.7,9.1C1274.2,1211.9,1273.6,1212.2,1273,1212.5z"/>
	</g>
</g>
<g>
	<g>
		<path class="st9" d="M1173.5,1296.1c0.3-2.1,0.7-4.1,1.2-6c-1.2,0.7-2.4,1.4-3.6,2.1c-0.6-1-1.1-1.9-1.6-3
			c2.7-1.4,5.4-2.8,8.1-4.1c0.4,0.9,0.9,1.7,1.4,2.5c-1.1,0.7-2.3,1.3-3.4,2c1.8,0.5,3.6,0.9,5.4,1.2c0.6,0.9,1.2,1.7,1.8,2.5
			c-2-0.1-4-0.4-6-0.8c-0.5,2.2-0.8,4.4-1,6.6C1174.9,1298.1,1174.1,1297.1,1173.5,1296.1z"/>
		<path class="st9" d="M1189.9,1303.3c-0.8-0.6-1.6-1.3-2.3-1.9c-1.6,1.8-3.1,3.6-4.7,5.3c-0.8-0.7-1.5-1.4-2.3-2.1
			c1.7-1.7,3.3-3.4,5-5.1c-0.7-0.7-1.4-1.5-2.1-2.2c0.5-0.4,1-0.9,1.5-1.3c1.9,2.1,4,4.1,6.2,5.8
			C1190.7,1302.3,1190.3,1302.8,1189.9,1303.3z"/>
		<path class="st9" d="M1191.6,1307.7c1.5-2.2,4.8-2.4,7.6-1.1c2.8,1.4,4.4,4.2,3.6,6.7c-0.9,2.5-4.5,3.5-7.9,1.7
			C1191.4,1313.3,1190,1309.9,1191.6,1307.7z M1200.2,1312.3c0.6-1.5-0.3-3.1-1.9-3.9c-1.6-0.8-3.5-0.7-4.3,0.7
			c-0.8,1.4,0,3.2,1.9,4.1C1197.6,1314.2,1199.5,1313.8,1200.2,1312.3z"/>
		<path class="st9" d="M1220.7,1321.2c-0.7-0.9-1.4-1.8-2-2.7c-0.7,0.8-1.5,1.7-2.3,2.5c-1.1-0.1-2.2-0.2-3.3-0.4
			c1.5-1.4,2.9-2.8,4.2-4.2c-1-1.6-1.9-3.2-2.7-4.8c0.9,0.1,1.9,0.2,2.8,0.3c0.5,0.8,1,1.7,1.5,2.5c0.6-0.8,1.2-1.6,1.8-2.3
			c0.9,0,1.9,0,2.8,0c-1,1.5-2,3-3.2,4.5c1.1,1.6,2.4,3.1,3.7,4.6C1222.9,1321.2,1221.8,1321.2,1220.7,1321.2z"/>
		<path class="st9" d="M1227.7,1316.3c-0.2-2.7,2-5,5-5.6c3-0.7,6.1,0.4,7,2.9c1,2.5-1.2,5.5-4.9,6.3
			C1231.2,1320.8,1228,1319,1227.7,1316.3z M1237.2,1314.4c-0.5-1.6-2.2-2.2-4-1.8c-1.8,0.4-3,1.7-2.8,3.3c0.2,1.6,2,2.4,4,2
			C1236.4,1317.5,1237.6,1316,1237.2,1314.4z"/>
		<path class="st9" d="M1249.4,1303.7c1.7,2.5,3.4,5,5.1,7.6c-0.8,0.6-1.7,1.1-2.5,1.6c-0.5-0.9-1.1-1.8-1.6-2.7
			c-0.5,0.5-1,0.9-1.7,1.3c-2.2,1.2-4.4,1-5.2-0.7c-0.4-1-0.9-2-1.3-3c0.8-0.3,1.5-0.7,2.3-1.1c0.4,0.9,0.9,1.7,1.3,2.6
			c0.4,0.8,1.2,0.8,2,0.4c0.6-0.4,1.1-0.7,1.6-1.2c-0.7-1.1-1.3-2.2-2-3.4C1248,1304.7,1248.7,1304.2,1249.4,1303.7z"/>
		<path class="st9" d="M1263.8,1300.5c0.5,0.4,1,0.9,1.5,1.3c-1.9,2.2-4,4.1-6.1,5.9c-1.9-2.3-3.9-4.7-5.8-7c1.8-1.5,3.5-3.2,5.1-5
			c0.5,0.4,1,0.9,1.5,1.3c-1.1,1.2-2.2,2.3-3.3,3.4c0.3,0.4,0.7,0.7,1,1.1c1.1-1,2.1-2,3.1-3.1c0.5,0.4,1,0.9,1.5,1.3
			c-1,1.1-2.1,2.2-3.2,3.3c0.4,0.4,0.7,0.8,1.1,1.2C1261.4,1303.1,1262.7,1301.8,1263.8,1300.5z"/>
		<path class="st9" d="M1267.6,1286c-0.5,1-1,2-1.6,2.9c2,1.2,4.1,2.4,6.1,3.6c-0.6,1-1.1,1.9-1.7,2.8c-2-1.3-3.9-2.6-5.9-4
			c-0.6,0.9-1.2,1.8-1.9,2.6c-0.5-0.4-1.1-0.8-1.6-1.2c1.8-2.3,3.4-4.9,4.8-7.7C1266.4,1285.4,1267,1285.7,1267.6,1286z"/>
	</g>
</g>
<g>
	<g>
		<g class="st10">
			<g>
				<rect x="1136.4" y="1246.9" class="st11" width="0.1" height="1.7"/>
			</g>
			<g>
				<rect x="1147" y="1246.9" class="st11" width="0.1" height="1.7"/>
			</g>
			<g>
				<polygon class="st12" points="1147,1246.9 1147,1248.6 1143.2,1259.6 1143.2,1257.9 				"/>
			</g>
			<g>
				<rect x="1140.3" y="1257.9" class="st11" width="2.9" height="1.7"/>
			</g>
			<g>
				<polygon class="st11" points="1140.3,1257.9 1140.3,1259.6 1136.5,1248.6 1136.5,1246.9 				"/>
			</g>
			<g>
				<polygon class="st13" points="1150.3,1243 1150.3,1257.9 1147.1,1257.9 1147.1,1246.9 1147,1246.9 1143.2,1257.9 1140.3,1257.9 
					1136.5,1246.9 1136.4,1246.9 1136.4,1257.9 1133.1,1257.9 1133.1,1243 1138.2,1243 1141.9,1253.6 1145.5,1243 				"/>
			</g>
			<g>
				<rect x="1133.1" y="1257.9" class="st11" width="3.3" height="1.7"/>
			</g>
			<g>
				<rect x="1147.1" y="1257.9" class="st11" width="3.2" height="1.7"/>
			</g>
		</g>
		<g class="st10">
			<g>
				<polygon class="st13" points="1172,1243 1172,1257.9 1168.5,1257.9 1168.5,1247.3 1161.8,1257.9 1157.9,1257.9 1157.9,1243 
					1161.3,1243 1161.3,1253.4 1168.1,1243 				"/>
			</g>
			<g>
				<rect x="1168.5" y="1257.9" class="st11" width="3.4" height="1.7"/>
			</g>
			<g>
				<polygon class="st14" points="1168.5,1247.3 1168.5,1249.1 1161.8,1259.6 1161.8,1257.9 				"/>
			</g>
			<g>
				<rect x="1157.9" y="1257.9" class="st11" width="3.9" height="1.7"/>
			</g>
		</g>
		<g class="st10">
			<g>
				<rect x="1184.6" y="1245.5" class="st11" width="5.7" height="1.7"/>
			</g>
			<g class="st10">
				<defs>
					<path id="SVGID_3_" class="st10" d="M1184.6,1254.7v1.7c0,0.6-0.1,1.1-0.2,1.5c-0.2,0.4-0.4,0.8-0.6,1v-1.7
						c0.2-0.2,0.4-0.6,0.6-1C1184.5,1255.8,1184.6,1255.3,1184.6,1254.7z"/>
				</defs>
				<clipPath id="SVGID_4_">
					<use xlink:href="#SVGID_3_"  style="overflow:visible;"/>
				</clipPath>
				<g class="st15">
					<path class="st16" d="M1184.6,1254.7v1.7c0,0.3,0,0.5-0.1,0.8v-1.7C1184.6,1255.2,1184.6,1254.9,1184.6,1254.7"/>
					<path class="st17" d="M1184.5,1255.4v1.7c0,0.2-0.1,0.4-0.1,0.6v-1.7C1184.5,1255.9,1184.5,1255.6,1184.5,1255.4"/>
					<path class="st18" d="M1184.4,1256v1.7c0,0.1,0,0.1-0.1,0.2c-0.1,0.2-0.1,0.3-0.2,0.5v-1.7c0.1-0.1,0.1-0.3,0.2-0.5
						C1184.4,1256.1,1184.4,1256.1,1184.4,1256"/>
					<path class="st19" d="M1184.1,1256.7v1.7c-0.1,0.2-0.2,0.4-0.4,0.5v-1.7C1183.9,1257.1,1184,1256.9,1184.1,1256.7"/>
				</g>
			</g>
			<g class="st10">
				<defs>
					<path id="SVGID_5_" class="st10" d="M1183.7,1257.2v1.7c-0.2,0.2-0.6,0.4-1,0.5v-1.7
						C1183.2,1257.6,1183.5,1257.4,1183.7,1257.2z"/>
				</defs>
				<clipPath id="SVGID_6_">
					<use xlink:href="#SVGID_5_"  style="overflow:visible;"/>
				</clipPath>
				<g class="st20">
					<path class="st19" d="M1183.7,1257.2v1.7c-0.2,0.2-0.6,0.4-1,0.5v-1.7C1183.2,1257.6,1183.5,1257.4,1183.7,1257.2"/>
				</g>
			</g>
			<g>
				<rect x="1190.2" y="1257.9" class="st11" width="3.6" height="1.7"/>
			</g>
			<g class="st10">
				<defs>
					<path id="SVGID_7_" class="st10" d="M1182.8,1257.7v1.7c-0.4,0.1-0.8,0.2-1.2,0.3v-1.7C1182,1258,1182.4,1257.9,1182.8,1257.7z
						"/>
				</defs>
				<clipPath id="SVGID_8_">
					<use xlink:href="#SVGID_7_"  style="overflow:visible;"/>
				</clipPath>
				<g class="st21">
					<path class="st19" d="M1182.8,1257.7v1.7c-0.4,0.1-0.8,0.2-1.2,0.3v-1.7C1182,1258,1182.4,1257.9,1182.8,1257.7"/>
				</g>
			</g>
			<g>
				<path class="st13" d="M1193.8,1243v14.9h-3.6v-12.4h-5.7v9.1c0,0.6-0.1,1.1-0.2,1.5c-0.2,0.4-0.4,0.8-0.6,1
					c-0.2,0.2-0.6,0.4-1,0.5c-0.4,0.1-0.8,0.2-1.2,0.3c-0.4,0-0.8,0.1-1.4,0.1c-0.9,0-1.5,0-1.9-0.1v-2.3c0.3,0.1,0.7,0.1,1.2,0.1
					c0.9,0,1.4-0.5,1.4-1.5V1243H1193.8z"/>
			</g>
			<g class="st10">
				<defs>
					<path id="SVGID_9_" class="st10" d="M1181.6,1258v1.7c-0.4,0-0.8,0.1-1.4,0.1c-0.9,0-1.5,0-1.9-0.1v-1.7c0.4,0.1,1,0.1,1.9,0.1
						C1180.8,1258.1,1181.2,1258,1181.6,1258z"/>
				</defs>
				<clipPath id="SVGID_10_">
					<use xlink:href="#SVGID_9_"  style="overflow:visible;"/>
				</clipPath>
				<g class="st22">
					<path class="st19" d="M1181.6,1258v1.7c-0.4,0-0.8,0.1-1.4,0.1c-0.9,0-1.5,0-1.9-0.1v-1.7c0.4,0.1,1,0.1,1.9,0.1
						C1180.8,1258.1,1181.2,1258,1181.6,1258"/>
				</g>
			</g>
		</g>
		<g class="st10">
			<g>
				<rect x="1206.4" y="1245.5" class="st11" width="5.7" height="1.7"/>
			</g>
			<g class="st10">
				<defs>
					<path id="SVGID_11_" class="st10" d="M1206.4,1254.7v1.7c0,0.6-0.1,1.1-0.2,1.5c-0.2,0.4-0.4,0.8-0.6,1v-1.7
						c0.2-0.2,0.4-0.6,0.6-1C1206.4,1255.8,1206.4,1255.3,1206.4,1254.7z"/>
				</defs>
				<clipPath id="SVGID_12_">
					<use xlink:href="#SVGID_11_"  style="overflow:visible;"/>
				</clipPath>
				<g class="st23">
					<path class="st16" d="M1206.4,1254.7v1.7c0,0.3,0,0.5-0.1,0.8v-1.7C1206.4,1255.2,1206.4,1254.9,1206.4,1254.7"/>
					<path class="st17" d="M1206.4,1255.4v1.7c0,0.2-0.1,0.4-0.1,0.6v-1.7C1206.3,1255.9,1206.4,1255.6,1206.4,1255.4"/>
					<path class="st18" d="M1206.3,1256v1.7c0,0.1,0,0.1-0.1,0.2c-0.1,0.2-0.1,0.3-0.2,0.5v-1.7c0.1-0.1,0.1-0.3,0.2-0.5
						C1206.2,1256.1,1206.2,1256.1,1206.3,1256"/>
					<path class="st19" d="M1206,1256.7v1.7c-0.1,0.2-0.2,0.4-0.4,0.5v-1.7C1205.8,1257.1,1205.9,1256.9,1206,1256.7"/>
				</g>
			</g>
			<g class="st10">
				<defs>
					<path id="SVGID_13_" class="st10" d="M1205.6,1257.2v1.7c-0.2,0.2-0.6,0.4-1,0.5v-1.7
						C1205.1,1257.6,1205.4,1257.4,1205.6,1257.2z"/>
				</defs>
				<clipPath id="SVGID_14_">
					<use xlink:href="#SVGID_13_"  style="overflow:visible;"/>
				</clipPath>
				<g class="st24">
					<path class="st19" d="M1205.6,1257.2v1.7c-0.2,0.2-0.6,0.4-1,0.5v-1.7C1205.1,1257.6,1205.4,1257.4,1205.6,1257.2"/>
				</g>
			</g>
			<g>
				<rect x="1212.1" y="1257.9" class="st11" width="3.6" height="1.7"/>
			</g>
			<g class="st10">
				<defs>
					<path id="SVGID_15_" class="st10" d="M1204.6,1257.7v1.7c-0.4,0.1-0.8,0.2-1.2,0.3v-1.7
						C1203.8,1258,1204.2,1257.9,1204.6,1257.7z"/>
				</defs>
				<clipPath id="SVGID_16_">
					<use xlink:href="#SVGID_15_"  style="overflow:visible;"/>
				</clipPath>
				<g class="st25">
					<path class="st19" d="M1204.6,1257.7v1.7c-0.4,0.1-0.8,0.2-1.2,0.3v-1.7C1203.8,1258,1204.2,1257.9,1204.6,1257.7"/>
				</g>
			</g>
			<g>
				<path class="st13" d="M1215.7,1243v14.9h-3.6v-12.4h-5.7v9.1c0,0.6-0.1,1.1-0.2,1.5c-0.2,0.4-0.4,0.8-0.6,1
					c-0.2,0.2-0.6,0.4-1,0.5c-0.4,0.1-0.8,0.2-1.2,0.3c-0.4,0-0.8,0.1-1.3,0.1c-0.9,0-1.5,0-1.9-0.1v-2.3c0.3,0.1,0.7,0.1,1.2,0.1
					c0.9,0,1.4-0.5,1.4-1.5V1243H1215.7z"/>
			</g>
			<g class="st10">
				<defs>
					<path id="SVGID_17_" class="st10" d="M1203.5,1258v1.7c-0.4,0-0.8,0.1-1.3,0.1c-0.9,0-1.5,0-1.9-0.1v-1.7
						c0.4,0.1,1,0.1,1.9,0.1C1202.7,1258.1,1203.1,1258,1203.5,1258z"/>
				</defs>
				<clipPath id="SVGID_18_">
					<use xlink:href="#SVGID_17_"  style="overflow:visible;"/>
				</clipPath>
				<g class="st26">
					<path class="st19" d="M1203.5,1258v1.7c-0.4,0-0.8,0.1-1.3,0.1c-0.9,0-1.5,0-1.9-0.1v-1.7c0.4,0.1,1,0.1,1.9,0.1
						C1202.7,1258.1,1203.1,1258,1203.5,1258"/>
				</g>
			</g>
		</g>
		<g class="st10">
			<g>
				<polygon class="st13" points="1237.3,1243 1237.3,1257.9 1233.9,1257.9 1233.9,1247.3 1227.1,1257.9 1223.3,1257.9 1223.3,1243 
					1226.7,1243 1226.7,1253.4 1233.5,1243 				"/>
			</g>
			<g>
				<rect x="1233.9" y="1257.9" class="st11" width="3.4" height="1.7"/>
			</g>
			<g>
				<polygon class="st14" points="1233.9,1247.3 1233.9,1249.1 1227.1,1259.6 1227.1,1257.9 				"/>
			</g>
			<g>
				<rect x="1223.3" y="1257.9" class="st11" width="3.9" height="1.7"/>
			</g>
		</g>
		<g class="st10">
			<g class="st10">
				<defs>
					<path id="SVGID_19_" class="st10" d="M1255.2,1247.3v1.7c0-0.7-0.3-1.2-0.9-1.5c-0.6-0.3-1.5-0.4-2.6-0.4c-1.2,0-2,0.1-2.6,0.4
						v-1.7c0.6-0.3,1.4-0.4,2.6-0.4c1.2,0,2,0.2,2.6,0.4C1254.9,1246,1255.2,1246.5,1255.2,1247.3z"/>
				</defs>
				<clipPath id="SVGID_20_">
					<use xlink:href="#SVGID_19_"  style="overflow:visible;"/>
				</clipPath>
				<g class="st27">
					<path class="st19" d="M1255.2,1247.3v1.7c0-0.7-0.3-1.2-0.9-1.5c-0.6-0.3-1.5-0.4-2.6-0.4c-1.2,0-2,0.1-2.6,0.4v-1.7
						c0.6-0.3,1.4-0.4,2.6-0.4c1.2,0,2,0.2,2.6,0.4C1254.9,1246,1255.2,1246.5,1255.2,1247.3"/>
				</g>
			</g>
			<g class="st10">
				<defs>
					<path id="SVGID_21_" class="st10" d="M1249.1,1245.7v1.7c-0.6,0.3-0.9,0.8-0.9,1.5v-1.7
						C1248.2,1246.5,1248.5,1246,1249.1,1245.7z"/>
				</defs>
				<clipPath id="SVGID_22_">
					<use xlink:href="#SVGID_21_"  style="overflow:visible;"/>
				</clipPath>
				<g class="st28">
					<path class="st19" d="M1249.1,1245.7v1.7c-0.3,0.1-0.5,0.4-0.7,0.6v-1.7C1248.5,1246.1,1248.8,1245.9,1249.1,1245.7"/>
					<path class="st18" d="M1248.4,1246.3v1.7c0,0.1-0.1,0.2-0.1,0.3v-1.7C1248.3,1246.5,1248.4,1246.4,1248.4,1246.3"/>
					<path class="st17" d="M1248.3,1246.6v1.7c0,0.1-0.1,0.2-0.1,0.3v-1.7C1248.2,1246.8,1248.3,1246.7,1248.3,1246.6"/>
					<path class="st16" d="M1248.2,1246.9v1.7c0,0.1,0,0.2,0,0.3v-1.7C1248.2,1247.1,1248.2,1247,1248.2,1246.9"/>
				</g>
			</g>
			<g>
				<path class="st13" d="M1258.3,1245.2c0.3,0.6,0.5,1.2,0.5,2v6.5c0,0.8-0.2,1.6-0.7,2.2c-0.5,0.6-1,1-1.8,1.3
					c-0.7,0.3-1.5,0.5-2.2,0.6c-0.7,0.1-1.5,0.2-2.4,0.2c-0.8,0-1.5,0-2.2-0.1c-0.7-0.1-1.4-0.3-2.2-0.6c-0.8-0.3-1.4-0.7-1.9-1.3
					c-0.5-0.6-0.7-1.4-0.7-2.3v-6.5c0-0.8,0.2-1.4,0.5-2c0.4-0.6,0.8-1,1.2-1.3c0.5-0.3,1.1-0.6,1.8-0.7c0.7-0.2,1.3-0.3,1.8-0.4
					c0.5,0,1.1-0.1,1.7-0.1c0.6,0,1.2,0,1.7,0.1c0.5,0,1.2,0.2,1.9,0.4c0.7,0.2,1.3,0.4,1.8,0.7
					C1257.5,1244.2,1257.9,1244.7,1258.3,1245.2z M1255.2,1253.8v-6.5c0-0.7-0.3-1.2-0.9-1.5c-0.6-0.3-1.5-0.4-2.6-0.4
					c-1.2,0-2,0.1-2.6,0.4c-0.6,0.3-0.9,0.8-0.9,1.5v6.5c0,0.4,0.1,0.7,0.3,1c0.2,0.3,0.5,0.4,0.9,0.5c0.4,0.1,0.7,0.2,1.1,0.2
					c0.3,0,0.8,0.1,1.3,0.1c0.5,0,0.9,0,1.3-0.1c0.4,0,0.7-0.1,1.1-0.2c0.4-0.1,0.6-0.3,0.8-0.5
					C1255.1,1254.5,1255.2,1254.2,1255.2,1253.8"/>
			</g>
			<g class="st10">
				<defs>
					<path id="SVGID_23_" class="st10" d="M1258.8,1253.8v1.7c0,0.8-0.2,1.6-0.7,2.2c-0.5,0.6-1,1-1.8,1.3c-0.7,0.3-1.5,0.5-2.2,0.6
						c-0.7,0.1-1.5,0.2-2.4,0.2c-0.8,0-1.5,0-2.2-0.1c-0.7-0.1-1.4-0.3-2.2-0.6c-0.8-0.3-1.4-0.7-1.9-1.3c-0.5-0.6-0.7-1.4-0.7-2.3
						v-1.7c0,0.9,0.2,1.7,0.7,2.3c0.5,0.6,1.1,1.1,1.9,1.3c0.8,0.3,1.5,0.5,2.2,0.6c0.7,0.1,1.4,0.1,2.2,0.1c0.8,0,1.6-0.1,2.4-0.2
						c0.8-0.1,1.5-0.3,2.2-0.6c0.8-0.3,1.4-0.7,1.8-1.3C1258.6,1255.4,1258.8,1254.7,1258.8,1253.8z"/>
				</defs>
				<clipPath id="SVGID_24_">
					<use xlink:href="#SVGID_23_"  style="overflow:visible;"/>
				</clipPath>
				<g class="st29">
					<path class="st16" d="M1258.8,1253.8v1.7c0,0.2,0,0.4,0,0.6v-1.7C1258.8,1254.2,1258.8,1254,1258.8,1253.8"/>
					<path class="st17" d="M1258.7,1254.4v1.7c0,0.2-0.1,0.4-0.1,0.6v-1.7C1258.7,1254.8,1258.7,1254.6,1258.7,1254.4"/>
					<path class="st18" d="M1258.6,1255v1.7c-0.1,0.2-0.1,0.4-0.2,0.6v-1.7C1258.5,1255.4,1258.5,1255.2,1258.6,1255"/>
					<path class="st19" d="M1258.4,1255.6v1.7c-0.1,0.1-0.2,0.3-0.2,0.4c-0.5,0.6-1,1-1.8,1.3c-0.7,0.3-1.5,0.5-2.2,0.6
						c-0.7,0.1-1.5,0.2-2.4,0.2c-0.8,0-1.5,0-2.2-0.1c-0.7-0.1-1.4-0.3-2.2-0.6c-0.8-0.3-1.4-0.7-1.9-1.3c-0.5-0.6-0.7-1.4-0.7-2.3
						v-1.7c0,0.9,0.2,1.7,0.7,2.3c0.5,0.6,1.1,1.1,1.9,1.3c0.8,0.3,1.5,0.5,2.2,0.6c0.7,0.1,1.4,0.1,2.2,0.1c0.8,0,1.6-0.1,2.4-0.2
						c0.8-0.1,1.5-0.3,2.2-0.6c0.8-0.3,1.4-0.7,1.8-1.3C1258.2,1255.8,1258.3,1255.7,1258.4,1255.6"/>
				</g>
			</g>
		</g>
		<g class="st10">
			<g>
				<rect x="1269.6" y="1251.5" class="st11" width="6.4" height="1.7"/>
			</g>
			<g>
				<polygon class="st13" points="1279.6,1243 1279.6,1257.9 1276,1257.9 1276,1251.5 1269.6,1251.5 1269.6,1257.9 1266,1257.9 
					1266,1243 1269.6,1243 1269.6,1249 1276,1249 1276,1243 				"/>
			</g>
			<g>
				<rect x="1276" y="1257.9" class="st11" width="3.6" height="1.7"/>
			</g>
			<g>
				<rect x="1266" y="1257.9" class="st11" width="3.6" height="1.7"/>
			</g>
		</g>
		<g class="st10">
			<g>
				<rect x="1290.7" y="1245.5" class="st11" width="7.8" height="1.7"/>
			</g>
			<g>
				<rect x="1290.7" y="1251.5" class="st11" width="7" height="1.7"/>
			</g>
			<g>
				<polygon class="st13" points="1298.5,1243 1298.5,1245.5 1290.7,1245.5 1290.7,1249 1297.8,1249 1297.8,1251.5 1290.7,1251.5 
					1290.7,1255.3 1298.8,1255.3 1298.8,1257.9 1287.2,1257.9 1287.2,1243 				"/>
			</g>
			<g>
				<rect x="1287.2" y="1257.9" class="st11" width="11.6" height="1.7"/>
			</g>
		</g>
		<g class="st10">
			<g>
				<rect x="1309.1" y="1245.5" class="st11" width="2.2" height="1.7"/>
			</g>
			<g class="st10">
				<defs>
					<path id="SVGID_25_" class="st10" d="M1314,1246.7v1.7c0-0.5-0.2-0.8-0.5-1c-0.4-0.2-1.1-0.2-2.1-0.2v-1.7c1,0,1.7,0.1,2.1,0.2
						C1313.8,1245.9,1314,1246.2,1314,1246.7z"/>
				</defs>
				<clipPath id="SVGID_26_">
					<use xlink:href="#SVGID_25_"  style="overflow:visible;"/>
				</clipPath>
				<g class="st30">
					<path class="st19" d="M1314,1246.7v1.7c0-0.5-0.2-0.8-0.5-1c-0.4-0.2-1.1-0.2-2.1-0.2v-1.7c1,0,1.7,0.1,2.1,0.2
						C1313.8,1245.9,1314,1246.2,1314,1246.7"/>
				</g>
			</g>
			<g class="st10">
				<defs>
					<path id="SVGID_27_" class="st10" d="M1317.4,1249.2v1.7c0,1.5-0.5,2.5-1.5,3c-1,0.5-2.6,0.8-4.9,0.8v-1.7
						c2.3,0,3.9-0.3,4.9-0.8C1317,1251.7,1317.4,1250.7,1317.4,1249.2z"/>
				</defs>
				<clipPath id="SVGID_28_">
					<use xlink:href="#SVGID_27_"  style="overflow:visible;"/>
				</clipPath>
				<g class="st31">
					<path class="st16" d="M1317.4,1249.2v1.7c0,0.3,0,0.5-0.1,0.8v-1.7C1317.4,1249.8,1317.4,1249.5,1317.4,1249.2"/>
					<path class="st17" d="M1317.4,1250v1.7c0,0.2-0.1,0.4-0.1,0.6v-1.7C1317.3,1250.5,1317.4,1250.2,1317.4,1250"/>
					<path class="st18" d="M1317.2,1250.7v1.7c-0.1,0.2-0.1,0.4-0.2,0.5v-1.7C1317.1,1251,1317.2,1250.9,1317.2,1250.7"/>
					<path class="st19" d="M1317,1251.2v1.7c-0.2,0.4-0.6,0.8-1,1c-1,0.5-2.6,0.8-4.9,0.8v-1.7c2.3,0,3.9-0.3,4.9-0.8
						C1316.4,1252,1316.8,1251.7,1317,1251.2"/>
				</g>
			</g>
			<g>
				<rect x="1309.1" y="1253" class="st11" width="2" height="1.7"/>
			</g>
			<g>
				<path class="st13" d="M1316.1,1243.7c0.9,0.5,1.4,1.4,1.4,2.7v2.8c0,1.5-0.5,2.5-1.5,3c-1,0.5-2.6,0.8-4.9,0.8h-2v4.8h-3.6V1243
					h6C1313.6,1243,1315.2,1243.2,1316.1,1243.7z M1314,1249.1v-2.4c0-0.5-0.2-0.8-0.5-1c-0.4-0.2-1.1-0.2-2.1-0.2h-2.2v5.1h2.3
					c0.9,0,1.6-0.1,2-0.3C1313.8,1250,1314,1249.6,1314,1249.1"/>
			</g>
			<g>
				<rect x="1305.6" y="1257.9" class="st11" width="3.6" height="1.7"/>
			</g>
		</g>
		<g class="st10">
			<g class="st10">
				<defs>
					<path id="SVGID_29_" class="st10" d="M1334.6,1247.3v1.7c0-0.7-0.3-1.2-0.9-1.5c-0.6-0.3-1.5-0.4-2.6-0.4c-1.2,0-2,0.1-2.6,0.4
						v-1.7c0.6-0.3,1.5-0.4,2.6-0.4c1.2,0,2,0.2,2.6,0.4C1334.3,1246,1334.6,1246.5,1334.6,1247.3z"/>
				</defs>
				<clipPath id="SVGID_30_">
					<use xlink:href="#SVGID_29_"  style="overflow:visible;"/>
				</clipPath>
				<g class="st32">
					<path class="st19" d="M1334.6,1247.3v1.7c0-0.7-0.3-1.2-0.9-1.5c-0.6-0.3-1.5-0.4-2.6-0.4c-1.2,0-2,0.1-2.6,0.4v-1.7
						c0.6-0.3,1.5-0.4,2.6-0.4c1.2,0,2,0.2,2.6,0.4C1334.3,1246,1334.6,1246.5,1334.6,1247.3"/>
				</g>
			</g>
			<g class="st10">
				<defs>
					<path id="SVGID_31_" class="st10" d="M1328.5,1245.7v1.7c-0.6,0.3-0.9,0.8-0.9,1.5v-1.7
						C1327.6,1246.5,1327.9,1246,1328.5,1245.7z"/>
				</defs>
				<clipPath id="SVGID_32_">
					<use xlink:href="#SVGID_31_"  style="overflow:visible;"/>
				</clipPath>
				<g class="st33">
					<path class="st19" d="M1328.5,1245.7v1.7c-0.3,0.1-0.5,0.3-0.7,0.6v-1.7C1328,1246.1,1328.2,1245.9,1328.5,1245.7"/>
					<path class="st18" d="M1327.8,1246.3v1.7c0,0.1-0.1,0.2-0.1,0.3v-1.7C1327.7,1246.5,1327.8,1246.4,1327.8,1246.3"/>
					<path class="st17" d="M1327.7,1246.6v1.7c0,0.1-0.1,0.2-0.1,0.3v-1.7C1327.7,1246.8,1327.7,1246.7,1327.7,1246.6"/>
					<path class="st16" d="M1327.6,1246.9v1.7c0,0.1,0,0.2,0,0.3v-1.7C1327.6,1247.1,1327.6,1247,1327.6,1246.9"/>
				</g>
			</g>
			<g>
				<path class="st13" d="M1337.7,1245.2c0.3,0.6,0.5,1.2,0.5,2v6.5c0,0.8-0.2,1.6-0.7,2.2c-0.4,0.6-1,1-1.8,1.3
					c-0.8,0.3-1.5,0.5-2.3,0.6c-0.7,0.1-1.5,0.2-2.4,0.2c-0.8,0-1.5,0-2.2-0.1c-0.7-0.1-1.4-0.3-2.2-0.6c-0.8-0.3-1.4-0.7-1.9-1.3
					c-0.5-0.6-0.7-1.4-0.7-2.3v-6.5c0-0.8,0.2-1.4,0.5-2c0.4-0.6,0.8-1,1.2-1.3c0.5-0.3,1.1-0.6,1.8-0.7c0.7-0.2,1.3-0.3,1.8-0.4
					c0.5,0,1.1-0.1,1.7-0.1c0.6,0,1.2,0,1.7,0.1c0.5,0,1.2,0.2,1.9,0.4c0.7,0.2,1.3,0.4,1.8,0.7
					C1336.9,1244.2,1337.3,1244.7,1337.7,1245.2z M1334.6,1253.8v-6.5c0-0.7-0.3-1.2-0.9-1.5c-0.6-0.3-1.5-0.4-2.6-0.4
					c-1.2,0-2,0.1-2.6,0.4c-0.6,0.3-0.9,0.8-0.9,1.5v6.5c0,0.4,0.1,0.7,0.3,1s0.5,0.4,0.9,0.5c0.4,0.1,0.7,0.2,1.1,0.2
					c0.3,0,0.8,0.1,1.3,0.1c0.5,0,0.9,0,1.3-0.1c0.4,0,0.7-0.1,1.1-0.2c0.4-0.1,0.6-0.3,0.8-0.5
					C1334.5,1254.5,1334.6,1254.2,1334.6,1253.8"/>
			</g>
			<g class="st10">
				<defs>
					<path id="SVGID_33_" class="st10" d="M1338.2,1253.8v1.7c0,0.8-0.2,1.6-0.7,2.2c-0.4,0.6-1,1-1.8,1.3c-0.8,0.3-1.5,0.5-2.3,0.6
						c-0.7,0.1-1.5,0.2-2.4,0.2c-0.8,0-1.5,0-2.2-0.1c-0.7-0.1-1.4-0.3-2.2-0.6c-0.8-0.3-1.4-0.7-1.9-1.3c-0.5-0.6-0.7-1.4-0.7-2.3
						v-1.7c0,0.9,0.2,1.7,0.7,2.3c0.5,0.6,1.1,1.1,1.9,1.3c0.8,0.3,1.5,0.5,2.2,0.6c0.7,0.1,1.4,0.1,2.2,0.1c0.8,0,1.6-0.1,2.4-0.2
						c0.8-0.1,1.5-0.3,2.3-0.6c0.7-0.3,1.4-0.7,1.8-1.3C1338,1255.4,1338.2,1254.7,1338.2,1253.8z"/>
				</defs>
				<clipPath id="SVGID_34_">
					<use xlink:href="#SVGID_33_"  style="overflow:visible;"/>
				</clipPath>
				<g class="st34">
					<path class="st16" d="M1338.2,1253.8v1.7c0,0.2,0,0.4,0,0.6v-1.7C1338.2,1254.2,1338.2,1254,1338.2,1253.8"/>
					<path class="st17" d="M1338.1,1254.4v1.7c0,0.2-0.1,0.4-0.1,0.6v-1.7C1338.1,1254.8,1338.1,1254.6,1338.1,1254.4"/>
					<path class="st18" d="M1338,1255v1.7c-0.1,0.2-0.1,0.4-0.2,0.6v-1.7C1337.9,1255.4,1338,1255.2,1338,1255"/>
					<path class="st19" d="M1337.8,1255.6v1.7c-0.1,0.1-0.2,0.3-0.2,0.4c-0.4,0.6-1,1-1.8,1.3c-0.8,0.3-1.5,0.5-2.3,0.6
						c-0.7,0.1-1.5,0.2-2.4,0.2c-0.8,0-1.5,0-2.2-0.1c-0.7-0.1-1.4-0.3-2.2-0.6c-0.8-0.3-1.4-0.7-1.9-1.3c-0.5-0.6-0.7-1.4-0.7-2.3
						v-1.7c0,0.9,0.2,1.7,0.7,2.3c0.5,0.6,1.1,1.1,1.9,1.3c0.8,0.3,1.5,0.5,2.2,0.6c0.7,0.1,1.4,0.1,2.2,0.1c0.8,0,1.6-0.1,2.4-0.2
						c0.8-0.1,1.5-0.3,2.3-0.6c0.7-0.3,1.4-0.7,1.8-1.3C1337.6,1255.8,1337.7,1255.7,1337.8,1255.6"/>
				</g>
			</g>
		</g>
		<g class="st10">
			<g>
				<rect x="1348.7" y="1246.9" class="st11" width="0.1" height="1.7"/>
			</g>
			<g>
				<rect x="1359.4" y="1246.9" class="st11" width="0.1" height="1.7"/>
			</g>
			<g>
				<polygon class="st12" points="1359.4,1246.9 1359.4,1248.6 1355.6,1259.6 1355.6,1257.9 				"/>
			</g>
			<g>
				<rect x="1352.7" y="1257.9" class="st11" width="2.9" height="1.7"/>
			</g>
			<g>
				<polygon class="st11" points="1352.7,1257.9 1352.7,1259.6 1348.8,1248.6 1348.8,1246.9 				"/>
			</g>
			<g>
				<polygon class="st13" points="1362.7,1243 1362.7,1257.9 1359.4,1257.9 1359.4,1246.9 1359.4,1246.9 1355.6,1257.9 
					1352.7,1257.9 1348.8,1246.9 1348.7,1246.9 1348.7,1257.9 1345.5,1257.9 1345.5,1243 1350.6,1243 1354.2,1253.6 1357.9,1243 
									"/>
			</g>
			<g>
				<rect x="1345.5" y="1257.9" class="st11" width="3.3" height="1.7"/>
			</g>
			<g>
				<rect x="1359.4" y="1257.9" class="st11" width="3.2" height="1.7"/>
			</g>
		</g>
	</g>
</g>
</svg>
