<svg id="Layer_1" data-name="Layer 1" xmlns="http://www.w3.org/2000/svg" xmlns:xlink="http://www.w3.org/1999/xlink" viewBox="0 0 403.19 233.55"><defs><clipPath id="clip-path" transform="translate(-4.89 -261.22)"><polygon points="-1.74 380.26 209.71 257.38 414.7 375.74 203.26 498.62 -1.74 380.26" style="fill:none"/></clipPath></defs><g style="isolation:isolate"><g style="clip-path:url(#clip-path)"><path d="M10.32,386.41c-5.87-3.39-5.9-8.91-.07-12.29L199.14,264.35c5.83-3.39,15.35-3.39,21.21,0l182.3,105.24c5.87,3.39,5.89,8.9.06,12.29L213.82,491.65c-5.83,3.39-15.34,3.39-21.21,0L10.32,386.41m393-17.22L221.06,263.94c-6.27-3.62-16.4-3.62-22.63,0L9.54,373.71c-6.23,3.62-6.2,9.48.07,13.1l182.3,105.25c6.27,3.62,16.4,3.62,22.63,0L403.43,382.29c6.22-3.62,6.19-9.48-.08-13.1" transform="translate(-4.89 -261.22)" style="fill:aqua"/></g></g></svg>