<svg id="Layer_1" data-name="Layer 1" xmlns="http://www.w3.org/2000/svg" viewBox="0 0 49.5 50.84"><polygon points="14.5 40.04 36.69 27.24 36.69 17.82 14.5 30.62 14.5 40.04" style="fill:#b4caed"/><polygon points="14.5 40.04 14.5 30.62 9.73 27.87 9.73 37.29 14.5 40.04" style="fill:#dae5f8"/><polygon points="14.5 30.62 36.69 17.82 31.92 15.06 9.73 27.87 14.5 30.62" style="fill:#fff"/><polygon points="14.15 30.41 36.33 17.61 36.33 17.05 14.15 29.85 14.15 30.41" style="fill:#295e87"/><polygon points="14.15 30.41 14.15 29.85 10.1 27.51 10.1 28.08 14.15 30.41" style="fill:#517fa2"/><polygon points="14.15 29.85 36.33 17.05 32.29 14.71 10.1 27.51 14.15 29.85" style="fill:#659ec9"/><polygon points="12.76 29.05 34.95 16.25 33.69 15.52 11.51 28.32 12.76 29.05" style="fill:#00537d"/><polygon points="11.89 28.32 12.12 28.45 33.66 16.03 34.29 16.39 34.52 16.26 33.66 15.76 11.89 28.32" style="fill:#003552"/><polygon points="12.12 28.45 12.75 28.82 34.29 16.39 33.66 16.03 12.12 28.45" style="fill:#1078ad"/><path d="M162.76,87.66a3.76,3.76,0,0,1-1.71-3V83l1.71,1Z" transform="translate(-159.12 -53.64)" style="fill:#295e87"/><polygon points="0 28.66 0 29.24 3.56 32.28 3.89 30.79 0 28.66" style="fill:#b4caed"/><polygon points="3.7 30.79 0 28.66 5.9 25.25 9.6 27.39 3.7 30.79" style="fill:#fff"/><path d="M164.47,85.15l-2,1a13.46,13.46,0,0,0,0,6.31c.74,2.94,6.1,4.35,6.1,4.35l5.26-3,.61.35,0-.72s-6.25-2.1-6.25-7.5Z" transform="translate(-159.12 -53.64)" style="fill:#fff"/><path d="M166.36,86.38a.26.26,0,0,1,.24,0l.66.38-.12.06-.14.07c0,.13-.12.19-.2.3h0l0,.41-.68-.4h0A.23.23,0,0,1,166,87,.76.76,0,0,1,166.36,86.38Z" transform="translate(-159.12 -53.64)" style="fill:#295e87"/><path d="M167,86.77c.19-.11.34,0,.34.19a.75.75,0,0,1-.34.59c-.18.1-.33,0-.33-.2A.76.76,0,0,1,167,86.77Z" transform="translate(-159.12 -53.64)" style="fill:#174666"/><path d="M166.93,87.4a.54.54,0,0,0,.25-.43.21.21,0,0,0,0-.12c.07,0,.12.07.12.17a.52.52,0,0,1-.24.42c-.09,0-.17,0-.21,0Z" transform="translate(-159.12 -53.64)" style="fill:#517fa2"/><path d="M167,86.88a.14.14,0,0,1,.12,0,.21.21,0,0,1,0,.12.54.54,0,0,1-.25.43l-.12,0a.22.22,0,0,1,0-.13A.54.54,0,0,1,167,86.88Z" transform="translate(-159.12 -53.64)" style="fill:#1d374e"/><path d="M169.36,88.54a4.28,4.28,0,0,1-2.51-1.24c-.08-.09,0-.2,0-.3a.17.17,0,0,1,.29,0s1.52,1.5,2.71,1c.76-.32,1.67-1.58,1.67-5.82a.23.23,0,1,1,.45,0c0,3.6-.66,5.7-1.95,6.23A1.87,1.87,0,0,1,169.36,88.54Z" transform="translate(-159.12 -53.64)" style="fill:#eb5c44"/><path d="M165.14,87.09a.24.24,0,0,1,.24,0l.66.38-.12,0-.14.07c0,.13-.11.2-.2.31h0l0,.4-.68-.39h0a.24.24,0,0,1-.09-.22A.76.76,0,0,1,165.14,87.09Z" transform="translate(-159.12 -53.64)" style="fill:#295e87"/><path d="M165.8,87.47c.19-.11.34,0,.34.2a.74.74,0,0,1-.34.58c-.18.11-.33,0-.33-.19A.76.76,0,0,1,165.8,87.47Z" transform="translate(-159.12 -53.64)" style="fill:#174666"/><path d="M165.71,88.1a.54.54,0,0,0,.25-.42.22.22,0,0,0,0-.13c.07,0,.12.07.12.17a.56.56,0,0,1-.24.43c-.09,0-.17,0-.21,0A.15.15,0,0,0,165.71,88.1Z" transform="translate(-159.12 -53.64)" style="fill:#517fa2"/><path d="M165.8,87.58a.27.27,0,0,1,.12,0,.22.22,0,0,1,0,.13.54.54,0,0,1-.25.42.15.15,0,0,1-.12,0,.16.16,0,0,1,0-.12A.54.54,0,0,1,165.8,87.58Z" transform="translate(-159.12 -53.64)" style="fill:#1d374e"/><path d="M168.11,89.26a4.24,4.24,0,0,1-2.5-1.24c-.09-.09,0-.21,0-.31a.17.17,0,0,1,.27,0s1.51,1.51,2.7,1c.76-.32,1.67-1.59,1.67-5.83a.22.22,0,0,1,.23-.22.22.22,0,0,1,.22.22c0,3.61-.65,5.71-1.95,6.24A1.87,1.87,0,0,1,168.11,89.26Z" transform="translate(-159.12 -53.64)" style="fill:#4fbeff"/><path d="M164,87.75a.26.26,0,0,1,.24,0l.66.38-.12,0-.14.07c0,.13-.11.2-.2.31h0l0,.4-.68-.39h0a.23.23,0,0,1-.09-.21A.76.76,0,0,1,164,87.75Z" transform="translate(-159.12 -53.64)" style="fill:#295e87"/><path d="M164.65,88.14c.19-.11.34,0,.34.19a.71.71,0,0,1-.34.58c-.18.11-.33,0-.33-.19A.73.73,0,0,1,164.65,88.14Z" transform="translate(-159.12 -53.64)" style="fill:#174666"/><path d="M164.56,88.76a.51.51,0,0,0,.25-.42.25.25,0,0,0,0-.13c.07,0,.12.07.12.18a.56.56,0,0,1-.24.42c-.09,0-.17,0-.21,0A.21.21,0,0,0,164.56,88.76Z" transform="translate(-159.12 -53.64)" style="fill:#517fa2"/><path d="M164.65,88.25a.21.21,0,0,1,.12,0,.25.25,0,0,1,0,.13.51.51,0,0,1-.25.42.21.21,0,0,1-.12,0,.17.17,0,0,1,0-.13A.51.51,0,0,1,164.65,88.25Z" transform="translate(-159.12 -53.64)" style="fill:#1d374e"/><path d="M167,89.91a4.27,4.27,0,0,1-2.51-1.25c-.08-.08,0-.19,0-.29s.21-.11.29,0,1.52,1.5,2.71,1c.76-.32,1.67-1.58,1.67-5.82a.23.23,0,1,1,.45,0c0,3.6-.66,5.7-1.95,6.23A1.7,1.7,0,0,1,167,89.91Z" transform="translate(-159.12 -53.64)" style="fill:#ffc654"/><polygon points="15.38 40.52 9.45 43.94 9.49 43.22 15.38 39.81 15.38 40.52" style="fill:#dae5f8"/><polygon points="10.32 33.42 3.56 29.52 9.46 26.11 16.22 30.01 10.32 33.42" style="fill:#fff"/><path d="M171.47,81.31v-.26a.34.34,0,0,0-.33,0l-1.7-1a.33.33,0,0,0-.32,0l-5.47,3.15a.34.34,0,0,0-.34,0v.25h0a.12.12,0,0,0,.08.11l1.94,1.13a.38.38,0,0,0,.33,0l5.75-3.31s.06-.06.06-.08Z" transform="translate(-159.12 -53.64)" style="fill:#3d3d3d"/><path d="M171.47,81.31v-.26a.34.34,0,0,0-.33,0l-1.7-1a.33.33,0,0,0-.32,0l-5.47,3.15a.34.34,0,0,0-.34,0v.25h0a.12.12,0,0,0,.08.11l1.94,1.13a.38.38,0,0,0,.33,0l5.75-3.31s.06-.06.06-.08Z" transform="translate(-159.12 -53.64)" style="fill:#b4caed"/><path d="M171.41,81.13l-5.75,3.32a.39.39,0,0,1-.33,0l-1.94-1.13c-.1,0-.11-.14,0-.18l5.76-3.32a.36.36,0,0,1,.32,0l1.95,1.13C171.49,81,171.5,81.08,171.41,81.13Z" transform="translate(-159.12 -53.64)" style="fill:#fff"/><polygon points="9.95 27.42 9.73 27.54 9.49 27.41 9.71 27.28 9.95 27.42" style="fill:#659ec9"/><polygon points="9.39 27.41 9.17 27.53 8.93 27.39 9.15 27.27 9.39 27.41" style="fill:#659ec9"/><polygon points="9.66 27.25 9.44 27.38 9.2 27.24 9.42 27.11 9.66 27.25" style="fill:#659ec9"/><polygon points="9.93 27.09 9.71 27.22 9.47 27.08 9.69 26.95 9.93 27.09" style="fill:#659ec9"/><polygon points="6.95 28.82 5.63 29.59 5.38 29.45 6.71 28.68 6.95 28.82" style="fill:#659ec9"/><polygon points="6.75 30.6 6.53 30.73 6.32 30.61 6.55 30.48 6.75 30.6" style="fill:#659ec9"/><polygon points="7.99 29.89 6.89 30.52 6.69 30.4 7.78 29.77 7.99 29.89" style="fill:#659ec9"/><polygon points="9.26 29.16 8.17 29.78 7.97 29.66 9.06 29.04 9.26 29.16" style="fill:#659ec9"/><polygon points="10.53 28.42 9.44 29.05 9.24 28.93 10.33 28.3 10.53 28.42" style="fill:#659ec9"/><polygon points="11.39 27.93 10.63 28.37 10.42 28.25 11.18 27.81 11.39 27.93" style="fill:#659ec9"/><polygon points="5.3 29.77 5.08 29.9 4.84 29.76 5.06 29.63 5.3 29.77" style="fill:#659ec9"/><polygon points="5.57 29.61 5.35 29.74 5.11 29.6 5.33 29.48 5.57 29.61" style="fill:#659ec9"/><polygon points="6.97 30.11 6.75 30.23 6.5 30.09 6.72 29.97 6.97 30.11" style="fill:#659ec9"/><polygon points="7.25 29.94 7.03 30.07 6.79 29.93 7.01 29.8 7.25 29.94" style="fill:#659ec9"/><polygon points="7.53 29.78 7.31 29.91 7.06 29.77 7.29 29.64 7.53 29.78" style="fill:#659ec9"/><polygon points="7.81 29.62 7.58 29.75 7.34 29.61 7.56 29.48 7.81 29.62" style="fill:#659ec9"/><polygon points="8.01 28.21 7.79 28.34 7.55 28.2 7.77 28.07 8.01 28.21" style="fill:#659ec9"/><polygon points="9.09 27.59 8.57 27.89 8.33 27.75 8.84 27.45 9.09 27.59" style="fill:#659ec9"/><polygon points="5.85 29.77 5.61 29.63 5.12 29.92 5.36 30.06 5.85 29.77" style="fill:#659ec9"/><polygon points="6.13 29.62 5.9 29.75 5.66 29.61 5.88 29.48 6.13 29.62" style="fill:#659ec9"/><polygon points="6.41 29.46 6.19 29.59 5.94 29.45 6.17 29.32 6.41 29.46" style="fill:#659ec9"/><polygon points="6.69 29.3 6.46 29.42 6.22 29.28 6.44 29.16 6.69 29.3" style="fill:#659ec9"/><polygon points="6.96 29.14 6.74 29.26 6.5 29.12 6.72 29 6.96 29.14" style="fill:#659ec9"/><polygon points="8.29 28.37 8.07 28.5 7.83 28.36 8.05 28.23 8.29 28.37" style="fill:#659ec9"/><polygon points="6.13 29.94 5.89 29.8 5.4 30.08 5.64 30.22 6.13 29.94" style="fill:#659ec9"/><polygon points="6.41 29.78 6.18 29.91 5.94 29.77 6.16 29.64 6.41 29.78" style="fill:#659ec9"/><polygon points="6.69 29.62 6.46 29.75 6.22 29.61 6.44 29.48 6.69 29.62" style="fill:#659ec9"/><polygon points="6.97 29.46 6.74 29.59 6.5 29.45 6.72 29.32 6.97 29.46" style="fill:#659ec9"/><polygon points="7.24 29.3 7.02 29.43 6.78 29.29 7 29.16 7.24 29.3" style="fill:#659ec9"/><polygon points="8.57 28.53 8.35 28.66 8.11 28.52 8.33 28.39 8.57 28.53" style="fill:#659ec9"/><polygon points="9.37 27.75 9.12 27.61 8.61 27.91 8.85 28.05 9.13 27.89 9.41 28.05 9.64 27.91 9.37 27.75 9.37 27.75" style="fill:#659ec9"/><polygon points="6.34 30.14 6.1 30 5.68 30.24 5.92 30.39 6.34 30.14" style="fill:#659ec9"/><polygon points="6.69 29.94 6.46 30.07 6.22 29.93 6.44 29.8 6.69 29.94" style="fill:#659ec9"/><polygon points="6.96 29.78 6.74 29.91 6.5 29.77 6.72 29.64 6.96 29.78" style="fill:#659ec9"/><polygon points="7.24 29.62 7.02 29.75 6.78 29.61 7 29.48 7.24 29.62" style="fill:#659ec9"/><polygon points="7.52 29.46 7.3 29.59 7.06 29.45 7.28 29.32 7.52 29.46" style="fill:#659ec9"/><polygon points="8.07 29.47 7.85 29.6 7.61 29.45 7.83 29.33 8.07 29.47" style="fill:#659ec9"/><polygon points="7.23 28.98 7.01 29.11 6.77 28.97 6.99 28.84 7.23 28.98" style="fill:#659ec9"/><polygon points="7.51 29.14 7.29 29.27 7.05 29.13 7.27 29 7.51 29.14" style="fill:#659ec9"/><polygon points="7.79 29.31 7.57 29.43 7.33 29.29 7.55 29.16 7.79 29.31" style="fill:#659ec9"/><polygon points="7.22 28.67 7 28.8 6.75 28.66 6.98 28.53 7.22 28.67" style="fill:#659ec9"/><polygon points="7.5 28.83 7.28 28.95 7.03 28.82 7.25 28.69 7.5 28.83" style="fill:#659ec9"/><polygon points="7.78 28.99 7.55 29.12 7.31 28.98 7.54 28.85 7.78 28.99" style="fill:#659ec9"/><polygon points="8.06 29.15 7.83 29.28 7.59 29.14 7.81 29.01 8.06 29.15" style="fill:#659ec9"/><polygon points="7.49 28.51 7.27 28.64 7.03 28.5 7.25 28.37 7.49 28.51" style="fill:#659ec9"/><polygon points="7.77 28.67 7.55 28.8 7.31 28.66 7.53 28.53 7.77 28.67" style="fill:#659ec9"/><polygon points="8.05 28.84 7.83 28.96 7.58 28.82 7.81 28.7 8.05 28.84" style="fill:#659ec9"/><polygon points="8.33 29 8.11 29.12 7.86 28.98 8.09 28.86 8.33 29" style="fill:#659ec9"/><polygon points="7.75 28.36 7.53 28.49 7.29 28.35 7.51 28.22 7.75 28.36" style="fill:#659ec9"/><polygon points="8.03 28.52 7.81 28.65 7.57 28.51 7.79 28.38 8.03 28.52" style="fill:#659ec9"/><polygon points="8.31 28.68 8.09 28.81 7.85 28.67 8.07 28.54 8.31 28.68" style="fill:#659ec9"/><polygon points="8.59 28.84 8.37 28.97 8.13 28.83 8.35 28.7 8.59 28.84" style="fill:#659ec9"/><polygon points="8.85 28.7 8.63 28.82 8.39 28.68 8.61 28.55 8.85 28.7" style="fill:#659ec9"/><polygon points="9.92 28.08 9.41 28.37 9.17 28.23 9.68 27.93 9.92 28.08" style="fill:#659ec9"/><polygon points="6.42 30.42 6.2 30.55 5.96 30.41 6.18 30.28 6.42 30.42" style="fill:#659ec9"/><polygon points="6.69 30.26 6.47 30.39 6.23 30.25 6.45 30.12 6.69 30.26" style="fill:#659ec9"/><polygon points="8.61 29.16 8.39 29.28 8.14 29.14 8.37 29.02 8.61 29.16" style="fill:#659ec9"/><polygon points="8.34 29.31 8.11 29.44 7.87 29.3 8.09 29.18 8.34 29.31" style="fill:#659ec9"/><polygon points="8.87 29.01 8.65 29.14 8.4 29 8.63 28.87 8.87 29.01" style="fill:#659ec9"/><polygon points="9.13 28.86 8.91 28.99 8.66 28.84 8.89 28.72 9.13 28.86" style="fill:#659ec9"/><polygon points="8.27 28.06 8.05 28.19 7.81 28.05 8.03 27.92 8.27 28.06" style="fill:#659ec9"/><polygon points="8.55 28.22 8.33 28.35 8.08 28.21 8.31 28.08 8.55 28.22" style="fill:#659ec9"/><polygon points="8.83 28.39 8.61 28.51 8.37 28.37 8.59 28.25 8.83 28.39" style="fill:#659ec9"/><polygon points="9.11 28.55 8.89 28.67 8.64 28.54 8.87 28.41 9.11 28.55" style="fill:#659ec9"/><polygon points="9.39 28.71 9.17 28.84 8.92 28.7 9.15 28.57 9.39 28.71" style="fill:#659ec9"/><polygon points="8.53 27.91 8.31 28.04 8.07 27.9 8.29 27.77 8.53 27.91" style="fill:#659ec9"/><polygon points="10.23 27.9 10.01 28.03 9.77 27.89 9.99 27.76 10.23 27.9" style="fill:#659ec9"/><polygon points="10.5 27.75 10.28 27.88 10.03 27.73 10.26 27.61 10.5 27.75" style="fill:#659ec9"/><polygon points="10.77 27.59 10.55 27.72 10.31 27.58 10.53 27.45 10.77 27.59" style="fill:#659ec9"/><polygon points="10.51 28.06 10.29 28.19 10.04 28.05 10.27 27.93 10.51 28.06" style="fill:#659ec9"/><polygon points="10.78 27.91 10.55 28.04 10.31 27.89 10.54 27.77 10.78 27.91" style="fill:#659ec9"/><polygon points="11.05 27.75 10.82 27.88 10.59 27.74 10.81 27.61 11.05 27.75" style="fill:#659ec9"/><polygon points="10.24 26.93 10.02 27.05 9.78 26.91 10 26.79 10.24 26.93" style="fill:#659ec9"/><polygon points="10.51 26.77 10.29 26.9 10.05 26.76 10.27 26.63 10.51 26.77" style="fill:#659ec9"/><polygon points="10.78 26.62 10.56 26.74 10.32 26.61 10.54 26.48 10.78 26.62" style="fill:#659ec9"/><polygon points="10.52 27.09 10.3 27.21 10.06 27.08 10.28 26.95 10.52 27.09" style="fill:#659ec9"/><polygon points="10.79 26.93 10.57 27.06 10.33 26.92 10.55 26.79 10.79 26.93" style="fill:#659ec9"/><polygon points="10.8 27.25 10.59 27.38 10.34 27.24 10.56 27.11 10.8 27.25" style="fill:#659ec9"/><polygon points="11.07 27.1 10.85 27.22 10.61 27.08 10.83 26.96 11.07 27.1" style="fill:#659ec9"/><polygon points="10.82 26.64 10.6 26.76 11.12 27.07 11.34 26.94 10.82 26.64" style="fill:#659ec9"/><polygon points="11.08 27.41 10.86 27.54 10.62 27.4 10.84 27.27 11.08 27.41" style="fill:#659ec9"/><polygon points="11.35 27.26 11.13 27.39 10.89 27.25 11.11 27.12 11.35 27.26" style="fill:#659ec9"/><polygon points="11.63 27.42 11.39 27.28 10.9 27.56 11.14 27.7 11.63 27.42" style="fill:#659ec9"/><polygon points="11.38 26.96 11.16 27.09 11.68 27.39 11.9 27.26 11.38 26.96" style="fill:#659ec9"/><polygon points="8.81 28.07 8.59 28.2 8.34 28.06 8.57 27.93 8.81 28.07" style="fill:#659ec9"/><polygon points="9.09 28.24 8.87 28.36 8.63 28.22 8.85 28.1 9.09 28.24" style="fill:#659ec9"/><polygon points="9.35 28.08 9.13 28.21 8.89 28.07 9.11 27.94 9.35 28.08" style="fill:#659ec9"/><polygon points="9.37 28.4 9.15 28.52 8.9 28.39 9.12 28.26 9.37 28.4" style="fill:#659ec9"/><polygon points="9.64 28.56 9.43 28.69 9.18 28.55 9.4 28.42 9.64 28.56" style="fill:#659ec9"/><polygon points="9.91 28.41 9.69 28.53 9.45 28.39 9.67 28.26 9.91 28.41" style="fill:#659ec9"/><polygon points="10.2 28.24 9.95 28.39 9.71 28.25 9.96 28.1 10.2 28.24" style="fill:#659ec9"/><polygon points="11.85 27.43 11.44 27.66 11.41 27.64 11.82 27.41 11.85 27.43" style="fill:#659ec9"/><polygon points="11.94 27.48 11.53 27.71 11.49 27.69 11.9 27.46 11.94 27.48" style="fill:#659ec9"/><polygon points="12.02 27.53 11.61 27.76 11.58 27.74 11.99 27.51 12.02 27.53" style="fill:#659ec9"/><polygon points="11.86 27.62 11.78 27.67 11.74 27.64 11.82 27.6 11.86 27.62" style="fill:#75c425"/><polygon points="8.51 26.12 8.54 26.28 9.34 26.3 9.35 26.05 9.3 25.84 8.93 25.8 8.63 25.9 8.51 26.12" style="fill:#517fa2"/><path d="M167.77,80.58c0,.24-.16.41-.27.39s-.17-.22-.13-.45.16-.41.27-.39S167.81,80.35,167.77,80.58Z" transform="translate(-159.12 -53.64)" style="fill:#295e87"/><path d="M167.56,80.62s0-.59.11-.71.74,0,.79,0a1.38,1.38,0,0,1,.23.71Z" transform="translate(-159.12 -53.64)" style="fill:#fff"/><path d="M167.56,80.62s0-.59.11-.71a.43.43,0,0,1,.29-.12,5.8,5.8,0,0,1,0,.85Z" transform="translate(-159.12 -53.64)" style="fill:#dae5f8"/><path d="M167.56,80.62a2.29,2.29,0,0,0,0,.59.55.55,0,0,0,.45.4c.26,0,.72-.51.65-.94C168.66,80.45,167.56,80.45,167.56,80.62Z" transform="translate(-159.12 -53.64)" style="fill:#517fa2"/><path d="M167,78.17c.05.41.46.86.69,1.58a.6.6,0,0,1,.84-.06,3.82,3.82,0,0,0-.64-2.2C167.09,77.51,166.93,78,167,78.17Z" transform="translate(-159.12 -53.64)" style="fill:#fff"/><path d="M167,78.17c.05.41.46.86.69,1.58a.87.87,0,0,1,.27-.16,6.48,6.48,0,0,0-.74-1.89A.62.62,0,0,0,167,78.17Z" transform="translate(-159.12 -53.64)" style="fill:#dae5f8"/><path d="M169.44,87.76S165,85.45,163.55,86s-1.19,3.34-1.19,3.34c0,5.39,6.25,7.5,6.25,7.5l0,.71-7.53-4.34,1.63-10.07,6.76,3.9Z" transform="translate(-159.12 -53.64)" style="fill:#b4caed"/><polygon points="16.22 30.72 10.32 34.12 10.32 33.42 16.22 30.01 16.22 30.72" style="fill:#dae5f8"/><polygon points="9.32 30.48 9.32 31.73 9.03 31.56 9.03 30.31 9.32 30.48" style="fill:#659ec9"/><polygon points="13.45 28.1 13.45 29.34 9.32 31.73 9.32 30.48 13.45 28.1" style="fill:#517fa2"/><polygon points="13.16 27.93 13.45 28.1 9.32 30.48 9.03 30.31 13.16 27.93" style="fill:#535359"/><path d="M164.91,85.93v-.88l-.35-.19h-.16v1a.12.12,0,0,0,.06.12h0l.37.21Z" transform="translate(-159.12 -53.64)" style="fill:#dae5f8"/><path d="M165,86.18l10.91-6.3a.44.44,0,0,0,.2-.34v-1l-11.3,6.52v1C164.78,86.2,164.87,86.24,165,86.18Z" transform="translate(-159.12 -53.64)" style="fill:#b4caed"/><polygon points="16.96 24.91 5.65 31.44 5.29 31.23 16.59 24.7 16.96 24.91" style="fill:#fff"/><polygon points="5.7 31.08 5.7 31.3 5.52 31.2 5.52 30.98 5.7 31.08" style="fill:#303033"/><polygon points="16.74 24.93 5.7 31.3 5.7 31.08 16.74 24.71 16.74 24.93" style="fill:#121214"/><polygon points="16.74 24.71 5.7 31.08 5.52 30.98 16.56 24.61 16.74 24.71" style="fill:#535359"/><polygon points="5.61 22.9 5.61 31.03 16.65 24.66 16.65 16.53 5.61 22.9" style="fill:#517fa2;opacity:0.5"/><g style="opacity:0.5"><polygon points="11.28 22.66 6.26 25.56 6.26 23.35 11.28 20.45 11.28 22.66" style="fill:#fff"/><polygon points="11.28 26.81 6.26 29.7 6.26 27.49 11.28 24.6 11.28 26.81" style="fill:#eb5c44"/><polygon points="11.28 24.2 6.26 27.1 6.26 26.18 11.28 23.28 11.28 24.2" style="fill:#8dd5ff"/><path d="M172.37,73.49a.43.43,0,0,0-.46,0,1.41,1.41,0,0,0-.48.49,1.33,1.33,0,0,0-.2.65.46.46,0,0,0,.18.44.43.43,0,0,0,.46,0,1.41,1.41,0,0,0,.68-1.14h0A.46.46,0,0,0,172.37,73.49Z" transform="translate(-159.12 -53.64)" style="fill:#eb5c44"/><path d="M174.65,72.18a.43.43,0,0,0-.47,0,1.28,1.28,0,0,0-.47.48,1.38,1.38,0,0,0-.21.66.52.52,0,0,0,.18.44.47.47,0,0,0,.47,0,1.31,1.31,0,0,0,.47-.49,1.35,1.35,0,0,0,.21-.65h0A.49.49,0,0,0,174.65,72.18Z" transform="translate(-159.12 -53.64)" style="fill:#8dd5ff"/><path d="M174.65,74.47a.47.47,0,0,0-.47,0,1.31,1.31,0,0,0-.47.49,1.38,1.38,0,0,0-.21.66.52.52,0,0,0,.18.44.47.47,0,0,0,.47,0,1.31,1.31,0,0,0,.47-.49,1.35,1.35,0,0,0,.21-.65h0A.53.53,0,0,0,174.65,74.47Z" transform="translate(-159.12 -53.64)" style="fill:#fff"/><path d="M174.65,76.77a.47.47,0,0,0-.47,0,1.31,1.31,0,0,0-.47.49,1.38,1.38,0,0,0-.21.65.53.53,0,0,0,.18.45.5.5,0,0,0,.47,0,1.31,1.31,0,0,0,.47-.49,1.35,1.35,0,0,0,.21-.65h0A.53.53,0,0,0,174.65,76.77Z" transform="translate(-159.12 -53.64)" style="fill:#517fa2"/><polygon points="11.98 26.41 13.88 25.31 13.88 24.11 11.98 25.21 11.98 26.41" style="fill:#fff"/><polygon points="12.14 26.03 13.72 25.12 13.72 24.91 12.14 25.82 12.14 26.03" style="fill:#8dd5ff"/><polygon points="12.14 25.64 13.72 24.74 13.72 24.52 12.14 25.43 12.14 25.64" style="fill:#535359"/><polygon points="11.87 24.72 13.89 23.56 13.89 21.28 11.87 22.45 11.87 24.72" style="fill:#fff"/><polygon points="12.01 23.22 13.75 22.21 13.75 21.63 12.01 22.64 12.01 23.22" style="fill:#8dd5ff"/><path d="M172.05,77c0,.26.19.37.41.24a.93.93,0,0,0,.42-.72c0-.26-.19-.36-.42-.23A.92.92,0,0,0,172.05,77Z" transform="translate(-159.12 -53.64)" style="fill:#517fa2"/><polygon points="12.5 24.11 12.81 23.93 12.81 23.55 12.5 23.73 12.5 24.11" style="fill:#8dd5ff"/><polygon points="12.5 23.56 12.81 23.38 12.81 23 12.5 23.18 12.5 23.56" style="fill:#8dd5ff"/><polygon points="12.01 24.4 12.32 24.22 12.32 23.84 12.01 24.01 12.01 24.4" style="fill:#535359"/><polygon points="12.01 23.85 12.32 23.67 12.32 23.29 12.01 23.46 12.01 23.85" style="fill:#535359"/></g><polygon points="21.41 50.84 9.45 43.94 9.45 42.41 21.41 49.31 21.41 50.84" style="fill:#1078ad"/><polygon points="49.5 33.1 21.41 49.31 9.45 42.41 37.54 26.19 49.5 33.1" style="fill:#003552"/><polygon points="49.5 34.63 21.41 50.84 21.41 49.31 49.5 33.1 49.5 34.63" style="fill:#00537d"/><path d="M180.66,99.1,206.94,79,195,72.09h0a2.1,2.1,0,0,0-2.13.2L170.78,85.05a6.63,6.63,0,0,0-3,5.18,2.13,2.13,0,0,0,.88,1.94h0Z" transform="translate(-159.12 -53.64)" style="fill:gray"/><path d="M204.83,86.11,182.74,98.87c-1.65.95-3,.17-3-1.73a6.63,6.63,0,0,1,3-5.19l22.09-12.76c1.66-1,3-.17,3,1.73A6.61,6.61,0,0,1,204.83,86.11Z" transform="translate(-159.12 -53.64)" style="fill:#383838"/><path d="M207.49,80.09l-.78-.54a1.76,1.76,0,0,0-1.88.14L182.74,92.44a5.68,5.68,0,0,0-2.57,4.45,1.87,1.87,0,0,0,.68,1.62l.8.55.09-.34a2.64,2.64,0,0,0,1-.34l22.09-12.76a5.68,5.68,0,0,0,2.57-4.45,3.08,3.08,0,0,0-.08-.71Z" transform="translate(-159.12 -53.64)" style="fill:#fff"/><path d="M205.63,80.24,183.53,93A5.68,5.68,0,0,0,181,97.44c0,1.64,1.15,2.3,2.57,1.48l22.1-12.75a5.68,5.68,0,0,0,2.57-4.45C208.2,80.08,207.05,79.42,205.63,80.24Z" transform="translate(-159.12 -53.64)" style="fill:#b4caed"/><path d="M207.18,81.66l-.48-.28h0a1,1,0,0,0-1.06.1,3.28,3.28,0,0,0-1.49,2.58,1.1,1.1,0,0,0,.39.94l.61.35.15-.28a1.88,1.88,0,0,0,.34-.14,3.33,3.33,0,0,0,1.49-2.59,1.53,1.53,0,0,0-.06-.45Z" transform="translate(-159.12 -53.64)" style="fill:#659ec9"/><path d="M207.64,82.64a3.28,3.28,0,0,1-1.49,2.59c-.82.47-1.49.09-1.49-.86a3.33,3.33,0,0,1,1.49-2.59C207,81.31,207.64,81.69,207.64,82.64Z" transform="translate(-159.12 -53.64)" style="fill:#295e87"/><path d="M185.09,94.42l-.49-.28h0a1,1,0,0,0-1.07.1A3.29,3.29,0,0,0,182,96.82a1.08,1.08,0,0,0,.4.94l.6.35.16-.28a1.21,1.21,0,0,0,.33-.15A3.27,3.27,0,0,0,185,95.1a1.53,1.53,0,0,0-.06-.45Z" transform="translate(-159.12 -53.64)" style="fill:#659ec9"/><path d="M185.55,95.4A3.29,3.29,0,0,1,184.06,98c-.83.48-1.49.09-1.49-.86a3.28,3.28,0,0,1,1.49-2.58C184.88,94.06,185.55,94.45,185.55,95.4Z" transform="translate(-159.12 -53.64)" style="fill:#295e87"/><polygon points="29.16 47.35 28.31 46.86 28.31 38.25 29.16 38.74 30.31 42.12 29.16 47.35" style="fill:#dae5f8"/><polygon points="32.18 37 31.07 39.83 29.16 38.74 28.31 38.25 31.33 36.51 32.18 37" style="fill:#fff"/><polygon points="32.18 45.6 29.16 47.35 29.16 38.74 32.18 37 32.18 45.6" style="fill:#b4caed"/><polygon points="35.07 43.94 34.22 43.45 34.22 34.84 35.07 35.33 36.22 38.71 35.07 43.94" style="fill:#dae5f8"/><polygon points="38.09 33.59 36.98 36.42 35.07 35.33 34.22 34.84 37.24 33.1 38.09 33.59" style="fill:#fff"/><polygon points="38.09 42.19 35.07 43.94 35.07 35.33 38.09 33.59 38.09 42.19" style="fill:#b4caed"/><polygon points="40.98 40.52 40.13 40.04 40.13 31.43 40.98 31.92 42.13 35.3 40.98 40.52" style="fill:#dae5f8"/><polygon points="44 30.18 42.88 33.01 40.98 31.92 40.13 31.43 43.15 29.69 44 30.18" style="fill:#fff"/><polygon points="44 38.78 40.98 40.52 40.98 31.92 44 30.18 44 38.78" style="fill:#b4caed"/><path d="M185.64,60.64a.46.46,0,0,0-.5,0l-.75.43,1,1.67.74-.43h0a.48.48,0,0,0,.2-.44A1.52,1.52,0,0,0,185.64,60.64Z" transform="translate(-159.12 -53.64)" style="fill:#295e87"/><path d="M184.89,61.07c-.38-.22-.69,0-.69.4a1.52,1.52,0,0,0,.69,1.19c.38.22.69,0,.69-.4A1.52,1.52,0,0,0,184.89,61.07Z" transform="translate(-159.12 -53.64)" style="fill:#659ec9"/><path d="M187.31,67.4a.59.59,0,0,0-.63-.05l-.93.54L187,70l.92-.54h0a.59.59,0,0,0,.25-.55A1.91,1.91,0,0,0,187.31,67.4Z" transform="translate(-159.12 -53.64)" style="fill:#295e87"/><path d="M186.37,67.94c-.48-.27-.86,0-.86.5a1.89,1.89,0,0,0,.86,1.49c.47.27.86,0,.86-.5A1.92,1.92,0,0,0,186.37,67.94Z" transform="translate(-159.12 -53.64)" style="fill:#659ec9"/><path d="M186,62.12a2.35,2.35,0,0,0-1.47-1.72.69.69,0,0,0-.48.08l-1.06.61.82,1.62.15-.09,1.09,5.69a3.71,3.71,0,0,0,.89,1.6l.55,1.19,1.08-.62c.41-.22.58-.82.39-1.59Z" transform="translate(-159.12 -53.64)" style="fill:#b4caed"/><path d="M184.93,62.76a2.28,2.28,0,0,0-1.47-1.71c-.61-.13-.94.44-.74,1.26L184,68.94a3.07,3.07,0,0,0,1.93,2.25c.8.16,1.24-.59,1-1.67Z" transform="translate(-159.12 -53.64)" style="fill:#fff"/><path d="M184.74,68.55a1.51,1.51,0,0,0,.37,1.53c.42.48.93.59,1.14.23a1.5,1.5,0,0,0-.37-1.53C185.46,68.29,185,68.19,184.74,68.55Z" transform="translate(-159.12 -53.64)" style="fill:#659ec9"/><path d="M183.19,61.77A1.24,1.24,0,0,0,183.5,63c.34.4.75.48.93.19a1.25,1.25,0,0,0-.31-1.25C183.78,61.57,183.37,61.48,183.19,61.77Z" transform="translate(-159.12 -53.64)" style="fill:#659ec9"/><polygon points="25.67 1.56 24.07 2.49 24.67 5.74 23.88 11.67 25.48 10.75 27.92 3.74 25.67 1.57 25.67 1.56" style="fill:#b4caed"/><path d="M184.59,58.13a3.26,3.26,0,0,1-1.39-2h0l-2.44,7L183,65.31l2.44-7A1.17,1.17,0,0,1,184.59,58.13Z" transform="translate(-159.12 -53.64)" style="fill:#fff"/><path d="M186.19,53.84a1,1,0,0,0-1.06-.09l-1.59.92,2.12,3.54,1.56-.9h0a1,1,0,0,0,.42-.94A3.19,3.19,0,0,0,186.19,53.84Z" transform="translate(-159.12 -53.64)" style="fill:#295e87"/><path d="M184.59,54.76c-.8-.47-1.46-.09-1.46.84a3.26,3.26,0,0,0,1.46,2.53c.81.46,1.46.09,1.46-.84A3.23,3.23,0,0,0,184.59,54.76Z" transform="translate(-159.12 -53.64)" style="fill:#659ec9"/><polygon points="26.62 2.44 30.49 6 32.1 5.61 33.71 4.68 28.22 1.51 26.62 2.44" style="fill:#b4caed"/><path d="M191.23,59.25l-5.49-3.17a2.72,2.72,0,0,1,.31,1.21,1.07,1.07,0,0,1-.31.85l5.49,3.17a2.21,2.21,0,0,1-.56-1.35C190.67,59.5,190.9,59.24,191.23,59.25Z" transform="translate(-159.12 -53.64)" style="fill:#fff"/><path d="M185.57,67.35a1.31,1.31,0,0,0-1.4-.1l-1.64.94.7,1.15.6-.27,1.93,7.07,1.71-1v-4.5A4.22,4.22,0,0,0,185.57,67.35Z" transform="translate(-159.12 -53.64)" style="fill:#517fa2"/><path d="M183.85,68.34c-1-.61-1.9-.12-1.9,1.1v4.5l3.81,2.2v-4.5A4.19,4.19,0,0,0,183.85,68.34Z" transform="translate(-159.12 -53.64)" style="fill:#659ec9"/><path d="M183.28,63.71A2.34,2.34,0,0,0,181.81,62a.64.64,0,0,0-.48.07l-1.06.61.82,1.63.15-.1,1.09,5.69a3.7,3.7,0,0,0,.89,1.61l.55,1.19,1.08-.62c.41-.22.58-.83.39-1.6Z" transform="translate(-159.12 -53.64)" style="fill:#b4caed"/><path d="M182.17,64.35a2.34,2.34,0,0,0-1.47-1.71c-.61-.12-.95.45-.75,1.27l1.28,6.63a3,3,0,0,0,1.93,2.24c.8.16,1.24-.58,1-1.66Z" transform="translate(-159.12 -53.64)" style="fill:#fff"/><path d="M181.05,63.29a.48.48,0,0,0-.5,0l-.75.43,1,1.67.74-.42h0a.48.48,0,0,0,.2-.44A1.52,1.52,0,0,0,181.05,63.29Z" transform="translate(-159.12 -53.64)" style="fill:#295e87"/><path d="M180.3,63.72c-.38-.22-.69,0-.69.4a1.52,1.52,0,0,0,.69,1.19c.38.22.69,0,.69-.4A1.53,1.53,0,0,0,180.3,63.72Z" transform="translate(-159.12 -53.64)" style="fill:#659ec9"/><path d="M182.72,70a.6.6,0,0,0-.63,0l-.93.54,1.25,2.08.92-.53h0a.59.59,0,0,0,.25-.55A1.91,1.91,0,0,0,182.72,70Z" transform="translate(-159.12 -53.64)" style="fill:#295e87"/><path d="M181.78,70.59c-.48-.27-.86,0-.86.5a1.89,1.89,0,0,0,.86,1.49c.47.27.86,0,.86-.5A1.91,1.91,0,0,0,181.78,70.59Z" transform="translate(-159.12 -53.64)" style="fill:#659ec9"/><path d="M200.05,63.64a1.3,1.3,0,0,0-.59-1,.4.4,0,0,0-.43,0h0l-.62.36.86,1.45.61-.35h0A.4.4,0,0,0,200.05,63.64Z" transform="translate(-159.12 -53.64)" style="fill:#003552"/><path d="M199.45,64c0,.38-.27.54-.6.35a1.32,1.32,0,0,1-.6-1c0-.38.27-.53.6-.34A1.32,1.32,0,0,1,199.45,64Z" transform="translate(-159.12 -53.64)" style="fill:#659ec9"/><path d="M199.86,64.08a1.94,1.94,0,0,0-.9-1.54.61.61,0,0,0-.64-.06h0l-.38.22.13.23v.12A2,2,0,0,0,199,64.6l.11.05.14.24.38-.23h0A.62.62,0,0,0,199.86,64.08Z" transform="translate(-159.12 -53.64)" style="fill:#295e87"/><path d="M199.46,64.31c0,.57-.4.8-.89.52a2,2,0,0,1-.9-1.55c0-.57.4-.8.9-.52A2,2,0,0,1,199.46,64.31Z" transform="translate(-159.12 -53.64)" style="fill:#659ec9"/><path d="M197.39,69.29v1h0a.12.12,0,0,0,.06.09.36.36,0,0,0,.32,0,.12.12,0,0,0,.06-.09v-1Z" transform="translate(-159.12 -53.64)" style="fill:#003552"/><path d="M197.77,69.38a.36.36,0,0,1-.32,0,.09.09,0,0,1,0-.17.36.36,0,0,1,.32,0A.09.09,0,0,1,197.77,69.38Z" transform="translate(-159.12 -53.64)" style="fill:#5c5c5c"/><path d="M197,69.08v.19h0a.35.35,0,0,0,.19.26,1,1,0,0,0,.9,0,.33.33,0,0,0,.19-.26v-.19Z" transform="translate(-159.12 -53.64)" style="fill:#b4caed"/><path d="M198.06,69.34a1,1,0,0,1-.9,0c-.25-.14-.25-.37,0-.52a1,1,0,0,1,.9,0C198.32,69,198.32,69.2,198.06,69.34Z" transform="translate(-159.12 -53.64)" style="fill:#fff"/><path d="M197.15,68v1h0a.22.22,0,0,0,.13.19.7.7,0,0,0,.66,0,.23.23,0,0,0,.14-.19V68Z" transform="translate(-159.12 -53.64)" style="fill:#295e87"/><path d="M197.94,68.21a.7.7,0,0,1-.66,0c-.18-.1-.18-.27,0-.38a.76.76,0,0,1,.66,0C198.12,67.94,198.12,68.11,197.94,68.21Z" transform="translate(-159.12 -53.64)" style="fill:#5c5c5c"/><path d="M196.62,68v.28h0a.49.49,0,0,0,.28.41,1.57,1.57,0,0,0,1.4,0,.5.5,0,0,0,.29-.41V68Z" transform="translate(-159.12 -53.64)" style="fill:#b4caed"/><path d="M198.31,68.36a1.57,1.57,0,0,1-1.4,0,.43.43,0,0,1,0-.81,1.57,1.57,0,0,1,1.4,0C198.7,67.78,198.7,68.14,198.31,68.36Z" transform="translate(-159.12 -53.64)" style="fill:#fff"/><path d="M196.87,67.07v.82h0a.35.35,0,0,0,.22.3,1.14,1.14,0,0,0,1,0,.36.36,0,0,0,.21-.3v-.82Z" transform="translate(-159.12 -53.64)" style="fill:#295e87"/><path d="M198.14,67.37a1.14,1.14,0,0,1-1,0,.32.32,0,0,1,0-.61,1.21,1.21,0,0,1,1,0A.32.32,0,0,1,198.14,67.37Z" transform="translate(-159.12 -53.64)" style="fill:#5c5c5c"/><path d="M196.36,66.56v.36h0a.64.64,0,0,0,.37.51,2,2,0,0,0,1.77,0,.63.63,0,0,0,.36-.51v-.36Z" transform="translate(-159.12 -53.64)" style="fill:#b4caed"/><path d="M198.5,67.07a2,2,0,0,1-1.77,0,.54.54,0,0,1,0-1,2,2,0,0,1,1.77,0A.54.54,0,0,1,198.5,67.07Z" transform="translate(-159.12 -53.64)" style="fill:#fff"/><path d="M196.64,65.78v.69h0a.49.49,0,0,0,.29.39,1.5,1.5,0,0,0,1.37,0,.47.47,0,0,0,.28-.39v-.69Z" transform="translate(-159.12 -53.64)" style="fill:#b4caed"/><path d="M198.3,66.18a1.5,1.5,0,0,1-1.37,0c-.38-.22-.38-.58,0-.79a1.5,1.5,0,0,1,1.37,0C198.68,65.6,198.68,66,198.3,66.18Z" transform="translate(-159.12 -53.64)" style="fill:#ff9d26"/><path d="M196.79,65.5v.24h0a.39.39,0,0,0,.25.33,1.29,1.29,0,0,0,1.15,0,.4.4,0,0,0,.24-.33V65.5Z" transform="translate(-159.12 -53.64)" style="fill:#ff8400"/><path d="M198.19,65.83a1.23,1.23,0,0,1-1.15,0c-.33-.18-.33-.48,0-.67a1.29,1.29,0,0,1,1.15,0C198.51,65.35,198.51,65.65,198.19,65.83Z" transform="translate(-159.12 -53.64)" style="fill:#ff9d26"/><polygon points="38.49 13.05 40.47 11.9 40.47 9.61 38.25 8.33 36.27 9.48 38.49 10.76 38.49 13.05" style="fill:#fff"/><polygon points="36.27 11.77 38.49 13.05 38.49 10.76 36.27 9.48 36.27 11.77" style="fill:#dae5f8"/><path d="M196.35,62.41v.74a.63.63,0,0,0,.37.52,2,2,0,0,0,1.78,0,.63.63,0,0,0,.37-.52v-.74Z" transform="translate(-159.12 -53.64)" style="fill:#295e87"/><path d="M198.5,62.93a2,2,0,0,1-1.78,0c-.49-.29-.49-.75,0-1a1.93,1.93,0,0,1,1.78,0C199,62.18,199,62.64,198.5,62.93Z" transform="translate(-159.12 -53.64)" style="fill:#659ec9"/><path d="M196.49,59.9v2.45a.56.56,0,0,0,.33.46,1.78,1.78,0,0,0,1.59,0,.56.56,0,0,0,.33-.46V59.9Z" transform="translate(-159.12 -53.64)" style="fill:#295e87"/><path d="M198.41,60.36a1.78,1.78,0,0,1-1.59,0c-.44-.25-.44-.66,0-.92a1.78,1.78,0,0,1,1.59,0A.49.49,0,0,1,198.41,60.36Z" transform="translate(-159.12 -53.64)" style="fill:#659ec9"/><path d="M193.27,58.46a.68.68,0,0,0-.73-.06l-1.58.92,1.46,2.4,1.54-.88,0,0h0a.71.71,0,0,0,.27-.63A2.21,2.21,0,0,0,193.27,58.46Z" transform="translate(-159.12 -53.64)" style="fill:#295e87"/><path d="M191.67,59.38c-.55-.32-1-.06-1,.58a2.19,2.19,0,0,0,1,1.72c.55.32,1,.07,1-.57A2.21,2.21,0,0,0,191.67,59.38Z" transform="translate(-159.12 -53.64)" style="fill:#659ec9"/><path d="M196.5,64A.54.54,0,0,0,196,64h0l-1.6.93,1.13,1.86,1.56-.9h0a.54.54,0,0,0,.22-.49A1.69,1.69,0,0,0,196.5,64Z" transform="translate(-159.12 -53.64)" style="fill:#295e87"/><path d="M194.9,64.93c-.42-.24-.77,0-.77.45a1.7,1.7,0,0,0,.77,1.33c.43.25.77.05.77-.44A1.71,1.71,0,0,0,194.9,64.93Z" transform="translate(-159.12 -53.64)" style="fill:#659ec9"/><polygon points="33.54 7.36 34.32 9.34 36.12 11.58 37.72 10.66 35.14 6.43 33.54 7.36" style="fill:#b4caed"/><polygon points="35.24 7.78 36.46 9.79 36.6 9.71 35.38 7.71 35.24 7.78" style="fill:#fff"/><polygon points="34.62 8.14 35.84 10.15 36.46 9.79 35.24 7.78 34.62 8.14" style="fill:#eb5c44"/><path d="M192.67,61.11c0,.64-.45.89-1,.57h0l2.59,4.26h0a1.6,1.6,0,0,1-.12-.55c0-.49.35-.69.77-.45a1.31,1.31,0,0,1,.34.29L192.66,61A.37.37,0,0,1,192.67,61.11Z" transform="translate(-159.12 -53.64)" style="fill:#fff"/></svg>