<?xml version="1.0" encoding="utf-8"?>
<!-- Generator: Adobe Illustrator 24.2.0, SVG Export Plug-In . SVG Version: 6.00 Build 0)  -->
<svg version="1.1" id="Layer_1" xmlns="http://www.w3.org/2000/svg" xmlns:xlink="http://www.w3.org/1999/xlink" x="0px" y="0px"
	 viewBox="0 0 448 524" style="enable-background:new 0 0 448 524;" xml:space="preserve">
<style type="text/css">
	.st0{fill:url(#SVGID_1_);stroke:#1D918B;stroke-miterlimit:10;}
	.st1{opacity:0.2;fill:url(#SVGID_2_);stroke:#000000;stroke-width:0.5;stroke-miterlimit:10;enable-background:new    ;}
	.st2{opacity:0.2;fill:url(#SVGID_3_);enable-background:new    ;}
	.st3{opacity:5.000000e-02;fill:#FF0000;enable-background:new    ;}
	.st4{fill:url(#SVGID_4_);stroke:#F400F0;stroke-width:0.5;stroke-miterlimit:10;}
	.st5{fill:url(#SVGID_5_);stroke:#1D918B;stroke-miterlimit:10;}
	.st6{opacity:0.4;}
	.st7{opacity:0.2;fill:url(#SVGID_6_);stroke:#000000;stroke-width:0.5;stroke-miterlimit:10;enable-background:new    ;}
	.st8{opacity:0.2;fill:url(#SVGID_7_);enable-background:new    ;}
	.st9{fill:url(#SVGID_8_);stroke:#F400F0;stroke-width:0.5;stroke-miterlimit:10;}
</style>
<linearGradient id="SVGID_1_" gradientUnits="userSpaceOnUse" x1="447.35" y1="-774.285" x2="447.35" y2="-774.285" gradientTransform="matrix(1 0 0 -1 -360.65 -554.77)">
	<stop  offset="0" style="stop-color:#0D7F7C"/>
	<stop  offset="0.54" style="stop-color:#000000"/>
</linearGradient>
<path class="st0" d="M86.7,219.5"/>
<linearGradient id="SVGID_2_" gradientUnits="userSpaceOnUse" x1="525.3079" y1="-649.015" x2="525.0079" y2="-683.015" gradientTransform="matrix(1 0 0 -1 -360.65 -554.77)">
	<stop  offset="0" style="stop-color:#4017FF"/>
	<stop  offset="0" style="stop-color:#3E16F6"/>
	<stop  offset="2.000000e-02" style="stop-color:#3212C8"/>
	<stop  offset="4.000000e-02" style="stop-color:#270E9D"/>
	<stop  offset="6.000000e-02" style="stop-color:#1E0B77"/>
	<stop  offset="9.000000e-02" style="stop-color:#160857"/>
	<stop  offset="0.12" style="stop-color:#0F053B"/>
	<stop  offset="0.15" style="stop-color:#090325"/>
	<stop  offset="0.18" style="stop-color:#050214"/>
	<stop  offset="0.22" style="stop-color:#020109"/>
	<stop  offset="0.29" style="stop-color:#000002"/>
	<stop  offset="0.46" style="stop-color:#000000"/>
</linearGradient>
<path class="st1" d="M93.9,80.6l53.1,39.4l88.5-11.5l-53.6-40.2L93.9,80.6z"/>
<linearGradient id="SVGID_3_" gradientUnits="userSpaceOnUse" x1="495.3133" y1="-699.4947" x2="494.4433" y2="-799.7247" gradientTransform="matrix(1 0 0 -1 -360.65 -554.77)">
	<stop  offset="0" style="stop-color:#4017FF"/>
	<stop  offset="0" style="stop-color:#3E16F6"/>
	<stop  offset="2.000000e-02" style="stop-color:#3212C8"/>
	<stop  offset="4.000000e-02" style="stop-color:#270E9D"/>
	<stop  offset="6.000000e-02" style="stop-color:#1E0B77"/>
	<stop  offset="9.000000e-02" style="stop-color:#160857"/>
	<stop  offset="0.12" style="stop-color:#0F053B"/>
	<stop  offset="0.15" style="stop-color:#090325"/>
	<stop  offset="0.18" style="stop-color:#050214"/>
	<stop  offset="0.22" style="stop-color:#020109"/>
	<stop  offset="0.29" style="stop-color:#000002"/>
	<stop  offset="0.46" style="stop-color:#000000"/>
</linearGradient>
<path class="st2" d="M174.8,208c2.3-46.6,4.7-93.1,7-139.7L93.9,80.6c-2.1,46.7-4.2,93.4-6.3,140.1L174.8,208z"/>
<path class="st3" d="M222.6,241.7c2.2-46.5,4.4-93,6.5-139.5l-88.5,11.5l-6.2,139.6L222.6,241.7z"/>
<path class="st3" d="M215.4,236.5c2.2-46.5,4.4-93,6.5-139.5l-88.5,11.4c-2.1,46.5-4.1,93.1-6.2,139.6L215.4,236.5z"/>
<path class="st3" d="M207.9,231.3c2.2-46.5,4.4-93,6.5-139.5l-88.5,11.5l-6.2,139.6L207.9,231.3z"/>
<path class="st3" d="M200.9,226.9c2.2-46.5,4.4-93,6.5-139.5L119,98.9c-2.1,46.5-4.1,93.1-6.2,139.6L200.9,226.9z"/>
<path class="st3" d="M194.5,220.9c2.2-46.5,4.4-93,6.5-139.5l-88.5,11.4c-2.1,46.5-4.1,93.1-6.2,139.6L194.5,220.9z"/>
<path class="st3" d="M187.7,215.8c2.2-46.5,4.4-93,6.5-139.5l-88.5,11.4c-2.1,46.5-4.1,93.1-6.2,139.6L187.7,215.8z"/>
<path class="st3" d="M181.5,211.8c2.2-46.5,4.4-93,6.5-139.5L99.6,83.8l-6.2,139.6L181.5,211.8z"/>
<linearGradient id="SVGID_4_" gradientUnits="userSpaceOnUse" x1="113.6759" y1="-956.9645" x2="198.2166" y2="-956.9645" gradientTransform="matrix(0.8347 -0.5508 -0.5508 -0.8347 -498.077 -548.2485)">
	<stop  offset="0.33" style="stop-color:#000000;stop-opacity:0.6"/>
	<stop  offset="0.47" style="stop-color:#2B0824;stop-opacity:0.58"/>
	<stop  offset="0.76" style="stop-color:#991C80;stop-opacity:0.53"/>
	<stop  offset="1" style="stop-color:#FF2ED6;stop-opacity:0.48"/>
</linearGradient>
<path class="st4" d="M129.8,190c-8-9.6-20.7-17.6-19.7-29.2s9.3-23.8,18.9-31.9s23.8-21.6,35.3-20.6s11.3,26.8,19.4,36.3
	s28,13.3,27,24.8s-10.7,24.4-20.2,32.5s-22.3-3.9-33.8-4.9S137.8,199.5,129.8,190z"/>
<linearGradient id="SVGID_5_" gradientUnits="userSpaceOnUse" x1="408.7156" y1="-906.6819" x2="408.7156" y2="-906.6819" gradientTransform="matrix(-1 0 0 1 621.52 1161.0319)">
	<stop  offset="0" style="stop-color:#0D7F7C"/>
	<stop  offset="0.54" style="stop-color:#000000"/>
</linearGradient>
<path class="st5" d="M212.8,254.3"/>
<g class="st6">
	
		<linearGradient id="SVGID_6_" gradientUnits="userSpaceOnUse" x1="483.9179" y1="-783.6169" x2="483.618" y2="-817.6169" gradientTransform="matrix(-1 0 0 1 621.52 1161.0319)">
		<stop  offset="0" style="stop-color:#4017FF"/>
		<stop  offset="0" style="stop-color:#3E16F6"/>
		<stop  offset="2.000000e-02" style="stop-color:#3212C8"/>
		<stop  offset="4.000000e-02" style="stop-color:#270E9D"/>
		<stop  offset="6.000000e-02" style="stop-color:#1E0B77"/>
		<stop  offset="9.000000e-02" style="stop-color:#160857"/>
		<stop  offset="0.12" style="stop-color:#0F053B"/>
		<stop  offset="0.15" style="stop-color:#090325"/>
		<stop  offset="0.18" style="stop-color:#050214"/>
		<stop  offset="0.22" style="stop-color:#020109"/>
		<stop  offset="0.29" style="stop-color:#000002"/>
		<stop  offset="0.46" style="stop-color:#000000"/>
	</linearGradient>
	<path class="st7" d="M208.4,391.1l-53.1-39.4l-88.5,11.5l53.6,40.2L208.4,391.1z"/>
	
		<linearGradient id="SVGID_7_" gradientUnits="userSpaceOnUse" x1="453.9234" y1="-834.0966" x2="453.0534" y2="-934.3266" gradientTransform="matrix(-1 0 0 1 621.52 1161.0319)">
		<stop  offset="0" style="stop-color:#4017FF"/>
		<stop  offset="0" style="stop-color:#3E16F6"/>
		<stop  offset="2.000000e-02" style="stop-color:#3212C8"/>
		<stop  offset="4.000000e-02" style="stop-color:#270E9D"/>
		<stop  offset="6.000000e-02" style="stop-color:#1E0B77"/>
		<stop  offset="9.000000e-02" style="stop-color:#160857"/>
		<stop  offset="0.12" style="stop-color:#0F053B"/>
		<stop  offset="0.15" style="stop-color:#090325"/>
		<stop  offset="0.18" style="stop-color:#050214"/>
		<stop  offset="0.22" style="stop-color:#020109"/>
		<stop  offset="0.29" style="stop-color:#000002"/>
		<stop  offset="0.46" style="stop-color:#000000"/>
	</linearGradient>
	<path class="st8" d="M127.5,263.6c-2.3,46.6-4.7,93.1-7,139.7l87.9-12.2c2.1-46.7,4.2-93.4,6.3-140.1L127.5,263.6z"/>
	<path class="st3" d="M79.7,230c-2.2,46.5-4.4,93-6.5,139.5l88.5-11.5l6.2-139.6L79.7,230z"/>
	<path class="st3" d="M86.9,235.2c-2.2,46.5-4.4,93-6.5,139.5l88.5-11.4c2.1-46.5,4.1-93.1,6.2-139.6L86.9,235.2z"/>
	<path class="st3" d="M94.4,240.3c-2.2,46.5-4.4,93-6.5,139.5l88.5-11.5l6.2-139.6L94.4,240.3z"/>
	<path class="st3" d="M101.3,244.7c-2.2,46.5-4.4,93-6.5,139.5l88.4-11.4c2.1-46.5,4.1-93.1,6.2-139.6L101.3,244.7z"/>
	<path class="st3" d="M107.7,250.8c-2.2,46.5-4.4,93-6.5,139.5l88.5-11.4c2.1-46.5,4.1-93.1,6.2-139.6L107.7,250.8z"/>
	<path class="st3" d="M114.5,255.9c-2.2,46.5-4.4,93-6.5,139.5l88.5-11.4c2.1-46.5,4.1-93.1,6.2-139.6L114.5,255.9z"/>
	<path class="st3" d="M120.7,259.8c-2.2,46.5-4.4,93-6.5,139.5l88.5-11.4l6.2-139.6L120.7,259.8z"/>
	
		<linearGradient id="SVGID_8_" gradientUnits="userSpaceOnUse" x1="9.5945" y1="-1049.5498" x2="94.1351" y2="-1049.5498" gradientTransform="matrix(0.8347 0.5508 -0.5508 0.8347 -480.6995 1154.5104)">
		<stop  offset="0.33" style="stop-color:#000000;stop-opacity:0.6"/>
		<stop  offset="0.47" style="stop-color:#2B0824;stop-opacity:0.58"/>
		<stop  offset="0.76" style="stop-color:#991C80;stop-opacity:0.53"/>
		<stop  offset="1" style="stop-color:#FF2ED6;stop-opacity:0.48"/>
	</linearGradient>
	<path class="st9" d="M111.3,281.7c-8,9.6-20.7,17.6-19.7,29.2s9.3,23.8,18.9,31.9s23.8,21.6,35.3,20.6s11.3-26.8,19.4-36.3
		s28-13.3,27-24.8s-10.7-24.4-20.2-32.5s-22.3,3.9-33.8,4.9S119.3,272.1,111.3,281.7z"/>
</g>
</svg>
