<svg id="Layer_1" data-name="Layer 1" xmlns="http://www.w3.org/2000/svg" xmlns:xlink="http://www.w3.org/1999/xlink" viewBox="0 0 158.06 158.09"><defs><style>.cls-1{fill:none;}.cls-2{isolation:isolate;}.cls-3{clip-path:url(#clip-path);}.cls-4{fill:#941609;}.cls-5{fill:#8f1509;}.cls-6{fill:#8b1409;}.cls-7{fill:#861408;}.cls-8{fill:#821308;}.cls-9{fill:#7d1208;}.cls-10{fill:#791208;}.cls-11{fill:#741107;}.cls-12{fill:#98160a;}.cls-13{fill:#9d170a;}.cls-14{fill:#a1180a;}.cls-15{fill:#a6180a;}.cls-16{fill:#aa190b;}.cls-17{fill:#af1a0b;}.cls-18{fill:#b31a0b;}.cls-19{fill:#b81b0b;}.cls-20{fill:#bc1c0c;}.cls-21{fill:#c11c0c;}.cls-22{fill:#c51d0c;}.cls-23{fill:#ca1e0d;}.cls-24{fill:#ce1e0d;}.cls-25{fill:#d31f0d;}.cls-26{fill:#d7200d;}.cls-27{fill:#dc200e;}.cls-28{fill:#e0210e;}.cls-29{fill:#e43c2b;}.cls-30{fill:#e54737;}.cls-31{fill:#e64f40;}.cls-32{fill:#e75648;}.cls-33{fill:#e85d4f;}.cls-34{fill:#e96255;}.cls-35{fill:#ea675b;}.cls-36{fill:#eb6c60;}.cls-37{fill:#eb7165;}.cls-38{fill:#ec7569;}.cls-39{fill:#ec796e;}.cls-40{fill:#ed7d72;}.cls-41{fill:#ed8176;}.cls-42{fill:#ee857a;}.cls-43{fill:#ee887e;}.cls-44{fill:#ef8c82;}.cls-45{fill:#ef8f85;}.cls-46{fill:#f09289;}.cls-47{fill:#f0958c;}.cls-48{clip-path:url(#clip-path-2);}</style><clipPath id="clip-path" transform="translate(-333.92 -667.98)"><path class="cls-1" d="M374,815.73a61.32,61.32,0,0,0,38.84,7.16A61.32,61.32,0,0,1,374,815.73a81.85,81.85,0,0,1-7-4.47c-1.68-1.27-3.9-3-5.51-4.31-1.31-1.12-3-2.65-4.21-3.9-1.41-1.47-3.3-3.44-4.63-5-1.15-1.35-2.61-3.22-3.66-4.66a75.2,75.2,0,0,1-6.65-10.9c-.86-1.82-2-4.25-2.76-6.12-.69-1.71-1.5-4-2.07-5.8a77.57,77.57,0,0,1-2.57-10.94,94.18,94.18,0,0,1-1-12.77c0-2.11.14-4.92.32-7,.16-1.9.56-4.41.82-6.3a67.86,67.86,0,0,1,1.47-6.73c.46-1.8,1.2-4.17,1.81-5.92.68-1.94,1.71-4.49,2.55-6.37.74-1.66,1.9-3.8,2.71-5.43a67.08,67.08,0,0,1,3.62-6c1-1.49,2.44-3.37,3.49-4.81a64,64,0,0,1,4.76-5.53c1.18-1.26,2.81-2.89,4.1-4,1.8-1.61,4.3-3.66,6.22-5.14a76.45,76.45,0,0,1,9-5.8,63.18,63.18,0,0,1,8.17-3.92c1.65-.64,3.86-1.48,5.54-2s4-1.21,5.79-1.64A78.31,78.31,0,0,1,417,668.08c1.14,0,3.76.25,5.53.48,2.85.36,3.41.47,6.48,1.06a78.28,78.28,0,0,1,18.89,6.51,78.37,78.37,0,0,1,10.16,6,81.25,81.25,0,0,1,9.51,7.77,79.72,79.72,0,0,1,15.21,20.05,108,108,0,0,1,4.88,11.2,66.92,66.92,0,0,1,1.95,6.52c.46,1.82.9,4.3,1.28,6.14a53,53,0,0,1,.85,6.88,73.88,73.88,0,0,1,.23,7.87c-.1,1.93-.18,4.51-.38,6.43a66.68,66.68,0,0,1-1,6.9c-.41,1.83-.91,4.28-1.41,6.09-.56,2-1.41,4.65-2.13,6.6a77.82,77.82,0,0,1-5.62,11.91c-1.83,3.06-4.57,7-6.72,9.83-1.32,1.75-3.36,3.87-4.83,5.5a53.49,53.49,0,0,1-4.13,4c-1.85,1.61-4.41,3.63-6.34,5.13a56.83,56.83,0,0,1-5.27,3.52c-2.35,1.38-5.57,3.1-8,4.29a77.15,77.15,0,0,1-11.72,4.32,78.51,78.51,0,0,1-31,2.39c-2.29-.28-4.21-.63-4.23-.63-1.95-.36-1.95-.36-5.08-1.07-2.42-.56-5.36-1.53-6.62-1.94-1.64-.54-3.81-1.36-5.39-2.07C379.58,818.62,376.35,817,374,815.73Z"/></clipPath><clipPath id="clip-path-2" transform="translate(-333.92 -667.98)"><path class="cls-1" d="M423.48,825.32a78.17,78.17,0,0,1-12.86.67A80.09,80.09,0,0,1,397,824.4c-1.41-.28-4.09-.93-5.61-1.38-2-.58-4.63-1.45-6.57-2.18-1.44-.54-3.32-1.32-4.71-2-1.86-.88-4.31-2.14-6.12-3.13-19.29-11-32-32.62-32-59.19.08-41.92,31.9-80.17,71.08-85.43-39.18,5.26-71,43.51-71.08,85.43,0,26.57,12.67,48.23,32,59.19-1.35-.83-3.19-1.86-4.5-2.76-2.07-1.43-4.79-3.42-6.76-5a98.85,98.85,0,0,1-8.32-7.93,52.53,52.53,0,0,1-4.8-5.83c-1.2-1.72-2.82-4-3.94-5.78-1-1.54-2.19-3.63-3-5.27-.88-1.85-2.08-4.32-2.87-6.21-.71-1.71-1.55-4-2.11-5.79a79.78,79.78,0,0,1-2.95-12.8,76.31,76.31,0,0,1-.81-11.5A109.37,109.37,0,0,1,335,734.1a52.64,52.64,0,0,1,1.4-6.69c.53-1.78,1.17-4.19,1.77-5.95a63.6,63.6,0,0,1,2.45-6.27c.8-1.64,1.8-3.86,2.67-5.47,1-1.77,2.32-4.09,3.42-5.78a76.71,76.71,0,0,1,7.78-10.06c1.18-1.27,2.77-2.94,4-4.13,1.52-1.42,3.6-3.25,5.23-4.55,1.27-1,3-2.31,4.33-3.22,1.81-1.21,4.28-2.74,6.15-3.84a82.9,82.9,0,0,1,8.76-4.25c1.72-.68,4.05-1.55,5.81-2.12s4-1.19,5.78-1.61a78.65,78.65,0,0,1,11.89-1.92c.53,0,2.51-.21,5.39-.26,2.08,0,3.85,0,5.14.1a81.88,81.88,0,0,1,9.68,1.09c1.91.36,3.29.62,5,1,3.32.84,5.19,1.42,6.17,1.77,1.2.42,2.81,1,4,1.44s2.85,1.14,4,1.72c1.85.9,4.31,2.13,6.11,3.13,1.4.78,3.24,1.87,4.55,2.79s3.14,2.14,4.41,3.14c1.75,1.37,4.05,3.26,5.68,4.77a79.19,79.19,0,0,1,15.87,20.36,107,107,0,0,1,5,11.15,66.15,66.15,0,0,1,2,6.6c.48,1.82.93,4.29,1.33,6.13a55.19,55.19,0,0,1,.9,6.9c.41,5.38.41,5.38,0,13.47a52.27,52.27,0,0,1-1,7.68,78.84,78.84,0,0,1-8.78,24.35c-1.8,3.09-4.5,7-6.6,9.92a67.82,67.82,0,0,1-4.4,5.17,80.33,80.33,0,0,1-13.69,11.74A78.94,78.94,0,0,1,423.48,825.32Z"/></clipPath></defs><g class="cls-2"><g class="cls-2"><g class="cls-3"><g class="cls-2"><path class="cls-4" d="M374,815.73c6.23,3.3,22.79,12.08,45.45,10A79.09,79.09,0,0,0,487.82,721.7,79.57,79.57,0,0,0,417,668.08a78.76,78.76,0,0,0-76.09,46.44,79.88,79.88,0,0,0-3.4,56.06c6.42,19.63,18.35,34.4,36.47,45.15a61.32,61.32,0,0,0,38.84,7.16A61.32,61.32,0,0,1,374,815.73" transform="translate(-333.92 -667.98)"/><path class="cls-4" d="M412.8,822.89C341,824.71,317,746.65,351.59,713.65,388.12,678.84,458,718.76,455.4,773c-1.73,36.16-27.31,44.78-42.6,49.92A61.32,61.32,0,0,1,374,815.73l4,2.14c1.82.84,4.26,2,6.11,2.71l3.33,1.22c1.18.37,2.74.88,3.92,1.22l2.7.72c.85.19,2,.46,2.83.64l2.25.43c.68.11,1.59.27,2.27.37l2,.26,1.95.22,1.8.15,1.78.11,1.72.07,1.71,0H414l1.73,0,1.8-.08,1.84-.13,2-.19,2.08-.25,2.57-.39a80.83,80.83,0,0,0,16-4.46l4-1.74A78.46,78.46,0,0,0,455,813.9l4.41-3c1.93-1.51,4.49-3.53,6.34-5.13l4.13-4c1.46-1.64,3.44-3.8,4.83-5.5l3.54-4.77c1.11-1.78,2.64-4.11,3.68-5.93l2.76-5.4c.79-1.9,1.91-4.41,2.61-6.34l1.88-5.9c.47-2,1.15-4.68,1.53-6.71l.89-6.28c.14-2.36.37-5.49.4-7.85l-.25-6.45c-.25-2.07-.51-4.83-.85-6.88l-1.28-6.14c-.58-2-1.29-4.59-1.95-6.52l-2.23-5.72c-.89-1.83-2-4.3-3-6.09l-3.07-5.17c-1.19-1.69-2.73-4-4-5.61l-3.77-4.49c-1.5-1.54-3.47-3.62-5-5.09l-4.16-3.59a81.3,81.3,0,0,0-10.48-7.11l-4-2.14c-1.82-.84-4.25-2-6.11-2.71l-3.33-1.22c-1.17-.37-2.73-.88-3.91-1.22l-2.7-.72c-.85-.19-2-.46-2.84-.64l-2.25-.43c-.68-.11-1.58-.27-2.26-.37l-2-.26-1.95-.22-1.79-.15-1.79-.11-1.71-.07-1.71,0h-1.72l-1.73,0-1.79.08-1.85.13-2,.19-2.08.25-2.59.4A80.66,80.66,0,0,0,383,673.89l-4.09,1.82a78.91,78.91,0,0,0-8.68,4.84l-4.4,3.06c-1.89,1.51-4.41,3.54-6.22,5.14l-4.1,4c-1.45,1.65-3.4,3.82-4.76,5.53l-3.49,4.81c-1.1,1.78-2.6,4.13-3.62,6l-2.71,5.43c-.77,1.91-1.86,4.43-2.55,6.37l-1.81,5.92c-.45,2-1.11,4.7-1.47,6.73l-.82,6.3c-.1,2.11-.31,4.92-.32,7l.25,6.45c.4,3.39,1.06,7.89,1.71,11.24l1.61,6c.69,1.91,1.54,4.49,2.3,6.38l2.53,5.54c1,1.79,2.26,4.2,3.32,5.94l3.33,5c1.29,1.64,3,3.85,4.33,5.43l4,4.22c1.61,1.5,3.76,3.51,5.44,4.93l4.28,3.28c2.07,1.38,4.84,3.2,7,4.47a61.32,61.32,0,0,0,38.84,7.16" transform="translate(-333.92 -667.98)"/><path class="cls-5" d="M386.29,821c-61.4-22.65-66.59-97.07-21.38-118.48,47.36-22.42,108.3,35.36,90.56,85.87-13.75,39.15-51.26,38.45-69.18,32.61A59.33,59.33,0,0,1,374,815.73h0a83.32,83.32,0,0,0,10.15,4.85l3.33,1.22c1.18.37,2.74.88,3.92,1.22l2.7.72c.85.19,2,.46,2.83.64l2.25.43c.68.11,1.59.27,2.27.37l2,.26,1.95.22,1.8.15,1.78.11,1.72.07,1.71,0H414l1.73,0,1.8-.08,1.84-.13,2-.19,2.08-.25,2.57-.39a80.83,80.83,0,0,0,16-4.46l4-1.74A78.46,78.46,0,0,0,455,813.9l4.41-3c1.93-1.51,4.49-3.53,6.34-5.13l4.13-4c1.46-1.64,3.44-3.8,4.83-5.5l3.54-4.77c1.11-1.78,2.64-4.11,3.68-5.93l2.76-5.4c.79-1.9,1.91-4.41,2.61-6.34l1.88-5.9c.47-2,1.15-4.68,1.53-6.71l.89-6.28c.14-2.36.37-5.49.4-7.85l-.25-6.45c-.25-2.07-.51-4.83-.85-6.88l-1.28-6.14c-.58-2-1.29-4.59-1.95-6.52l-2.23-5.72c-.89-1.83-2-4.3-3-6.09l-3.07-5.17c-1.19-1.69-2.73-4-4-5.61l-3.77-4.49c-1.5-1.54-3.47-3.62-5-5.09l-4.16-3.59a81.3,81.3,0,0,0-10.48-7.11l-4-2.14c-1.82-.84-4.25-2-6.11-2.71l-3.33-1.22c-1.17-.37-2.73-.88-3.91-1.22l-2.7-.72c-.85-.19-2-.46-2.84-.64l-2.25-.43c-.68-.11-1.58-.27-2.26-.37l-2-.26-1.95-.22-1.79-.15-1.79-.11-1.71-.07-1.71,0h-1.72l-1.73,0-1.79.08-1.85.13-2,.19-2.08.25-2.59.4A80.66,80.66,0,0,0,383,673.89l-4.09,1.82a78.91,78.91,0,0,0-8.68,4.84l-4.4,3.06c-1.89,1.51-4.41,3.54-6.22,5.14l-4.1,4c-1.45,1.65-3.4,3.82-4.76,5.53l-3.49,4.81c-1.1,1.78-2.6,4.13-3.62,6l-2.71,5.43c-.77,1.91-1.86,4.43-2.55,6.37l-1.81,5.92c-.45,2-1.11,4.7-1.47,6.73l-.82,6.3c-.1,2.11-.31,4.92-.32,7l.25,6.45c.4,3.39,1.06,7.89,1.71,11.24l1.61,6c.69,1.91,1.54,4.49,2.3,6.38l2.53,5.54c1,1.79,2.26,4.2,3.32,5.94l3.33,5c1.29,1.64,3,3.85,4.33,5.43l4,4.22c1.61,1.5,3.76,3.51,5.44,4.93l4.28,3.28c2.07,1.38,4.84,3.2,7,4.47A59.33,59.33,0,0,0,386.29,821" transform="translate(-333.92 -667.98)"/><path class="cls-6" d="M337.19,769.55c-15.37-54.86,35.07-93,85.67-64.73,51.49,28.74,51.37,103.7-.18,118-10.53,2.91-27.29,4.19-47.34-6.29l-1.38-.76,4,2.14c1.82.84,4.26,2,6.11,2.71l3.33,1.22c1.18.37,2.74.88,3.92,1.22l2.7.72c.85.19,2,.46,2.83.64l2.25.43c.68.11,1.59.27,2.27.37l2,.26,1.95.22,1.8.15,1.78.11,1.72.07,1.71,0H414l1.73,0,1.8-.08,1.84-.13,2-.19,2.08-.25,2.57-.39a80.83,80.83,0,0,0,16-4.46l4-1.74A78.46,78.46,0,0,0,455,813.9l4.41-3c1.93-1.51,4.49-3.53,6.34-5.13l4.13-4c1.46-1.64,3.44-3.8,4.83-5.5l3.54-4.77c1.11-1.78,2.64-4.11,3.68-5.93l2.76-5.4c.79-1.9,1.91-4.41,2.61-6.34l1.88-5.9c.47-2,1.15-4.68,1.53-6.71l.89-6.28c.14-2.36.37-5.49.4-7.85l-.25-6.45c-.25-2.07-.51-4.83-.85-6.88l-1.28-6.14c-.58-2-1.29-4.59-1.95-6.52l-2.23-5.72c-.89-1.83-2-4.3-3-6.09l-3.07-5.17c-1.19-1.69-2.73-4-4-5.61l-3.77-4.49c-1.5-1.54-3.47-3.62-5-5.09l-4.16-3.59a81.3,81.3,0,0,0-10.48-7.11l-4-2.14c-1.82-.84-4.25-2-6.11-2.71l-3.33-1.22c-1.17-.37-2.73-.88-3.91-1.22l-2.7-.72c-.85-.19-2-.46-2.84-.64l-2.25-.43c-.68-.11-1.58-.27-2.26-.37l-2-.26-1.95-.22-1.79-.15-1.79-.11-1.71-.07-1.71,0h-1.72l-1.73,0-1.79.08-1.85.13-2,.19-2.08.25-2.59.4A80.66,80.66,0,0,0,383,673.89l-4.09,1.82a78.91,78.91,0,0,0-8.68,4.84l-4.4,3.06c-1.89,1.51-4.41,3.54-6.22,5.14l-4.1,4c-1.45,1.65-3.4,3.82-4.76,5.53l-3.49,4.81c-1.1,1.78-2.6,4.13-3.62,6l-2.71,5.43c-.77,1.91-1.86,4.43-2.55,6.37l-1.81,5.92c-.45,2-1.11,4.7-1.47,6.73l-.82,6.3c-.1,2.11-.31,4.92-.32,7l.25,6.45c.4,3.39,1.06,7.89,1.71,11.24l1.61,6,1.72,4.92-1.93-5.65c0-.09-.06-.21-.09-.3" transform="translate(-333.92 -667.98)"/><path class="cls-6" d="M375.34,816.49c-1.43-.77-3.27-1.92-4.67-2.74l3.29,2,1.38.76" transform="translate(-333.92 -667.98)"/><path class="cls-7" d="M334.88,759.34c-7.47-63,56.83-85.46,100.56-49.8,46.82,38.19,33.78,110.6-20.83,115.64a65.94,65.94,0,0,1-28.41-3.82l3.3,1.11,1.86.55,2.7.72c.85.19,2,.46,2.83.64l2.25.43c.68.11,1.59.27,2.27.37l2,.26,1.95.22,1.8.15,1.78.11,1.72.07,1.71,0H414l1.73,0,1.8-.08,1.84-.13,2-.19,2.08-.25,2.57-.39a80.83,80.83,0,0,0,16-4.46l4-1.74A78.46,78.46,0,0,0,455,813.9l4.41-3c1.93-1.51,4.49-3.53,6.34-5.13l4.13-4c1.46-1.64,3.44-3.8,4.83-5.5l3.54-4.77c1.11-1.78,2.64-4.11,3.68-5.93l2.76-5.4c.79-1.9,1.91-4.41,2.61-6.34l1.88-5.9c.47-2,1.15-4.68,1.53-6.71l.89-6.28c.14-2.36.37-5.49.4-7.85l-.25-6.45c-.25-2.07-.51-4.83-.85-6.88l-1.28-6.14c-.58-2-1.29-4.59-1.95-6.52l-2.23-5.72c-.89-1.83-2-4.3-3-6.09l-3.07-5.17c-1.19-1.69-2.73-4-4-5.61l-3.77-4.49c-1.5-1.54-3.47-3.62-5-5.09l-4.16-3.59a81.3,81.3,0,0,0-10.48-7.11l-4-2.14c-1.82-.84-4.25-2-6.11-2.71l-3.33-1.22c-1.17-.37-2.73-.88-3.91-1.22l-2.7-.72c-.85-.19-2-.46-2.84-.64l-2.25-.43c-.68-.11-1.58-.27-2.26-.37l-2-.26-1.95-.22-1.79-.15-1.79-.11-1.71-.07-1.71,0h-1.72l-1.73,0-1.79.08-1.85.13-2,.19-2.08.25-2.59.4A80.66,80.66,0,0,0,383,673.89l-4.09,1.82a78.91,78.91,0,0,0-8.68,4.84l-4.4,3.06c-1.89,1.51-4.41,3.54-6.22,5.14l-4.1,4c-1.45,1.65-3.4,3.82-4.76,5.53l-3.49,4.81c-1.1,1.78-2.6,4.13-3.62,6l-2.71,5.43c-.77,1.91-1.86,4.43-2.55,6.37l-1.81,5.92c-.45,2-1.11,4.7-1.47,6.73l-.82,6.3c-.1,2.11-.31,4.92-.32,7l.25,6.45c.26,2.17.54,5.06.9,7.22l-.19-1.2" transform="translate(-333.92 -667.98)"/><path class="cls-8" d="M333.92,746.81c3.17-67.24,76-71.14,111.45-32.69,42.34,45.92,19.86,113.76-37,111.68a67.09,67.09,0,0,1-9.73-1.08l2.2.37.58.09,2,.26,1.95.22,1.8.15,1.78.11,1.72.07,1.71,0H414l1.73,0,1.8-.08,1.84-.13,2-.19,2.08-.25,2.57-.39a80.83,80.83,0,0,0,16-4.46l4-1.74A78.46,78.46,0,0,0,455,813.9l4.41-3c1.93-1.51,4.49-3.53,6.34-5.13l4.13-4c1.46-1.64,3.44-3.8,4.83-5.5l3.54-4.77c1.11-1.78,2.64-4.11,3.68-5.93l2.76-5.4c.79-1.9,1.91-4.41,2.61-6.34l1.88-5.9c.47-2,1.15-4.68,1.53-6.71l.89-6.28c.14-2.36.37-5.49.4-7.85l-.25-6.45c-.25-2.07-.51-4.83-.85-6.88l-1.28-6.14c-.58-2-1.29-4.59-1.95-6.52l-2.23-5.72c-.89-1.83-2-4.3-3-6.09l-3.07-5.17c-1.19-1.69-2.73-4-4-5.61l-3.77-4.49c-1.5-1.54-3.47-3.62-5-5.09l-4.16-3.59a81.3,81.3,0,0,0-10.48-7.11l-4-2.14c-1.82-.84-4.25-2-6.11-2.71l-3.33-1.22c-1.17-.37-2.73-.88-3.91-1.22l-2.7-.72c-.85-.19-2-.46-2.84-.64l-2.25-.43c-.68-.11-1.58-.27-2.26-.37l-2-.26-1.95-.22-1.79-.15-1.79-.11-1.71-.07-1.71,0h-1.72l-1.73,0-1.79.08-1.85.13-2,.19-2.08.25-2.59.4A80.66,80.66,0,0,0,383,673.89l-4.09,1.82a78.91,78.91,0,0,0-8.68,4.84l-4.4,3.06c-1.89,1.51-4.41,3.54-6.22,5.14l-4.1,4c-1.45,1.65-3.4,3.82-4.76,5.53l-3.49,4.81c-1.1,1.78-2.6,4.13-3.62,6l-2.71,5.43c-.77,1.91-1.86,4.43-2.55,6.37l-1.81,5.92c-.45,2-1.11,4.7-1.47,6.73l-.82,6.3c-.1,2.11-.31,4.92-.32,7v-.06" transform="translate(-333.92 -667.98)"/><path class="cls-9" d="M335.67,730.56c19-67.54,100.09-49.94,125.6-.84,24.75,47.61-1.16,97.1-50.39,96.28l3.16,0,1.73,0,1.8-.08,1.84-.13,2-.19,2.08-.25,2.57-.39a80.83,80.83,0,0,0,16-4.46l4-1.74A78.46,78.46,0,0,0,455,813.9l4.41-3c1.93-1.51,4.49-3.53,6.34-5.13l4.13-4c1.46-1.64,3.44-3.8,4.83-5.5l3.54-4.77c1.11-1.78,2.64-4.11,3.68-5.93l2.76-5.4c.79-1.9,1.91-4.41,2.61-6.34l1.88-5.9c.47-2,1.15-4.68,1.53-6.71l.89-6.28c.14-2.36.37-5.49.4-7.85l-.25-6.45c-.25-2.07-.51-4.83-.85-6.88l-1.28-6.14c-.58-2-1.29-4.59-1.95-6.52l-2.23-5.72c-.89-1.83-2-4.3-3-6.09l-3.07-5.17c-1.19-1.69-2.73-4-4-5.61l-3.77-4.49c-1.5-1.54-3.47-3.62-5-5.09l-4.16-3.59a81.3,81.3,0,0,0-10.48-7.11l-4-2.14c-1.82-.84-4.25-2-6.11-2.71l-3.33-1.22c-1.17-.37-2.73-.88-3.91-1.22l-2.7-.72c-.85-.19-2-.46-2.84-.64l-2.25-.43c-.68-.11-1.58-.27-2.26-.37l-2-.26-1.95-.22-1.79-.15-1.79-.11-1.71-.07-1.71,0h-1.72l-1.73,0-1.79.08-1.85.13-2,.19-2.08.25-2.59.4A80.66,80.66,0,0,0,383,673.89l-4.09,1.82a78.91,78.91,0,0,0-8.68,4.84l-4.4,3.06c-1.89,1.51-4.41,3.54-6.22,5.14l-4.1,4c-1.45,1.65-3.4,3.82-4.76,5.53l-3.49,4.81c-1.1,1.78-2.6,4.13-3.62,6l-2.71,5.43c-.77,1.91-1.86,4.43-2.55,6.37l-1.81,5.92c-.45,2-1.11,4.7-1.47,6.73l-.32,2c.28-1.5.62-3.51.93-5" transform="translate(-333.92 -667.98)"/><path class="cls-10" d="M337.79,722.52c23.19-61.33,102-47.25,128.78,8.45,20.23,42.17-.49,88-42.64,94.29l2.59-.42A80.69,80.69,0,0,0,442,820.47l4-1.74A78.46,78.46,0,0,0,455,813.9l4.41-3c1.93-1.51,4.49-3.53,6.34-5.13l4.13-4c1.46-1.64,3.44-3.8,4.83-5.5l3.54-4.77c1.11-1.78,2.64-4.11,3.68-5.93l2.76-5.4c.79-1.9,1.91-4.41,2.61-6.34l1.88-5.9c.47-2,1.15-4.68,1.53-6.71l.89-6.28c.14-2.36.37-5.49.4-7.85l-.25-6.45c-.25-2.07-.51-4.83-.85-6.88l-1.28-6.14c-.58-2-1.29-4.59-1.95-6.52l-2.23-5.72c-.89-1.83-2-4.3-3-6.09l-3.07-5.17c-1.19-1.69-2.73-4-4-5.61l-3.77-4.49c-1.5-1.54-3.47-3.62-5-5.09l-4.16-3.59a81.3,81.3,0,0,0-10.48-7.11l-4-2.14c-1.82-.84-4.25-2-6.11-2.71l-3.33-1.22c-1.17-.37-2.73-.88-3.91-1.22l-2.7-.72c-.85-.19-2-.46-2.84-.64l-2.25-.43c-.68-.11-1.58-.27-2.26-.37l-2-.26-1.95-.22-1.79-.15-1.79-.11-1.71-.07-1.71,0h-1.72l-1.73,0-1.79.08-1.85.13-2,.19-2.08.25-2.59.4A80.66,80.66,0,0,0,383,673.89l-4.09,1.82a78.91,78.91,0,0,0-8.68,4.84l-4.4,3.06c-1.89,1.51-4.41,3.54-6.22,5.14l-4.1,4c-1.45,1.65-3.4,3.82-4.76,5.53l-3.49,4.81c-1.1,1.78-2.6,4.13-3.62,6l-2.71,5.43c-.77,1.91-1.86,4.43-2.55,6.37l-.81,2.46.26-.83" transform="translate(-333.92 -667.98)"/><path class="cls-11" d="M346.64,704.17c37.4-53.45,119.68-16.64,130.29,43.19,10.18,57.4-35.3,73.45-40.52,75.09l2.88-1,2.75-1,4-1.74A78.46,78.46,0,0,0,455,813.9l4.41-3c1.93-1.51,4.49-3.53,6.34-5.13l4.13-4c1.46-1.64,3.44-3.8,4.83-5.5l3.54-4.77c1.11-1.78,2.64-4.11,3.68-5.93l2.76-5.4c.79-1.9,1.91-4.41,2.61-6.34l1.88-5.9c.47-2,1.15-4.68,1.53-6.71l.89-6.28c.14-2.36.37-5.49.4-7.85l-.25-6.45c-.25-2.07-.51-4.83-.85-6.88l-1.28-6.14c-.58-2-1.29-4.59-1.95-6.52l-2.23-5.72c-.89-1.83-2-4.3-3-6.09l-3.07-5.17c-1.19-1.69-2.73-4-4-5.61l-3.77-4.49c-1.5-1.54-3.47-3.62-5-5.09l-4.16-3.59a81.3,81.3,0,0,0-10.48-7.11l-4-2.14c-1.82-.84-4.25-2-6.11-2.71l-3.33-1.22c-1.17-.37-2.73-.88-3.91-1.22l-2.7-.72c-.85-.19-2-.46-2.84-.64l-2.25-.43c-.68-.11-1.58-.27-2.26-.37l-2-.26-1.95-.22-1.79-.15-1.79-.11-1.71-.07-1.71,0h-1.72l-1.73,0-1.79.08-1.85.13-2,.19-2.08.25-2.59.4A80.66,80.66,0,0,0,383,673.89l-4.09,1.82a78.91,78.91,0,0,0-8.68,4.84l-4.4,3.06c-1.89,1.51-4.41,3.54-6.22,5.14l-4.1,4c-1.45,1.65-3.4,3.82-4.76,5.53l-3.49,4.81c-1.1,1.78-2.6,4.13-3.62,6l2.16-3.6c.27-.4.61-.93.88-1.32" transform="translate(-333.92 -667.98)"/><path class="cls-12" d="M391.1,821.1c49.49,9.74,79.49-43.23,49.39-87.2-31.05-45.35-96-38-103.7,11.79-5.1,32.87,20.79,68.81,54.31,75.41" transform="translate(-333.92 -667.98)"/><path class="cls-13" d="M383.9,818.42C435.43,834.34,465,783,441.74,741.47c-28.32-50.52-91.55-44.15-102.65-1.37-9.27,35.7,15.69,69.32,44.81,78.32" transform="translate(-333.92 -667.98)"/><path class="cls-14" d="M374,813.46c44.42,23,82.69-16,70.78-56.86-15.85-54.34-80.71-62.55-101.07-24.17-14.49,27.31-.34,65.18,30.29,81" transform="translate(-333.92 -667.98)"/><path class="cls-15" d="M370.91,810.9c41.57,23.49,83.37-8.69,71-54.67-11.68-43.42-77.3-64.35-98.26-20-13.2,28,3.44,61.15,27.25,74.62" transform="translate(-333.92 -667.98)"/><path class="cls-16" d="M366.23,806.83c38,25.81,80.47,1,74.58-43.5-6-45.37-65.95-66.7-91.62-32.61-18.39,24.43-6.17,60.33,17,76.11" transform="translate(-333.92 -667.98)"/><path class="cls-17" d="M365.64,805.22c39.1,28,79.35-2.44,72.72-42.17-7.88-47.26-69.22-60-89.23-28.66-16,25-3.88,56.22,16.51,70.83" transform="translate(-333.92 -667.98)"/><path class="cls-18" d="M366.27,804.34c40.32,28.48,76.22-6.9,69.62-41.55C427,716,369.18,706,349.22,738.26c-12.75,20.58-5.27,49.61,17,66.08" transform="translate(-333.92 -667.98)"/><path class="cls-19" d="M361.6,798.88c35.09,31.79,73.25,4.44,72.52-29.21-1-46.2-55.58-59.11-78.11-36.19-18.77,19.09-12.26,49.23,5.59,65.4" transform="translate(-333.92 -667.98)"/><path class="cls-20" d="M362.64,798c33.22,30,73.75,2.4,69.11-35.56-4.5-36.81-56.87-52.07-77.82-22.66-14.18,19.89-6.09,44.84,8.71,58.22" transform="translate(-333.92 -667.98)"/><path class="cls-21" d="M364,797.05c33.78,29.56,70.55-2.55,66.11-34.75-4.77-34.61-53-48.73-73.71-21.58-15.68,20.55-5,45.31,7.6,56.33" transform="translate(-333.92 -667.98)"/><path class="cls-22" d="M360.52,790.94c27.38,32,66.22,8.73,68.1-21.72,2.17-35.15-43.1-52.16-65.14-32-21.69,19.86-11.42,43.82-3,53.71" transform="translate(-333.92 -667.98)"/><path class="cls-23" d="M362.34,790c25.58,29.08,62.53,7.14,64.61-20.88,2.22-30-35.95-53.31-62.39-29.62-18,16.12-12.13,39.24-2.22,50.5" transform="translate(-333.92 -667.98)"/><path class="cls-24" d="M364.55,789c23.66,26.35,58.49,5.74,60.72-20,2.32-26.83-32.67-52.44-60.59-26.46-10.79,10-13.49,31.59-.13,46.46" transform="translate(-333.92 -667.98)"/><path class="cls-25" d="M367.1,788.05c21.31,21.8,53.87,6.71,56.52-19.12,3-29.42-31.73-46.81-54.68-27.38-15.48,13.11-13.45,34.63-1.84,46.5" transform="translate(-333.92 -667.98)"/><path class="cls-26" d="M365.28,781.4A31.46,31.46,0,0,0,395,795.47c6.14-1.34,24.82-5.44,27.42-26.6,3.11-25.36-26.55-43-48.84-29-13.3,8.33-17.28,28.15-8.34,41.58" transform="translate(-333.92 -667.98)"/><path class="cls-27" d="M367.92,780.61c15.2,22.07,49.61,14.47,53.37-11.78C423,756.89,416.91,746,404.6,739c-3.34-1.91-15.44-7.34-30.82,2.75-9.18,6-16.55,23.32-5.86,38.85" transform="translate(-333.92 -667.98)"/><path class="cls-28" d="M370.12,780c15.3,19.37,46.14,12.44,50-11.23.87-5.3,1.09-18.67-15.5-28.45-5-3-15.41-6.59-29.1,2.14-12,7.64-14.61,25.88-5.4,37.54" transform="translate(-333.92 -667.98)"/><path class="cls-29" d="M372.43,779.46c15.8,18.79,42.84,9.42,46.52-10.71,3.84-21-21.59-38-40-26.76-19.17,11.68-11.48,31.55-6.51,37.47" transform="translate(-333.92 -667.98)"/><path class="cls-30" d="M372.69,776.09c4.24,6.52,12.38,13.79,27,11.4,7.13-1.17,16.09-9,18.08-18.77,1.85-9.17-2.19-17.65-12-25.21-5.28-4.07-17.92-5.12-23.32-2-10.88,6.4-11.39,8.23-13.88,17-.36,1.3-1.89,8.26,4.14,17.52" transform="translate(-333.92 -667.98)"/><path class="cls-31" d="M376.23,778.65c6.89,7.08,19.35,9.16,23.21,7.55,9.46-3.94,9.64-4,14.44-10.75a21,21,0,0,0,3-13.74c-1.07-7.68-6.25-13-7.81-14.46-4.07-3.78-4.07-3.78-14.93-6.64-6.88-1.81-18.73,6.49-20.74,9.64-9.71,15.26,2.3,27.87,2.82,28.4" transform="translate(-333.92 -667.98)"/><path class="cls-32" d="M373.42,772.16c2.8,5.33,9.86,14.06,25.77,12.75,4.57-.38,14.46-7.77,16.23-16.23,2.67-12.79-7.34-21.06-7.77-21.4-5.25-4.24-13.13-5.61-13.46-5.67-3.07-.52-7.38.43-10.23,1.66a27,27,0,0,0-8.58,6.66c-.75.88-4,8-4.06,8.1a24.08,24.08,0,0,0,2.1,14.13" transform="translate(-333.92 -667.98)"/><path class="cls-33" d="M374.75,771.9c1.73,3.07,8.6,13,24.19,11.7l7.53-3.25c3.87-3.77,6.42-6.25,7.81-11.68,2.33-9.12-2.64-17-8.07-21.37-3.58-2.87-11.9-4.68-12-4.68a21.61,21.61,0,0,0-10.19,1.81c-1.33.59-8.15,4-11.3,13.33-.46,1.35-1.14,8.6,2,14.14" transform="translate(-333.92 -667.98)"/><path class="cls-34" d="M376.11,771.65s4.85,5.64,5.44,6.06c2.48,1.79,6.39,3.17,9.15,4.47,2.17,1,5.61.32,8,.13a14.4,14.4,0,0,0,7.67-3.28c4.62-4.35,6.25-8.36,6.81-10.37,1-3.6,2.21-12.89-8.39-21.31-2.62-2.08-7.17-3.45-10.5-3.73a22.91,22.91,0,0,0-10.14,2c-6.49,3-15,14.51-8,26.06" transform="translate(-333.92 -667.98)"/><path class="cls-35" d="M377.5,771.41c2.47,4.09,8.49,10.81,21,9.82a14.85,14.85,0,0,0,7.77-3.53c3.6-3.34,5.79-9,5.8-9,2.13-7-.72-14.85-7.25-20a56.86,56.86,0,0,0-10.48-4c-3.08-.29-7.28.83-10.09,2.13-.17.08-15.53,10.15-6.76,24.66" transform="translate(-333.92 -667.98)"/><path class="cls-36" d="M378.91,771.18c2.8,4.6,9,7.44,11,8.38,2.3,1.06,5.9.78,8.42.58s5.92-2,7.86-3.78c1.63-1.47,4.79-7.65,4.81-7.69,2.26-6.93-1.3-14.89-6-18.59a23.43,23.43,0,0,0-10.54-4.47c-3.08-.32-7.24,1-10,2.3-.1.05-13.57,10-5.46,23.27" transform="translate(-333.92 -667.98)"/><path class="cls-37" d="M380.22,771a30.83,30.83,0,0,0,9.45,7.34c2.32,1.05,5.92.93,8.47.74,0,0,7.14-3.42,7.94-4.13a16,16,0,0,0,3.81-6.24c3-8.81-3.26-16.06-5-17.38-1.46-1.12-9.08-4.54-10.44-4.69a89.79,89.79,0,0,0-10,2.52c-2.45,1.66-5.56,4.82-6.13,7.72-.79,4-1.76,9,1.85,14.12" transform="translate(-333.92 -667.98)"/><path class="cls-38" d="M381.53,770.77c0,.05,6.88,5.82,7.81,6.23,2.38,1,6,1.14,8.61,1,.89-.07,6.44-3.27,8-4.63a11.51,11.51,0,0,0,2.81-4.63A15.35,15.35,0,0,0,405,752.61c-.06,0-9.82-4.94-10.42-5-.37,0-9.51,2.63-9.89,2.88-5.11,3.51-8.58,13-3.11,20.28" transform="translate(-333.92 -667.98)"/><path class="cls-39" d="M382.86,770.59a17.44,17.44,0,0,0,6.12,4.94,21.36,21.36,0,0,0,8.79,1.31c.92-.07,8.05-5.08,8.11-5.13a7.31,7.31,0,0,0,1.81-3c2.51-7.32-1.69-14.05-2.69-14.79-2.81-2.07-6.93-4.83-10.39-5.19-3.07-.31-7.28,1.36-9.81,3.13-4.24,2.95-7.17,11.93-1.94,18.73" transform="translate(-333.92 -667.98)"/><path class="cls-40" d="M384.21,770.41a12.34,12.34,0,0,0,4.41,3.59c2.55,1,6.29,2.26,9,1.69,2.91-.62,5.83-3.79,8.19-5.61a3,3,0,0,0,.81-1.35c2.67-8.62-.86-12.72-2.49-14.08-2.43-2-6.26-4.52-9.41-4.76s-6.86,2.19-9.72,3.33c-3.5,1.38-3.8,10.41-3.79,10.49a16,16,0,0,0,3,6.7" transform="translate(-333.92 -667.98)"/><path class="cls-41" d="M385.57,770.24a7.17,7.17,0,0,0,2.71,2.22c2.64.93,6.38,2.54,9.12,2s5.63-3.83,7.89-5.66c.25-.2.28-.7.35-1,.43-1.77,1.32-4.25.84-6a15.45,15.45,0,0,0-4.39-7c-1.89-1.56-4.86-3.52-7.32-3.66-3.07-.18-6.84,2.21-9.63,3.51a3.34,3.34,0,0,0-1.25,1.56,12.92,12.92,0,0,0,1.68,14.11" transform="translate(-333.92 -667.98)"/><path class="cls-42" d="M386.94,770.07a2.42,2.42,0,0,0,1,.83c2.74.82,6.46,2.8,9.27,2.25,2.16-.42,4.62-2.55,6-4.31s1.89-4.41,2.2-6.42a1.55,1.55,0,0,0,0-1c-1.45-2.08-3.25-5.05-5.23-6.63-1.36-1.1-3.48-2.51-5.23-2.6-3.06-.15-7.54,1.38-9.54,3.71-1.49,1.75-1.94,5.19-1.68,7.47s1.91,4.93,3.3,6.68" transform="translate(-333.92 -667.98)"/><path class="cls-43" d="M387.4,768.28a4.87,4.87,0,0,0,1.81,1.54c2.27.85,5.43,2.48,7.81,2a7.26,7.26,0,0,0,4-2.94c1.25-1.89,2.95-4.86,2.6-7.11-.4-2.62-3.64-5.06-5.55-6.91a5.63,5.63,0,0,0-3.13-1.54c-2.68-.13-15.28,5-7.56,14.91" transform="translate(-333.92 -667.98)"/><path class="cls-44" d="M386.61,764.09a26.17,26.17,0,0,0,6.19,5.39,6.43,6.43,0,0,0,4,1.09,3.49,3.49,0,0,0,2.07-1.52c1.13-2,3.14-4.87,2.81-7.15,0-.07-5.18-7.31-6.66-7.38-1.06,0-1.82-.09-8.76,7.77-.36.41,0,1.36.31,1.8" transform="translate(-333.92 -667.98)"/><path class="cls-45" d="M396.42,769.21a.44.44,0,0,0,.25.06c.36-.06,3.14-7.22,3.13-7.28-.29-2.13-2.43-5.4-4.57-5.5-2.68-.13-6.46,3.63-6.32,6.31.15,3,4.9,5,7.51,6.41" transform="translate(-333.92 -667.98)"/><path class="cls-46" d="M396.25,766c1.23-.29,1.83-2.64,1.64-3.9-.17-1.1-1.28-2.79-2.39-2.84a3.87,3.87,0,0,0-3.29,3.25c.05,1.6,2.48,3.86,4,3.49" transform="translate(-333.92 -667.98)"/><path class="cls-47" d="M395.85,762.52c.09,0,.14-.21.13-.31s-.11-.21-.19-.22-.27.15-.26.26.19.3.32.27" transform="translate(-333.92 -667.98)"/></g></g></g><g class="cls-2"><g class="cls-48"><g class="cls-2"><path class="cls-4" d="M423.48,825.32c-17.09,2.29-33.75-.94-49.52-9.59-19.29-11-32-32.62-32-59.19.08-41.92,31.9-80.17,71.08-85.43-39.18,5.26-71,43.51-71.08,85.43,0,26.57,12.67,48.23,32,59.19-7.81-4.79-11.3-7.07-19.58-15.68a79.46,79.46,0,0,1-11.72-16.88C335.89,769,332,755.21,335,734.1c3.5-24.73,23.64-55.29,59.58-63.94a79.23,79.23,0,0,1,46.54,3c20.35,8,30.87,20.38,37.76,30.24,14.27,20.43,20.33,56.47-.09,87.31a78.86,78.86,0,0,1-55.28,34.61" transform="translate(-333.92 -667.98)"/><path class="cls-4" d="M342,756.54c0,26.57,12.67,48.23,32,59.19h0A85.32,85.32,0,0,1,362.7,808l-4.28-3.8c-1.55-1.59-3.64-3.69-5.12-5.35l-3.72-4.61c-1.19-1.73-2.82-4-3.94-5.78l-3-5.27c-.87-1.86-2.08-4.32-2.87-6.21l-2.11-5.79c-.55-2-1.34-4.6-1.8-6.61l-1.15-6.19c-.36-3.44-.71-8-.81-11.5l.27-6.45c.26-2.07.53-4.83.87-6.88l1.31-6.13c.59-2,1.3-4.59,2-6.52l2.25-5.7c.9-1.84,2-4.31,3-6.1l3.08-5.15c1.2-1.69,2.76-4,4-5.62l3.75-4.44c1.52-1.55,3.52-3.65,5.11-5.13l4.15-3.55c1.92-1.42,4.49-3.32,6.47-4.65l4-2.41a75.07,75.07,0,0,1,8.76-4.25l2.89-1.12a82.05,82.05,0,0,1,16.55-4.09l2.05-.25,2-.19,1.84-.13,1.8-.08,1.73,0h1.72l1.71,0,1.71.07,1.78.11,1.8.15,1.92.21,2,.27,2.18.35,2.33.45,2.62.59c.87.23,2,.52,2.92.77l3.25,1c1.2.43,2.81,1,4,1.44l4,1.72c1.84.91,4.31,2.14,6.11,3.13l4.55,2.79A81.2,81.2,0,0,1,466.55,689l4.12,4.09c1.42,1.63,3.35,3.79,4.69,5.49l3.49,4.85c1.08,1.77,2.57,4.11,3.57,5.93l2.7,5.46c.76,1.9,1.83,4.42,2.51,6.35l1.8,5.94c.44,2,1.08,4.69,1.43,6.72l.8,6.31c.1,2.1.29,4.91.3,7l-.27,6.45c-.29,2.31-.62,5.39-1,7.68l-1.37,6.11c-.6,2-1.35,4.57-2,6.5l-2.3,5.67c-.91,1.82-2.08,4.28-3.07,6.07l-3.13,5.1c-1.21,1.69-2.8,4-4.09,5.6l-3.78,4.39c-1.54,1.54-3.57,3.62-5.18,5.09l-4.17,3.49c-2,1.42-4.56,3.3-6.58,4.62l-4,2.34a78.44,78.44,0,0,1-8.95,4.23l-2.87,1.07a82.31,82.31,0,0,1-15.69,3.78l-2.06.25-2,.19-1.83.13-1.81.08L414,826h-1.71l-1.71,0-1.72-.07-1.77-.11-1.81-.15-1.92-.21-2-.27-2.19-.35-2.33-.45-2.61-.59c-.88-.23-2-.52-2.92-.77l-3.25-1c-1.2-.43-2.81-1-4-1.44l-4-1.72c-1.85-.91-4.31-2.14-6.12-3.13-19.29-11-32-32.62-32-59.19.08-41.92,31.9-80.17,71.08-85.43l-.1,0c-68.17,19.36-43.9,94.74-2.24,115.3C458.67,810.1,503,772.2,487.17,721c-5.79-18.8-23.13-50.28-74.09-49.93-39.18,5.26-71,43.51-71.08,85.43" transform="translate(-333.92 -667.98)"/><path class="cls-5" d="M342,756.54c0,26.57,12.67,48.23,32,59.19l-4.5-2.76c-2-1.46-4.78-3.43-6.76-5l-4.28-3.8c-1.55-1.59-3.64-3.69-5.12-5.35l-3.72-4.61c-1.19-1.73-2.82-4-3.94-5.78l-3-5.27c-.87-1.86-2.08-4.32-2.87-6.21l-2.11-5.79c-.55-2-1.34-4.6-1.8-6.61l-1.15-6.19c-.36-3.44-.71-8-.81-11.5l.27-6.45c.26-2.07.53-4.83.87-6.88l1.31-6.13c.59-2,1.3-4.59,2-6.52l2.25-5.7c.9-1.84,2-4.31,3-6.1l3.08-5.15c1.2-1.69,2.76-4,4-5.62l3.75-4.44c1.52-1.55,3.52-3.65,5.11-5.13l4.15-3.55c1.92-1.42,4.49-3.32,6.47-4.65l4-2.41a75.07,75.07,0,0,1,8.76-4.25l2.89-1.12a82.05,82.05,0,0,1,16.55-4.09l2.05-.25,2-.19,1.84-.13,1.8-.08,1.73,0h1.72l1.71,0,1.71.07,1.78.11,1.8.15,1.92.21,2,.27,2.18.35,2.33.45,2.62.59c.87.23,2,.52,2.92.77l3.25,1c1.2.43,2.81,1,4,1.44l4,1.72c1.84.91,4.31,2.14,6.11,3.13l4.55,2.79A81.2,81.2,0,0,1,466.55,689l4.12,4.09c1.42,1.63,3.35,3.79,4.69,5.49l3.49,4.85c1.08,1.77,2.57,4.11,3.57,5.93l2.7,5.46c.76,1.9,1.83,4.42,2.51,6.35l1.8,5.94c.44,2,1.08,4.69,1.43,6.72l.8,6.31c.1,2.1.29,4.91.3,7l-.27,6.45c-.29,2.31-.62,5.39-1,7.68l-1.37,6.11c-.6,2-1.35,4.57-2,6.5l-2.3,5.67c-.91,1.82-2.08,4.28-3.07,6.07l-3.13,5.1c-1.21,1.69-2.8,4-4.09,5.6l-3.78,4.39c-1.54,1.54-3.57,3.62-5.18,5.09l-4.17,3.49c-2,1.42-4.56,3.3-6.58,4.62l-4,2.34a78.44,78.44,0,0,1-8.95,4.23l-2.87,1.07a82.31,82.31,0,0,1-15.69,3.78l-2.06.25-2,.19-1.83.13-1.81.08L414,826h-1.71l-1.71,0-1.72-.07-1.77-.11-1.81-.15-1.92-.21-2-.27-2.19-.35-2.33-.45-2.61-.59c-.88-.23-2-.52-2.92-.77l-3.25-1c-1.2-.43-2.81-1-4-1.44l-4-1.72c-1.85-.91-4.31-2.14-6.12-3.13-19.29-11-32-32.62-32-59.19.07-34.78,22-67,51.83-80l-.6.33c-48.05,30.66-23.34,101.83,27.59,116.81,50.63,14.88,87.87-34.77,62.26-83-18.73-35.29-59.6-50.91-89.25-34.13-29.84,13-51.76,45.24-51.83,80" transform="translate(-333.92 -667.98)"/><path class="cls-6" d="M487.63,721.14a78.51,78.51,0,0,1,3.23,12.66l.8,6.31c.1,2.1.29,4.91.3,7l-.27,6.45c-.29,2.31-.62,5.39-1,7.68l-1.37,6.11c-.6,2-1.35,4.57-2,6.5l-2.3,5.67c-.91,1.82-2.08,4.28-3.07,6.07l-3.13,5.1c-1.21,1.69-2.8,4-4.09,5.6l-3.78,4.39c-1.54,1.54-3.57,3.62-5.18,5.09l-4.17,3.49c-2,1.42-4.56,3.3-6.58,4.62l-4,2.34a78.44,78.44,0,0,1-8.95,4.23l-2.87,1.07a82.31,82.31,0,0,1-15.69,3.78l-2.06.25-2,.19-1.83.13-1.81.08L414,826h-1.71l-1.71,0-1.72-.07-1.77-.11-1.81-.15-1.92-.21-2-.27-2.19-.35-2.33-.45-2.61-.59c-.88-.23-2-.52-2.92-.77l-3.25-1c-1.2-.43-2.81-1-4-1.44l-4-1.72c-1.85-.91-4.31-2.14-6.12-3.13-19.29-11-32-32.62-32-59.19.06-30.15,16.54-58.41,40.38-73.86l-1.11,1c-43.4,45.18,2.52,117.23,58.16,115.28,39.68-1.39,62.62-40.54,47.2-80.56.3.81.73,1.9,1,2.72" transform="translate(-333.92 -667.98)"/><path class="cls-6" d="M342,756.54c0,26.57,12.67,48.23,32,59.19l-4.5-2.76c-2-1.46-4.78-3.43-6.76-5l-4.28-3.8c-1.55-1.59-3.64-3.69-5.12-5.35l-3.72-4.61c-1.19-1.73-2.82-4-3.94-5.78l-3-5.27c-.87-1.86-2.08-4.32-2.87-6.21l-2.11-5.79c-.55-2-1.34-4.6-1.8-6.61l-1.15-6.19c-.36-3.44-.71-8-.81-11.5l.27-6.45c.26-2.07.53-4.83.87-6.88l1.31-6.13c.59-2,1.3-4.59,2-6.52l2.25-5.7c.9-1.84,2-4.31,3-6.1l3.08-5.15c1.2-1.69,2.76-4,4-5.62l3.75-4.44c1.52-1.55,3.52-3.65,5.11-5.13l4.15-3.55c1.92-1.42,4.49-3.32,6.47-4.65l4-2.41a75.07,75.07,0,0,1,8.76-4.25l2.89-1.12a82.05,82.05,0,0,1,16.55-4.09l2.05-.25,2-.19,1.84-.13,1.8-.08,1.73,0h1.72l1.71,0,1.71.07,1.78.11,1.8.15,1.92.21,2,.27,2.18.35,2.33.45,2.62.59c.87.23,2,.52,2.92.77l3.25,1c1.2.43,2.81,1,4,1.44l4,1.72c1.84.91,4.31,2.14,6.11,3.13l3.36,2-4.52-2.66c-39.44-19.65-63.88.76-68.37,5-23.84,15.45-40.32,43.71-40.38,73.86" transform="translate(-333.92 -667.98)"/><path class="cls-7" d="M490.86,733.8a80.14,80.14,0,0,1,1.1,13.33l-.27,6.45c-.29,2.31-.62,5.39-1,7.68l-1.37,6.11c-.6,2-1.35,4.57-2,6.5l-2.3,5.67c-.91,1.82-2.08,4.28-3.07,6.07l-3.13,5.1c-1.21,1.69-2.8,4-4.09,5.6l-3.78,4.39c-1.54,1.54-3.57,3.62-5.18,5.09l-4.17,3.49c-2,1.42-4.56,3.3-6.58,4.62l-4,2.34a78.44,78.44,0,0,1-8.95,4.23l-2.87,1.07a82.31,82.31,0,0,1-15.69,3.78l-2.06.25-2,.19-1.83.13-1.81.08L414,826h-1.71l-1.71,0-1.72-.07-1.77-.11-1.81-.15-1.92-.21-2-.27-2.19-.35-2.33-.45-2.61-.59c-.88-.23-2-.52-2.92-.77l-3.25-1c-1.2-.43-2.81-1-4-1.44l-4-1.72c-1.85-.91-4.31-2.14-6.12-3.13-19.29-11-32-32.62-32-59.19.05-26.33,12.63-51.21,31.68-67.38L371,692.82C337.79,748.16,398.7,814,452.32,799.71c22.77-6,44.52-29.34,38.49-66.21,0,.09,0,.21.05.3" transform="translate(-333.92 -667.98)"/><path class="cls-7" d="M342,756.54c0,26.57,12.67,48.23,32,59.19l-4.5-2.76c-2-1.46-4.78-3.43-6.76-5l-4.28-3.8c-1.55-1.59-3.64-3.69-5.12-5.35l-3.72-4.61c-1.19-1.73-2.82-4-3.94-5.78l-3-5.27c-.87-1.86-2.08-4.32-2.87-6.21l-2.11-5.79c-.55-2-1.34-4.6-1.8-6.61l-1.15-6.19c-.36-3.44-.71-8-.81-11.5l.27-6.45c.26-2.07.53-4.83.87-6.88l1.31-6.13c.59-2,1.3-4.59,2-6.52l2.25-5.7c.9-1.84,2-4.31,3-6.1l3.08-5.15c1.2-1.69,2.76-4,4-5.62l3.75-4.44c1.52-1.55,3.52-3.65,5.11-5.13l4.15-3.55c1.92-1.42,4.49-3.32,6.47-4.65l4-2.41a75.07,75.07,0,0,1,8.76-4.25l2.89-1.12a82.05,82.05,0,0,1,16.55-4.09l2.05-.25,2-.19,1.84-.13,1.8-.08,1.73,0h1.72l1.71,0,1.71.07,1.78.11,1.8.15,1.92.21,2,.27,2.18.35,2.33.45,2.62.59c.87.23,2,.52,2.92.77l3.25,1,1.91.66-4.14-1.35c-29.29-8.32-51.16,3.77-61.86,17.87-19.05,16.17-31.63,41.05-31.68,67.38" transform="translate(-333.92 -667.98)"/><path class="cls-8" d="M492,747.13a80.4,80.4,0,0,1-1.29,14.13l-1.37,6.11c-.6,2-1.35,4.57-2,6.5l-2.3,5.67c-.91,1.82-2.08,4.28-3.07,6.07l-3.13,5.1c-1.21,1.69-2.8,4-4.09,5.6l-3.78,4.39c-1.54,1.54-3.57,3.62-5.18,5.09l-4.17,3.49c-2,1.42-4.56,3.3-6.58,4.62l-4,2.34a78.44,78.44,0,0,1-8.95,4.23l-2.87,1.07a82.31,82.31,0,0,1-15.69,3.78l-2.06.25-2,.19-1.83.13-1.81.08L414,826h-1.71l-1.71,0-1.72-.07-1.77-.11-1.81-.15-1.92-.21-2-.27-2.19-.35-2.33-.45-2.61-.59c-.88-.23-2-.52-2.92-.77l-3.25-1c-1.2-.43-2.81-1-4-1.44l-4-1.72c-1.85-.91-4.31-2.14-6.12-3.13-19.29-11-32-32.62-32-59.19.05-22.77,9.46-44.46,24.32-60.37l-.8,1.41C336.35,757,401.18,819.36,454.44,801.71c18.16-6,37.54-23.66,37.52-55.16,0,.18,0,.41,0,.58" transform="translate(-333.92 -667.98)"/><path class="cls-8" d="M342,756.54c0,26.57,12.67,48.23,32,59.19l-4.5-2.76c-2-1.46-4.78-3.43-6.76-5l-4.28-3.8c-1.55-1.59-3.64-3.69-5.12-5.35l-3.72-4.61c-1.19-1.73-2.82-4-3.94-5.78l-3-5.27c-.87-1.86-2.08-4.32-2.87-6.21l-2.11-5.79c-.55-2-1.34-4.6-1.8-6.61l-1.15-6.19c-.36-3.44-.71-8-.81-11.5l.27-6.45c.26-2.07.53-4.83.87-6.88l1.31-6.13c.59-2,1.3-4.59,2-6.52l2.25-5.7c.9-1.84,2-4.31,3-6.1l3.08-5.15c1.2-1.69,2.76-4,4-5.62l3.75-4.44c1.52-1.55,3.52-3.65,5.11-5.13l4.15-3.55c1.92-1.42,4.49-3.32,6.47-4.65l4-2.41a75.07,75.07,0,0,1,8.76-4.25l2.89-1.12a82.05,82.05,0,0,1,16.55-4.09l2.05-.25,2-.19,1.84-.13,1.8-.08,1.73,0h1.72l1.71,0,1.71.07,1.78.11,1.8.15,1.92.21,2,.27,2.18.35.6.11-.63-.11c-41.95-6.54-58.54,23.55-60.3,27-14.86,15.91-24.27,37.6-24.32,60.37" transform="translate(-333.92 -667.98)"/><path class="cls-9" d="M490.67,761.26a78.44,78.44,0,0,1-3.41,12.61l-2.3,5.67c-.91,1.82-2.08,4.28-3.07,6.07l-3.13,5.1c-1.21,1.69-2.8,4-4.09,5.6l-3.78,4.39c-1.54,1.54-3.57,3.62-5.18,5.09l-4.17,3.49c-2,1.42-4.56,3.3-6.58,4.62l-4,2.34a78.44,78.44,0,0,1-8.95,4.23l-2.87,1.07a82.31,82.31,0,0,1-15.69,3.78l-2.06.25-2,.19-1.83.13-1.81.08L414,826h-1.71l-1.71,0-1.72-.07-1.77-.11-1.81-.15-1.92-.21-2-.27-2.19-.35-2.33-.45-2.61-.59c-.88-.23-2-.52-2.92-.77l-3.25-1c-1.2-.43-2.81-1-4-1.44l-4-1.72c-1.85-.91-4.31-2.14-6.12-3.13-19.29-11-32-32.62-32-59.19A89,89,0,0,1,359.78,704c-.55,1.49-1.29,3.47-1.84,5-17.75,67.57,57.21,119.69,106.21,90.79,21.68-12.78,25.67-34.26,27-41.33-.14.85-.3,2-.46,2.83" transform="translate(-333.92 -667.98)"/><path class="cls-9" d="M342,756.54c0,26.57,12.67,48.23,32,59.19l-4.5-2.76c-2-1.46-4.78-3.43-6.76-5l-4.28-3.8c-1.55-1.59-3.64-3.69-5.12-5.35l-3.72-4.61c-1.19-1.73-2.82-4-3.94-5.78l-3-5.27c-.87-1.86-2.08-4.32-2.87-6.21l-2.11-5.79c-.55-2-1.34-4.6-1.8-6.61l-1.15-6.19c-.36-3.44-.71-8-.81-11.5l.27-6.45c.26-2.07.53-4.83.87-6.88l1.31-6.13c.59-2,1.3-4.59,2-6.52l2.25-5.7c.9-1.84,2-4.31,3-6.1l3.08-5.15c1.2-1.69,2.76-4,4-5.62l3.75-4.44c1.52-1.55,3.52-3.65,5.11-5.13l4.15-3.55c1.92-1.42,4.49-3.32,6.47-4.65l4-2.41a75.07,75.07,0,0,1,8.76-4.25l2.89-1.12a82.05,82.05,0,0,1,16.55-4.09l2.05-.25,2-.19,1.84-.13,1.8-.08,1.73,0h1.72l1.45,0-1.32,0c-40.51.19-52.65,32.37-53.9,36A89,89,0,0,0,342,756.54" transform="translate(-333.92 -667.98)"/><path class="cls-10" d="M487.26,773.87a79,79,0,0,1-5.37,11.74l-3.13,5.1c-1.21,1.69-2.8,4-4.09,5.6l-3.78,4.39c-1.54,1.54-3.57,3.62-5.18,5.09l-4.17,3.49c-2,1.42-4.56,3.3-6.58,4.62l-4,2.34a78.44,78.44,0,0,1-8.95,4.23l-2.87,1.07a82.31,82.31,0,0,1-15.69,3.78l-2.06.25-2,.19-1.83.13-1.81.08L414,826h-1.71l-1.71,0-1.72-.07-1.77-.11-1.81-.15-1.92-.21-2-.27-2.19-.35-2.33-.45-2.61-.59c-.88-.23-2-.52-2.92-.77l-3.25-1c-1.2-.43-2.81-1-4-1.44l-4-1.72c-1.85-.91-4.31-2.14-6.12-3.13-19.29-11-32-32.62-32-59.19a88,88,0,0,1,11.79-43.36c-.15.56-.34,1.31-.49,1.87-13.59,67.94,64.22,117.42,111.27,87a57.85,57.85,0,0,0,23.78-31.39c-.33,1-.73,2.25-1.09,3.21" transform="translate(-333.92 -667.98)"/><path class="cls-10" d="M342,756.54c0,26.57,12.67,48.23,32,59.19l-4.5-2.76c-2-1.46-4.78-3.43-6.76-5l-4.28-3.8c-1.55-1.59-3.64-3.69-5.12-5.35l-3.72-4.61c-1.19-1.73-2.82-4-3.94-5.78l-3-5.27c-.87-1.86-2.08-4.32-2.87-6.21l-2.11-5.79c-.55-2-1.34-4.6-1.8-6.61l-1.15-6.19c-.36-3.44-.71-8-.81-11.5l.27-6.45c.26-2.07.53-4.83.87-6.88l1.31-6.13c.59-2,1.3-4.59,2-6.52l2.25-5.7c.9-1.84,2-4.31,3-6.1l3.08-5.15c1.2-1.69,2.76-4,4-5.62l3.75-4.44c1.52-1.55,3.52-3.65,5.11-5.13l4.15-3.55c1.92-1.42,4.49-3.32,6.47-4.65l4-2.41a75.07,75.07,0,0,1,8.76-4.25l2.89-1.12a81.49,81.49,0,0,1,16.11-4l-1.23.19c-27.89,4.84-43.89,26.33-46.94,44.25A88,88,0,0,0,342,756.54" transform="translate(-333.92 -667.98)"/><path class="cls-11" d="M481.89,785.61a79.83,79.83,0,0,1-7.22,10.7l-3.78,4.39c-1.54,1.54-3.57,3.62-5.18,5.09l-4.17,3.49c-2,1.42-4.56,3.3-6.58,4.62l-4,2.34a78.44,78.44,0,0,1-8.95,4.23l-2.87,1.07a82.31,82.31,0,0,1-15.69,3.78l-2.06.25-2,.19-1.83.13-1.81.08L414,826h-1.71l-1.71,0-1.72-.07-1.77-.11-1.81-.15-1.92-.21-2-.27-2.19-.35-2.33-.45-2.61-.59c-.88-.23-2-.52-2.92-.77l-3.25-1c-1.2-.43-2.81-1-4-1.44l-4-1.72c-1.85-.91-4.31-2.14-6.12-3.13-19.29-11-32-32.62-32-59.19A86.76,86.76,0,0,1,348.13,725l-.37,3.4c-2.71,64.57,77,111.78,121.91,72.17a57.69,57.69,0,0,0,12.9-16.15c-.2.37-.47.87-.68,1.24" transform="translate(-333.92 -667.98)"/><path class="cls-11" d="M342,756.54c0,26.57,12.67,48.23,32,59.19l-4.5-2.76c-2-1.46-4.78-3.43-6.76-5l-4.28-3.8c-1.55-1.59-3.64-3.69-5.12-5.35l-3.72-4.61c-1.19-1.73-2.82-4-3.94-5.78l-3-5.27c-.87-1.86-2.08-4.32-2.87-6.21l-2.11-5.79c-.55-2-1.34-4.6-1.8-6.61l-1.15-6.19c-.36-3.44-.71-8-.81-11.5l.27-6.45c.26-2.07.53-4.83.87-6.88l1.31-6.13c.59-2,1.3-4.59,2-6.52l2.25-5.7c.9-1.84,2-4.31,3-6.1l3.08-5.15c1.2-1.69,2.76-4,4-5.62l3.75-4.44c1.52-1.55,3.52-3.65,5.11-5.13l4.15-3.55c1.92-1.42,4.49-3.32,6.47-4.65l4-2.41a75.07,75.07,0,0,1,8.76-4.25l2.89-1.12c1.21-.41,2.82-1,4-1.35l-.09,0c-28.23,8.93-41.27,33.31-41.67,53.5A86.76,86.76,0,0,0,342,756.54" transform="translate(-333.92 -667.98)"/><path class="cls-12" d="M447.91,677.2c49.62,23.37,56.79,92.26,11.45,110-47.56,18.63-102.06-38-82.14-85.36,12.73-30.27,45.94-36.31,70.69-24.66" transform="translate(-333.92 -667.98)"/><path class="cls-13" d="M454.68,681.32C502.47,710.41,500.13,777.57,451,787c-51.84,10-95.7-54.33-65.18-95.53,17.45-23.56,47.85-22.93,68.86-10.15" transform="translate(-333.92 -667.98)"/><path class="cls-14" d="M460.83,686.12c43.05,33.12,31.09,90.2-9.4,98.14-45,8.83-92.58-47.1-63.61-91.47,12.91-19.77,45.32-27.16,73-6.67" transform="translate(-333.92 -667.98)"/><path class="cls-15" d="M466.31,691.56c39.08,37.48,17.72,90.92-24.39,90.9-49.42,0-80.07-62-46.85-94.68,20.5-20.2,52.94-13.76,71.24,3.78" transform="translate(-333.92 -667.98)"/><path class="cls-16" d="M466.1,692.45c35.44,33.16,20.66,87-24,87.3C394,780.06,365.54,721,398,688.21c16.85-17.06,47.42-15.16,68.14,4.24" transform="translate(-333.92 -667.98)"/><path class="cls-17" d="M470.6,698.53c29,35.53,8.57,82.2-34.12,78-49.56-4.86-64.86-65.5-33-90,21.77-16.72,51.77-6.81,67.07,12" transform="translate(-333.92 -667.98)"/><path class="cls-18" d="M470,699.41c28.82,35.6,5,82.1-38,74.27-46.38-8.45-55.69-65.29-24.1-87.38,18.12-12.68,46-6.79,62.09,13.11" transform="translate(-333.92 -667.98)"/><path class="cls-19" d="M473.36,706.12C496,743.6,467.25,778,432,771.36c-46.84-8.88-50.55-63-23.77-82.29,24.87-18,53.78-1.63,65.1,17" transform="translate(-333.92 -667.98)"/><path class="cls-20" d="M472.3,707c21.1,35.45-6.79,68.19-40.25,62-43.59-8.1-50.05-57-20-79.53,15.92-12,45.72-6.88,60.26,17.56" transform="translate(-333.92 -667.98)"/><path class="cls-21" d="M471,708c19,32.64-7.41,63.61-39,59.17-39.52-5.56-47.18-54.1-20.13-74.26C434.52,676,461.2,691.09,471,708" transform="translate(-333.92 -667.98)"/><path class="cls-22" d="M472.62,715.32c12.81,34.11-22.17,59.59-51.25,46.92-34.49-15-29.08-60.18.69-72.18,18.67-7.53,42.77,4.51,50.56,25.26" transform="translate(-333.92 -667.98)"/><path class="cls-23" d="M470.72,716.28c10.6,30.57-19.39,57.5-49.37,44.33-32.57-14.31-27-56.19,1.37-67.9,19.95-8.23,41.79,5.66,48,23.57" transform="translate(-333.92 -667.98)"/><path class="cls-24" d="M468.54,717.23c10.1,30.34-21.87,53.15-47.2,42-30.75-13.57-24.9-53.62,2.18-64.06,19.66-7.59,39.51,5.55,45,22.08" transform="translate(-333.92 -667.98)"/><path class="cls-25" d="M466.19,718.14c9.58,28.74-20.81,50.29-44.87,39.66-26.55-11.73-24.79-49.48,2.82-60.27,13-5.09,35.28.29,42.05,20.61" transform="translate(-333.92 -667.98)"/><path class="cls-26" d="M465.25,726c1.5,21.46-13.45,28.38-18.36,30.66-17.07,7.9-29.7-2.93-33.85-6.49-19.61-16.82-8.8-48.19,17.79-51.63,18.45-2.39,33.39,12.53,34.42,27.46" transform="translate(-333.92 -667.98)"/><path class="cls-27" d="M463,726.64c2,15.45-10.76,25.52-10.89,25.6-8.23,5.22-8.45,5.24-20.19,5.9-.06,0-9.44-2.15-12.11-4.08-29.74-21.55-10.48-47.67,5.31-52.48,15.43-4.69,35.34,5.24,37.88,25.06" transform="translate(-333.92 -667.98)"/><path class="cls-28" d="M461.17,727.13c2.29,20.53-21.94,40.8-44.73,22.8-23.3-18.4-5.66-47.49,15.83-47.44,9.13,0,27,7.26,28.9,24.64" transform="translate(-333.92 -667.98)"/><path class="cls-29" d="M459.28,727.6c.67,7.06-.67,19.94-17.1,26.88-4.85,2-18.13,2.86-28.25-7.72-14.4-15.06-5.46-42.87,19-42.28,15,.36,25.45,13.71,26.33,23.12" transform="translate(-333.92 -667.98)"/><path class="cls-30" d="M457.32,728.05c2.59,26.77-28.22,33-42,18.71-16.88-17.54-2.27-42.43,18.08-40.76,16.57,1.36,23.25,15.45,23.88,22" transform="translate(-333.92 -667.98)"/><path class="cls-31" d="M455.86,728.37c2,13.55-6.41,18.85-13.85,23.52-1.05.66-10.38,3.76-20.83-1.74-1.44-.76-14-7.89-11.9-24.85.49-4,6.32-15,17.15-17.5,9-2.07,27,4.17,29.43,20.57" transform="translate(-333.92 -667.98)"/><path class="cls-32" d="M454.55,736s-3.1,7-4.05,8.1c-2.12,2.47-5.93,4.76-8.58,6.66s-7.14,1.4-10.24,1.66c-1,.08-13.39-1.84-19.24-12.91-7.29-13.78,3.78-33.05,21.92-30.51,12.59,1.77,23,15.65,20.19,27" transform="translate(-333.92 -667.98)"/><path class="cls-33" d="M453.13,736.24c-3.64,13.68-16.61,14.74-21.49,15.14-3.32.28-7.74-1.73-10.52-3.56-2.48-1.64-7.54-8.28-7.57-8.34-6.78-12.31,2.08-32,21.25-29,.79.13,9.25,4,9.29,4,1.77,1.25,3.29,2.34,7,7.6,3.61,5.08,2,14,2,14.14" transform="translate(-333.92 -667.98)"/><path class="cls-34" d="M451.67,736.49c-1.76,6.25-7.29,10.08-9.94,11.92s-7.06,1.72-10.15,2c-3.32.27-7.67-1.91-10.48-3.72a23,23,0,0,1-6.43-7.18c-1.85-3.2-5.41-11.66,1.47-20.94,5.81-7.84,15.71-7.51,19-6.72a29.16,29.16,0,0,1,9.15,4.47c.53.38,5.41,6,5.44,6.06,4,6,2.13,13.33,1.9,14.14" transform="translate(-333.92 -667.98)"/><path class="cls-35" d="M450.19,736.74a23.42,23.42,0,0,1-8.57,10.51c-2.56,1.73-7,1.89-10.09,2.13,0,0-7.69-2.29-10.48-4a18.75,18.75,0,0,1-5.27-5.86c-6.13-10.44-.21-18.35,1.74-21,2.49-3.33,8.17-5.24,9.84-5.75,2.35-.7,5.79-.27,8.17.33.2,0,19.77,6.42,14.66,23.64" transform="translate(-333.92 -667.98)"/><path class="cls-36" d="M449.25,733.15c-.11,1.14.14,2.79-.41,3.8a30.75,30.75,0,0,1-6,8.16c-1.31,1.13-1.55,1.34-11.34,3.28-.08,0-10-1.48-14.49-8.84-6.22-10.21-.52-17.82,1.92-21.06,1.46-1.94,8.59-4.62,8.65-4.63,2.43-.59,5.9-.11,8.32.53,5.49,1.44,11.05,8.37,11.1,8.43,2.9,4.07,2.58,7.25,2.28,10.33" transform="translate(-333.92 -667.98)"/><path class="cls-37" d="M447.51,737.15a18.59,18.59,0,0,1-6.13,7.72,101.22,101.22,0,0,1-10,2.52c-.08,0-9.85-2.17-13.39-7.94-6.15-10-.4-17.54,1.77-20.37a83.35,83.35,0,0,1,7.95-4.13c2.5-.51,6,.06,8.47.74,5,1.37,15.56,11.17,11.3,21.46" transform="translate(-333.92 -667.98)"/><path class="cls-38" d="M446.15,737.34a14.84,14.84,0,0,1-4.92,6.17c-.52.31-9.48,2.93-9.88,2.88-.58-.06-10.38-5-10.43-5-1.94-1.7-3.08-5.19-4-7.59-2-5.12.92-11.35,3-13.12a41.7,41.7,0,0,1,8-4.63c2.54-.56,6.12.22,8.62,1,.77.23,7.78,6.18,7.8,6.23.93,2,2.48,4.55,2.76,6.71a15.79,15.79,0,0,1-1,7.4" transform="translate(-333.92 -667.98)"/><path class="cls-39" d="M444.77,737.53a10.73,10.73,0,0,1-3.63,4.53c-2.7,1.55-6.81,3.79-9.87,3.21a23.62,23.62,0,0,1-10.4-5.19c-1.6-1.49-3.51-7.73-3.52-7.78s-.08-8.08,2.65-10c.28-.2,6.86-4.85,8.1-5.13,2.6-.58,6.37.21,8.79,1.31a18.45,18.45,0,0,1,6.12,4.94c1.34,1.74,2.06,4.68,2.9,6.71s-.21,5.36-1.14,7.41" transform="translate(-333.92 -667.98)"/><path class="cls-40" d="M443.38,737.7a7,7,0,0,1-2.47,3.08c-2.73,1.44-6.71,4-9.72,3.33a22.53,22.53,0,0,1-9.41-4.76c-1.81-1.67-3.4-7-3.4-7.07s-.1-5.79,1.72-8.36a15.55,15.55,0,0,1,8.18-5.61c2.68-.58,6.43.69,9,1.69a12.26,12.26,0,0,1,4.41,3.59,12.55,12.55,0,0,1,1.72,14.11" transform="translate(-333.92 -667.98)"/><path class="cls-41" d="M442,737.87a3.41,3.41,0,0,1-1.25,1.56c-2.79,1.3-6.57,3.71-9.64,3.51-2.45-.15-5.34-2.21-7.32-3.66a14,14,0,0,1-3.1-4c-2.87-4.84-.13-10-.1-10.08,1.76-2.32,5.05-5.05,7.9-5.66s6.48,1,9.12,2a6.75,6.75,0,0,1,2.7,2.22c1.32,1.79,2.91,4.49,3.17,6.69a15.16,15.16,0,0,1-1.48,7.42" transform="translate(-333.92 -667.98)"/><path class="cls-42" d="M440.59,738c-2,2.34-6.5,3.92-9.58,3.76-1.75-.09-3.91-1.44-5.23-2.6a24.85,24.85,0,0,1-5.22-6.63c-.52-1,2.12-7.35,2.15-7.4,1.31-1.78,3.8-3.87,6-4.31,2.8-.56,6.53,1.43,9.27,2.25a2.24,2.24,0,0,1,1,.83c1.27,1.83,3,4.46,3.29,6.68a15.06,15.06,0,0,1-1.64,7.42" transform="translate(-333.92 -667.98)"/><path class="cls-43" d="M440.09,734.91c-2.46,4.64-9.11,5.73-9.17,5.72a5.63,5.63,0,0,1-3.14-1.54c-1.9-1.85-5.13-4.29-5.55-6.91-.35-2.25,1.36-5.22,2.61-7.11a7.32,7.32,0,0,1,4-2.94c2.38-.44,5.55,1.2,7.82,2a5.42,5.42,0,0,1,1.81,1.54c1.85,2.1,2.92,6.72,1.61,9.19" transform="translate(-333.92 -667.98)"/><path class="cls-44" d="M439.58,731.71c-1.37,2.61-4.62,5.1-6.82,7a3.08,3.08,0,0,1-1.94.72c-1.56-.08-6.65-7.31-6.66-7.38-.35-2.28,1.67-5.14,2.8-7.15a3.49,3.49,0,0,1,2.07-1.52,5.78,5.78,0,0,1,4.05,1.09,54.7,54.7,0,0,1,6.19,5.39,1.93,1.93,0,0,1,.31,1.8" transform="translate(-333.92 -667.98)"/><path class="cls-45" d="M430.64,737.51c-2.14-.11-4.26-3.37-4.57-5.5,0-.06,2.9-7.24,3.14-7.28a.37.37,0,0,1,.25.06c2.27,1.9,7.36,3.45,7.51,6.41.13,2.68-3.65,6.46-6.33,6.31" transform="translate(-333.92 -667.98)"/><path class="cls-46" d="M430.38,734.75c-1.12,0-2.22-1.74-2.39-2.84-.19-1.26.4-3.61,1.64-3.9,1.56-.37,4,1.89,4,3.49a3.88,3.88,0,0,1-3.29,3.25" transform="translate(-333.92 -667.98)"/><path class="cls-47" d="M430.09,732c-.09,0-.18-.14-.19-.22s0-.29.13-.31.32.15.32.27a.32.32,0,0,1-.26.26" transform="translate(-333.92 -667.98)"/></g></g></g></g></svg>