<?xml version="1.0" encoding="utf-8"?>
<!-- Generator: Adobe Illustrator 24.2.0, SVG Export Plug-In . SVG Version: 6.00 Build 0)  -->
<svg version="1.1" id="Layer_1" xmlns="http://www.w3.org/2000/svg" xmlns:xlink="http://www.w3.org/1999/xlink" x="0px" y="0px"
	 viewBox="0 0 169 114" style="enable-background:new 0 0 169 114;" xml:space="preserve">
<style type="text/css">
	.st0{fill:#4F903E;}
	.st1{fill:#4B7F3A;}
	.st2{fill:#375E2B;}
	.st3{fill:#AF9376;}
	.st4{fill:#AFCC7E;}
	.st5{enable-background:new    ;}
	.st6{clip-path:url(#SVGID_2_);}
	.st7{clip-path:url(#SVGID_4_);}
	.st8{fill:#EDECC7;}
</style>
<g>
	<polygon class="st0" points="195.5,71.7 128.3,109.4 0.1,37.8 67.3,0 	"/>
	<polygon class="st1" points="195.5,71.7 195.4,89.9 128.2,127.6 128.3,109.4 	"/>
	<polygon class="st2" points="128.3,109.4 128.2,127.6 0,56 0.1,37.8 	"/>
	<polygon class="st3" points="106.7,97.5 106.6,115.7 84.9,103.7 85,85.5 	"/>
</g>
<path class="st0" d="M60.7,29.8c2.1,1.1,2.1,3,0,4.2c-2.4,1.2-5.1,1.2-7.5,0c-2.1-1.1-2.1-3,0-4.2C55.5,28.6,58.3,28.6,60.7,29.8z"
	/>
<g>
	<path class="st0" d="M121.4,41.5c13.1,7.3,13.2,19.2,0.2,26.5s-34.2,7.3-47.3,0c-13.1-7.3-13.2-19.2-0.2-26.5
		S108.2,34.1,121.4,41.5z M99.7,51.5c0-0.6,0.5-1.1,1.4-1.7c0.9-0.5,2-0.8,3.1-0.9c1.1,0,2.2,0.3,3.1,0.8c1,0.6,1.5,1.2,1.3,1.9
		c-0.1,0.7-0.9,1.5-2.3,2.3l5.3,2.9c2.3-1.3,3.6-2.7,3.9-4.2s-0.5-2.9-2.3-4.3l3.9-2.2l-2.9-1.6l-3.9,2.2c-2.3-1.1-4.9-1.6-7.5-1.6
		c-2.4,0-4.8,0.6-6.9,1.7c-1,0.5-1.8,1.2-2.5,2c-0.5,0.6-0.7,1.4-0.6,2.1c0.1,0.8,0.3,1.6,0.8,2.3c0.6,1,1.2,1.9,1.9,2.7
		c0.7,0.7,1.1,1.5,1.2,2.5c0,0.6-0.5,1.2-1.5,1.8c-1,0.5-2.1,0.8-3.2,0.8c-1.2,0-2.3-0.3-3.4-0.9c-1.3-0.7-1.9-1.5-1.8-2.3
		c0.1-0.8,0.8-1.6,2.3-2.4L84,52.5c-2.5,1.4-3.8,2.9-3.9,4.5c-0.1,1.6,0.9,3.2,3.1,4.7l-3.6,2l2.9,1.6l3.6-2
		c2.4,1.1,4.9,1.7,7.6,1.7c2.4,0,4.8-0.6,6.9-1.7c0.9-0.5,1.7-1.1,2.3-1.9c0.5-0.6,0.7-1.3,0.7-2.1c0-0.8-0.2-1.6-0.6-2.3
		c-0.6-1-1.2-2-1.9-2.9c-0.7-0.7-1.1-1.6-1.3-2.6"/>
	<path class="st0" d="M142.5,75.5c2.1,1.1,2.1,3,0,4.2c-2.4,1.2-5.1,1.2-7.5,0c-2.1-1.1-2.1-3,0-4.2
		C137.3,74.3,140.1,74.3,142.5,75.5z"/>
</g>
<path class="st4" d="M171.4,63.7c-7.8,4.4-7.7,11.5,0.1,15.8l-29.1,16.4c-7.8-4.4-20.5-4.4-28.2,0L24.3,45.7
	c7.8-4.4,7.7-11.4-0.1-15.8l29.1-16.4c7.8,4.4,20.5,4.4,28.2,0L171.4,63.7z M74.3,68c13.1,7.3,34.3,7.3,47.3,0s13-19.2-0.2-26.5
	s-34.3-7.3-47.3,0S61.1,60.6,74.3,68 M53.2,34c2.4,1.2,5.1,1.2,7.5,0c2.1-1.1,2-3,0-4.2c-2.4-1.2-5.1-1.2-7.5,0
	C51.1,30.9,51.1,32.8,53.2,34 M135,79.6c2.4,1.2,5.1,1.2,7.5,0c2.1-1.1,2.1-3,0-4.2c-2.4-1.2-5.2-1.2-7.5,0
	C132.9,76.6,132.9,78.5,135,79.6"/>
<path class="st0" d="M67.3,0l128.2,71.7l-67.2,37.8L0.1,37.8L67.3,0z M142.4,95.9l29.1-16.4c-7.8-4.4-7.9-11.5-0.1-15.8L81.5,13.5
	c-7.8,4.4-20.4,4.4-28.2,0L24.2,29.9c7.8,4.4,7.9,11.5,0.1,15.8l89.9,50.2C121.9,91.5,134.6,91.5,142.4,95.9"/>
<path class="st4" d="M117.1,46.2l-3.9,2.2c1.8,1.4,2.6,2.8,2.3,4.3c-0.3,1.5-1.6,2.9-3.9,4.2l-5.3-2.9c1.4-0.8,2.2-1.6,2.3-2.3
	c0.1-0.7-0.3-1.4-1.3-1.9c-0.9-0.5-2-0.8-3.1-0.8c-1.1,0-2.2,0.3-3.1,0.9c-0.9,0.5-1.4,1.1-1.4,1.7c0.1,1,0.6,1.9,1.3,2.6
	c0.7,0.9,1.4,1.9,1.9,2.9c0.4,0.7,0.6,1.5,0.6,2.3c0,0.7-0.3,1.5-0.7,2.1c-0.6,0.8-1.4,1.4-2.3,1.9c-2.1,1.2-4.5,1.8-6.9,1.7
	c-2.6,0-5.2-0.6-7.6-1.7l-3.6,2l-2.9-1.6l3.6-2c-2.2-1.5-3.3-3.1-3.1-4.7c0.1-1.6,1.4-3.1,3.9-4.5l5.2,2.9c-1.4,0.8-2.2,1.6-2.3,2.4
	c-0.1,0.8,0.5,1.6,1.8,2.3c1,0.6,2.2,0.9,3.4,0.9c1.1,0,2.2-0.2,3.2-0.8c1-0.6,1.5-1.1,1.5-1.8c-0.1-0.9-0.5-1.8-1.2-2.5
	c-0.7-0.9-1.4-1.8-1.9-2.7c-0.4-0.7-0.7-1.5-0.8-2.3c-0.1-0.8,0.2-1.5,0.6-2.1c0.7-0.8,1.5-1.5,2.5-2c2.1-1.2,4.5-1.8,6.9-1.7
	c2.6,0,5.1,0.6,7.5,1.6l3.9-2.2L117.1,46.2z"/>
<g>
	<g>
		<g class="st5">
			<defs>
				<polygon id="SVGID_1_" class="st5" points="-1.2,36.3 65.9,-2.7 194.7,71.7 127.5,110.7 				"/>
			</defs>
			<clipPath id="SVGID_2_">
				<use xlink:href="#SVGID_1_"  style="overflow:visible;"/>
			</clipPath>
			<g class="st6">
				<g>
					<g>
						<g>
							<g>
								<defs>
									<polyline id="SVGID_3_" points="194.3,71.7 65.9,-2.5 -0.8,36.3 127.6,110.5 194.3,71.7 									"/>
								</defs>
								<clipPath id="SVGID_4_">
									<use xlink:href="#SVGID_3_"  style="overflow:visible;"/>
								</clipPath>
								<g class="st7">
									<defs>
										<polyline id="SVGID_5_" points="127.5,110.7 -1.2,36.3 65.9,-2.7 194.7,71.7 127.5,110.7 										"/>
									</defs>
									<clipPath id="SVGID_6_">
										<use xlink:href="#SVGID_5_"  style="overflow:visible;"/>
									</clipPath>
									<g style="clip-path:url(#SVGID_6_);">
										
											<image style="overflow:visible;" width="196" height="114" xlink:href="FF59116EC3E77EBF.jpg"  transform="matrix(1 0 0 1 -1.2103 -2.6744)">
										</image>
									</g>
								</g>
							</g>
						</g>
					</g>
				</g>
			</g>
		</g>
	</g>
</g>
<polygon class="st8" points="106.7,97.5 177,61 155.3,49 85,85.5 "/>
</svg>
