<svg id="Layer_1" data-name="Layer 1" xmlns="http://www.w3.org/2000/svg" xmlns:xlink="http://www.w3.org/1999/xlink" viewBox="0 0 10.6 9.84"><defs><linearGradient id="linear-gradient" x1="23.71" y1="327.56" x2="26.04" y2="323.52" gradientTransform="translate(158.97)" gradientUnits="userSpaceOnUse"><stop offset="0" stop-color="#a0a0a0"/><stop offset="0.02" stop-color="#8c8c8c"/><stop offset="0.05" stop-color="#7b7b7b"/><stop offset="0.08" stop-color="#707070"/><stop offset="0.13" stop-color="#696969"/><stop offset="0.26" stop-color="#676767"/><stop offset="0.46" stop-color="#949494"/><stop offset="0.67" stop-color="#bcbcbc"/><stop offset="0.78" stop-color="#ccc"/><stop offset="0.87" stop-color="#c9c9c9"/><stop offset="0.92" stop-color="#c1c1c1"/><stop offset="0.96" stop-color="#b3b3b3"/><stop offset="1" stop-color="#a0a0a0"/></linearGradient><linearGradient id="linear-gradient-2" x1="24.14" y1="327.81" x2="26.47" y2="323.77" gradientTransform="translate(158.97)" gradientUnits="userSpaceOnUse"><stop offset="0" stop-color="#fafafa"/><stop offset="0.01" stop-color="#f1f1f1"/><stop offset="0.04" stop-color="#cdcdcd"/><stop offset="0.07" stop-color="#b2b2b2"/><stop offset="0.09" stop-color="#a2a2a2"/><stop offset="0.11" stop-color="#9c9c9c"/><stop offset="0.23" stop-color="#aeaeae"/><stop offset="0.61" stop-color="#e5e5e5"/><stop offset="0.8" stop-color="#fafafa"/></linearGradient><linearGradient id="linear-gradient-3" x1="31.74" y1="331.76" x2="33.52" y2="328.67" gradientTransform="translate(158.97)" gradientUnits="userSpaceOnUse"><stop offset="0" stop-color="#292c36"/><stop offset="0.28" stop-color="#1f2129"/><stop offset="0.68" stop-color="#262933"/><stop offset="0.78" stop-color="#292c36"/><stop offset="0.88" stop-color="#2d303b"/><stop offset="1" stop-color="#373c48"/></linearGradient><linearGradient id="linear-gradient-4" x1="31.1" y1="331.34" x2="32.88" y2="328.25" gradientTransform="translate(158.97)" gradientUnits="userSpaceOnUse"><stop offset="0" stop-color="#15161b"/><stop offset="0.03" stop-color="#20232d"/><stop offset="0.09" stop-color="#2f3344"/><stop offset="0.14" stop-color="#393f55"/><stop offset="0.2" stop-color="#3f465f"/><stop offset="0.28" stop-color="#414862"/><stop offset="0.39" stop-color="#3b4158"/><stop offset="0.58" stop-color="#2b2f3f"/><stop offset="0.78" stop-color="#15161b"/><stop offset="0.86" stop-color="#181a20"/><stop offset="0.96" stop-color="#23252d"/><stop offset="1" stop-color="#292c36"/></linearGradient><linearGradient id="linear-gradient-5" x1="30.25" y1="331.53" x2="32.58" y2="327.49" xlink:href="#linear-gradient"/><linearGradient id="linear-gradient-6" x1="29.78" y1="331.26" x2="32.11" y2="327.22" xlink:href="#linear-gradient-2"/></defs><polygon points="9.8 8.31 9.8 8.42 8.71 7.78 8.71 7.67 9.8 8.31" style="fill:#a0a0a0"/><polygon points="10.59 7.86 10.59 7.96 9.8 8.42 9.8 8.31 10.59 7.86" style="fill:#676767"/><polygon points="8.71 7.67 9.49 7.22 10.59 7.86 9.8 8.31 8.71 7.67" style="fill:#ccc"/><path d="M185.22,323.64a1.15,1.15,0,0,0-1.18.11,3.65,3.65,0,0,0-1.64,2.86,1.17,1.17,0,0,0,.48,1.06l.77.45-.05,0a.1.1,0,0,1,0,0l-.05,0-.05-.05,0-.05a.21.21,0,0,1,0-.06.21.21,0,0,1,0-.06l0-.06,0-.08,0-.06s0-.07,0-.1,0,0,0-.06,0-.08,0-.12a.13.13,0,0,1,0-.06v0h0a.76.76,0,0,1,0-.15,3.64,3.64,0,0,1,1.64-2.86.7.7,0,0,1,.17-.09l.05,0,.11,0,.07,0,.09,0h.07l.08,0h.29l0,0,.07,0,.06,0,.06,0h0Z" transform="translate(-182.4 -323.16)" style="fill:url(#linear-gradient)"/><path d="M185.65,323.88a1.18,1.18,0,0,0-1.18.12,3.65,3.65,0,0,0-1.64,2.86,1.17,1.17,0,0,0,.48,1.06l.77.45-.05,0-.06,0-.05,0,0-.05,0-.06a.1.1,0,0,1,0-.05.21.21,0,0,1,0-.06l0-.06,0-.08,0-.06s0-.07,0-.1l0-.06s0-.08,0-.12v-.09h0v-.16a3.61,3.61,0,0,1,1.64-2.85.7.7,0,0,1,.17-.09l.05,0,.11,0,.07,0,.09,0h.07l.08,0h.34l.07,0,.06,0,.06,0h0Z" transform="translate(-182.4 -323.16)" style="fill:url(#linear-gradient-2)"/><polygon points="1.61 6.52 0.7 5.24 4.94 7.71 5.84 8.99 1.61 6.52" style="fill:#114f8c"/><path d="M183.58,328.83l3.66,2.14.53.75-3.67-2.14-.52-.75Zm-1-.87,1.29,1.82,4.8,2.81-1.29-1.82-4.8-2.81Z" transform="translate(-182.4 -323.16)" style="fill:#878787"/><polygon points="0.39 4.74 1.57 1.69 6.14 4.35 4.96 7.4 0.39 4.74" style="fill:#2267b9"/><path d="M184,325.05l4.33,2.53-1.08,2.79L183,327.84l1.08-2.79Zm-.14-.4L182.63,328l4.8,2.81,1.28-3.31-4.81-2.81Z" transform="translate(-182.4 -323.16)" style="fill:#e4dddb"/><polygon points="1.77 1.49 4.07 0.16 8.6 2.81 6.31 4.13 1.77 1.49" style="fill:#0080ff"/><path d="M186.47,323.48l4.26,2.49-2,1.17-4.26-2.49,2-1.17Zm0-.32-2.57,1.49,4.81,2.81,2.57-1.49-4.81-2.81Z" transform="translate(-182.4 -323.16)" style="fill:#fafafa"/><polygon points="8.87 2.81 6.31 4.29 5.03 7.6 6.32 9.43 8.89 7.94 10.16 4.63 8.87 2.81" style="fill:#b0b0b0"/><polygon points="3.61 2.71 3.88 2.87 6.42 1.4 6.14 1.25 3.61 2.71" style="fill:#fafafa"/><polygon points="3.71 2.78 2.44 6.09 2.77 5.97 3.95 2.92 3.71 2.78" style="fill:#e4dddb"/><polygon points="3.27 7.61 2.06 5.89 2.88 6.38 3.97 7.99 3.27 7.61" style="fill:#878787"/><path d="M192.61,329.19s0,0,0,0,0-.06,0-.09a.09.09,0,0,1,0-.05.19.19,0,0,1,0-.07s0,0,0-.05l0-.06a.05.05,0,0,0,0,0l0-.06,0,0,0,0,0,0s0,0,0,0l0,0a.75.75,0,0,0-.52-.1,1.19,1.19,0,0,1,.08.44,2.79,2.79,0,0,1-1.26,2.19,1.14,1.14,0,0,1-.43.16.78.78,0,0,0,.3.38l0,0,0,0h0l.05,0H191l.07,0h0l.09,0h0l.13-.07a2.8,2.8,0,0,0,1.25-2.19Z" transform="translate(-182.4 -323.16)" style="fill:url(#linear-gradient-3)"/><path d="M191,331.25l-.13.07,0,0-.09,0h0l-.08,0h-.37l-.06,0,0,0-.05,0a.65.65,0,0,1-.29-.37,1.19,1.19,0,0,1-.08-.44,2.8,2.8,0,0,1,1.26-2.19,1.2,1.2,0,0,1,.43-.16.67.67,0,0,1,.51.1l0,0,0,0,0,0s0,0,0,0l0,0,0,.05,0,.05s0,0,0,.06a.08.08,0,0,1,0,0s0,0,0,.08a.43.43,0,0,1,0,.05s0,0,0,.08v.05a.61.61,0,0,1,0,.14A2.78,2.78,0,0,1,191,331.25Z" transform="translate(-182.4 -323.16)" style="fill:url(#linear-gradient-4)"/><polygon points="7.31 8.02 7.31 8.02 7.31 8.01 7.31 8.01 7.31 8.02" style="fill:#4e5463"/><path d="M191.75,327.61a1.13,1.13,0,0,0-1.17.11,3.63,3.63,0,0,0-1.64,2.86,1.14,1.14,0,0,0,.48,1.06l.76.45-.05,0,0,0-.05,0,0-.05s0,0-.05-.06l0-.05,0-.06,0-.06,0-.08a.14.14,0,0,0,0-.06l0-.1s0,0,0-.06,0-.08,0-.12,0,0,0-.06v0h0c0-.05,0-.1,0-.15a3.65,3.65,0,0,1,1.65-2.86.65.65,0,0,1,.16-.09l.06,0,.11-.05.06,0,.1,0h.06l.09,0h.28l.06,0,.07,0,0,0,.07,0h0Z" transform="translate(-182.4 -323.16)" style="fill:url(#linear-gradient-5)"/><path d="M191.28,327.33a1.16,1.16,0,0,0-1.17.12,3.61,3.61,0,0,0-1.64,2.85,1.16,1.16,0,0,0,.48,1.07l.77.44-.06,0,0,0-.05-.05s0,0,0,0l-.05-.06,0,0a.16.16,0,0,1,0-.07l0-.05s0-.06,0-.08a.25.25,0,0,0,0-.07.29.29,0,0,1,0-.09.14.14,0,0,1,0-.07s0-.07,0-.11a.13.13,0,0,0,0-.06v0h0s0-.1,0-.15a3.66,3.66,0,0,1,1.65-2.86l.17-.08,0,0,.11,0,.07,0,.09,0,.06,0h.43l.07,0,0,0,.07,0h0Z" transform="translate(-182.4 -323.16)" style="fill:url(#linear-gradient-6)"/><path d="M192.52,328.05l-.07,0,0,0-.07,0-.06,0H192l-.09,0h-.06l-.1,0-.06,0-.11.05-.06,0a.65.65,0,0,0-.16.09A3.65,3.65,0,0,0,189.7,331c0,.05,0,.1,0,.15h0v0s0,0,0,.06,0,.08,0,.12,0,0,0,.06l0,.1a.14.14,0,0,1,0,.06l0,.08,0,.06,0,.06,0,.05s0,.05.05.06l0,.05.05,0,0,0a1.14,1.14,0,0,0,1.23-.08,3.64,3.64,0,0,0,1.64-2.86A1.17,1.17,0,0,0,192.52,328.05Zm-1.16,3.48-.13.07h0l-.09,0h0l-.07,0h-.33l-.05,0h0l0,0,0,0a.78.78,0,0,1-.3-.38,1.4,1.4,0,0,1-.07-.44,2.81,2.81,0,0,1,1.26-2.19,1.38,1.38,0,0,1,.42-.16.75.75,0,0,1,.52.1l0,0s0,0,0,0l0,0,0,0,0,0,0,.06a.05.05,0,0,1,0,0l0,.06s0,0,0,.05a.19.19,0,0,0,0,.07.09.09,0,0,0,0,.05s0,.06,0,.09,0,0,0,0v.15A2.8,2.8,0,0,1,191.36,331.53Z" transform="translate(-182.4 -323.16)" style="fill:#373c48"/><polygon points="0.56 4.68 0.66 4.74 1.75 1.95 1.64 1.89 0.56 4.68" style="fill:#114f8c"/><polygon points="2.77 5.97 2.87 6.02 3.96 3.24 3.85 3.18 2.77 5.97" style="fill:#114f8c"/><polygon points="2.05 1.49 2.13 1.54 4.06 0.44 4.07 0.32 2.05 1.49" style="fill:#2267b9"/><polygon points="4.06 0.43 4.07 0.32 5.9 1.39 5.8 1.45 4.06 0.43" style="fill:#114f8c"/><polygon points="4.15 2.72 4.24 2.77 6.17 1.67 6.18 1.54 4.15 2.72" style="fill:#2267b9"/><polygon points="6.17 1.66 6.18 1.54 8.33 2.8 8.23 2.86 6.17 1.66" style="fill:#114f8c"/><polygon points="1.7 6.41 1.78 6.35 1.42 5.81 1.18 5.67 1.7 6.41" style="fill:#0b3a60"/><polygon points="1.7 6.41 2.93 7.13 2.8 6.94 1.78 6.35 1.7 6.41" style="fill:#0b3a60"/><polygon points="3.69 7.57 3.77 7.51 3.41 6.97 3.2 6.85 3.69 7.57" style="fill:#0b3a60"/><polygon points="3.69 7.57 5.37 8.55 5.23 8.36 3.77 7.51 3.69 7.57" style="fill:#0b3a60"/><polygon points="7.34 9.73 7.34 9.84 6.25 9.2 6.25 9.09 7.34 9.73" style="fill:#a0a0a0"/><polygon points="8.13 9.28 8.13 9.38 7.34 9.84 7.34 9.73 8.13 9.28" style="fill:#676767"/><polygon points="6.25 9.09 7.04 8.63 8.13 9.28 7.34 9.73 6.25 9.09" style="fill:#ccc"/><path d="M185.42,324.71a.21.21,0,0,1-.22.21.21.21,0,0,1-.21-.21.22.22,0,1,1,.43,0Z" transform="translate(-182.4 -323.16)" style="fill:#fff"/></svg>