<svg id="Layer_1" data-name="Layer 1" xmlns="http://www.w3.org/2000/svg" viewBox="0 0 28.26 42.46"><polygon points="21.55 26.89 21.55 28.15 1.97 39.45 1.04 39.45 0.88 38.82 21.55 26.89" style="fill:#1078ad"/><polygon points="1.97 42.06 0 40.92 0 39.68 0.88 38.82 1.97 39.45 1.97 42.06" style="fill:#003552"/><polygon points="8.09 35.52 2.94 35.17 2.27 34.8 1.97 34.81 1.97 42.06 2.66 42.45 8.09 35.52" style="fill:#dae5f8"/><polygon points="25.33 29.37 25.33 22.13 2.66 35.21 2.66 42.45 25.33 29.37" style="fill:#b4caed"/><polygon points="25.33 22.13 2.66 35.21 1.97 34.81 24.64 21.73 25.33 22.13" style="fill:#fff"/><polygon points="2.75 34.54 2.75 34.96 2.41 34.76 2.41 34.35 2.75 34.54" style="fill:#003552"/><polygon points="24.91 22.16 2.75 34.96 2.75 34.54 24.91 21.75 24.91 22.16" style="fill:#00537d"/><polygon points="24.91 21.75 2.75 34.54 2.41 34.35 24.57 21.56 24.91 21.75" style="fill:#1078ad"/><polygon points="18.98 2.61 16.13 4.25 16.13 10.3 20.18 7.97 20.18 3.3 18.98 2.61" style="fill:#517fa2;opacity:0.5"/><polygon points="16.78 8.35 19.58 6.74 19.58 6.36 16.78 7.98 16.78 8.35" style="fill:#fff"/><polygon points="16.78 7.29 16.78 7.67 19.58 6.05 19.58 5.67 16.78 7.29" style="fill:#fff"/><polygon points="16.78 5.51 16.78 5.89 19.58 4.27 19.58 3.89 16.78 5.51" style="fill:#8dd5ff"/><polygon points="16.93 6.19 16.78 6.27 16.78 6.98 16.93 6.89 16.93 6.19" style="fill:#fff"/><polygon points="17.3 5.99 17.16 6.07 17.16 6.76 17.3 6.68 17.3 5.99" style="fill:#fff"/><polygon points="17.68 6.11 17.54 6.19 17.54 6.54 17.68 6.46 17.68 6.11" style="fill:#fff"/><polygon points="18.06 5.96 17.92 6.04 17.92 6.32 18.06 6.24 18.06 5.96" style="fill:#fff"/><polygon points="18.44 5.47 18.3 5.55 18.3 6.1 18.44 6.02 18.44 5.47" style="fill:#fff"/><polygon points="18.82 5.12 18.68 5.2 18.68 5.89 18.82 5.8 18.82 5.12" style="fill:#fff"/><polygon points="19.2 5.15 19.06 5.23 19.06 5.67 19.2 5.58 19.2 5.15" style="fill:#8dd5ff"/><polygon points="19.58 5.09 19.43 5.17 19.43 5.45 19.58 5.37 19.58 5.09" style="fill:#8dd5ff"/><polygon points="23.5 7.09 20.65 8.73 20.65 14.78 24.7 12.45 24.7 7.78 23.5 7.09" style="fill:#517fa2;opacity:0.5"/><g style="opacity:0.9"><polygon points="21.31 9.66 21.31 10.57 24.04 8.98 24.04 8.08 21.31 9.66" style="fill:#8dd5ff"/><path d="M142.31,149.75a1,1,0,0,0-.46.79c0,.29.21.4.46.26a1,1,0,0,0,.45-.79C142.76,149.72,142.56,149.6,142.31,149.75Z" transform="translate(-118.84 -139.77)" style="fill:#8dd5ff"/><path d="M142.31,151.11a1,1,0,0,0-.46.79c0,.29.21.41.46.26a1,1,0,0,0,.45-.79C142.76,151.08,142.56,151,142.31,151.11Z" transform="translate(-118.84 -139.77)" style="fill:#fff"/><polygon points="22.07 13.26 22.56 12.98 22.56 10.23 22.07 10.51 22.07 13.26" style="fill:#fff"/><polygon points="21.31 13.7 21.79 13.42 21.79 10.67 21.31 10.95 21.31 13.7" style="fill:#fff"/></g><polygon points="18.98 9.7 16.13 11.34 16.13 17.39 20.18 15.06 20.18 10.39 18.98 9.7" style="fill:#517fa2;opacity:0.5"/><g style="opacity:0.8"><polygon points="16.98 16.28 19.48 14.84 19.48 14.51 16.98 15.95 16.98 16.28" style="fill:#8dd5ff"/><polygon points="16.98 15.67 19.48 14.23 19.48 13.89 16.98 15.34 16.98 15.67" style="fill:#8dd5ff"/><polygon points="16.85 13.01 19.62 11.41 19.62 10.5 16.85 12.09 16.85 13.01" style="fill:#fff"/><path d="M137.8,151.93a1.44,1.44,0,0,0-.65,1.13c0,.41.29.58.65.38a1.45,1.45,0,0,0,.65-1.13C138.45,151.89,138.16,151.72,137.8,151.93Z" transform="translate(-118.84 -139.77)" style="fill:#fff"/><polygon points="17.63 14.43 18.11 14.15 18.11 13.54 17.63 13.83 17.63 14.43" style="fill:#fff"/><polygon points="18.11 12.67 17.63 12.95 17.63 13.56 18.11 13.28 18.11 12.67" style="fill:#fff"/><polygon points="17.34 14 16.85 14.28 16.85 14.88 17.34 14.6 17.34 14" style="fill:#fff"/><polygon points="17.34 13.12 16.85 13.4 16.85 14.01 17.34 13.73 17.34 13.12" style="fill:#fff"/></g><polygon points="9.94 7.83 7.09 9.47 7.09 15.52 11.14 13.19 11.14 8.52 9.94 7.83" style="fill:#517fa2;opacity:0.5"/><g style="opacity:0.8"><path d="M129.19,150.41a.33.33,0,0,0-.33,0,1,1,0,0,0-.34.35,1,1,0,0,0-.15.46.36.36,0,0,0,.13.32.33.33,0,0,0,.33,0,1,1,0,0,0,.34-.35,1,1,0,0,0,.15-.46h0A.36.36,0,0,0,129.19,150.41Zm-.15.7a.76.76,0,0,1-.2.2c-.08,0-.15.05-.2,0a.19.19,0,0,1-.08-.18.76.76,0,0,1,.09-.28.55.55,0,0,1,.2-.2c.08,0,.15,0,.2,0a.17.17,0,0,1,.07.18A.6.6,0,0,1,129,151.11Z" transform="translate(-118.84 -139.77)" style="fill:#fff"/><path d="M129.19,152.05a.31.31,0,0,0-.33,0,1,1,0,0,0-.34.35,1,1,0,0,0-.15.46.37.37,0,0,0,.13.32.31.31,0,0,0,.33,0,.92.92,0,0,0,.34-.34,1,1,0,0,0,.15-.47A.35.35,0,0,0,129.19,152.05Zm-.15.7a.76.76,0,0,1-.2.2.21.21,0,0,1-.2,0,.19.19,0,0,1-.08-.18.76.76,0,0,1,.09-.28.55.55,0,0,1,.2-.2.19.19,0,0,1,.2,0,.19.19,0,0,1,.07.19A.6.6,0,0,1,129,152.75Z" transform="translate(-118.84 -139.77)" style="fill:#fff"/><polygon points="7.94 14.34 9.06 13.69 9.06 13.54 7.94 14.19 7.94 14.34" style="fill:#fff"/><polygon points="7.94 14.06 9.06 13.42 9.06 13.27 7.94 13.91 7.94 14.06" style="fill:#fff"/><polygon points="7.85 12.33 9.09 11.62 9.09 11.21 7.85 11.92 7.85 12.33" style="fill:#fff"/><path d="M127.63,151.72a.66.66,0,0,0-.29.51c0,.19.13.26.29.17a.64.64,0,0,0,.29-.51A.18.18,0,0,0,127.63,151.72Z" transform="translate(-118.84 -139.77)" style="fill:#fff"/><polygon points="8.2 12.97 8.41 12.85 8.41 12.57 8.2 12.7 8.2 12.97" style="fill:#fff"/><polygon points="8.41 12.18 8.2 12.31 8.2 12.58 8.41 12.45 8.41 12.18" style="fill:#fff"/><polygon points="8.06 12.78 7.85 12.9 7.85 13.18 8.06 13.05 8.06 12.78" style="fill:#fff"/><polygon points="8.06 12.38 7.85 12.51 7.85 12.78 8.06 12.65 8.06 12.38" style="fill:#fff"/><polygon points="7.75 11.38 7.89 11.3 7.89 9.57 7.75 9.65 7.75 11.38" style="fill:#8dd5ff"/><polygon points="8.12 11.17 8.26 11.09 8.26 9.89 8.12 9.97 8.12 11.17" style="fill:#8dd5ff"/><polygon points="8.49 10.96 8.63 10.88 8.63 9.49 8.49 9.57 8.49 10.96" style="fill:#8dd5ff"/><polygon points="8.86 10.74 9 10.66 9 9.87 8.86 9.95 8.86 10.74" style="fill:#8dd5ff"/><polygon points="9.23 10.53 9.37 10.45 9.37 9.39 9.23 9.47 9.23 10.53" style="fill:#8dd5ff"/><polygon points="9.6 10.31 9.74 10.24 9.74 9.04 9.6 9.12 9.6 10.31" style="fill:#8dd5ff"/><polygon points="9.97 10.1 10.11 10.02 10.11 9.07 9.97 9.15 9.97 10.1" style="fill:#8dd5ff"/><polygon points="10.34 9.09 10.34 9.89 10.48 9.81 10.48 9.01 10.34 9.09" style="fill:#8dd5ff"/></g><polygon points="5.42 10.44 2.57 12.08 2.57 18.13 6.62 15.8 6.62 11.13 5.42 10.44" style="fill:#517fa2;opacity:0.5"/><g style="opacity:0.9"><polygon points="5.42 11.42 5.42 11.64 3.38 12.82 3.38 12.6 5.42 11.42" style="fill:#8dd5ff"/><polygon points="5.42 12 5.42 12.22 4.02 13.03 4.02 12.81 5.42 12" style="fill:#8dd5ff"/><polygon points="5.42 12.58 5.42 12.8 3.8 13.74 3.8 13.52 5.42 12.58" style="fill:#fff"/><polygon points="5.42 13.16 5.42 13.38 4.49 13.92 4.49 13.7 5.42 13.16" style="fill:#fff"/><polygon points="5.42 13.74 5.42 13.96 4.17 14.68 4.17 14.46 5.42 13.74" style="fill:#fff"/><polygon points="5.42 14.32 5.42 14.54 4.02 15.35 4.02 15.13 5.42 14.32" style="fill:#fff"/><polygon points="5.42 14.9 5.42 15.12 4.31 15.76 4.31 15.54 5.42 14.9" style="fill:#fff"/><polygon points="4.49 16.02 5.42 15.48 5.42 15.7 4.49 16.24 4.49 16.02" style="fill:#fff"/></g><polygon points="5.42 17.53 2.57 19.17 2.57 25.22 6.62 22.89 6.62 18.22 5.42 17.53" style="fill:#517fa2;opacity:0.5"/><g style="opacity:0.9"><polygon points="5.99 19.66 3.34 21.19 3.34 21.55 5.99 20.01 5.99 19.66" style="fill:#8dd5ff"/><polygon points="5.99 19.01 3.34 20.54 3.34 20.89 5.99 19.36 5.99 19.01" style="fill:#8dd5ff"/><polygon points="3.06 22.52 3.06 22.7 6.25 20.87 6.25 20.68 3.06 22.52" style="fill:#fff"/><polygon points="3.06 23.14 6.25 21.3 6.25 21.12 3.06 22.96 3.06 23.14" style="fill:#fff"/><polygon points="3.06 23.58 6.25 21.74 6.25 21.56 3.06 23.4 3.06 23.58" style="fill:#fff"/><polygon points="3.06 24.02 5.1 22.85 5.1 22.67 3.06 23.84 3.06 24.02" style="fill:#fff"/></g><polygon points="9.94 14.92 7.09 16.56 7.09 22.61 11.14 20.28 11.14 15.61 9.94 14.92" style="fill:#517fa2;opacity:0.5"/><g style="opacity:0.9"><polygon points="7.75 18.3 7.75 19.21 10.48 17.63 10.48 16.72 7.75 18.3" style="fill:#8dd5ff"/><path d="M128.68,158.14a1.43,1.43,0,0,0-.65,1.12c0,.41.29.57.65.37a1.44,1.44,0,0,0,.64-1.12C129.32,158.1,129,157.94,128.68,158.14Z" transform="translate(-118.84 -139.77)" style="fill:#fff"/><polygon points="8.52 20.62 8.99 20.34 8.99 19.74 8.52 20.02 8.52 20.62" style="fill:#fff"/><polygon points="8.52 19.75 8.99 19.48 8.99 18.88 8.52 19.15 8.52 19.75" style="fill:#fff"/><polygon points="7.75 21.07 8.23 20.79 8.23 20.19 7.75 20.46 7.75 21.07" style="fill:#fff"/><polygon points="7.75 20.2 8.23 19.92 8.23 19.32 7.75 19.6 7.75 20.2" style="fill:#fff"/></g><polygon points="23.5 0 20.65 1.64 20.65 7.69 24.7 5.36 24.7 0.69 23.5 0" style="fill:#517fa2;opacity:0.5"/><g style="opacity:0.9"><path d="M141.3,141.77a.56.56,0,0,0-.58,0,1.55,1.55,0,0,0-.59.6,1.7,1.7,0,0,0-.25.81.6.6,0,0,0,.22.55.56.56,0,0,0,.58,0,1.7,1.7,0,0,0,.59-.6,1.63,1.63,0,0,0,.25-.81h0A.6.6,0,0,0,141.3,141.77Zm-.35,1.16a.62.62,0,0,1-.26.27.25.25,0,0,1-.26,0,.29.29,0,0,1-.1-.25.73.73,0,0,1,.12-.36.75.75,0,0,1,.26-.27h0a.27.27,0,0,1,.26,0,.29.29,0,0,1,.1.25A.81.81,0,0,1,141,142.93Z" transform="translate(-118.84 -139.77)" style="fill:#8dd5ff"/><path d="M141.3,144.21a.56.56,0,0,0-.58,0,1.82,1.82,0,0,0-.84,1.42.6.6,0,0,0,.22.55.56.56,0,0,0,.58,0,1.7,1.7,0,0,0,.59-.6,1.66,1.66,0,0,0,.25-.81h0A.59.59,0,0,0,141.3,144.21Zm-.35,1.16a.68.68,0,0,1-.26.27.25.25,0,0,1-.26,0,.29.29,0,0,1-.1-.25.73.73,0,0,1,.12-.36.68.68,0,0,1,.26-.27h0a.25.25,0,0,1,.26,0,.29.29,0,0,1,.1.25A.81.81,0,0,1,141,145.37Z" transform="translate(-118.84 -139.77)" style="fill:#fff"/><polygon points="23.04 5.67 23.25 5.55 23.25 2.11 23.04 2.23 23.04 5.67" style="fill:#fff"/><polygon points="23.57 5.36 23.78 5.24 23.78 3.38 23.57 3.49 23.57 5.36" style="fill:#fff"/><polygon points="24.11 2.67 24.11 5.05 24.31 4.93 24.31 2.55 24.11 2.67" style="fill:#fff"/></g><polygon points="14.46 5.22 11.61 6.86 11.61 12.91 15.66 10.58 15.66 5.91 14.46 5.22" style="fill:#517fa2;opacity:0.5"/><g style="opacity:0.9"><path d="M131.29,148.91a.57.57,0,0,0,.26-.45c0-.17-.12-.23-.26-.15a.56.56,0,0,0-.27.45C131,148.93,131.14,149,131.29,148.91Z" transform="translate(-118.84 -139.77)" style="fill:#8dd5ff"/><polygon points="13.27 7.82 13.11 7.91 13.11 8.94 13.27 8.85 13.27 7.82" style="fill:#fff"/><polygon points="13.72 7.56 13.57 7.65 13.57 8.68 13.72 8.59 13.72 7.56" style="fill:#fff"/><polygon points="14.18 7.3 14.02 7.39 14.02 8.42 14.18 8.33 14.18 7.3" style="fill:#fff"/><polygon points="14.64 7.03 14.48 7.12 14.48 8.15 14.64 8.06 14.64 7.03" style="fill:#8dd5ff"/><polygon points="14.94 6.86 14.94 7.89 15.1 7.8 15.1 6.77 14.94 6.86" style="fill:#fff"/><polygon points="12.18 11.84 15.09 10.16 15.09 9.57 12.18 11.25 12.18 11.84" style="fill:#fff"/><polygon points="12.18 10.93 15.09 9.25 15.09 8.66 12.18 10.34 12.18 10.93" style="fill:#8dd5ff"/></g><polygon points="19.09 10.37 14.79 12.85 14.79 21.98 20.9 18.46 20.9 11.41 19.09 10.37" style="fill:#517fa2;opacity:0.8"/><g style="opacity:0.8"><polygon points="20.53 18.1 15.35 21.09 15.35 20.73 20.53 17.73 20.53 18.1" style="fill:#8dd5ff"/><polygon points="17.19 16.79 20.53 14.86 20.53 14.66 17.19 16.6 17.19 16.79" style="fill:#fff"/><polygon points="17.19 17.38 20.53 15.45 20.53 15.25 17.19 17.18 17.19 17.38" style="fill:#fff"/><polygon points="17.19 17.97 20.53 16.04 20.53 15.84 17.19 17.77 17.19 17.97" style="fill:#fff"/><polygon points="17.19 18.56 19.62 17.16 19.62 16.96 17.19 18.36 17.19 18.56" style="fill:#fff"/><polygon points="15.35 20.09 16.86 19.22 16.86 16.79 15.35 17.66 15.35 20.09" style="fill:#fff"/><polygon points="19.18 10.81 15.35 13.02 15.35 17.16 20.53 14.16 20.53 11.59 19.18 10.81" style="fill:#fff"/><rect x="136.49" y="152.04" width="0.42" height="0.25" transform="translate(-176.7 -50.74) rotate(-30.09)" style="fill:#5e5e5e"/><polygon points="17.13 12.68 17.65 13.57 17.44 12.79 17.75 12.61 17.62 12.39 17.13 12.68" style="fill:#4d4d4d"/><polygon points="17.47 12.24 17.57 12.41 17.84 12.26 17.74 12.09 17.47 12.24" style="fill:#659ec9"/><rect x="136" y="152.1" width="0.38" height="0.2" transform="translate(-176.87 -50.72) rotate(-30.17)" style="fill:#295e87"/><polygon points="17.04 12.72 17.17 12.94 17.53 12.73 17.41 12.51 17.04 12.72" style="fill:#5e5e5e"/><polygon points="16.55 13.01 17.07 13.91 16.86 13.12 17.17 12.94 17.04 12.72 16.55 13.01" style="fill:#4d4d4d"/><polygon points="16.89 12.58 17 12.75 17.26 12.6 17.16 12.42 16.89 12.58" style="fill:#659ec9"/><polygon points="16.56 12.77 16.66 12.94 17 12.75 16.89 12.58 16.56 12.77" style="fill:#295e87"/><path d="M137.22,153.62l.8.46c.07,0,.12,0,.13-.05l.16-.95a.27.27,0,0,0-.13-.26l-1.12-.65c-.09,0-.15,0-.13.11l.16,1.13A.31.31,0,0,0,137.22,153.62Z" transform="translate(-118.84 -139.77)" style="fill:#303030"/><path d="M137,152.16l-1.83,1.05v.06l1.91-1.1A.11.11,0,0,0,137,152.16Z" transform="translate(-118.84 -139.77)" style="fill:#292929"/><rect x="135.36" y="152.69" width="0.42" height="0.25" transform="translate(-177.21 -51.14) rotate(-30.11)" style="fill:#5e5e5e"/><polygon points="15.99 13.33 16.51 14.22 16.3 13.44 16.61 13.26 16.49 13.04 15.99 13.33" style="fill:#4d4d4d"/><rect x="135.21" y="152.58" width="0.31" height="0.2" transform="translate(-176.95 -51.9) rotate(-29.92)" style="fill:#659ec9"/><rect x="134.87" y="152.75" width="0.38" height="0.2" transform="translate(-177.22 -51.6) rotate(-30.05)" style="fill:#295e87"/><path d="M135.49,155l.62.36a0,0,0,0,0,.08,0V155l-.77-.45v.36A.14.14,0,0,0,135.49,155Z" transform="translate(-118.84 -139.77)" style="fill:#232323"/><path d="M136.16,155l1.56-.83v.23s0,0,0,0l-1.54.89Z" transform="translate(-118.84 -139.77)"/><polygon points="19.35 13.05 17.53 14.1 16.4 13.45 18.22 12.4 19.35 13.05" style="fill:#454545"/><path d="M138.11,154.09l-1.81,1,0-.06,1.82-1.05A.07.07,0,0,1,138.11,154.09Z" transform="translate(-118.84 -139.77)" style="fill:#232323"/><path d="M136.36,153.87l1.82-1.05a.27.27,0,0,1,.13.26l-1.81,1Z" transform="translate(-118.84 -139.77)" style="fill:#232323"/><path d="M135.4,154.67l.8.46c.07,0,.12,0,.13,0l.17-1a.3.3,0,0,0-.14-.26l-1.12-.65c-.09-.05-.15,0-.14.11l.17,1.13A.31.31,0,0,0,135.4,154.67Z" transform="translate(-118.84 -139.77)" style="fill:#0d0d0d"/><path d="M135.19,153.39a.27.27,0,0,0,.11.21c.07,0,.12,0,.12-.07a.26.26,0,0,0-.12-.21C135.24,153.29,135.19,153.32,135.19,153.39Z" transform="translate(-118.84 -139.77)" style="fill:#454545"/><path d="M135.33,154.47a.17.17,0,0,0,.08.13s.08,0,.08,0a.2.2,0,0,0-.08-.14A.05.05,0,0,0,135.33,154.47Z" transform="translate(-118.84 -139.77)" style="fill:#454545"/><path d="M136.11,154.91a.17.17,0,0,0,.08.14s.07,0,.07-.05a.16.16,0,0,0-.07-.13C136.14,154.84,136.11,154.86,136.11,154.91Z" transform="translate(-118.84 -139.77)" style="fill:#454545"/><path d="M136.19,154a.26.26,0,0,0,.11.2c.07,0,.12,0,.12-.06a.26.26,0,0,0-.12-.21C136.24,153.86,136.19,153.89,136.19,154Z" transform="translate(-118.84 -139.77)" style="fill:#454545"/><path d="M137.29,152.11h0s.06,0,.1,0l.46.27a.29.29,0,0,1,.14.24v.08l-1.82,1-.7-.6Z" transform="translate(-118.84 -139.77)" style="fill:#6d6e71"/><path d="M136,153.44l-.46-.27c-.08,0-.14,0-.14.08v.08l.74.43v-.08A.29.29,0,0,0,136,153.44Z" transform="translate(-118.84 -139.77)" style="fill:#414042"/><path d="M135.72,154.1a.17.17,0,0,0,.08.13,0,0,0,0,0,.08,0,.2.2,0,0,0-.08-.14A.05.05,0,0,0,135.72,154.1Z" transform="translate(-118.84 -139.77)" style="fill:#141414"/><path d="M135.82,154l.08,0,.06-.3a.21.21,0,0,0-.1-.18l-.22-.13-.08,0Z" transform="translate(-118.84 -139.77)" style="fill:#659ec9"/><path d="M135.59,153.93l.14-.08-.16-.37c0-.07-.11-.11-.15-.09l-.15.09Z" transform="translate(-118.84 -139.77)" style="fill:#659ec9"/><path d="M135.16,153.71l.08,0h0a.06.06,0,0,1,.07,0l.29.23v.23Z" transform="translate(-118.84 -139.77)" style="fill:#659ec9"/><polygon points="16.42 14.42 16.5 14.38 16.75 14.34 16.89 14.57 16.66 14.82 16.58 14.86 16.42 14.42" style="fill:#659ec9"/><path d="M135.9,154.44l-.19-.11-.07.29a.22.22,0,0,0,.11.18l.14.17.08,0Z" transform="translate(-118.84 -139.77)" style="fill:#659ec9"/><path d="M136,154.36l-.14.08.16.37c0,.07.1.11.14.09l.16-.09Z" transform="translate(-118.84 -139.77)" style="fill:#659ec9"/><path d="M136,154.22l.08,0,.33.12v.25s0,.06,0,.07h0l-.09,0v-.09h0Z" transform="translate(-118.84 -139.77)" style="fill:#659ec9"/><path d="M136,153.75l.16.44.08-.05s0-.1,0-.17l-.16-.27Z" transform="translate(-118.84 -139.77)" style="fill:#659ec9"/><path d="M135.63,153.9l.19.11.06-.3a.24.24,0,0,0-.1-.18l-.22-.12Z" transform="translate(-118.84 -139.77)" style="fill:#295e87"/><path d="M135.53,154l.14-.08-.16-.37c0-.07-.11-.11-.14-.09l-.16.09Z" transform="translate(-118.84 -139.77)" style="fill:#295e87"/><path d="M135.52,154.18V154l-.29-.24c-.06,0-.1,0-.1.06V154Z" transform="translate(-118.84 -139.77)" style="fill:#295e87"/><path d="M135.65,154.39l-.14-.23-.25,0s0,.1,0,.16l.16.28Z" transform="translate(-118.84 -139.77)" style="fill:#295e87"/><path d="M135.82,154.49l-.19-.12-.07.3a.23.23,0,0,0,.11.18l.22.12Z" transform="translate(-118.84 -139.77)" style="fill:#295e87"/><path d="M135.94,154.4l-.14.08.16.38c0,.07.11.11.15.08l.15-.09Z" transform="translate(-118.84 -139.77)" style="fill:#295e87"/><path d="M135.93,154.2v.22l.29.24c.05,0,.1,0,.1-.06v-.25Z" transform="translate(-118.84 -139.77)" style="fill:#295e87"/><path d="M135.8,154l.14.24.25,0s0-.1,0-.17l-.16-.27Z" transform="translate(-118.84 -139.77)" style="fill:#295e87"/><path d="M135.44,154a.62.62,0,0,0,.28.5c.16.09.29,0,.29-.17a.62.62,0,0,0-.29-.49C135.56,153.77,135.44,153.84,135.44,154Z" transform="translate(-118.84 -139.77)" style="fill:#808285"/><path d="M135.48,154.05a.52.52,0,0,0,.24.41c.09,0,.16,0,.2,0a.15.15,0,0,1-.17,0,.51.51,0,0,1-.24-.41.17.17,0,0,1,0-.13A.18.18,0,0,0,135.48,154.05Z" transform="translate(-118.84 -139.77)" style="fill:#bcbec0"/><path d="M135.51,154a.51.51,0,0,0,.24.41.15.15,0,0,0,.17,0,.16.16,0,0,0,0-.12.51.51,0,0,0-.24-.41.18.18,0,0,0-.17,0A.17.17,0,0,0,135.51,154Z" transform="translate(-118.84 -139.77)" style="fill:#939598"/><path d="M135.65,154.17l0,0,0,0h0s0,0,.05,0a.14.14,0,0,1,.08.13.06.06,0,0,1,0,.05h0l-.05,0,0-.05A.18.18,0,0,1,135.65,154.17Z" transform="translate(-118.84 -139.77)" style="fill:#659ec9"/><path d="M135.59,154.17a.2.2,0,0,0,.08.14c.05,0,.08,0,.08-.05a.14.14,0,0,0-.08-.13A0,0,0,0,0,135.59,154.17Z" transform="translate(-118.84 -139.77)" style="fill:#295e87"/><polygon points="19.31 14.26 17.5 15.31 17.66 14.36 19.48 13.31 19.31 14.26" style="fill:#0d0d0d"/><rect x="138.17" y="152.79" width="0.42" height="1.14" transform="translate(-177.05 -49.83) rotate(-30.06)" style="fill:#5e5e5e"/><polygon points="19.07 13.2 18.91 13.3 19.04 13.56 18.91 14.49 19.65 14.19 19.07 13.2" style="fill:#4d4d4d"/><rect x="137.61" y="153.11" width="0.42" height="1.14" transform="translate(-177.21 -50.28) rotate(-30)" style="fill:#5e5e5e"/><polygon points="18.52 13.52 18.35 13.62 18.48 13.89 18.35 14.82 19.09 14.52 18.52 13.52" style="fill:#4d4d4d"/><polygon points="18.53 14.83 18.9 14.62 18.33 13.63 17.96 13.84 18.53 14.83" style="fill:#5e5e5e"/><polygon points="17.96 13.84 17.79 13.94 17.93 14.21 17.79 15.13 18.53 14.83 17.96 13.84" style="fill:#4d4d4d"/><polygon points="18.27 14 18.14 14.07 18.41 14.55 18.54 14.48 18.27 14" style="fill:#295e87"/><rect x="137.22" y="153.66" width="0.32" height="0.55" transform="translate(-177.43 -50.35) rotate(-30.03)" style="fill:#659ec9"/><polygon points="18.82 13.68 18.7 13.75 18.97 14.23 19.1 14.16 18.82 13.68" style="fill:#295e87"/><polygon points="19.1 13.52 18.82 13.68 19.1 14.16 19.37 13.99 19.1 13.52" style="fill:#659ec9"/><rect x="138.22" y="153.13" width="0.14" height="0.55" transform="translate(-177.44 -48.73) rotate(-30.39)" style="fill:#295e87"/><polygon points="19.66 13.2 19.38 13.36 19.65 13.83 19.93 13.67 19.66 13.2" style="fill:#659ec9"/><path d="M137.17,152.15l-.24-.14a.12.12,0,0,0-.1,0l.22-.13h0a.11.11,0,0,1,.11,0l.24.14v.25l-.18-.11-.05,0Z" transform="translate(-118.84 -139.77)" style="fill:#bcbec0"/><path d="M137.17,152.15v.24l-.19-.11-.16.1,0,0v-.26a.11.11,0,0,1,.16-.09Z" transform="translate(-118.84 -139.77)" style="fill:#808285"/><polygon points="18.33 12.62 18.56 12.48 18.56 12.24 18.33 12.37 18.33 12.62" style="fill:#939598"/><path d="M136.83,152.34l-.24-.14a.09.09,0,0,0-.1,0l.23-.13h0a.09.09,0,0,1,.1,0l.24.14v.24l-.18-.11,0,0Z" transform="translate(-118.84 -139.77)" style="fill:#bcbec0"/><path d="M136.83,152.34v.24l-.18-.1-.17.1,0,0v-.26a.1.1,0,0,1,.15-.09Z" transform="translate(-118.84 -139.77)" style="fill:#808285"/><polygon points="17.99 12.81 18.23 12.68 18.23 12.43 17.99 12.57 17.99 12.81" style="fill:#939598"/><path d="M136.51,152.53l-.24-.14a.12.12,0,0,0-.1,0l.23-.13h0a.12.12,0,0,1,.1,0l.25.14v.25l-.19-.11-.05,0Z" transform="translate(-118.84 -139.77)" style="fill:#bcbec0"/><path d="M136.51,152.53v.24l-.19-.11-.16.1,0,0v-.25a.11.11,0,0,1,.16-.09Z" transform="translate(-118.84 -139.77)" style="fill:#808285"/><polygon points="17.67 13 17.91 12.86 17.91 12.62 17.67 12.75 17.67 13" style="fill:#939598"/><path d="M136.19,152.71l-.25-.14h-.09l.22-.13h0a.11.11,0,0,1,.11,0l.24.14v.24l-.19-.1,0,0Z" transform="translate(-118.84 -139.77)" style="fill:#bcbec0"/><path d="M136.19,152.71V153l-.19-.11-.17.1,0,0v-.26a.1.1,0,0,1,.15-.09Z" transform="translate(-118.84 -139.77)" style="fill:#808285"/><polygon points="17.35 13.19 17.58 13.05 17.58 12.81 17.35 12.94 17.35 13.19" style="fill:#939598"/><path d="M135.87,152.9l-.25-.14a.1.1,0,0,0-.09,0l.22-.12h0a.08.08,0,0,1,.1,0l.25.13V153l-.19-.11,0,0Z" transform="translate(-118.84 -139.77)" style="fill:#bcbec0"/><path d="M135.87,152.9v.24l-.19-.1-.17.09,0,0v-.26a.1.1,0,0,1,.15-.09Z" transform="translate(-118.84 -139.77)" style="fill:#808285"/><polygon points="17.03 13.37 17.26 13.24 17.26 12.99 17.03 13.13 17.03 13.37" style="fill:#939598"/><path d="M137.72,152.18v.17h0a.09.09,0,0,1-.06.08.3.3,0,0,1-.29,0,.09.09,0,0,1-.06-.08v-.17Z" transform="translate(-118.84 -139.77)" style="fill:#295e87"/><path d="M137.37,152.26a.3.3,0,0,0,.29,0,.08.08,0,0,0,0-.16.3.3,0,0,0-.29,0C137.28,152.14,137.28,152.22,137.37,152.26Z" transform="translate(-118.84 -139.77)" style="fill:#659ec9"/><path d="M137.35,152.4v.16h0s0,.06-.07.08a.3.3,0,0,1-.29,0,.09.09,0,0,1-.06-.08v-.16Z" transform="translate(-118.84 -139.77)" style="fill:#295e87"/><path d="M137,152.48a.3.3,0,0,0,.29,0c.09,0,.09-.12,0-.17a.3.3,0,0,0-.29,0C136.91,152.36,136.91,152.43,137,152.48Z" transform="translate(-118.84 -139.77)" style="fill:#659ec9"/><path d="M137,152.61v.17h0a.09.09,0,0,1-.06.08.3.3,0,0,1-.29,0,.09.09,0,0,1-.06-.08v-.17Z" transform="translate(-118.84 -139.77)" style="fill:#295e87"/><path d="M136.62,152.7a.37.37,0,0,0,.29,0c.08,0,.08-.12,0-.17a.3.3,0,0,0-.29,0C136.54,152.58,136.54,152.65,136.62,152.7Z" transform="translate(-118.84 -139.77)" style="fill:#659ec9"/><path d="M136.59,152.83V153h0a.09.09,0,0,1-.06.08.3.3,0,0,1-.29,0,.09.09,0,0,1-.06-.08v-.17Z" transform="translate(-118.84 -139.77)" style="fill:#295e87"/><path d="M136.24,152.92a.37.37,0,0,0,.29,0c.08,0,.08-.13,0-.17a.3.3,0,0,0-.29,0C136.16,152.79,136.16,152.87,136.24,152.92Z" transform="translate(-118.84 -139.77)" style="fill:#659ec9"/><path d="M136.21,153.05v.17h0a.09.09,0,0,1-.06.08.3.3,0,0,1-.29,0,.09.09,0,0,1-.06-.08v-.17Z" transform="translate(-118.84 -139.77)" style="fill:#295e87"/><path d="M135.86,153.13a.3.3,0,0,0,.29,0,.08.08,0,0,0,0-.16.3.3,0,0,0-.29,0A.08.08,0,0,0,135.86,153.13Z" transform="translate(-118.84 -139.77)" style="fill:#659ec9"/><path d="M137.71,152.21l.23.13a.32.32,0,0,1,.14.24v.27l-.24.14-.08-.39-.29-.26Z" transform="translate(-118.84 -139.77)" style="fill:#bcbec0"/><path d="M137.47,152.34l.23.13a.32.32,0,0,1,.14.24V153l-.17-.1v-.08a.2.2,0,0,0-.09-.17l-.1-.06Z" transform="translate(-118.84 -139.77)" style="fill:#808285"/><path d="M137.39,152.39l.23.13a.34.34,0,0,1,.13.24V153l-.23.13-.08-.39-.29-.25Z" transform="translate(-118.84 -139.77)" style="fill:#bcbec0"/><path d="M137.15,152.53l.23.13a.29.29,0,0,1,.14.24v.27l-.17-.09V153a.18.18,0,0,0-.09-.16l-.11-.06Z" transform="translate(-118.84 -139.77)" style="fill:#808285"/><path d="M137.07,152.58l.23.13a.32.32,0,0,1,.14.24v.28l-.24.13-.09-.39-.28-.26Z" transform="translate(-118.84 -139.77)" style="fill:#bcbec0"/><path d="M136.83,152.71l.23.13a.32.32,0,0,1,.14.24v.28l-.17-.1v-.08a.17.17,0,0,0-.09-.16l-.11-.06Z" transform="translate(-118.84 -139.77)" style="fill:#808285"/><path d="M136.74,152.76l.23.14a.29.29,0,0,1,.14.24v.27l-.23.14-.09-.39-.28-.26Z" transform="translate(-118.84 -139.77)" style="fill:#bcbec0"/><path d="M136.51,152.9l.23.13a.33.33,0,0,1,.14.24v.28l-.18-.1v-.08a.17.17,0,0,0-.09-.16l-.1-.06Z" transform="translate(-118.84 -139.77)" style="fill:#808285"/><path d="M136.42,153l.23.13a.3.3,0,0,1,.14.24v.28l-.24.13-.08-.39-.29-.26Z" transform="translate(-118.84 -139.77)" style="fill:#bcbec0"/><path d="M136.18,153.08l.23.14a.29.29,0,0,1,.14.24v.27l-.17-.09v-.09a.17.17,0,0,0-.09-.16l-.1-.06Z" transform="translate(-118.84 -139.77)" style="fill:#808285"/></g><path d="M144,162.36c0,.14-.52.63-.55.62l-.31-.16,0-.66.25-.37h.18S144,162.22,144,162.36Z" transform="translate(-118.84 -139.77)" style="fill:#666"/><path d="M144.84,160s-1.23,1.56-1.38,1.68c-.05.29.13.54.54.64a16.5,16.5,0,0,1,2.09-1.53l.1-.39-.34-.59-.38-.16-.39.11Z" transform="translate(-118.84 -139.77)" style="fill:#f0c6b4"/><path d="M143.4,156.54a1.67,1.67,0,0,1,2,.81s1.64,1.44,1.69,1.77c.07.62-.66,1.37-.66,1.37a6,6,0,0,0-1.16-1.12,4,4,0,0,1-1-.87S143.13,156.67,143.4,156.54Z" transform="translate(-118.84 -139.77)" style="fill:#dae5f8"/><path d="M146.63,160.4c0-.29-.08-.48-.49-.78a.87.87,0,0,0-1.08-.1c-.24.21-.35.44-.22.52s.15-.16.65.17a1.3,1.3,0,0,1,.52.67C146.18,161,146.63,160.7,146.63,160.4Z" transform="translate(-118.84 -139.77)" style="fill:#fff"/><path d="M145.32,159.39s1.23-.43,1.1-.47C146,158.72,145.32,159.39,145.32,159.39Z" transform="translate(-118.84 -139.77)" style="fill:#b4caed"/><path d="M144.27,178.25a6.88,6.88,0,0,1-6.22,0c-1.71-1-1.71-2.6,0-3.59a6.88,6.88,0,0,1,6.22,0C146,175.65,146,177.26,144.27,178.25Z" transform="translate(-118.84 -139.77)" style="opacity:0.30000000000000004"/><path d="M142.86,156a4,4,0,0,0,.24.89l-.38.43-.77.33-.69-.09s-.28,0-.22-.25a5.51,5.51,0,0,0,0-1.14l.53-.51S142.91,155.8,142.86,156Z" transform="translate(-118.84 -139.77)" style="fill:#f0c6b4"/><path d="M140.17,153.88a3.7,3.7,0,0,0,.31,2.51c.14.14.58.05.58.05a1.63,1.63,0,0,0,.51-.72,3.47,3.47,0,0,0-.21-1.22l-.69-.82S140.21,153.77,140.17,153.88Z" transform="translate(-118.84 -139.77)" style="fill:#f0c6b4"/><path d="M142.86,156c-.32.46-1.09.32-1.26.28-.34-.09-.32-.93-.7-1.16-.11-.08-.2.11-.33,0a1.43,1.43,0,0,1-.22-.66,1.67,1.67,0,0,0-.1-.43c0-.08-.17-.07-.32,0a1.45,1.45,0,0,1,.27-.4c.06-.06-.17-.06-.17-.06a2.45,2.45,0,0,1,2.37-.44c.06,0,.15,0,.16-.18.09.11.07.3.1.32s.17,0,.36,0c-.14.1-.18.17-.14.23A2.22,2.22,0,0,1,142.86,156Z" transform="translate(-118.84 -139.77)" style="fill:#383838"/><path d="M144.28,175.76s.21,1-.34,1-1-.9-1-.9-.87-.52-.81-1,1-.21,1-.21Z" transform="translate(-118.84 -139.77)" style="fill:#00537d"/><path d="M141.56,177s.2.89-.32,1a6,6,0,0,1-3.09-.29c-.19-.05-.74-.83-.08-.93s1.78-.34,1.78-.34Z" transform="translate(-118.84 -139.77)" style="fill:#00537d"/><path d="M144.28,175.61s.21,1-.34,1-1-.9-1-.9-.87-.52-.81-1,1-.21,1-.21Z" transform="translate(-118.84 -139.77)" style="fill:#fff"/><path d="M144,165.32s.09,2.11-.06,4.52c0,.53.5,1.17.54,1.95,0,.45,0,1.6,0,2.54,0,.69,0,1.27-.16,1.34-1.06.24-1.61-.31-1.63-.89s-.14-2.56-.29-3.74a24.54,24.54,0,0,1-1-4.61Z" transform="translate(-118.84 -139.77)" style="fill:#517fa2"/><path d="M141.56,176.86s.2.89-.32,1a6,6,0,0,1-3.09-.29c-.19,0-.74-.83-.08-.93s1.78-.34,1.78-.34Z" transform="translate(-118.84 -139.77)" style="fill:#fff"/><path d="M143.47,162.72a11.31,11.31,0,0,1-2.81,1.19,1.25,1.25,0,0,1-1.45-.79,29.4,29.4,0,0,0,.24,7.87,15.63,15.63,0,0,1,0,5.4,1.63,1.63,0,0,0,2.16.58c.55-.38.29-4.74-.14-5.39l.64-4.69a4.64,4.64,0,0,0,1.8-1.16C144.48,165,143.47,162.72,143.47,162.72Z" transform="translate(-118.84 -139.77)" style="fill:#659ec9"/><path d="M136.34,156.08a1.41,1.41,0,0,0,0-.31c0-.15.07-.91-.11-.94s-.1.79-.24.9c-.23-.06-.79.12-.82.25s0,.34,0,.34a1.42,1.42,0,0,0,.08.62.33.33,0,0,0,.18.2l.53.05.31-.14a5,5,0,0,0,.25-.79C136.51,156.17,136.43,156.12,136.34,156.08Z" transform="translate(-118.84 -139.77)" style="fill:#666"/><path d="M136.78,158.73s-.28-.78-.52-1.68c-.27-.23-.84.09-.84.09s0,1.53,0,2.15A8.09,8.09,0,0,0,136.78,158.73Z" transform="translate(-118.84 -139.77)" style="fill:#f0c6b4"/><path d="M137,159.56a.59.59,0,0,0-.24-1,1.13,1.13,0,0,0-1.35.54.71.71,0,0,0,.3,1S136.75,159.68,137,159.56Z" transform="translate(-118.84 -139.77)" style="fill:#fff"/><path d="M143.1,156.64a3.16,3.16,0,0,1-2.06.66,10.63,10.63,0,0,0-1.72,1.48c-1,1.49-.06,3.39-.11,3.59a1.93,1.93,0,0,0,0,.63s0,.28.51.69,1.94-.13,1.94-.13l1.66-1.12.67-2.33.24-.37a6.21,6.21,0,0,0,.38-1.36C144.84,157.47,144.32,156.31,143.1,156.64Z" transform="translate(-118.84 -139.77)" style="fill:#fff"/><path d="M139.67,163.41c.69.15,1.41-2.23,1.41-2.23l3.31-1.65a18.77,18.77,0,0,1-.92,3.19c-.16.15-1.64,1.43-1.64,1.43l-1.67.2-.88-.94a2.09,2.09,0,0,1-.07-1C139.24,162.31,139.14,163.11,139.67,163.41Z" transform="translate(-118.84 -139.77)" style="fill:#659ec9"/><path d="M141.33,161.24s.36-2-.35-2.87c-.37-.43-1.23-.05-1.23-.05a1.33,1.33,0,0,1,.65-.54,1,1,0,0,1,1.27.36c.65.85.29,2.75.29,2.75Z" transform="translate(-118.84 -139.77)" style="fill:#659ec9"/><path d="M143.5,160.19s1.44-2.91-.4-3.55a.81.81,0,0,1,.62,0c1.56.62.42,3.2.42,3.2Z" transform="translate(-118.84 -139.77)" style="fill:#659ec9"/><path d="M140.91,158.85c-.5-1.2-2.23.07-2.23.07l-1.59.83a1.88,1.88,0,0,0-.18-.52c-.22-.27-1.41.24-1.33.75a3.55,3.55,0,0,0,1.16,1.58c.55.19,3.11-1.16,3.11-1.16S141.4,160.06,140.91,158.85Z" transform="translate(-118.84 -139.77)" style="fill:#dae5f8"/></svg>