<svg id="Layer_1" data-name="Layer 1" xmlns="http://www.w3.org/2000/svg" viewBox="0 0 19.16 42.53"><path d="M136.83,283a1,1,0,0,0-.9,0l-.33.19a.27.27,0,0,0,0,.52L149.93,292a1,1,0,0,0,.9,0l.33-.19a.27.27,0,0,0,0-.52Z" transform="translate(-132.45 -250.64)" style="opacity:0.30000000000000004"/><path d="M150.46,258.29l-13-7.5a.78.78,0,0,0-.85,0h0l-1.2.7.46,3,14.92,7.9.8-2A2.52,2.52,0,0,0,150.46,258.29Z" transform="translate(-132.45 -250.64)" style="fill:#dae5f8"/><path d="M150.14,286.93l-12.25-7.08a2.48,2.48,0,0,1-1.15-2v-9l14.87-8.59v26.64a.8.8,0,0,1-.34.75l-1.17.69Z" transform="translate(-132.45 -250.64)" style="fill:#b4caed"/><path d="M149.28,288.28l-13-7.5a2.54,2.54,0,0,1-1.15-2V252.14c0-.74.51-1,1.15-.66l13,7.49a2.57,2.57,0,0,1,1.16,2v26.65C150.44,288.34,149.92,288.64,149.28,288.28Z" transform="translate(-132.45 -250.64)" style="fill:#fff"/><polygon points="2.69 25.16 2.69 3.14 17.98 11.96 17.98 33.98 2.69 25.16" style="fill:#4fbeff"/><polygon points="15.38 11.64 10.67 8.92 10.67 14.3 12.15 16.62 16.71 19.25 16.71 13.73 15.38 11.64" style="fill:#517fa2;opacity:0.7000000000000001"/><polygon points="8.67 7.76 3.96 5.04 3.96 11.89 10.01 15.38 10.01 9.86 8.67 7.76" style="fill:#517fa2;opacity:0.7000000000000001"/><polygon points="15.38 19.91 10.67 17.19 10.67 24.04 16.71 27.52 16.71 22 15.38 19.91" style="fill:#517fa2;opacity:0.7000000000000001"/><g style="opacity:0.9"><polygon points="15.71 21.68 15.71 23.08 11.48 20.64 11.48 19.24 15.71 21.68" style="fill:#8dd5ff"/><path d="M144.94,272.41a2.2,2.2,0,0,1,1,1.73c0,.63-.44.89-1,.57a2.21,2.21,0,0,1-1-1.72C143.94,272.35,144.39,272.1,144.94,272.41Z" transform="translate(-132.45 -250.64)" style="fill:#fff"/><polygon points="14.53 25.25 13.78 24.82 13.78 23.89 14.53 24.32 14.53 25.25" style="fill:#fff"/><polygon points="14.53 23.92 13.78 23.49 13.78 22.56 14.53 22.99 14.53 23.92" style="fill:#fff"/><polygon points="15.71 25.94 14.97 25.51 14.96 24.58 15.71 25.01 15.71 25.94" style="fill:#fff"/><polygon points="15.71 24.6 14.97 24.17 14.96 23.25 15.71 23.68 15.71 24.6" style="fill:#fff"/></g><polygon points="8.67 16.03 3.96 13.31 3.96 20.16 10.01 23.65 10.01 18.13 8.67 16.03" style="fill:#517fa2;opacity:0.7000000000000001"/><g style="opacity:0.9"><polygon points="5.29 16.4 8.67 18.35 8.67 18.8 5.29 16.85 5.29 16.4" style="fill:#8dd5ff"/><polygon points="5.29 15.57 8.67 17.52 8.67 17.98 5.29 16.02 5.29 15.57" style="fill:#8dd5ff"/><polygon points="9.02 20.05 9.02 20.28 4.95 17.94 4.95 17.7 9.02 20.05" style="fill:#fff"/><polygon points="9.02 20.84 4.95 18.5 4.95 18.26 9.02 20.61 9.02 20.84" style="fill:#fff"/><polygon points="9.02 21.4 4.95 19.05 4.95 18.82 9.02 21.17 9.02 21.4" style="fill:#fff"/><polygon points="7.55 21.15 4.95 19.65 4.95 19.42 7.55 20.92 7.55 21.15" style="fill:#fff"/></g><polygon points="3.96 21.55 3.96 24.71 16.71 32.08 16.71 28.91 3.96 21.55" style="fill:#517fa2;opacity:0.7000000000000001"/><polygon points="9.44 25.49 9.44 27.09 15.87 30.8 15.87 29.2 9.44 25.49" style="fill:#8dd5ff"/><rect x="146.1" y="263.02" width="0.28" height="0.47" transform="translate(-287.32 7.29) rotate(-59.93)" style="fill:#5e5e5e"/><polygon points="14.61 12.94 14.03 13.94 14.27 13.06 13.92 12.86 14.06 12.62 14.61 12.94" style="fill:#4d4d4d"/><polygon points="14.23 12.45 14.11 12.65 13.81 12.48 13.93 12.28 14.23 12.45" style="fill:#659ec9"/><polygon points="14.6 12.67 14.48 12.86 14.11 12.65 14.23 12.45 14.6 12.67" style="fill:#295e87"/><rect x="146.75" y="263.4" width="0.28" height="0.47" transform="translate(-287.34 9.68) rotate(-60.25)" style="fill:#5e5e5e"/><polygon points="15.26 13.3 14.68 14.31 14.91 13.44 14.56 13.23 14.71 12.99 15.26 13.3" style="fill:#4d4d4d"/><polygon points="14.87 12.82 14.76 13.02 14.46 12.85 14.57 12.65 14.87 12.82" style="fill:#659ec9"/><rect x="147.34" y="263.45" width="0.22" height="0.43" transform="translate(-287.08 9.54) rotate(-60.12)" style="fill:#295e87"/><path d="M145.67,264.88l-.89.51c-.08,0-.14,0-.15-.06l-.18-1.05a.3.3,0,0,1,.15-.29l1.25-.73c.09-.05.16,0,.15.12l-.19,1.27A.33.33,0,0,1,145.67,264.88Z" transform="translate(-132.45 -250.64)" style="fill:#303030"/><path d="M146,263.25l2,1.17v.07l-2.12-1.23A.12.12,0,0,1,146,263.25Z" transform="translate(-132.45 -250.64)" style="fill:#292929"/><rect x="147.36" y="263.75" width="0.28" height="0.47" transform="translate(-287.31 8.39) rotate(-59.87)" style="fill:#5e5e5e"/><polygon points="15.87 13.66 15.29 14.66 15.53 13.79 15.18 13.59 15.32 13.35 15.87 13.66" style="fill:#4d4d4d"/><polygon points="15.48 13.18 15.38 13.37 15.07 13.2 15.19 13.01 15.48 13.18" style="fill:#659ec9"/><rect x="147.96" y="263.8" width="0.22" height="0.43" transform="translate(-287.07 9.69) rotate(-60.02)" style="fill:#295e87"/><path d="M147.6,266.41l-.7.4a.05.05,0,0,1-.08-.05v-.39l.86-.5v.4A.2.2,0,0,1,147.6,266.41Z" transform="translate(-132.45 -250.64)" style="fill:#232323"/><path d="M146.85,266.45l-1.74-.93v.26a.05.05,0,0,0,0,.05l1.71,1Z" transform="translate(-132.45 -250.64)"/><polygon points="12.14 13.35 14.17 14.52 15.42 13.8 13.4 12.63 12.14 13.35" style="fill:#454545"/><path d="M144.67,265.4l2,1.17,0-.07-2-1.17A.13.13,0,0,0,144.67,265.4Z" transform="translate(-132.45 -250.64)" style="fill:#232323"/><path d="M146.62,265.16l-2-1.17a.3.3,0,0,0-.15.29l2,1.17Z" transform="translate(-132.45 -250.64)" style="fill:#232323"/><path d="M147.69,266l-.89.52c-.07,0-.13,0-.14-.06l-.19-1.05a.34.34,0,0,1,.15-.29l1.26-.73c.09-.05.16,0,.14.12l-.18,1.27A.29.29,0,0,1,147.69,266Z" transform="translate(-132.45 -250.64)" style="fill:#0d0d0d"/><path d="M147.93,264.62a.26.26,0,0,1-.13.23c-.07,0-.13,0-.13-.08a.29.29,0,0,1,.13-.22C147.88,264.51,147.93,264.54,147.93,264.62Z" transform="translate(-132.45 -250.64)" style="fill:#454545"/><path d="M147.77,265.82a.19.19,0,0,1-.09.15c-.05,0-.08,0-.08-.05a.18.18,0,0,1,.08-.15A.06.06,0,0,1,147.77,265.82Z" transform="translate(-132.45 -250.64)" style="fill:#454545"/><path d="M146.91,266.32a.2.2,0,0,1-.09.15s-.09,0-.09-.05a.17.17,0,0,1,.09-.15C146.87,266.24,146.91,266.26,146.91,266.32Z" transform="translate(-132.45 -250.64)" style="fill:#454545"/><path d="M146.82,265.27a.32.32,0,0,1-.13.23c-.07,0-.13,0-.13-.08a.3.3,0,0,1,.13-.23C146.76,265.15,146.82,265.18,146.82,265.27Z" transform="translate(-132.45 -250.64)" style="fill:#454545"/><path d="M145.59,263.19h0a.12.12,0,0,0-.11,0l-.52.29a.36.36,0,0,0-.15.27v.09l2,1.17.78-.67Z" transform="translate(-132.45 -250.64)" style="fill:#6d6e71"/><path d="M147,264.67l.52-.3c.08-.05.15,0,.15.09v.1l-.82.47v-.09A.33.33,0,0,1,147,264.67Z" transform="translate(-132.45 -250.64)" style="fill:#414042"/><path d="M147.34,265.41a.2.2,0,0,1-.09.15c-.05,0-.09,0-.09-.05a.17.17,0,0,1,.09-.15C147.3,265.33,147.34,265.35,147.34,265.41Z" transform="translate(-132.45 -250.64)" style="fill:#141414"/><path d="M147.23,265.31l-.09-.05-.07-.33a.27.27,0,0,1,.11-.2l.25-.14.09.05Z" transform="translate(-132.45 -250.64)" style="fill:#659ec9"/><path d="M147.48,265.22l-.15-.08.18-.42c0-.08.12-.12.16-.1l.17.1Z" transform="translate(-132.45 -250.64)" style="fill:#659ec9"/><path d="M148,265l-.08-.05h0a.08.08,0,0,0-.08,0l-.32.27v.24Z" transform="translate(-132.45 -250.64)" style="fill:#659ec9"/><polygon points="15.39 14.88 15.31 14.83 15.03 14.79 14.88 15.05 15.13 15.32 15.22 15.37 15.39 14.88" style="fill:#659ec9"/><path d="M147.14,265.79l.22-.12.07.32a.25.25,0,0,1-.12.2l-.16.19-.09-.05Z" transform="translate(-132.45 -250.64)" style="fill:#659ec9"/><path d="M147,265.7l.15.09-.18.42c0,.08-.11.12-.16.09l-.17-.1Z" transform="translate(-132.45 -250.64)" style="fill:#659ec9"/><path d="M147,265.55l-.09-.05-.37.13v.29a.11.11,0,0,0,0,.07h0l.1.06V266h0Z" transform="translate(-132.45 -250.64)" style="fill:#659ec9"/><path d="M147,265l-.17.49-.09-.05s0-.11,0-.19l.18-.3Z" transform="translate(-132.45 -250.64)" style="fill:#659ec9"/><path d="M147.44,265.19l-.21.12-.08-.33a.28.28,0,0,1,.12-.2l.25-.14Z" transform="translate(-132.45 -250.64)" style="fill:#295e87"/><path d="M147.55,265.27l-.15-.09.17-.42c.05-.08.12-.12.16-.09l.18.1Z" transform="translate(-132.45 -250.64)" style="fill:#295e87"/><path d="M147.56,265.5v-.24l.32-.27c.07,0,.12,0,.12.07v.28Z" transform="translate(-132.45 -250.64)" style="fill:#295e87"/><path d="M147.42,265.74l.15-.26.28,0c.05,0,.05.11,0,.19l-.17.3Z" transform="translate(-132.45 -250.64)" style="fill:#295e87"/><path d="M147.23,265.84l.21-.12.07.32a.24.24,0,0,1-.11.2l-.25.14Z" transform="translate(-132.45 -250.64)" style="fill:#295e87"/><path d="M147.1,265.75l.15.09-.18.42c0,.08-.12.12-.16.09l-.17-.1Z" transform="translate(-132.45 -250.64)" style="fill:#295e87"/><path d="M147.11,265.52v.25l-.32.27c-.07,0-.12,0-.12-.07v-.28Z" transform="translate(-132.45 -250.64)" style="fill:#295e87"/><path d="M147.25,265.29l-.15.26-.28,0s0-.11,0-.19l.17-.3Z" transform="translate(-132.45 -250.64)" style="fill:#295e87"/><path d="M147.66,265.33a.72.72,0,0,1-.32.55c-.18.1-.32,0-.32-.19a.71.71,0,0,1,.32-.55C147.51,265,147.66,265.13,147.66,265.33Z" transform="translate(-132.45 -250.64)" style="fill:#808285"/><path d="M147.6,265.36a.61.61,0,0,1-.26.46c-.1.05-.18,0-.22,0s.11,0,.19,0a.59.59,0,0,0,.26-.45.21.21,0,0,0,0-.15A.21.21,0,0,1,147.6,265.36Z" transform="translate(-132.45 -250.64)" style="fill:#bcbec0"/><path d="M147.57,265.34a.59.59,0,0,1-.26.45c-.08,0-.15,0-.19,0a.2.2,0,0,1-.05-.14.57.57,0,0,1,.27-.45.17.17,0,0,1,.19,0A.21.21,0,0,1,147.57,265.34Z" transform="translate(-132.45 -250.64)" style="fill:#939598"/><path d="M147.42,265.49l0-.06,0,0h0a.07.07,0,0,0-.06,0,.19.19,0,0,0-.09.15.06.06,0,0,0,0,.05h0l.06,0,0-.06Z" transform="translate(-132.45 -250.64)" style="fill:#659ec9"/><path d="M147.48,265.49a.17.17,0,0,1-.09.15s-.09,0-.09-.05a.2.2,0,0,1,.09-.15C147.44,265.41,147.48,265.43,147.48,265.49Z" transform="translate(-132.45 -250.64)" style="fill:#295e87"/><polygon points="12.18 14.7 14.2 15.87 14.02 14.81 11.99 13.64 12.18 14.7" style="fill:#0d0d0d"/><rect x="143.74" y="264.36" width="1.27" height="0.47" transform="translate(-289.41 6.63) rotate(-59.99)" style="fill:#5e5e5e"/><polygon points="12.44 13.52 12.63 13.63 12.48 13.93 12.63 14.96 11.8 14.63 12.44 13.52" style="fill:#4d4d4d"/><polygon points="12.43 14.98 12.02 14.75 12.65 13.65 13.06 13.88 12.43 14.98" style="fill:#5e5e5e"/><polygon points="13.06 13.88 13.25 13.99 13.1 14.29 13.25 15.32 12.43 14.98 13.06 13.88" style="fill:#4d4d4d"/><polygon points="13.04 15.34 12.63 15.11 13.27 14 13.68 14.24 13.04 15.34" style="fill:#5e5e5e"/><polygon points="13.68 14.24 13.87 14.35 13.72 14.64 13.87 15.67 13.04 15.34 13.68 14.24" style="fill:#4d4d4d"/><polygon points="13.35 14.41 13.48 14.49 13.18 15.03 13.04 14.95 13.35 14.41" style="fill:#295e87"/><rect x="145.19" y="265.05" width="0.61" height="0.36" transform="translate(-289.42 9.08) rotate(-60.21)" style="fill:#659ec9"/><polygon points="12.72 14.05 12.86 14.13 12.56 14.66 12.42 14.59 12.72 14.05" style="fill:#295e87"/><polygon points="12.42 13.88 12.72 14.05 12.42 14.59 12.11 14.41 12.42 13.88" style="fill:#659ec9"/><polygon points="12.1 13.7 12.24 13.78 11.93 14.3 11.8 14.23 12.1 13.7" style="fill:#295e87"/><rect x="143.94" y="264.33" width="0.61" height="0.36" transform="translate(-289.4 6.53) rotate(-60)" style="fill:#659ec9"/><path d="M145.73,263.24l.27-.16a.09.09,0,0,1,.1,0l-.25-.15h0a.11.11,0,0,0-.11,0l-.27.16v.27l.2-.12.06,0Z" transform="translate(-132.45 -250.64)" style="fill:#bcbec0"/><path d="M145.73,263.24v.27l.2-.12.19.11,0,0v-.29a.12.12,0,0,0-.17-.1Z" transform="translate(-132.45 -250.64)" style="fill:#808285"/><polygon points="13.27 12.87 13.01 12.72 13.01 12.45 13.27 12.6 13.27 12.87" style="fill:#939598"/><path d="M146.1,263.45l.27-.15a.14.14,0,0,1,.11,0l-.25-.14h0a.11.11,0,0,0-.12,0l-.27.15v.28l.21-.12,0,0Z" transform="translate(-132.45 -250.64)" style="fill:#bcbec0"/><path d="M146.1,263.45v.27l.21-.11.18.1,0,0v-.29a.11.11,0,0,0-.17-.1Z" transform="translate(-132.45 -250.64)" style="fill:#808285"/><polygon points="13.65 13.09 13.39 12.94 13.39 12.67 13.65 12.82 13.65 13.09" style="fill:#939598"/><path d="M146.46,263.66l.27-.16a.11.11,0,0,1,.11,0l-.25-.15h0a.13.13,0,0,0-.12,0l-.27.16v.27l.2-.12.06,0Z" transform="translate(-132.45 -250.64)" style="fill:#bcbec0"/><path d="M146.46,263.66v.27l.2-.12.19.11.05,0v-.29a.12.12,0,0,0-.17-.1Z" transform="translate(-132.45 -250.64)" style="fill:#808285"/><polygon points="14 13.3 13.74 13.15 13.74 12.87 14 13.02 14 13.3" style="fill:#939598"/><path d="M146.82,263.87l.27-.16a.11.11,0,0,1,.11,0l-.25-.15h0a.13.13,0,0,0-.12,0l-.27.16V264l.21-.12,0,0Z" transform="translate(-132.45 -250.64)" style="fill:#bcbec0"/><path d="M146.82,263.87v.27L147,264l.18.11,0,0v-.29a.11.11,0,0,0-.17-.1Z" transform="translate(-132.45 -250.64)" style="fill:#808285"/><polygon points="14.37 13.51 14.1 13.35 14.1 13.08 14.37 13.23 14.37 13.51" style="fill:#939598"/><path d="M147.18,264.07l.27-.15a.12.12,0,0,1,.1,0l-.25-.14h0a.09.09,0,0,0-.11,0l-.27.15v.28l.2-.12.06,0Z" transform="translate(-132.45 -250.64)" style="fill:#bcbec0"/><path d="M147.18,264.07v.28l.2-.12.19.1.05,0V264a.11.11,0,0,0-.17-.1Z" transform="translate(-132.45 -250.64)" style="fill:#808285"/><polygon points="14.72 13.71 14.46 13.56 14.46 13.29 14.72 13.44 14.72 13.71" style="fill:#939598"/><path d="M145.12,263.28v.18h0a.11.11,0,0,0,.06.09.38.38,0,0,0,.33,0,.11.11,0,0,0,.06-.09v-.18Z" transform="translate(-132.45 -250.64)" style="fill:#295e87"/><path d="M145.51,263.37a.38.38,0,0,1-.33,0c-.09-.06-.09-.14,0-.19a.38.38,0,0,1,.33,0C145.6,263.23,145.6,263.31,145.51,263.37Z" transform="translate(-132.45 -250.64)" style="fill:#659ec9"/><path d="M145.53,263.51v.19h0a.1.1,0,0,0,.07.09.36.36,0,0,0,.32,0,.1.1,0,0,0,.07-.09v-.19Z" transform="translate(-132.45 -250.64)" style="fill:#295e87"/><path d="M145.92,263.61a.36.36,0,0,1-.32,0,.1.1,0,0,1,0-.19.36.36,0,0,1,.32,0A.1.1,0,0,1,145.92,263.61Z" transform="translate(-132.45 -250.64)" style="fill:#659ec9"/><path d="M146,263.76v.18h0a.1.1,0,0,0,.07.09.31.31,0,0,0,.32,0,.1.1,0,0,0,.07-.09v-.18Z" transform="translate(-132.45 -250.64)" style="fill:#295e87"/><path d="M146.34,263.85a.36.36,0,0,1-.32,0,.1.1,0,0,1,0-.19.36.36,0,0,1,.32,0A.1.1,0,0,1,146.34,263.85Z" transform="translate(-132.45 -250.64)" style="fill:#659ec9"/><path d="M146.37,264v.18h0s0,.07.07.1a.36.36,0,0,0,.32,0c.05,0,.07-.06.07-.1V264Z" transform="translate(-132.45 -250.64)" style="fill:#295e87"/><path d="M146.76,264.09a.36.36,0,0,1-.32,0c-.1,0-.1-.14,0-.19a.36.36,0,0,1,.32,0A.1.1,0,0,1,146.76,264.09Z" transform="translate(-132.45 -250.64)" style="fill:#659ec9"/><path d="M146.79,264.24v.19h0s0,.06.07.09a.36.36,0,0,0,.32,0s.07-.06.07-.09v-.19Z" transform="translate(-132.45 -250.64)" style="fill:#295e87"/><path d="M147.18,264.33a.31.31,0,0,1-.32,0c-.09-.05-.09-.13,0-.18a.36.36,0,0,1,.32,0C147.27,264.2,147.27,264.28,147.18,264.33Z" transform="translate(-132.45 -250.64)" style="fill:#659ec9"/><path d="M145.13,263.3l-.26.15a.33.33,0,0,0-.15.27v.3l.26.16.09-.44.32-.29Z" transform="translate(-132.45 -250.64)" style="fill:#bcbec0"/><path d="M145.39,263.45l-.26.15a.33.33,0,0,0-.15.27v.31l.18-.11V264a.21.21,0,0,1,.11-.18l.12-.07Z" transform="translate(-132.45 -250.64)" style="fill:#808285"/><path d="M145.48,263.51l-.25.15a.34.34,0,0,0-.16.26v.31l.26.15.1-.44.31-.28Z" transform="translate(-132.45 -250.64)" style="fill:#bcbec0"/><path d="M145.74,263.66l-.25.15a.34.34,0,0,0-.16.26v.31l.19-.1v-.1a.19.19,0,0,1,.11-.18l.11-.07Z" transform="translate(-132.45 -250.64)" style="fill:#808285"/><path d="M145.84,263.71l-.26.15a.36.36,0,0,0-.15.27v.31l.26.15.1-.44.31-.29Z" transform="translate(-132.45 -250.64)" style="fill:#bcbec0"/><path d="M146.1,263.86l-.26.15a.36.36,0,0,0-.15.27v.31l.19-.11v-.1a.22.22,0,0,1,.1-.18l.12-.06Z" transform="translate(-132.45 -250.64)" style="fill:#808285"/><path d="M146.21,263.92l-.26.15a.34.34,0,0,0-.16.27v.31l.26.15.1-.44.31-.29Z" transform="translate(-132.45 -250.64)" style="fill:#bcbec0"/><path d="M146.46,264.07l-.25.15a.34.34,0,0,0-.16.27v.31l.19-.11v-.1a.22.22,0,0,1,.1-.18l.12-.06Z" transform="translate(-132.45 -250.64)" style="fill:#808285"/><path d="M146.56,264.13l-.25.15a.34.34,0,0,0-.16.27v.3l.26.15.1-.43.31-.29Z" transform="translate(-132.45 -250.64)" style="fill:#bcbec0"/><path d="M146.82,264.28l-.25.15a.34.34,0,0,0-.16.27v.3l.19-.1v-.1a.22.22,0,0,1,.1-.18l.12-.07Z" transform="translate(-132.45 -250.64)" style="fill:#808285"/><g style="opacity:0.8"><path d="M137.33,259.77h0a1.58,1.58,0,0,0,.74,1.24.48.48,0,0,0,.5,0,.51.51,0,0,0,.2-.48,1.44,1.44,0,0,0-.22-.71,1.39,1.39,0,0,0-.52-.53.5.5,0,0,0-.51,0A.53.53,0,0,0,137.33,259.77Zm.29.17a.32.32,0,0,1,.12-.29.3.3,0,0,1,.3,0,.89.89,0,0,1,.3.31,1,1,0,0,1,.14.43.31.31,0,0,1-.12.28.28.28,0,0,1-.3,0,.75.75,0,0,1-.3-.31A1,1,0,0,1,137.62,259.94Z" transform="translate(-132.45 -250.64)" style="fill:#fff"/><path d="M137.33,261.8a1.58,1.58,0,0,0,.74,1.24.48.48,0,0,0,.5,0,.51.51,0,0,0,.2-.48,1.58,1.58,0,0,0-.74-1.24.5.5,0,0,0-.51,0A.54.54,0,0,0,137.33,261.8Zm.29.16a.32.32,0,0,1,.12-.29.3.3,0,0,1,.3,0,.85.85,0,0,1,.3.32,1,1,0,0,1,.14.42c0,.14,0,.24-.12.28a.28.28,0,0,1-.3,0,.75.75,0,0,1-.3-.31A1,1,0,0,1,137.62,262Z" transform="translate(-132.45 -250.64)" style="fill:#fff"/><polygon points="8.75 13.84 7.04 12.85 7.04 12.62 8.75 13.61 8.75 13.84" style="fill:#fff"/><polygon points="8.75 13.41 7.04 12.43 7.04 12.19 8.75 13.19 8.75 13.41" style="fill:#fff"/><polygon points="8.9 11.25 7 10.15 7 9.53 8.9 10.62 8.9 11.25" style="fill:#fff"/><path d="M139.9,261.3a1,1,0,0,1,.45.78c0,.28-.2.4-.45.26a1,1,0,0,1-.44-.78C139.46,261.28,139.66,261.16,139.9,261.3Z" transform="translate(-132.45 -250.64)" style="fill:#fff"/><polygon points="8.37 12.23 8.03 12.04 8.03 11.62 8.37 11.81 8.37 12.23" style="fill:#fff"/><polygon points="8.03 11.02 8.37 11.21 8.37 11.63 8.03 11.44 8.03 11.02" style="fill:#fff"/><polygon points="8.56 11.93 8.9 12.12 8.9 12.54 8.57 12.35 8.56 11.93" style="fill:#fff"/><polygon points="8.56 11.33 8.9 11.52 8.9 11.94 8.57 11.74 8.56 11.33" style="fill:#fff"/><polygon points="9.04 10.14 8.83 10.02 8.83 9.59 9.04 9.72 9.04 10.14" style="fill:#8dd5ff"/><polygon points="8.48 9.81 8.27 9.69 8.27 8.75 8.48 8.88 8.48 9.81" style="fill:#8dd5ff"/><polygon points="7.91 9.49 7.7 9.37 7.7 8.14 7.91 8.26 7.91 9.49" style="fill:#8dd5ff"/><polygon points="7.35 9.16 7.14 9.04 7.14 7.82 7.35 7.94 7.35 9.16" style="fill:#8dd5ff"/><polygon points="6.78 8.83 6.57 8.71 6.57 8.06 6.78 8.18 6.78 8.83" style="fill:#8dd5ff"/><polygon points="6.22 8.51 6 8.39 6 7.53 6.22 7.65 6.22 8.51" style="fill:#8dd5ff"/><polygon points="5.65 8.18 5.44 8.06 5.44 6.61 5.65 6.73 5.65 8.18" style="fill:#8dd5ff"/><polygon points="5.09 6.64 5.09 7.86 4.87 7.73 4.87 6.51 5.09 6.64" style="fill:#8dd5ff"/></g><polygon points="13.19 8.11 4.16 2.9 4.16 2.4 13.19 7.62 13.19 8.11" style="fill:#81a1cc"/><polygon points="16.29 9.9 14.26 8.73 14.26 8.23 16.29 9.4 16.29 9.9" style="fill:#81a1cc"/><path d="M144.58,284.56l-3.54-2a.46.46,0,0,1-.21-.37v-1.84c0-.14.09-.19.21-.13l3.54,2.05a.47.47,0,0,1,.22.37v1.84C144.8,284.57,144.7,284.63,144.58,284.56Z" transform="translate(-132.45 -250.64)" style="fill:#b4caed"/><path d="M144.05,283.91l-2.48-1.43a.33.33,0,0,1-.15-.27v-1.29c0-.09.06-.13.15-.08l2.48,1.43a.35.35,0,0,1,.15.26v1.29C144.2,283.92,144.13,284,144.05,283.91Z" transform="translate(-132.45 -250.64)" style="fill:#fff"/><path d="M147.78,285.72l-2-1.13a.5.5,0,0,1-.21-.36v-.5c0-.12.1-.17.21-.1l2,1.14a.45.45,0,0,1,.22.35v.5C148,285.75,147.9,285.79,147.78,285.72Z" transform="translate(-132.45 -250.64)" style="fill:#b4caed"/><path d="M139.63,281l-2-1.14a.45.45,0,0,1-.22-.35V279c0-.13.1-.17.22-.1l2,1.14a.44.44,0,0,1,.21.34v.51C139.84,281,139.75,281.07,139.63,281Z" transform="translate(-132.45 -250.64)" style="fill:#b4caed"/><path d="M135.12,292.43a6.84,6.84,0,0,0,6.17,0c1.7-1,1.7-2.58,0-3.56a6.78,6.78,0,0,0-6.17,0C133.42,289.85,133.42,291.44,135.12,292.43Z" transform="translate(-132.45 -250.64)" style="opacity:0.30000000000000004"/><path d="M135.52,276.56a1.75,1.75,0,0,0,.55.61l.3-.16,0-.65-.24-.36H136S135.5,276.42,135.52,276.56Z" transform="translate(-132.45 -250.64)" style="fill:#666"/><path d="M134.69,274.26s1.21,1.55,1.37,1.66c0,.29-.13.54-.54.64a16.34,16.34,0,0,0-2.07-1.52l-.1-.39.34-.58.38-.16.38.11Z" transform="translate(-132.45 -250.64)" style="fill:#f0c6b4"/><path d="M136.12,270.79a1.64,1.64,0,0,0-2,.81s-1.63,1.42-1.68,1.75c-.07.61.66,1.36.66,1.36a5.84,5.84,0,0,1,1.15-1.12,3.92,3.92,0,0,0,1-.86S136.39,270.92,136.12,270.79Z" transform="translate(-132.45 -250.64)" style="fill:#dae5f8"/><path d="M136.77,269.77a1.61,1.61,0,0,1-.24,1.07l.6.63.66.29.62,0,.15-.17a2.72,2.72,0,0,1,0-1.14c0-.21-.34-.75-.34-.75S136.76,269.58,136.77,269.77Z" transform="translate(-132.45 -250.64)" style="fill:#f0c6b4"/><path d="M135.35,289.79s0,1,.49,1,.88-.87.88-.87.79-.75.74-1.25c0-.32-1.06-.07-1.06-.07Z" transform="translate(-132.45 -250.64)" style="fill:#00537d"/><path d="M138,291s-.2.88.32,1a5.56,5.56,0,0,0,3.22-.37c.19,0,.58-.63-.08-.73a17.34,17.34,0,0,1-1.76-.44Z" transform="translate(-132.45 -250.64)" style="fill:#00537d"/><path d="M135.35,289.63s0,1,.49,1,.88-.86.88-.86.79-.76.74-1.26c0-.32-1.06-.07-1.06-.07Z" transform="translate(-132.45 -250.64)" style="fill:#fff"/><path d="M135.5,279.42a37.21,37.21,0,0,0,0,4.59c0,.53-.53,1.36-.56,2.13s.08,3.23.41,3.58c1,.24,1.44-.35,1.47-.92a15.6,15.6,0,0,1,.29-3.71,23.75,23.75,0,0,0,1-4.57Z" transform="translate(-132.45 -250.64)" style="fill:#517fa2"/><path d="M138,290.86s-.2.89.32,1a5.56,5.56,0,0,0,3.22-.37c.19-.05.58-.62-.08-.73a17.34,17.34,0,0,1-1.76-.44Z" transform="translate(-132.45 -250.64)" style="fill:#fff"/><path d="M136.07,276.85a11.1,11.1,0,0,0,2.78,1.17c.85.11,1.15-.24,1.33-.69a39.64,39.64,0,0,1-.3,7.71,17.64,17.64,0,0,0,.21,5.35A1.61,1.61,0,0,1,138,291c-.54-.38.07-5.14.07-5.14l-.56-4.85a4.61,4.61,0,0,1-1.79-1.15C135.06,279.1,136.07,276.85,136.07,276.85Z" transform="translate(-132.45 -250.64)" style="fill:#659ec9"/><path d="M144.54,271.73a3.23,3.23,0,0,1-.22-1.12.84.84,0,0,1,.34-.61,1.4,1.4,0,0,1,1.13.36c0,.11-.21.39-.21.39a2.09,2.09,0,0,1-.1.95.68.68,0,0,1-.1.14Z" transform="translate(-132.45 -250.64)" style="fill:#666"/><path d="M143.53,273.11a6.65,6.65,0,0,0,1-1.31c.19-.42.88-.23.88,0a7,7,0,0,0-.56,1.82Z" transform="translate(-132.45 -250.64)" style="fill:#f0c6b4"/><path d="M143.21,273.73a.82.82,0,0,1,.37-.74,1,1,0,0,1,1.25.36c.33.46-.27,1-.27,1Z" transform="translate(-132.45 -250.64)" style="fill:#fff"/><path d="M136.53,270.84a3.33,3.33,0,0,0,2,.78,6.85,6.85,0,0,1,1.67,1.43c.49.87.09,3.37.09,3.37l-.11.85-.21.45-2.26,0-1.59-1.08-.64-2.24-.24-.36a4.15,4.15,0,0,1-.33-1.45C134.76,271.68,135.36,270.52,136.53,270.84Z" transform="translate(-132.45 -250.64)" style="fill:#fff"/><path d="M139.76,277.32c-.84.17-1.4-1.93-1.4-1.93l-3.2-1.59s.52,2,.91,3.05l1.57,1.4,1.6.2,1-.54a7.42,7.42,0,0,0,.08-1.49C140.22,276.78,140.24,277.24,139.76,277.32Z" transform="translate(-132.45 -250.64)" style="fill:#659ec9"/><path d="M138.12,275.44s-.38-2,.31-2.81c.43-.56,1.33-.1,1.33-.1a1.36,1.36,0,0,0-.67-.54,1.19,1.19,0,0,0-1.3.46c-.63.83-.29,2.65-.29,2.65Z" transform="translate(-132.45 -250.64)" style="fill:#659ec9"/><path d="M136,274.43s-1.27-3,.51-3.59a.78.78,0,0,0-.59,0c-1.51.59-.54,3.25-.54,3.25Z" transform="translate(-132.45 -250.64)" style="fill:#659ec9"/><path d="M139,267.48s.65.33.53,1.48a4.41,4.41,0,0,1-.4,1.58c-.13.14-.61.1-.61.1s-.33-.08-.51-.95c-.1-.49-.38-1.62-.38-1.62l.78-.53Z" transform="translate(-132.45 -250.64)" style="fill:#f0c6b4"/><path d="M138.75,269.31c.13-.06.23.26.4.17,0-.66.33-.86-.4-1.28-.33-.19.44-.58.24-.85a1.64,1.64,0,0,0-2.59,1.38,1.43,1.43,0,0,0,1.49,1.56C138.13,270.25,138.63,269.37,138.75,269.31Z" transform="translate(-132.45 -250.64)" style="fill:#383838"/><path d="M138.73,273.46c-.1.79,1.78,1.27,1.78,1.27s2.84.77,3.33.43a3,3,0,0,0,.88-1.07c.12-.21-1.11-1.19-1.54-.45l-2.49-.85S138.91,272,138.73,273.46Z" transform="translate(-132.45 -250.64)" style="fill:#dae5f8"/><path d="M132.92,274.61c0-.28.08-.47.48-.77a.86.86,0,0,1,1.07-.1c.24.21.34.44.22.52s-.15-.16-.65.17a1.31,1.31,0,0,0-.51.66C133.36,275.22,132.92,274.91,132.92,274.61Z" transform="translate(-132.45 -250.64)" style="fill:#fff"/><path d="M143.18,273.64s.61.35.6.26C143.66,273.58,143.18,273.64,143.18,273.64Z" transform="translate(-132.45 -250.64)" style="fill:#b4caed"/><path d="M134.22,273.61s-1.22-.42-1.09-.46C133.59,273,134.22,273.61,134.22,273.61Z" transform="translate(-132.45 -250.64)" style="fill:#b4caed"/></svg>