<svg id="Layer_1" data-name="Layer 1" xmlns="http://www.w3.org/2000/svg" viewBox="0 0 16.75 17.61"><polygon points="0.95 4.73 1.26 11.52 0.66 11.11 0.35 4.45 0.95 4.73" style="fill:#ccc"/><polygon points="2.55 3.7 2.28 10.87 1.26 11.52 0.95 4.73 2.55 3.7" style="fill:#a0a0a0"/><polygon points="7.3 0.66 16.23 6.46 11.13 9.75 7.3 7.25 7.3 0.66" style="fill:#ccc"/><polygon points="7.3 7.25 5.73 8.26 0.5 4.86 7.16 0.57 7.3 0.66 7.3 7.25 7.3 7.25" style="fill:#676767"/><polygon points="7.3 7.25 7.3 7.25 11.13 9.75 9.57 10.76 7.3 9.28 5.73 8.26 7.3 7.25" style="fill:#a0a0a0"/><polygon points="9.57 10.76 10.08 17.61 1.01 11.71 0.5 4.86 9.57 10.76" style="fill:#a0a0a0"/><polygon points="16.23 6.46 15.88 13.88 10.08 17.61 9.57 10.76 16.23 6.46" style="fill:#676767"/><polygon points="11.42 10.54 11.73 17.34 11.13 16.92 10.82 10.13 11.42 10.54" style="fill:#ccc"/><polygon points="13.02 9.51 12.75 16.69 11.73 17.34 11.42 10.54 13.02 9.51" style="fill:#a0a0a0"/><polygon points="14.28 8.72 14.59 15.52 13.99 15.1 13.68 8.31 14.28 8.72" style="fill:#ccc"/><polygon points="15.88 7.69 15.61 14.87 14.59 15.52 14.28 8.72 15.88 7.69" style="fill:#a0a0a0"/><polygon points="16.73 6.27 16.07 6.69 7.08 0.85 7.08 0 16.73 6.27" style="fill:#a0a0a0"/><polygon points="7.08 0 7.08 0.85 0.66 5 0 4.57 7.08 0" style="fill:#a0a0a0"/><polygon points="9.65 10.84 16.07 6.69 16.73 7.12 9.65 11.69 0.29 5.56 0.66 5 9.65 10.84" style="fill:#a0a0a0"/><polygon points="9.65 10.84 9.68 11.69 0.03 5.42 0 4.57 9.65 10.84" style="fill:#ccc"/><polygon points="16.73 6.27 16.75 7.12 9.68 11.69 9.65 10.84 16.73 6.27" style="fill:#a0a0a0"/><path d="M183.08,339.35l9.11,5.92-6.54,4.22-9.11-5.92,6.54-4.22Zm0-.35L176,343.57l9.65,6.27,7.08-4.57L183.08,339Z" transform="translate(-176 -339)" style="fill:#fff"/></svg>