<svg id="Layer_1" data-name="Layer 1" xmlns="http://www.w3.org/2000/svg" viewBox="0 0 23.71 38.45"><path d="M127.53,348.25v10.22a.43.43,0,0,0,.26.36l7.08,4.09a1.42,1.42,0,0,0,1.24,0l9-5.19a.45.45,0,0,0,.26-.36V347.13Z" transform="translate(-121.64 -325.69)" style="fill:#dae5f8"/><path d="M136.11,347.71v15.21l9-5.19a.45.45,0,0,0,.26-.36V347.13Z" transform="translate(-121.64 -325.69)" style="fill:#b4caed"/><path d="M136.11,352.7a1.42,1.42,0,0,1-1.24,0l-7.08-4.09c-.35-.2-.35-.52,0-.72l9-5.19a1.42,1.42,0,0,1,1.24,0l7.08,4.09a.38.38,0,0,1,0,.72Z" transform="translate(-121.64 -325.69)" style="fill:#fff"/><path d="M128.19,346.9v1.32a.4.4,0,0,0,.24.33l6.55,3.78a1.29,1.29,0,0,0,1.15,0l8.32-4.8a.41.41,0,0,0,.23-.33v-1.31Z" transform="translate(-121.64 -325.69)" style="fill:#5a87c4"/><polygon points="10.7 23.8 10.7 25.11 13.35 26.64 13.35 25.22 10.7 23.8" style="fill:#9de368"/><path d="M136.13,351a1.29,1.29,0,0,1-1.15,0l-6.55-3.79a.35.35,0,0,1,0-.66l8.32-4.8a1.27,1.27,0,0,1,1.14,0l6.56,3.78a.36.36,0,0,1,0,.67Z" transform="translate(-121.64 -325.69)" style="fill:gray"/><path d="M127.53,343.31v3.63a.43.43,0,0,0,.26.36l7.08,4.09a1.36,1.36,0,0,0,1.24,0l9-5.19a.45.45,0,0,0,.26-.36v-3.65Z" transform="translate(-121.64 -325.69)" style="fill:#dae5f8"/><path d="M136.11,342.77v8.62l9-5.19a.45.45,0,0,0,.26-.36v-3.65Z" transform="translate(-121.64 -325.69)" style="fill:#b4caed"/><path d="M136.11,347.76a1.42,1.42,0,0,1-1.24,0l-7.08-4.09c-.35-.2-.35-.52,0-.72l9-5.19a1.42,1.42,0,0,1,1.24,0l7.08,4.09a.38.38,0,0,1,0,.72Z" transform="translate(-121.64 -325.69)" style="fill:#fff"/><path d="M128.19,342v1.31a.4.4,0,0,0,.24.33l6.55,3.79a1.29,1.29,0,0,0,1.15,0l8.32-4.8a.43.43,0,0,0,.23-.34V341Z" transform="translate(-121.64 -325.69)" style="fill:#5a87c4"/><polygon points="10.7 18.87 10.7 20.18 13.35 21.71 13.35 20.47 10.7 18.87" style="fill:#9de368"/><path d="M136.13,346.09a1.29,1.29,0,0,1-1.15,0l-6.55-3.78c-.32-.18-.32-.48,0-.67l8.32-4.8a1.27,1.27,0,0,1,1.14,0l6.56,3.79a.35.35,0,0,1,0,.66Z" transform="translate(-121.64 -325.69)" style="fill:gray"/><path d="M127.53,338.38V342a.43.43,0,0,0,.26.36l7.08,4.08a1.36,1.36,0,0,0,1.24,0l9-5.18a.45.45,0,0,0,.26-.36v-3.65Z" transform="translate(-121.64 -325.69)" style="fill:#dae5f8"/><path d="M136.11,337.85v8.61l9-5.18a.45.45,0,0,0,.26-.36v-3.65Z" transform="translate(-121.64 -325.69)" style="fill:#b4caed"/><path d="M136.11,342.83a1.36,1.36,0,0,1-1.24,0l-7.08-4.09c-.35-.2-.35-.52,0-.72l9-5.18a1.36,1.36,0,0,1,1.24,0l7.08,4.09c.34.19.34.51,0,.71Z" transform="translate(-121.64 -325.69)" style="fill:#fff"/><path d="M128.19,337.05v1.31a.4.4,0,0,0,.24.33l6.55,3.78a1.23,1.23,0,0,0,1.15,0l8.32-4.8a.41.41,0,0,0,.23-.33V336Z" transform="translate(-121.64 -325.69)" style="fill:#5a87c4"/><polygon points="10.7 14.1 10.7 15.25 13.35 16.78 13.35 15.51 10.7 14.1" style="fill:#9de368"/><path d="M136.13,341.16a1.29,1.29,0,0,1-1.15,0l-6.55-3.78c-.32-.18-.32-.48,0-.67l8.32-4.8a1.27,1.27,0,0,1,1.14,0l6.56,3.79a.35.35,0,0,1,0,.66Z" transform="translate(-121.64 -325.69)" style="fill:gray"/><path d="M127.53,331.38v5.71a.4.4,0,0,0,.26.35l7.08,4.09a1.36,1.36,0,0,0,1.24,0l9-5.18a.45.45,0,0,0,.26-.36v-5.72Z" transform="translate(-121.64 -325.69)" style="fill:#dae5f8"/><path d="M136.11,330.85v10.68l9-5.18a.45.45,0,0,0,.26-.36v-5.72Z" transform="translate(-121.64 -325.69)" style="fill:#b4caed"/><path d="M136.11,335.83a1.36,1.36,0,0,1-1.24,0l-7.08-4.09a.37.37,0,0,1,0-.71l9-5.19a1.36,1.36,0,0,1,1.24,0l7.08,4.09a.37.37,0,0,1,0,.71Z" transform="translate(-121.64 -325.69)" style="fill:#fff"/><path d="M128.58,333.42h.07l5.4,3.12a.21.21,0,0,1,.1.17v3.83a.06.06,0,0,1,0,.06h0l-.16.09,0-.17-5.27-3a.22.22,0,0,1-.09-.17v-3.67l0,0-.1-.16.16-.09Z" transform="translate(-121.64 -325.69)" style="fill:#659ec9"/><path d="M128.49,333.52l5.4,3.11a.25.25,0,0,1,.1.17v3.83a.06.06,0,0,1-.1.06l-5.4-3.12a.22.22,0,0,1-.1-.17v-3.83C128.4,333.51,128.44,333.48,128.49,333.52Z" transform="translate(-121.64 -325.69)" style="fill:#f5f5f5"/><polygon points="7.09 11.37 12.11 14.27 12.11 14.37 7 11.42 7 8.19 7.09 8.24 7.09 11.37" style="fill:#b4caed"/><polygon points="12.11 14.27 7.09 11.37 7.09 8.24 12.12 11.14 12.11 14.27" style="fill:#003552"/><polygon points="10.12 12.72 9.86 12.56 9.86 12.21 10.12 12.37 10.12 12.72" style="fill:#4fbeff"/><polygon points="10.55 12.96 10.28 12.81 10.28 12.46 10.55 12.61 10.55 12.96" style="fill:#4fbeff"/><polygon points="10.99 13.22 10.72 13.06 10.72 12.71 10.99 12.87 10.99 13.22" style="fill:#fff"/><polygon points="11.41 13.46 11.14 13.3 11.14 12.95 11.41 13.11 11.41 13.46" style="fill:#4fbeff"/><polygon points="9.2 12.18 7.92 11.45 7.92 9.78 9.2 10.52 9.2 12.18" style="fill:#4fbeff"/><polygon points="8.25 12.47 7 11.75 7 11.61 8.25 12.33 8.25 12.47" style="fill:#535359"/><polygon points="11.52 11.44 7.69 9.23 7.69 9.1 11.52 11.31 11.52 11.44" style="fill:#4fbeff"/><polygon points="11.49 12.05 9.86 11.11 9.86 10.98 11.49 11.92 11.49 12.05" style="fill:#4fbeff"/><polygon points="11.49 12.58 9.86 11.64 9.86 11.51 11.49 12.46 11.49 12.58" style="fill:#4fbeff"/><path d="M122.12,363.86c1,.6,3.41.21,5.29-.88s2.55-2.45,1.51-3.05-3.41-.2-5.28.88S121.08,363.26,122.12,363.86Z" transform="translate(-121.64 -325.69)" style="opacity:0.30000000000000004"/><path d="M131.67,339.24s.41.07.47.17a2.14,2.14,0,0,1,0,.6l-.37.17-.38-.44Z" transform="translate(-121.64 -325.69)" style="fill:#c7a496"/><path d="M129.19,342.83l.16,0c.4-.58,1.35-1.66,1.67-2.27a10.86,10.86,0,0,1,.08-1.22c0-.07.26-.11.26-.11s.57-.93.72-.81-.36.81-.36.81-.08.49.14.63.65-.51.79-.32-.37.7-.47.82-.46.43-.54.5c-.46.77-.87,2.6-1.36,3.18a1.3,1.3,0,0,1-1.25.5,5.86,5.86,0,0,1-.94-.79A10.84,10.84,0,0,0,129.19,342.83Z" transform="translate(-121.64 -325.69)" style="fill:#f0c6b4"/><path d="M126.53,341.09c.67-.61,1.45.29,1.64.51s.63.64,1,1-.83,1.66-1.28,1.17-1-.92-1.29-1.22S125.79,341.77,126.53,341.09Z" transform="translate(-121.64 -325.69)" style="fill:#fff"/><path d="M128.08,343.91s.45-.53-.42-1.9c-.14-.07,0,1.21,0,1.21Z" transform="translate(-121.64 -325.69)" style="fill:#b4caed"/><path d="M124.68,340.67a4.4,4.4,0,0,1,0,.45l.06.63.67,1,.91.36,1-.52-.25-1.06-.39-.92-1.16-.39A4.26,4.26,0,0,0,124.68,340.67Z" transform="translate(-121.64 -325.69)" style="fill:#c7a496"/><path d="M126.72,360.05c.7.39.81.51,1.71.94.21.11.3.8,0,.82a2.23,2.23,0,0,1-1-.12,3.38,3.38,0,0,1-1-.54,4.56,4.56,0,0,1-1.34-.37c-.15-.15,0-.87,0-.87S126.59,360,126.72,360.05Z" transform="translate(-121.64 -325.69)" style="fill:#fff"/><path d="M124,361.64a9.51,9.51,0,0,0,1,1.66c.06.09.14.46-.09.58a1.81,1.81,0,0,1-1.3.07c-.41-.2-.86-1.21-1-1.48a2.26,2.26,0,0,1-.05-.86S124,361.51,124,361.64Z" transform="translate(-121.64 -325.69)" style="fill:#fff"/><path d="M126.72,359.93c.7.39.81.51,1.71.94.21.1.3.79,0,.82a2.23,2.23,0,0,1-1-.12,3.38,3.38,0,0,1-1-.54,4.9,4.9,0,0,1-1.34-.37c-.15-.15,0-.87,0-.87S126.59,359.87,126.72,359.93Z" transform="translate(-121.64 -325.69)" style="fill:#9c5725"/><path d="M127.78,348.24c.38,3.94-.89,7.84-.89,11.77,0,.59-1.94.73-1.91-.19.11-3.31.28-10,.37-11s1.17-.7,1.17-.7S127.63,347.83,127.78,348.24Z" transform="translate(-121.64 -325.69)" style="fill:#003552"/><path d="M124,361.52a9.51,9.51,0,0,0,1,1.66c.06.08.14.46-.09.58a1.81,1.81,0,0,1-1.3.07c-.41-.2-.86-1.21-1-1.48a2.26,2.26,0,0,1-.05-.86S124,361.39,124,361.52Z" transform="translate(-121.64 -325.69)" style="fill:#9c5725"/><path d="M127.73,348.3a3.88,3.88,0,0,1-1.89,3.32s-1.58,6.76-1.47,9.92c0,.6-1.85.8-1.82-.12.12-3.31.36-10.2.45-11.13a4.68,4.68,0,0,1,.59-1.74S127.66,348.18,127.73,348.3Z" transform="translate(-121.64 -325.69)" style="fill:#00537d"/><path d="M127.78,347.31v.63a3.94,3.94,0,0,1-3.13,1.05c-.93-.1-1.1-.57-1.1-.57v-.53Z" transform="translate(-121.64 -325.69)" style="fill:#85413a"/><path d="M122.67,343a22.47,22.47,0,0,1,1.84-1.46c.21.18,1.36,1.06,1.36,1.06l.56,0,.19-.29a2.44,2.44,0,0,0,0-1.29c.09.05.44.18.44.18a3.46,3.46,0,0,1,1,3c-.16,1.53-.26,2.47-.24,2.87s-1.78,1.34-2.87,1.26-1.46-.46-1.51-.75a10.37,10.37,0,0,0-.3-1.81C123,345.47,122.88,343.46,122.67,343Z" transform="translate(-121.64 -325.69)" style="fill:#fff"/><path d="M123.9,346.89s.28,0,.28-.23A12.25,12.25,0,0,0,124,344l-.43.71v1.42Z" transform="translate(-121.64 -325.69)" style="fill:#b4caed"/><path d="M126.52,342.4a3.2,3.2,0,0,1,.91-.27,1.9,1.9,0,0,0-.57-.62l-.16.09A7.66,7.66,0,0,1,126.52,342.4Z" transform="translate(-121.64 -325.69)" style="opacity:0.30000000000000004"/><path d="M126.23,342.54a3.56,3.56,0,0,0-.75.54,1.75,1.75,0,0,1-1-1.57l1.19,1Z" transform="translate(-121.64 -325.69)" style="opacity:0.30000000000000004"/><path d="M126.44,342.79c.37,1,.29,5.93.29,5.93l.34.29.27-.49s.15-4.66-.78-5.8a.14.14,0,0,0-.13-.09A.36.36,0,0,1,126.44,342.79Z" transform="translate(-121.64 -325.69)" style="fill:#517fa2"/><path d="M127.34,342.08a2.46,2.46,0,0,0-.78-1,3.2,3.2,0,0,0,.26.57Z" transform="translate(-121.64 -325.69)" style="fill:#dae5f8"/><path d="M127.06,341.78c.16.05.28.3.28.3a4.19,4.19,0,0,0-.43-.19Z" transform="translate(-121.64 -325.69)" style="fill:#b4caed"/><path d="M126.56,342.34a.75.75,0,0,0,.15-.29s.07,0,.09,0a.71.71,0,0,1-.18.46l-.07-.09Z" transform="translate(-121.64 -325.69)" style="fill:#517fa2"/><path d="M126.47,342.48a2.48,2.48,0,0,0-.24-1.76,9.9,9.9,0,0,1,.83,1.06A3.74,3.74,0,0,0,126.47,342.48Z" transform="translate(-121.64 -325.69)" style="fill:#fff"/><path d="M126.15,342.59a3.11,3.11,0,0,1-.52-.28c-.1,0-.14.12-.12.14a1.3,1.3,0,0,0,.7.27l0-.09Z" transform="translate(-121.64 -325.69)" style="fill:#517fa2"/><path d="M125.84,342.44c.33.24.47.12.47.12A6.4,6.4,0,0,1,125,342a1.07,1.07,0,0,0,.61.44Z" transform="translate(-121.64 -325.69)" style="fill:#bcbec0"/><polygon points="4.51 16.9 4.93 16.65 4.99 16.83 4.93 17.03 4.8 17.1 4.58 17.04 4.51 16.9" style="fill:#295e87"/><path d="M124.45,341.41a1.48,1.48,0,0,0,.21-.42,4,4,0,0,0,1.18,1.45,1.6,1.6,0,0,0-.38.55A3.71,3.71,0,0,1,124.45,341.41Z" transform="translate(-121.64 -325.69)" style="fill:#fff"/><path d="M127.16,338.54a3.37,3.37,0,0,1,.23.9s.35.29.33.41-.28.22-.28.22,0,1.1-.1,1.2a1.67,1.67,0,0,1-1.26-.08c-.23-.09-.16-.42-.16-.42s-.36,0-.42-.26-.12-1-.12-1l1-1.08S127.12,338.52,127.16,338.54Z" transform="translate(-121.64 -325.69)" style="fill:#f0c6b4"/><path d="M125.46,340.91c.2-.15.09-.73.38-.92a.39.39,0,0,1,.5.09,2,2,0,0,1,.27-.63.61.61,0,0,0,.16-.51s.29-.37.59-.34a.62.62,0,0,0-.34-.3.62.62,0,0,1,.42,0,2.6,2.6,0,0,0-1.31-.64,2.43,2.43,0,0,0,.46-.08,3,3,0,0,0-1.35.14s-.09-.05,0-.2a1.31,1.31,0,0,0-.83.65,1.33,1.33,0,0,0-.4.26,1.36,1.36,0,0,0,.29,0,3,3,0,0,0-.18,1.26,1.7,1.7,0,0,0,.52,1C124.92,340.93,125.26,341.06,125.46,340.91Z" transform="translate(-121.64 -325.69)" style="fill:#f5a52e"/><path d="M127.26,349h0l.1.06.16-.29,2.25-1.3a.24.24,0,0,0,.1-.18v-1.84l.17-.3-.1-.06h0a.09.09,0,0,0-.07,0l-2.54,1.47a.22.22,0,0,0-.11.18v2.18a.12.12,0,0,0,0,.07h0Z" transform="translate(-121.64 -325.69)" style="fill:#003552"/><path d="M127.33,349V346.8a.22.22,0,0,1,.11-.18l2.54-1.47c.06,0,.1,0,.1.06v2.19a.22.22,0,0,1-.11.17L127.43,349C127.37,349.07,127.33,349.05,127.33,349Z" transform="translate(-121.64 -325.69)" style="fill:#fff"/><path d="M130,346.37a.37.37,0,0,1-.17.29c-.1.06-.17,0-.17-.1a.34.34,0,0,1,.17-.29C129.89,346.21,130,346.26,130,346.37Z" transform="translate(-121.64 -325.69)" style="fill:#b4caed"/><path d="M123.9,346.66v1a16.26,16.26,0,0,0,2,.17c.29-.09.63-.58.81-.67a1.56,1.56,0,0,1,.48-.11v.38l.51,0s.62-.41.72-.2-.46,1.26-.7,1.37a11.94,11.94,0,0,1-1.81.05,11.45,11.45,0,0,1-2.56.49c-.54,0-1-.69-1.07-.88s-.06-1.61-.06-1.61Z" transform="translate(-121.64 -325.69)" style="fill:#f0c6b4"/><path d="M123.9,347.69a3,3,0,0,0-1.07.58A1,1,0,0,1,123.9,347.69Z" transform="translate(-121.64 -325.69)" style="fill:#c7a496"/><path d="M123.09,342.89c.91,0,.91,1.27.91,1.56,0,.78,0,1.62,0,2.23s-1.92.52-1.91,0-.06-2.24,0-2.62S122.09,342.91,123.09,342.89Z" transform="translate(-121.64 -325.69)" style="fill:#fff"/></svg>