<svg id="Layer_1" data-name="Layer 1" xmlns="http://www.w3.org/2000/svg" viewBox="0 0 10.59 11.31"><polygon points="10.59 8.07 4.99 11.31 0 8.42 5.6 5.19 10.59 8.07" style="opacity:0.30000000000000004"/><polygon points="8.84 2.16 9.84 3.89 9.84 7.36 8.84 7.93 5.84 6.2 4.85 4.47 4.85 1.01 5.84 0.43 8.84 2.16" style="fill:#517fa2"/><polygon points="9.59 1.73 8.84 2.16 5.84 0.43 6.59 0 9.59 1.73" style="fill:#8dd5ff"/><rect x="121.49" y="331.25" width="0.86" height="2" transform="translate(-262.02 -223.94) rotate(-30)" style="fill:#4fbeff"/><polygon points="10.59 6.92 9.84 7.36 9.84 3.89 10.59 3.46 10.59 6.92" style="fill:#2b9fe3"/><polygon points="8.73 2.31 8.19 2.62 5.42 1.02 5.96 0.71 8.73 2.31" style="fill:#fff"/><polygon points="9.65 3.91 9.12 4.22 8.19 2.62 8.73 2.31 9.65 3.91" style="fill:#dae5f8"/><polygon points="9.65 7.12 9.12 7.43 9.12 4.22 9.65 3.91 9.65 7.12" style="fill:#b4caed"/><polygon points="5.42 1.02 8.19 2.62 9.12 4.22 9.12 7.43 8.19 7.96 5.42 6.36 4.49 4.76 4.49 1.56 5.42 1.02" style="fill:#b4d2e0"/><polygon points="5.31 4.21 6.31 5.93 6.31 9.4 5.31 9.97 2.31 8.24 1.31 6.51 1.31 3.05 2.31 2.47 5.31 4.21" style="fill:#517fa2"/><polygon points="8.28 2.49 5.31 4.21 2.31 2.47 5.28 0.76 8.28 2.49" style="fill:#fff"/><rect x="117.79" y="332.65" width="3.43" height="2" transform="translate(-262.84 -225.21) rotate(-29.95)" style="fill:#dae5f8"/><polygon points="9.28 7.68 6.31 9.4 6.31 5.93 9.28 4.22 9.28 7.68" style="fill:#b4caed"/><polygon points="5.2 4.35 4.66 4.67 1.88 3.06 2.42 2.75 5.2 4.35" style="fill:#fff"/><rect x="117.29" y="333.82" width="0.62" height="1.85" transform="translate(-263.74 -225.89) rotate(-29.98)" style="fill:#dae5f8"/><polygon points="6.12 9.16 5.58 9.47 5.58 6.27 6.12 5.96 6.12 9.16" style="fill:#b4caed"/><polygon points="4.66 4.67 5.58 6.27 5.58 9.47 4.66 10 1.88 8.4 0.96 6.8 0.96 3.6 1.88 3.06 4.66 4.67" style="fill:#b4d2e0"/><polygon points="4 4.96 5 6.69 5 10.15 4 10.73 1 9 0 7.27 0 3.81 1 3.23 4 4.96" style="fill:#517fa2"/><polygon points="1.14 6.9 1.83 8.1 3.92 9.31 3.49 9.55 1.41 8.35 0.71 7.15 0.71 4.75 1.14 4.5 1.14 6.9" style="fill:#8dd5ff"/><polygon points="1.14 6.9 0.71 7.15 0.71 4.75 1.14 4.5 1.14 6.9" style="fill:#2b9fe3"/><rect x="113.24" y="336.37" width="0.49" height="1.38" transform="translate(-267.13 -225.72) rotate(-30.39)" style="fill:#4fbeff"/><polygon points="3.49 5.55 4.18 6.75 4.18 9.15 3.92 9.31 1.83 8.1 1.14 6.9 1.14 4.5 1.41 4.35 3.49 5.55" style="fill:#b4caed"/><polygon points="4.74 4.53 4 4.96 1 3.23 1.74 2.8 4.74 4.53" style="fill:#8dd5ff"/><rect x="116.65" y="334.05" width="0.86" height="1.99" transform="translate(-264.61 -225.35) rotate(-30.14)" style="fill:#4fbeff"/><polygon points="5.74 9.72 5 10.15 5 6.69 5.74 6.26 5.74 9.72" style="fill:#2b9fe3"/><polygon points="7.32 6.49 6.45 6.99 6.45 6.06 7.32 5.55 7.32 6.49" style="fill:#fff"/><polygon points="7.21 5.82 6.55 6.2 6.55 6.12 7.21 5.73 7.21 5.82" style="fill:#b4d2e0"/><polygon points="7.21 6.05 6.55 6.43 6.55 6.34 7.21 5.96 7.21 6.05" style="fill:#b4d2e0"/><polygon points="7.21 6.28 6.55 6.66 6.55 6.58 7.21 6.19 7.21 6.28" style="fill:#b4d2e0"/><polygon points="6.93 6.59 6.55 6.81 6.55 6.73 6.93 6.51 6.93 6.59" style="fill:#b4d2e0"/><polygon points="7.32 7.1 6.45 7.61 6.45 7.16 7.32 6.66 7.32 7.1" style="fill:#fff"/><polygon points="7 7.13 6.98 7.14 6.98 6.93 7 6.92 7 7.13" style="fill:#303033"/><polygon points="7.21 7.01 7.19 7.02 7.19 6.81 7.21 6.8 7.21 7.01" style="fill:#303033"/><polygon points="6.71 7.29 6.69 7.31 6.69 7.1 6.71 7.09 6.71 7.29" style="fill:#303033"/><polygon points="6.66 7.33 6.63 7.34 6.63 7.13 6.66 7.12 6.66 7.33" style="fill:#303033"/><polygon points="7.28 6.96 7.25 6.99 7.25 6.78 7.28 6.76 7.28 6.96" style="fill:#303033"/><polygon points="7.06 7.09 7.02 7.11 7.02 6.91 7.06 6.89 7.06 7.09" style="fill:#303033"/><polygon points="6.92 7.17 6.91 7.18 6.91 6.97 6.92 6.96 6.92 7.17" style="fill:#303033"/><polygon points="7.13 7.05 7.12 7.06 7.12 6.85 7.13 6.84 7.13 7.05" style="fill:#303033"/><polygon points="6.89 7.19 6.88 7.2 6.88 6.99 6.89 6.99 6.89 7.19" style="fill:#303033"/><polygon points="6.85 7.21 6.85 7.21 6.85 7.01 6.85 7 6.85 7.21" style="fill:#303033"/><polygon points="7.16 7.04 7.15 7.04 7.15 6.83 7.16 6.83 7.16 7.04" style="fill:#303033"/><polygon points="6.75 7.27 6.74 7.27 6.74 7.07 6.75 7.06 6.75 7.27" style="fill:#303033"/><polygon points="6.6 7.36 6.6 7.36 6.6 7.15 6.6 7.15 6.6 7.36" style="fill:#303033"/><polygon points="6.96 7.15 6.94 7.16 6.94 6.95 6.96 6.94 6.96 7.15" style="fill:#303033"/><polygon points="7.09 7.07 7.08 7.08 7.08 6.87 7.09 6.87 7.09 7.07" style="fill:#303033"/><polygon points="6.82 7.23 6.79 7.25 6.79 7.04 6.82 7.02 6.82 7.23" style="fill:#303033"/><polygon points="6.55 7.38 6.52 7.4 6.52 7.2 6.55 7.18 6.55 7.38" style="fill:#303033"/></svg>