<svg id="Layer_1" data-name="Layer 1" xmlns="http://www.w3.org/2000/svg" viewBox="0 0 44.87 47.37"><polygon points="20.56 21.22 16.39 21.22 0 30.68 0 33.33 24.24 47.33 24.31 47.37 28.48 47.37 44.87 37.9 44.87 35.25 20.63 21.25 20.56 21.22" style="opacity:0.30000000000000004"/><polygon points="16.47 21.51 0.29 30.85 0.29 33.16 24.39 47.08 28.4 47.08 44.58 37.73 44.58 35.42 20.48 21.51 16.47 21.51" style="fill:#b4d2e0"/><polygon points="16.47 20.85 0.29 30.19 0.29 32.5 24.39 46.41 28.4 46.41 44.58 37.07 44.58 34.75 20.48 20.84 16.47 20.85" style="fill:#87aaba"/><rect x="41.19" y="34.34" width="3.39" height="2.74" style="fill:#5e7682"/><rect x="0.29" y="29.77" width="3.39" height="2.74" style="fill:#5e7682"/><rect x="24.39" y="43.68" width="4.01" height="2.73" style="fill:#5e7682"/><polygon points="35.24 41.91 37.55 40.58 37.55 38.22 35.24 39.55 35.24 41.91" style="fill:#5e7682"/><polygon points="32.38 40.25 35.24 41.9 35.24 39.55 32.38 37.9 32.38 40.25" style="fill:#708e9c"/><polygon points="16.47 18.29 0.29 27.63 0.29 29.95 24.39 43.86 28.4 43.86 44.58 34.51 44.58 32.2 20.48 18.29 16.47 18.29" style="fill:#b4d2e0"/><polygon points="16.47 17.63 0.29 26.97 0.29 29.28 24.39 43.19 28.4 43.19 44.58 33.85 44.58 31.54 20.48 17.63 16.47 17.63" style="fill:#e3f3ff"/><polygon points="16.47 17.63 0.29 26.97 0.29 29.28 1.38 29.91 5.39 29.91 21.57 20.57 21.57 18.25 20.48 17.63 16.47 17.63" style="fill:#b4d2e0"/><polygon points="16.47 16.96 0.29 26.3 0.29 28.62 1.38 29.25 5.39 29.25 21.57 19.9 21.57 17.59 20.48 16.96 16.47 16.96" style="fill:#fff"/><polygon points="24.14 22.05 7.96 31.4 7.96 33.71 9.04 34.34 13.06 34.34 29.24 24.99 29.24 22.68 28.16 22.05 24.14 22.05" style="fill:#b4d2e0"/><polygon points="24.14 21.39 7.96 30.73 7.96 33.05 9.04 33.67 13.06 33.67 29.24 24.33 29.24 22.02 28.16 21.39 24.14 21.39" style="fill:#fff"/><polygon points="31.81 26.48 15.63 35.82 15.63 38.14 16.72 38.77 20.73 38.77 36.91 29.42 36.91 27.11 35.82 26.48 31.81 26.48" style="fill:#b4d2e0"/><polygon points="31.81 25.82 15.63 35.16 15.63 37.48 16.72 38.1 20.73 38.1 36.91 28.76 36.91 26.44 35.82 25.82 31.81 25.82" style="fill:#fff"/><polygon points="39.48 30.91 23.3 40.25 23.3 42.57 24.39 43.19 28.4 43.19 44.58 33.85 44.58 31.54 43.49 30.91 39.48 30.91" style="fill:#b4d2e0"/><polygon points="39.48 30.25 23.3 39.59 23.3 41.9 24.39 42.53 28.4 42.53 44.58 33.19 44.58 30.87 43.49 30.25 39.48 30.25" style="fill:#fff"/><polygon points="26.97 21.64 18.48 26.54 10.92 22.17 19.4 17.27 26.97 21.64" style="opacity:0.30000000000000004"/><polygon points="24.32 12.68 25.84 15.3 25.84 20.55 24.32 21.42 19.78 18.8 18.27 16.18 18.27 10.93 19.78 10.05 24.32 12.68" style="fill:#050505"/><polygon points="25.45 12.02 24.32 12.68 19.78 10.05 20.91 9.4 25.45 12.02" style="fill:#ffec7a"/><rect x="166.21" y="388.47" width="1.31" height="3.03" transform="translate(-314.07 -240.36) rotate(-30.05)" style="fill:#f5d358"/><polygon points="26.97 19.89 25.84 20.55 25.84 15.3 26.97 14.64 26.97 19.89" style="fill:#f5a52e"/><polygon points="24.15 12.91 23.34 13.38 19.13 10.95 19.94 10.48 24.15 12.91" style="fill:#fff"/><polygon points="25.55 15.33 24.74 15.8 23.34 13.38 24.15 12.91 25.55 15.33" style="fill:#dae5f8"/><polygon points="25.55 20.19 24.74 20.66 24.74 15.8 25.55 15.33 25.55 20.19" style="fill:#b4caed"/><polygon points="19.13 10.95 23.34 13.38 24.74 15.8 24.74 20.66 23.34 21.47 19.13 19.04 17.73 16.62 17.73 11.76 19.13 10.95" style="fill:#b4d2e0"/><polygon points="18.96 15.77 20.48 18.39 20.48 23.64 18.96 24.52 14.42 21.89 12.9 19.27 12.9 14.02 14.42 13.15 18.96 15.77" style="fill:#517fa2"/><polygon points="23.47 13.17 18.96 15.77 14.42 13.15 18.92 10.54 23.47 13.17" style="fill:#fff"/><rect x="160.58" y="390.59" width="5.2" height="3.02" transform="translate(-315.29 -242.35) rotate(-29.97)" style="fill:#dae5f8"/><polygon points="24.98 21.04 20.48 23.64 20.48 18.39 24.98 15.79 24.98 21.04" style="fill:#b4caed"/><polygon points="18.8 16 17.98 16.47 13.77 14.04 14.59 13.57 18.8 16" style="fill:#fff"/><rect x="159.83" y="392.37" width="0.95" height="2.8" transform="translate(-316.41 -243.7) rotate(-29.95)" style="fill:#dae5f8"/><polygon points="20.2 23.29 19.38 23.76 19.38 18.9 20.2 18.43 20.2 23.29" style="fill:#b4caed"/><polygon points="17.98 16.47 19.38 18.9 19.38 23.76 17.98 24.56 13.77 22.14 12.37 19.71 12.37 14.85 13.77 14.04 17.98 16.47" style="fill:#b4d2e0"/><polygon points="16.98 16.92 18.49 19.54 18.49 24.79 16.98 25.66 12.43 23.04 10.92 20.42 10.92 15.17 12.43 14.3 16.98 16.92" style="fill:#f5a52e"/><polygon points="12.65 19.86 13.7 21.68 16.85 23.5 16.2 23.88 13.05 22.06 12 20.24 12 16.59 12.65 16.22 12.65 19.86" style="fill:#ffec7a"/><polygon points="12.65 19.86 12 20.24 12 16.59 12.65 16.22 12.65 19.86" style="fill:#f5a52e"/><rect x="153.69" y="396.23" width="0.75" height="2.1" transform="translate(-320.95 -243.9) rotate(-30.37)" style="fill:#f5d358"/><polygon points="16.2 17.81 17.25 19.63 17.25 23.27 16.85 23.5 13.7 21.68 12.65 19.86 12.65 16.22 13.05 15.99 16.2 17.81" style="fill:#b4caed"/><polygon points="18.11 16.27 16.98 16.92 12.43 14.3 13.56 13.64 18.11 16.27" style="fill:#ffec7a"/><rect x="158.86" y="392.71" width="1.31" height="3.03" transform="translate(-317.84 -242.61) rotate(-30.19)" style="fill:#f5d358"/><polygon points="19.62 24.14 18.49 24.79 18.49 19.54 19.62 18.89 19.62 24.14" style="fill:#f5a52e"/><polygon points="22.01 19.23 20.69 20 20.69 18.58 22.01 17.82 22.01 19.23" style="fill:#fff"/><polygon points="21.85 18.22 20.84 18.8 20.84 18.67 21.85 18.09 21.85 18.22" style="fill:#b4d2e0"/><polygon points="21.85 18.57 20.84 19.15 20.84 19.02 21.85 18.43 21.85 18.57" style="fill:#b4d2e0"/><polygon points="21.85 18.92 20.84 19.5 20.84 19.36 21.85 18.78 21.85 18.92" style="fill:#b4d2e0"/><polygon points="21.42 19.39 20.84 19.73 20.84 19.59 21.42 19.26 21.42 19.39" style="fill:#b4d2e0"/><polygon points="22.01 20.17 20.69 20.93 20.69 20.26 22.01 19.49 22.01 20.17" style="fill:#fff"/><polygon points="21.52 20.2 21.49 20.22 21.49 19.91 21.52 19.89 21.52 20.2" style="fill:#303033"/><polygon points="21.84 20.02 21.81 20.04 21.81 19.72 21.84 19.7 21.84 20.02" style="fill:#303033"/><polygon points="21.09 20.45 21.06 20.47 21.06 20.16 21.09 20.14 21.09 20.45" style="fill:#303033"/><polygon points="21.01 20.5 20.97 20.52 20.97 20.21 21.01 20.18 21.01 20.5" style="fill:#303033"/><polygon points="21.95 19.95 21.9 19.99 21.9 19.67 21.95 19.64 21.95 19.95" style="fill:#303033"/><polygon points="21.61 20.15 21.56 20.18 21.56 19.87 21.61 19.84 21.61 20.15" style="fill:#303033"/><polygon points="21.41 20.27 21.4 20.27 21.4 19.96 21.41 19.95 21.41 20.27" style="fill:#303033"/><polygon points="21.72 20.09 21.71 20.1 21.71 19.79 21.72 19.78 21.72 20.09" style="fill:#303033"/><polygon points="21.36 20.3 21.34 20.31 21.34 19.99 21.36 19.99 21.36 20.3" style="fill:#303033"/><polygon points="21.31 20.33 21.3 20.33 21.3 20.02 21.31 20.02 21.31 20.33" style="fill:#303033"/><polygon points="21.77 20.06 21.75 20.07 21.75 19.76 21.77 19.75 21.77 20.06" style="fill:#303033"/><polygon points="21.15 20.42 21.14 20.43 21.14 20.11 21.15 20.1 21.15 20.42" style="fill:#303033"/><polygon points="20.93 20.55 20.92 20.56 20.92 20.24 20.93 20.23 20.93 20.55" style="fill:#303033"/><polygon points="21.46 20.24 21.45 20.25 21.45 19.93 21.46 19.92 21.46 20.24" style="fill:#303033"/><polygon points="21.67 20.12 21.65 20.13 21.65 19.82 21.67 19.8 21.67 20.12" style="fill:#303033"/><polygon points="21.25 20.36 21.2 20.39 21.2 20.07 21.25 20.04 21.25 20.36" style="fill:#303033"/><polygon points="20.85 20.59 20.8 20.62 20.8 20.31 20.85 20.27 20.85 20.59" style="fill:#303033"/><polygon points="25.84 15.78 25.84 16.67 26.97 15.54 26.97 14.64 25.84 15.78" style="fill:#383838"/><polygon points="25.84 18.61 26.97 17.48 26.97 16.58 25.84 17.71 25.84 18.61" style="fill:#383838"/><polygon points="25.84 20.55 26.97 19.41 26.97 18.52 25.84 19.65 25.84 20.55" style="fill:#383838"/><polygon points="23.91 12.44 23.13 11.99 24.68 11.58 25.45 12.02 23.91 12.44" style="fill:#575757"/><polygon points="21.45 11.02 23 10.61 23.77 11.05 22.23 11.47 21.45 11.02" style="fill:#575757"/><polygon points="19.77 10.05 21.32 9.64 22.1 10.09 20.55 10.5 19.77 10.05" style="fill:#575757"/><polygon points="16.56 16.68 15.79 16.23 17.34 15.82 18.11 16.27 16.56 16.68" style="fill:#575757"/><polygon points="14.11 15.27 15.65 14.85 16.43 15.3 14.88 15.71 14.11 15.27" style="fill:#575757"/><polygon points="12.43 14.29 13.98 13.88 14.75 14.33 13.2 14.74 12.43 14.29" style="fill:#575757"/><polygon points="18.48 20.02 18.48 20.91 19.62 19.78 19.62 18.89 18.48 20.02" style="fill:#383838"/><polygon points="18.48 22.85 19.62 21.72 19.62 20.82 18.48 21.96 18.48 22.85" style="fill:#383838"/><polygon points="18.48 24.79 19.62 23.66 19.62 22.76 18.48 23.89 18.48 24.79" style="fill:#383838"/><polygon points="17.41 27.16 8.93 32.05 1.36 27.68 9.85 22.78 17.41 27.16" style="opacity:0.30000000000000004"/><polygon points="14.77 18.19 16.28 20.81 16.28 26.06 14.77 26.94 10.22 24.31 8.71 21.69 8.71 16.44 10.22 15.57 14.77 18.19" style="fill:#050505"/><polygon points="15.9 17.54 14.77 18.19 10.22 15.57 11.35 14.92 15.9 17.54" style="fill:#ffec7a"/><rect x="156.65" y="393.99" width="1.31" height="3.03" transform="translate(-317.74 -244.88) rotate(-29.97)" style="fill:#f5d358"/><polygon points="17.41 25.41 16.28 26.06 16.28 20.81 17.41 20.16 17.41 25.41" style="fill:#f5a52e"/><polygon points="14.6 18.43 13.78 18.89 9.57 16.46 10.39 15.99 14.6 18.43" style="fill:#fff"/><polygon points="16 20.85 15.18 21.32 13.78 18.89 14.6 18.43 16 20.85" style="fill:#dae5f8"/><polygon points="16 25.71 15.18 26.18 15.18 21.32 16 20.85 16 25.71" style="fill:#b4caed"/><polygon points="9.57 16.46 13.78 18.89 15.18 21.32 15.18 26.18 13.78 26.99 9.57 24.56 8.17 22.13 8.17 17.27 9.57 16.46" style="fill:#b4d2e0"/><polygon points="9.41 21.29 10.92 23.91 10.92 29.16 9.41 30.03 4.86 27.41 3.35 24.79 3.35 19.54 4.86 18.66 9.41 21.29" style="fill:#517fa2"/><polygon points="13.91 18.69 9.41 21.29 4.86 18.66 9.36 16.06 13.91 18.69" style="fill:#fff"/><rect x="151.03" y="396.11" width="5.2" height="3.03" transform="translate(-319.4 -246.3) rotate(-29.99)" style="fill:#dae5f8"/><polygon points="15.43 26.56 10.92 29.16 10.92 23.91 15.43 21.31 15.43 26.56" style="fill:#b4caed"/><polygon points="9.24 21.51 8.43 21.99 4.21 19.56 5.03 19.08 9.24 21.51" style="fill:#fff"/><rect x="150.27" y="397.89" width="0.94" height="2.8" transform="translate(-320.58 -247.56) rotate(-29.98)" style="fill:#dae5f8"/><polygon points="10.64 28.8 9.82 29.27 9.82 24.41 10.64 23.94 10.64 28.8" style="fill:#b4caed"/><polygon points="8.43 21.99 9.82 24.41 9.82 29.27 8.43 30.08 4.21 27.65 2.81 25.23 2.81 20.37 4.21 19.56 8.43 21.99" style="fill:#b4d2e0"/><polygon points="7.42 22.44 8.94 25.06 8.94 30.31 7.42 31.18 2.88 28.55 1.36 25.93 1.36 20.68 2.88 19.81 7.42 22.44" style="fill:#ffc654"/><polygon points="3.09 25.38 4.14 27.19 7.3 29.02 6.65 29.4 3.5 27.57 2.44 25.75 2.44 22.11 3.09 21.74 3.09 25.38" style="fill:#ffec7a"/><polygon points="3.09 25.38 2.44 25.75 2.44 22.11 3.09 21.74 3.09 25.38" style="fill:#f5a52e"/><rect x="144.13" y="401.75" width="0.75" height="2.1" transform="translate(-325.2 -247.79) rotate(-30.4)" style="fill:#f5d358"/><polygon points="6.65 23.32 7.7 25.15 7.7 28.79 7.3 29.02 4.14 27.19 3.09 25.38 3.09 21.74 3.5 21.5 6.65 23.32" style="fill:#b4caed"/><polygon points="8.55 21.78 7.42 22.44 2.88 19.81 4 19.16 8.55 21.78" style="fill:#ffec7a"/><rect x="149.3" y="398.23" width="1.31" height="3.03" transform="translate(-322.02 -246.54) rotate(-30.22)" style="fill:#f5d358"/><polygon points="10.06 29.66 8.94 30.31 8.94 25.06 10.06 24.4 10.06 29.66" style="fill:#f5a52e"/><polygon points="12.45 24.75 11.13 25.51 11.13 24.1 12.45 23.33 12.45 24.75" style="fill:#fff"/><polygon points="12.3 23.73 11.29 24.31 11.29 24.18 12.3 23.6 12.3 23.73" style="fill:#b4d2e0"/><polygon points="12.3 24.08 11.29 24.66 11.29 24.53 12.3 23.95 12.3 24.08" style="fill:#b4d2e0"/><polygon points="12.3 24.43 11.29 25.01 11.29 24.88 12.3 24.3 12.3 24.43" style="fill:#b4d2e0"/><polygon points="11.86 24.91 11.29 25.24 11.29 25.11 11.86 24.78 11.86 24.91" style="fill:#b4d2e0"/><polygon points="12.45 25.68 11.13 26.45 11.13 25.77 12.45 25.01 12.45 25.68" style="fill:#fff"/><polygon points="11.97 25.72 11.94 25.74 11.94 25.42 11.97 25.4 11.97 25.72" style="fill:#303033"/><polygon points="12.29 25.53 12.26 25.55 12.26 25.24 12.29 25.22 12.29 25.53" style="fill:#303033"/><polygon points="11.54 25.97 11.5 25.99 11.5 25.68 11.54 25.66 11.54 25.97" style="fill:#303033"/><polygon points="11.45 26.02 11.42 26.04 11.42 25.72 11.45 25.7 11.45 26.02" style="fill:#303033"/><polygon points="12.4 25.47 12.35 25.5 12.35 25.19 12.4 25.16 12.4 25.47" style="fill:#303033"/><polygon points="12.06 25.67 12.01 25.7 12.01 25.38 12.06 25.35 12.06 25.67" style="fill:#303033"/><polygon points="11.86 25.79 11.84 25.79 11.84 25.48 11.86 25.47 11.86 25.79" style="fill:#303033"/><polygon points="12.16 25.61 12.15 25.61 12.15 25.3 12.16 25.29 12.16 25.61" style="fill:#303033"/><polygon points="11.8 25.82 11.79 25.82 11.79 25.51 11.8 25.5 11.8 25.82" style="fill:#303033"/><polygon points="11.75 25.84 11.74 25.85 11.74 25.53 11.75 25.53 11.75 25.84" style="fill:#303033"/><polygon points="12.21 25.58 12.2 25.59 12.2 25.27 12.21 25.27 12.21 25.58" style="fill:#303033"/><polygon points="11.6 25.93 11.59 25.94 11.59 25.63 11.6 25.62 11.6 25.93" style="fill:#303033"/><polygon points="11.37 26.06 11.36 26.07 11.36 25.75 11.37 25.75 11.37 26.06" style="fill:#303033"/><polygon points="11.91 25.75 11.89 25.77 11.89 25.45 11.91 25.44 11.91 25.75" style="fill:#303033"/><polygon points="12.12 25.64 12.1 25.64 12.1 25.33 12.12 25.32 12.12 25.64" style="fill:#303033"/><polygon points="11.7 25.88 11.65 25.91 11.65 25.59 11.7 25.56 11.7 25.88" style="fill:#303033"/><polygon points="11.3 26.11 11.25 26.14 11.25 25.82 11.3 25.79 11.3 26.11" style="fill:#303033"/><polygon points="16.28 21.29 16.28 22.19 17.41 21.05 17.41 20.16 16.28 21.29" style="fill:#383838"/><polygon points="16.28 24.13 17.41 22.99 17.41 22.1 16.28 23.23 16.28 24.13" style="fill:#383838"/><polygon points="16.28 26.06 17.41 24.93 17.41 24.04 16.28 25.17 16.28 26.06" style="fill:#383838"/><polygon points="14.35 17.96 13.58 17.51 15.13 17.09 15.9 17.54 14.35 17.96" style="fill:#575757"/><polygon points="11.9 16.54 13.45 16.12 14.22 16.57 12.67 16.99 11.9 16.54" style="fill:#575757"/><polygon points="10.22 15.57 11.77 15.15 12.54 15.6 10.99 16.02 10.22 15.57" style="fill:#575757"/><polygon points="7.01 22.2 6.23 21.75 7.78 21.33 8.55 21.78 7.01 22.2" style="fill:#575757"/><polygon points="4.55 20.78 6.1 20.36 6.88 20.81 5.33 21.23 4.55 20.78" style="fill:#575757"/><polygon points="2.87 19.81 4.42 19.4 5.2 19.84 3.65 20.26 2.87 19.81" style="fill:#575757"/><polygon points="8.93 25.54 8.93 26.43 10.06 25.3 10.06 24.4 8.93 25.54" style="fill:#383838"/><polygon points="8.93 28.37 10.06 27.23 10.06 26.34 8.93 27.47 8.93 28.37" style="fill:#383838"/><polygon points="8.93 30.31 10.06 29.17 10.06 28.28 8.93 29.41 8.93 30.31" style="fill:#383838"/><polygon points="35.26 26.42 26.77 31.32 19.2 26.95 27.69 22.05 35.26 26.42" style="opacity:0.30000000000000004"/><polygon points="32.61 17.46 34.12 20.08 34.12 25.33 32.61 26.21 28.06 23.58 26.55 20.96 26.55 15.71 28.06 14.84 32.61 17.46" style="fill:#050505"/><polygon points="33.74 16.81 32.61 17.46 28.06 14.84 29.2 14.18 33.74 16.81" style="fill:#ffec7a"/><rect x="174.49" y="393.26" width="1.31" height="3.03" transform="translate(-315.42 -235.47) rotate(-30.06)" style="fill:#f5d358"/><polygon points="35.26 24.68 34.12 25.33 34.12 20.08 35.26 19.43 35.26 24.68" style="fill:#f5a52e"/><polygon points="32.44 17.69 31.62 18.16 27.41 15.73 28.23 15.26 32.44 17.69" style="fill:#fff"/><polygon points="33.84 20.11 33.02 20.59 31.62 18.16 32.44 17.69 33.84 20.11" style="fill:#dae5f8"/><polygon points="33.84 24.98 33.02 25.45 33.02 20.59 33.84 20.11 33.84 24.98" style="fill:#b4caed"/><polygon points="27.41 15.73 31.62 18.16 33.02 20.59 33.02 25.45 31.62 26.26 27.41 23.82 26.01 21.4 26.02 16.54 27.41 15.73" style="fill:#b4d2e0"/><polygon points="27.25 20.56 28.77 23.18 28.77 28.43 27.25 29.3 22.7 26.67 21.19 24.06 21.19 18.8 22.7 17.93 27.25 20.56" style="fill:#517fa2"/><polygon points="31.75 17.96 27.25 20.56 22.7 17.93 27.21 15.33 31.75 17.96" style="fill:#fff"/><rect x="168.87" y="395.38" width="5.2" height="3.03" transform="translate(-316.66 -237.45) rotate(-29.99)" style="fill:#dae5f8"/><polygon points="33.27 25.83 28.77 28.43 28.77 23.18 33.27 20.58 33.27 25.83" style="fill:#b4caed"/><polygon points="27.08 20.78 26.27 21.26 22.06 18.83 22.87 18.35 27.08 20.78" style="fill:#fff"/><rect x="168.11" y="397.16" width="0.95" height="2.8" transform="translate(-317.57 -239.07) rotate(-29.93)" style="fill:#dae5f8"/><polygon points="28.48 28.07 27.66 28.54 27.66 23.68 28.48 23.21 28.48 28.07" style="fill:#b4caed"/><polygon points="26.27 21.26 27.66 23.68 27.66 28.54 26.27 29.35 22.06 26.92 20.66 24.49 20.66 19.64 22.06 18.83 26.27 21.26" style="fill:#b4d2e0"/><polygon points="25.26 21.7 26.78 24.33 26.78 29.57 25.26 30.45 20.72 27.82 19.2 25.2 19.2 19.95 20.72 19.08 25.26 21.7" style="fill:#f5a52e"/><polygon points="20.93 24.65 21.98 26.46 25.14 28.29 24.49 28.66 21.34 26.84 20.29 25.02 20.29 21.38 20.93 21.01 20.93 24.65" style="fill:#ffec7a"/><polygon points="20.93 24.65 20.29 25.02 20.29 21.38 20.93 21.01 20.93 24.65" style="fill:#f5a52e"/><polygon points="21.98 26.46 21.34 26.84 20.29 25.02 20.93 24.65 21.98 26.46" style="fill:#f5d358"/><polygon points="24.49 22.59 25.54 24.41 25.54 28.06 25.14 28.29 21.98 26.46 20.93 24.65 20.93 21.01 21.34 20.77 24.49 22.59" style="fill:#b4caed"/><polygon points="26.39 21.05 25.26 21.7 20.72 19.08 21.85 18.43 26.39 21.05" style="fill:#ffec7a"/><rect x="167.15" y="397.5" width="1.31" height="3.03" transform="translate(-319.01 -237.95) rotate(-30.17)" style="fill:#f5d358"/><polygon points="27.91 28.92 26.78 29.57 26.78 24.33 27.91 23.67 27.91 28.92" style="fill:#f5a52e"/><polygon points="30.3 24.02 28.98 24.78 28.98 23.36 30.3 22.6 30.3 24.02" style="fill:#fff"/><polygon points="30.14 23 29.13 23.58 29.13 23.45 30.14 22.87 30.14 23" style="fill:#b4d2e0"/><polygon points="30.14 23.35 29.13 23.93 29.13 23.8 30.14 23.22 30.14 23.35" style="fill:#b4d2e0"/><polygon points="30.14 23.7 29.13 24.28 29.13 24.15 30.14 23.57 30.14 23.7" style="fill:#b4d2e0"/><polygon points="29.7 24.18 29.13 24.51 29.13 24.38 29.7 24.05 29.7 24.18" style="fill:#b4d2e0"/><polygon points="30.3 24.95 28.98 25.72 28.98 25.04 30.3 24.27 30.3 24.95" style="fill:#fff"/><polygon points="29.81 24.99 29.78 25 29.78 24.69 29.81 24.67 29.81 24.99" style="fill:#303033"/><polygon points="30.13 24.8 30.1 24.82 30.1 24.51 30.13 24.49 30.13 24.8" style="fill:#303033"/><polygon points="29.38 25.24 29.34 25.26 29.34 24.94 29.38 24.93 29.38 25.24" style="fill:#303033"/><polygon points="29.29 25.29 29.26 25.31 29.26 24.99 29.29 24.97 29.29 25.29" style="fill:#303033"/><polygon points="30.24 24.74 30.19 24.77 30.19 24.45 30.24 24.43 30.24 24.74" style="fill:#303033"/><polygon points="29.9 24.94 29.85 24.96 29.85 24.65 29.9 24.62 29.9 24.94" style="fill:#303033"/><polygon points="29.7 25.05 29.68 25.06 29.68 24.75 29.7 24.74 29.7 25.05" style="fill:#303033"/><polygon points="30.01 24.88 29.99 24.88 29.99 24.57 30.01 24.56 30.01 24.88" style="fill:#303033"/><polygon points="29.64 25.09 29.63 25.09 29.63 24.78 29.64 24.77 29.64 25.09" style="fill:#303033"/><polygon points="29.59 25.11 29.58 25.12 29.58 24.8 29.59 24.8 29.59 25.11" style="fill:#303033"/><polygon points="30.05 24.85 30.04 24.86 30.04 24.54 30.05 24.53 30.05 24.85" style="fill:#303033"/><polygon points="29.44 25.2 29.43 25.21 29.43 24.89 29.44 24.89 29.44 25.2" style="fill:#303033"/><polygon points="29.22 25.33 29.2 25.34 29.2 25.02 29.22 25.02 29.22 25.33" style="fill:#303033"/><polygon points="29.75 25.02 29.73 25.04 29.73 24.72 29.75 24.71 29.75 25.02" style="fill:#303033"/><polygon points="29.96 24.9 29.94 24.91 29.94 24.6 29.96 24.59 29.96 24.9" style="fill:#303033"/><polygon points="29.54 25.15 29.49 25.17 29.49 24.86 29.54 24.83 29.54 25.15" style="fill:#303033"/><polygon points="29.14 25.37 29.09 25.4 29.09 25.09 29.14 25.06 29.14 25.37" style="fill:#303033"/><polygon points="34.12 20.56 34.12 21.46 35.26 20.32 35.26 19.43 34.12 20.56" style="fill:#383838"/><polygon points="34.12 23.39 35.26 22.26 35.26 21.36 34.12 22.5 34.12 23.39" style="fill:#383838"/><polygon points="34.12 25.33 35.26 24.2 35.26 23.3 34.12 24.44 34.12 25.33" style="fill:#383838"/><polygon points="32.19 17.22 31.42 16.77 32.97 16.36 33.74 16.81 32.19 17.22" style="fill:#575757"/><polygon points="29.74 15.81 31.29 15.39 32.06 15.84 30.52 16.26 29.74 15.81" style="fill:#575757"/><polygon points="28.06 14.84 29.61 14.42 30.38 14.87 28.84 15.29 28.06 14.84" style="fill:#575757"/><polygon points="24.85 21.46 24.07 21.02 25.62 20.6 26.39 21.05 24.85 21.46" style="fill:#575757"/><polygon points="22.39 20.05 23.94 19.63 24.72 20.08 23.17 20.5 22.39 20.05" style="fill:#575757"/><polygon points="20.71 19.08 22.26 18.66 23.04 19.11 21.49 19.53 20.71 19.08" style="fill:#575757"/><polygon points="26.77 24.8 26.77 25.7 27.91 24.57 27.91 23.67 26.77 24.8" style="fill:#383838"/><polygon points="26.77 27.64 27.91 26.5 27.91 25.61 26.77 26.74 26.77 27.64" style="fill:#383838"/><polygon points="26.77 29.57 27.91 28.44 27.91 27.55 26.77 28.68 26.77 29.57" style="fill:#383838"/><polygon points="25.7 31.94 17.22 36.84 9.65 32.47 18.13 27.57 25.7 31.94" style="opacity:0.30000000000000004"/><polygon points="23.06 22.98 24.57 25.6 24.57 30.85 23.06 31.73 18.51 29.1 17 26.48 17 21.23 18.51 20.35 23.06 22.98" style="fill:#050505"/><polygon points="24.19 22.32 23.06 22.98 18.51 20.35 19.64 19.7 24.19 22.32" style="fill:#ffec7a"/><rect x="164.94" y="398.77" width="1.31" height="3.03" transform="translate(-319.02 -240.1) rotate(-29.97)" style="fill:#f5d358"/><polygon points="25.7 30.2 24.57 30.85 24.57 25.6 25.7 24.95 25.7 30.2" style="fill:#f5a52e"/><polygon points="22.89 23.21 22.07 23.68 17.86 21.25 18.68 20.78 22.89 23.21" style="fill:#fff"/><polygon points="24.29 25.63 23.47 26.1 22.07 23.68 22.89 23.21 24.29 25.63" style="fill:#dae5f8"/><polygon points="24.29 30.49 23.47 30.96 23.47 26.1 24.29 25.63 24.29 30.49" style="fill:#b4caed"/><polygon points="17.86 21.25 22.07 23.68 23.47 26.1 23.47 30.96 22.07 31.77 17.86 29.34 16.46 26.92 16.46 22.06 17.86 21.25" style="fill:#b4d2e0"/><polygon points="17.7 26.07 19.21 28.69 19.21 33.94 17.7 34.81 13.15 32.19 11.64 29.57 11.64 24.32 13.15 23.45 17.7 26.07" style="fill:#517fa2"/><polygon points="22.2 23.48 17.7 26.07 13.15 23.45 17.65 20.85 22.2 23.48" style="fill:#fff"/><rect x="159.32" y="400.9" width="5.2" height="3.03" transform="translate(-320.68 -241.51) rotate(-29.99)" style="fill:#dae5f8"/><polygon points="23.71 31.35 19.21 33.94 19.21 28.69 23.71 26.09 23.71 31.35" style="fill:#b4caed"/><polygon points="17.53 26.3 16.71 26.77 12.5 24.34 13.32 23.87 17.53 26.3" style="fill:#fff"/><rect x="158.56" y="402.67" width="0.95" height="2.8" transform="translate(-321.89 -242.74) rotate(-29.99)" style="fill:#dae5f8"/><polygon points="18.93 33.59 18.11 34.06 18.11 29.2 18.93 28.73 18.93 33.59" style="fill:#b4caed"/><polygon points="16.71 26.77 18.11 29.2 18.11 34.06 16.71 34.86 12.5 32.44 11.1 30.01 11.1 25.15 12.5 24.34 16.71 26.77" style="fill:#b4d2e0"/><polygon points="15.71 27.22 17.23 29.84 17.23 35.09 15.71 35.97 11.16 33.34 9.65 30.72 9.65 25.47 11.16 24.6 15.71 27.22" style="fill:#ffc654"/><polygon points="11.38 30.16 12.43 31.98 15.59 33.81 14.94 34.18 11.78 32.36 10.73 30.54 10.73 26.89 11.38 26.52 11.38 30.16" style="fill:#ffec7a"/><polygon points="11.38 30.16 10.73 30.54 10.73 26.89 11.38 26.52 11.38 30.16" style="fill:#f5a52e"/><rect x="152.42" y="406.54" width="0.75" height="2.1" transform="matrix(0.86, -0.51, 0.51, 0.86, -326.33, -243.12)" style="fill:#f5d358"/><polygon points="14.94 28.11 15.99 29.93 15.99 33.57 15.59 33.81 12.43 31.98 11.38 30.16 11.38 26.52 11.78 26.29 14.94 28.11" style="fill:#b4caed"/><polygon points="16.84 26.57 15.71 27.22 11.16 24.6 12.29 23.94 16.84 26.57" style="fill:#ffec7a"/><rect x="157.59" y="403.01" width="1.31" height="3.03" transform="translate(-322.94 -242.17) rotate(-30.14)" style="fill:#f5d358"/><polygon points="18.35 34.44 17.23 35.09 17.23 29.84 18.35 29.19 18.35 34.44" style="fill:#f5a52e"/><polygon points="20.74 29.54 19.42 30.3 19.42 28.88 20.74 28.12 20.74 29.54" style="fill:#fff"/><polygon points="20.58 28.52 19.58 29.1 19.58 28.97 20.58 28.39 20.58 28.52" style="fill:#b4d2e0"/><polygon points="20.58 28.87 19.58 29.45 19.58 29.32 20.58 28.73 20.58 28.87" style="fill:#b4d2e0"/><polygon points="20.58 29.22 19.58 29.8 19.58 29.67 20.58 29.09 20.58 29.22" style="fill:#b4d2e0"/><polygon points="20.15 29.7 19.58 30.03 19.58 29.9 20.15 29.57 20.15 29.7" style="fill:#b4d2e0"/><polygon points="20.74 30.47 19.42 31.23 19.42 30.56 20.74 29.79 20.74 30.47" style="fill:#fff"/><polygon points="20.26 30.5 20.23 30.52 20.23 30.21 20.26 30.19 20.26 30.5" style="fill:#303033"/><polygon points="20.58 30.32 20.55 30.34 20.55 30.02 20.58 30 20.58 30.32" style="fill:#303033"/><polygon points="19.82 30.76 19.79 30.77 19.79 30.46 19.82 30.44 19.82 30.76" style="fill:#303033"/><polygon points="19.74 30.8 19.71 30.82 19.71 30.51 19.74 30.48 19.74 30.8" style="fill:#303033"/><polygon points="20.69 30.25 20.63 30.29 20.63 29.97 20.69 29.94 20.69 30.25" style="fill:#303033"/><polygon points="20.35 30.45 20.3 30.48 20.3 30.17 20.35 30.14 20.35 30.45" style="fill:#303033"/><polygon points="20.14 30.57 20.13 30.58 20.13 30.26 20.14 30.25 20.14 30.57" style="fill:#303033"/><polygon points="20.45 30.39 20.44 30.4 20.44 30.09 20.45 30.08 20.45 30.39" style="fill:#303033"/><polygon points="20.09 30.6 20.07 30.61 20.07 30.29 20.09 30.29 20.09 30.6" style="fill:#303033"/><polygon points="20.04 30.63 20.03 30.63 20.03 30.32 20.04 30.32 20.04 30.63" style="fill:#303033"/><polygon points="20.5 30.36 20.48 30.37 20.48 30.06 20.5 30.05 20.5 30.36" style="fill:#303033"/><polygon points="19.89 30.72 19.87 30.73 19.87 30.41 19.89 30.4 19.89 30.72" style="fill:#303033"/><polygon points="19.66 30.85 19.65 30.86 19.65 30.54 19.66 30.53 19.66 30.85" style="fill:#303033"/><polygon points="20.19 30.54 20.18 30.55 20.18 30.24 20.19 30.23 20.19 30.54" style="fill:#303033"/><polygon points="20.4 30.42 20.39 30.43 20.39 30.12 20.4 30.11 20.4 30.42" style="fill:#303033"/><polygon points="19.99 30.66 19.94 30.69 19.94 30.38 19.99 30.34 19.99 30.66" style="fill:#303033"/><polygon points="19.59 30.89 19.54 30.92 19.54 30.61 19.59 30.58 19.59 30.89" style="fill:#303033"/><polygon points="24.57 26.08 24.57 26.97 25.7 25.84 25.7 24.95 24.57 26.08" style="fill:#383838"/><polygon points="24.57 28.91 25.7 27.78 25.7 26.88 24.57 28.02 24.57 28.91" style="fill:#383838"/><polygon points="24.57 30.85 25.7 29.72 25.7 28.82 24.57 29.95 24.57 30.85" style="fill:#383838"/><polygon points="22.64 22.74 21.86 22.29 23.41 21.88 24.19 22.32 22.64 22.74" style="fill:#575757"/><polygon points="20.18 21.32 21.73 20.91 22.51 21.36 20.96 21.77 20.18 21.32" style="fill:#575757"/><polygon points="18.5 20.36 20.05 19.94 20.83 20.39 19.28 20.8 18.5 20.36" style="fill:#575757"/><polygon points="15.29 26.98 14.52 26.53 16.07 26.12 16.84 26.57 15.29 26.98" style="fill:#575757"/><polygon points="12.84 25.57 14.39 25.15 15.16 25.6 13.62 26.01 12.84 25.57" style="fill:#575757"/><polygon points="11.16 24.59 12.71 24.18 13.48 24.63 11.94 25.04 11.16 24.59" style="fill:#575757"/><polygon points="17.22 30.32 17.22 31.21 18.35 30.08 18.35 29.19 17.22 30.32" style="fill:#383838"/><polygon points="17.22 33.15 18.35 32.02 18.35 31.12 17.22 32.26 17.22 33.15" style="fill:#383838"/><polygon points="17.22 35.09 18.35 33.96 18.35 33.06 17.22 34.19 17.22 35.09" style="fill:#383838"/><polygon points="43.54 31.2 35.05 36.1 27.49 31.73 35.97 26.83 43.54 31.2" style="opacity:0.30000000000000004"/><polygon points="40.89 22.24 42.4 24.86 42.4 30.11 40.89 30.99 36.34 28.36 34.83 25.74 34.83 20.49 36.34 19.62 40.89 22.24" style="fill:#050505"/><polygon points="42.02 21.59 40.89 22.24 36.34 19.62 37.48 18.96 42.02 21.59" style="fill:#ffec7a"/><rect x="182.77" y="398.04" width="1.31" height="3.03" transform="translate(-316.61 -230.8) rotate(-30.04)" style="fill:#f5d358"/><polygon points="43.54 29.46 42.4 30.11 42.4 24.86 43.54 24.21 43.54 29.46" style="fill:#f5a52e"/><polygon points="40.72 22.47 39.91 22.94 35.7 20.51 36.51 20.04 40.72 22.47" style="fill:#fff"/><polygon points="42.12 24.9 41.31 25.36 39.91 22.94 40.72 22.47 42.12 24.9" style="fill:#dae5f8"/><polygon points="42.12 29.76 41.31 30.23 41.31 25.36 42.12 24.9 42.12 29.76" style="fill:#b4caed"/><polygon points="35.7 20.51 39.91 22.94 41.31 25.36 41.31 30.23 39.91 31.04 35.7 28.61 34.29 26.18 34.3 21.32 35.7 20.51" style="fill:#b4d2e0"/><polygon points="35.53 25.34 37.05 27.96 37.05 33.21 35.53 34.08 30.99 31.45 29.47 28.84 29.47 23.59 30.99 22.71 35.53 25.34" style="fill:#517fa2"/><polygon points="40.03 22.74 35.53 25.34 30.99 22.71 35.49 20.11 40.03 22.74" style="fill:#fff"/><rect x="177.15" y="400.16" width="5.2" height="3.03" transform="translate(-317.94 -232.68) rotate(-29.99)" style="fill:#dae5f8"/><polygon points="41.55 30.61 37.05 33.21 37.05 27.96 41.55 25.36 41.55 30.61" style="fill:#b4caed"/><polygon points="35.36 25.56 34.55 26.04 30.34 23.61 31.15 23.13 35.36 25.56" style="fill:#fff"/><polygon points="36.77 27.99 35.95 28.46 34.55 26.04 35.36 25.56 36.77 27.99" style="fill:#dae5f8"/><polygon points="36.77 32.85 35.95 33.32 35.95 28.46 36.77 27.99 36.77 32.85" style="fill:#b4caed"/><polygon points="34.55 26.04 35.95 28.46 35.95 33.32 34.55 34.13 30.34 31.7 28.94 29.27 28.94 24.42 30.34 23.61 34.55 26.04" style="fill:#b4d2e0"/><polygon points="33.55 26.48 35.06 29.11 35.06 34.35 33.55 35.23 29 32.6 27.49 29.98 27.49 24.73 29 23.86 33.55 26.48" style="fill:#f5a52e"/><polygon points="29.22 29.43 30.27 31.25 33.42 33.07 32.77 33.44 29.62 31.62 28.57 29.8 28.57 26.16 29.22 25.79 29.22 29.43" style="fill:#ffec7a"/><polygon points="29.22 29.43 28.57 29.8 28.57 26.16 29.22 25.79 29.22 29.43" style="fill:#f5a52e"/><rect x="170.26" y="405.8" width="0.75" height="2.1" transform="translate(-322.72 -235.26) rotate(-30.2)" style="fill:#f5d358"/><polygon points="32.77 27.37 33.82 29.19 33.82 32.84 33.42 33.07 30.27 31.25 29.22 29.43 29.22 25.79 29.62 25.55 32.77 27.37" style="fill:#b4caed"/><polygon points="34.68 25.83 33.55 26.48 29 23.86 30.13 23.21 34.68 25.83" style="fill:#ffec7a"/><rect x="175.43" y="402.28" width="1.31" height="3.03" transform="translate(-320.4 -232.98) rotate(-30.19)" style="fill:#f5d358"/><polygon points="36.19 33.7 35.06 34.35 35.06 29.11 36.19 28.45 36.19 33.7" style="fill:#f5a52e"/><polygon points="38.58 28.8 37.26 29.56 37.26 28.15 38.58 27.38 38.58 28.8" style="fill:#fff"/><polygon points="38.42 27.78 37.41 28.36 37.41 28.23 38.42 27.65 38.42 27.78" style="fill:#b4d2e0"/><polygon points="38.42 28.13 37.41 28.71 37.41 28.58 38.42 28 38.42 28.13" style="fill:#b4d2e0"/><polygon points="38.42 28.48 37.41 29.06 37.41 28.93 38.42 28.35 38.42 28.48" style="fill:#b4d2e0"/><polygon points="37.98 28.96 37.41 29.29 37.41 29.16 37.98 28.83 37.98 28.96" style="fill:#b4d2e0"/><polygon points="38.58 29.73 37.26 30.5 37.26 29.82 38.58 29.06 38.58 29.73" style="fill:#fff"/><polygon points="38.09 29.77 38.06 29.79 38.06 29.47 38.09 29.45 38.09 29.77" style="fill:#303033"/><polygon points="38.41 29.58 38.38 29.6 38.38 29.29 38.41 29.27 38.41 29.58" style="fill:#303033"/><polygon points="37.66 30.02 37.63 30.04 37.63 29.72 37.66 29.71 37.66 30.02" style="fill:#303033"/><polygon points="37.58 30.07 37.54 30.09 37.54 29.77 37.58 29.75 37.58 30.07" style="fill:#303033"/><polygon points="38.52 29.52 38.47 29.55 38.47 29.24 38.52 29.21 38.52 29.52" style="fill:#303033"/><polygon points="38.18 29.72 38.13 29.75 38.13 29.43 38.18 29.4 38.18 29.72" style="fill:#303033"/><polygon points="37.98 29.84 37.97 29.84 37.97 29.53 37.98 29.52 37.98 29.84" style="fill:#303033"/><polygon points="38.29 29.66 38.27 29.66 38.27 29.35 38.29 29.34 38.29 29.66" style="fill:#303033"/><polygon points="37.93 29.87 37.91 29.88 37.91 29.56 37.93 29.55 37.93 29.87" style="fill:#303033"/><polygon points="37.88 29.89 37.87 29.9 37.87 29.58 37.88 29.58 37.88 29.89" style="fill:#303033"/><polygon points="38.34 29.63 38.32 29.64 38.32 29.32 38.34 29.31 38.34 29.63" style="fill:#303033"/><polygon points="37.72 29.98 37.71 29.99 37.71 29.68 37.72 29.67 37.72 29.98" style="fill:#303033"/><polygon points="37.5 30.11 37.48 30.12 37.48 29.8 37.5 29.8 37.5 30.11" style="fill:#303033"/><polygon points="38.03 29.8 38.01 29.82 38.01 29.5 38.03 29.49 38.03 29.8" style="fill:#303033"/><polygon points="38.24 29.68 38.22 29.69 38.22 29.38 38.24 29.37 38.24 29.68" style="fill:#303033"/><polygon points="37.82 29.93 37.77 29.95 37.77 29.64 37.82 29.61 37.82 29.93" style="fill:#303033"/><polygon points="37.42 30.16 37.37 30.19 37.37 29.87 37.42 29.84 37.42 30.16" style="fill:#303033"/><polygon points="42.4 25.34 42.4 26.24 43.54 25.11 43.54 24.21 42.4 25.34" style="fill:#383838"/><polygon points="42.4 28.18 43.54 27.04 43.54 26.15 42.4 27.28 42.4 28.18" style="fill:#383838"/><polygon points="42.4 30.11 43.54 28.98 43.54 28.09 42.4 29.22 42.4 30.11" style="fill:#383838"/><polygon points="40.47 22 39.7 21.56 41.25 21.14 42.02 21.59 40.47 22" style="fill:#575757"/><polygon points="38.02 20.59 39.57 20.17 40.34 20.62 38.8 21.04 38.02 20.59" style="fill:#575757"/><polygon points="36.34 19.62 37.89 19.2 38.66 19.65 37.12 20.07 36.34 19.62" style="fill:#575757"/><polygon points="33.13 26.25 32.35 25.8 33.9 25.38 34.68 25.83 33.13 26.25" style="fill:#575757"/><polygon points="30.68 24.83 32.22 24.41 33 24.86 31.45 25.28 30.68 24.83" style="fill:#575757"/><polygon points="29 23.86 30.55 23.45 31.32 23.89 29.77 24.31 29 23.86" style="fill:#575757"/><polygon points="35.05 29.59 35.05 30.48 36.19 29.35 36.19 28.45 35.05 29.59" style="fill:#383838"/><polygon points="35.05 32.42 36.19 31.28 36.19 30.39 35.05 31.52 35.05 32.42" style="fill:#383838"/><polygon points="35.05 34.35 36.19 33.22 36.19 32.33 35.05 33.46 35.05 34.35" style="fill:#383838"/><polygon points="33.98 36.72 25.5 41.62 17.93 37.25 26.41 32.35 33.98 36.72" style="opacity:0.30000000000000004"/><polygon points="31.34 27.76 32.85 30.38 32.85 35.63 31.34 36.51 26.79 33.88 25.28 31.26 25.28 26.01 26.79 25.14 31.34 27.76" style="fill:#050505"/><polygon points="32.47 27.11 31.34 27.76 26.79 25.14 27.92 24.48 32.47 27.11" style="fill:#ffec7a"/><rect x="173.22" y="403.55" width="1.31" height="3.03" transform="translate(-320.66 -234.84) rotate(-30.04)" style="fill:#f5d358"/><polygon points="33.98 34.98 32.85 35.63 32.85 30.38 33.98 29.73 33.98 34.98" style="fill:#f5a52e"/><polygon points="31.17 27.99 30.35 28.46 26.14 26.03 26.96 25.56 31.17 27.99" style="fill:#fff"/><rect x="172.2" y="404.36" width="0.94" height="2.8" transform="translate(-320.88 -235.73) rotate(-29.98)" style="fill:#dae5f8"/><polygon points="32.57 35.27 31.75 35.74 31.75 30.89 32.57 30.41 32.57 35.27" style="fill:#b4caed"/><polygon points="26.14 26.03 30.35 28.46 31.75 30.89 31.75 35.74 30.35 36.55 26.14 34.12 24.74 31.7 24.74 26.84 26.14 26.03" style="fill:#b4d2e0"/><polygon points="25.98 30.86 27.49 33.48 27.49 38.72 25.98 39.6 21.43 36.97 19.92 34.35 19.92 29.1 21.43 28.23 25.98 30.86" style="fill:#517fa2"/><polygon points="30.48 28.25 25.98 30.86 21.43 28.23 25.93 25.63 30.48 28.25" style="fill:#fff"/><rect x="167.6" y="405.68" width="5.2" height="3.03" transform="matrix(0.87, -0.5, 0.5, 0.87, -322.04, -236.62)" style="fill:#dae5f8"/><polygon points="32 36.13 27.49 38.72 27.49 33.48 32 30.87 32 36.13" style="fill:#b4caed"/><polygon points="25.81 31.08 24.99 31.56 20.78 29.12 21.6 28.65 25.81 31.08" style="fill:#fff"/><rect x="166.84" y="407.45" width="0.95" height="2.8" transform="translate(-323.02 -238.15) rotate(-29.96)" style="fill:#dae5f8"/><polygon points="27.21 38.37 26.39 38.84 26.39 33.98 27.21 33.51 27.21 38.37" style="fill:#b4caed"/><polygon points="24.99 31.56 26.39 33.98 26.39 38.84 24.99 39.65 20.78 37.22 19.38 34.79 19.38 29.93 20.78 29.12 24.99 31.56" style="fill:#b4d2e0"/><polygon points="23.99 32 25.5 34.62 25.5 39.87 23.99 40.75 19.44 38.12 17.93 35.5 17.93 30.25 19.44 29.38 23.99 32" style="fill:#ffc654"/><polygon points="19.66 34.95 20.71 36.76 23.87 38.59 23.22 38.96 20.06 37.14 19.02 35.32 19.02 31.68 19.66 31.3 19.66 34.95" style="fill:#ffec7a"/><polygon points="19.66 34.95 19.02 35.32 19.02 31.68 19.66 31.3 19.66 34.95" style="fill:#f5a52e"/><rect x="160.7" y="411.32" width="0.75" height="2.1" transform="translate(-327.43 -238.51) rotate(-30.34)" style="fill:#f5d358"/><polygon points="23.22 32.89 24.27 34.71 24.27 38.35 23.87 38.59 20.71 36.76 19.66 34.95 19.66 31.3 20.06 31.07 23.22 32.89" style="fill:#b4caed"/><polygon points="25.12 31.35 23.99 32 19.44 29.38 20.57 28.72 25.12 31.35" style="fill:#ffec7a"/><rect x="165.87" y="407.8" width="1.31" height="3.03" transform="translate(-324.25 -237.33) rotate(-30.15)" style="fill:#f5d358"/><polygon points="26.64 39.22 25.5 39.87 25.5 34.62 26.64 33.97 26.64 39.22" style="fill:#f5a52e"/><polygon points="29.02 34.32 27.7 35.08 27.7 33.66 29.02 32.9 29.02 34.32" style="fill:#fff"/><polygon points="28.87 33.3 27.86 33.88 27.86 33.75 28.87 33.17 28.87 33.3" style="fill:#b4d2e0"/><polygon points="28.87 33.65 27.86 34.23 27.86 34.1 28.87 33.52 28.87 33.65" style="fill:#b4d2e0"/><polygon points="28.87 34 27.86 34.58 27.86 34.45 28.87 33.87 28.87 34" style="fill:#b4d2e0"/><polygon points="28.43 34.48 27.86 34.81 27.86 34.68 28.43 34.35 28.43 34.48" style="fill:#b4d2e0"/><polygon points="29.02 35.25 27.7 36.01 27.7 35.34 29.02 34.57 29.02 35.25" style="fill:#fff"/><polygon points="28.54 35.28 28.51 35.3 28.51 34.99 28.54 34.97 28.54 35.28" style="fill:#303033"/><polygon points="28.86 35.1 28.83 35.12 28.83 34.8 28.86 34.79 28.86 35.1" style="fill:#303033"/><polygon points="28.1 35.54 28.07 35.56 28.07 35.24 28.1 35.22 28.1 35.54" style="fill:#303033"/><polygon points="28.02 35.58 27.99 35.6 27.99 35.29 28.02 35.27 28.02 35.58" style="fill:#303033"/><polygon points="28.97 35.04 28.92 35.07 28.92 34.75 28.97 34.73 28.97 35.04" style="fill:#303033"/><polygon points="28.63 35.23 28.58 35.26 28.58 34.95 28.63 34.92 28.63 35.23" style="fill:#303033"/><polygon points="28.42 35.35 28.41 35.36 28.41 35.04 28.42 35.04 28.42 35.35" style="fill:#303033"/><polygon points="28.73 35.17 28.72 35.18 28.72 34.87 28.73 34.86 28.73 35.17" style="fill:#303033"/><polygon points="28.37 35.38 28.36 35.39 28.36 35.07 28.37 35.07 28.37 35.38" style="fill:#303033"/><polygon points="28.32 35.41 28.31 35.42 28.31 35.1 28.32 35.1 28.32 35.41" style="fill:#303033"/><polygon points="28.78 35.15 28.77 35.15 28.77 34.84 28.78 34.83 28.78 35.15" style="fill:#303033"/><polygon points="28.17 35.5 28.15 35.51 28.15 35.19 28.17 35.19 28.17 35.5" style="fill:#303033"/><polygon points="27.94 35.63 27.93 35.64 27.93 35.32 27.94 35.32 27.94 35.63" style="fill:#303033"/><polygon points="28.48 35.32 28.46 35.33 28.46 35.02 28.48 35.01 28.48 35.32" style="fill:#303033"/><polygon points="28.68 35.2 28.67 35.21 28.67 34.9 28.68 34.89 28.68 35.2" style="fill:#303033"/><polygon points="28.27 35.44 28.22 35.47 28.22 35.16 28.27 35.13 28.27 35.44" style="fill:#303033"/><polygon points="27.87 35.67 27.82 35.7 27.82 35.39 27.87 35.36 27.87 35.67" style="fill:#303033"/><polygon points="32.85 30.86 32.85 31.75 33.98 30.62 33.98 29.73 32.85 30.86" style="fill:#383838"/><polygon points="32.85 33.69 33.98 32.56 33.98 31.66 32.85 32.8 32.85 33.69" style="fill:#383838"/><polygon points="32.85 35.63 33.98 34.5 33.98 33.6 32.85 34.73 32.85 35.63" style="fill:#383838"/><polygon points="30.92 27.52 30.14 27.07 31.69 26.66 32.47 27.11 30.92 27.52" style="fill:#575757"/><polygon points="28.47 26.11 30.02 25.69 30.79 26.14 29.24 26.55 28.47 26.11" style="fill:#575757"/><polygon points="26.79 25.14 28.34 24.72 29.11 25.17 27.56 25.58 26.79 25.14" style="fill:#575757"/><polygon points="23.58 31.76 22.8 31.31 24.35 30.9 25.12 31.35 23.58 31.76" style="fill:#575757"/><polygon points="21.12 30.35 22.67 29.93 23.45 30.38 21.9 30.79 21.12 30.35" style="fill:#575757"/><polygon points="19.44 29.38 20.99 28.96 21.77 29.41 20.22 29.82 19.44 29.38" style="fill:#575757"/><polygon points="25.5 35.1 25.5 36 26.64 34.86 26.64 33.97 25.5 35.1" style="fill:#383838"/><polygon points="25.5 37.94 26.64 36.8 26.64 35.91 25.5 37.04 25.5 37.94" style="fill:#383838"/><polygon points="25.5 39.87 26.64 38.74 26.64 37.84 25.5 38.98 25.5 39.87" style="fill:#383838"/><polygon points="24.32 3.28 25.84 5.9 25.84 11.15 24.32 12.02 19.78 9.4 18.27 6.78 18.27 1.53 19.78 0.65 24.32 3.28" style="fill:#050505"/><polygon points="25.45 2.63 24.32 3.28 19.78 0.65 20.91 0 25.45 2.63" style="fill:#ffec7a"/><rect x="166.21" y="379.07" width="1.31" height="3.02" transform="translate(-309.36 -241.62) rotate(-30.05)" style="fill:#f5d358"/><polygon points="26.97 10.5 25.84 11.15 25.84 5.9 26.97 5.24 26.97 10.5" style="fill:#f5a52e"/><polygon points="24.15 3.51 23.34 3.98 19.13 1.55 19.94 1.08 24.15 3.51" style="fill:#fff"/><polygon points="25.55 5.93 24.74 6.4 23.34 3.98 24.15 3.51 25.55 5.93" style="fill:#dae5f8"/><polygon points="25.55 10.79 24.74 11.26 24.74 6.4 25.55 5.93 25.55 10.79" style="fill:#b4caed"/><polygon points="19.13 1.55 23.34 3.98 24.74 6.4 24.74 11.26 23.34 12.07 19.13 9.64 17.73 7.22 17.73 2.36 19.13 1.55" style="fill:#b4d2e0"/><polygon points="18.96 6.38 20.48 8.99 20.48 14.24 18.96 15.12 14.42 12.49 12.9 9.87 12.9 4.62 14.42 3.75 18.96 6.38" style="fill:#517fa2"/><polygon points="23.47 3.77 18.96 6.38 14.42 3.75 18.92 1.15 23.47 3.77" style="fill:#fff"/><rect x="160.58" y="381.2" width="5.2" height="3.03" transform="translate(-310.59 -243.6) rotate(-29.97)" style="fill:#dae5f8"/><polygon points="24.98 11.64 20.48 14.24 20.48 8.99 24.98 6.39 24.98 11.64" style="fill:#b4caed"/><polygon points="18.8 6.6 17.98 7.07 13.77 4.64 14.59 4.17 18.8 6.6" style="fill:#fff"/><polygon points="20.2 9.03 19.38 9.5 17.98 7.07 18.8 6.6 20.2 9.03" style="fill:#dae5f8"/><polygon points="20.2 13.89 19.38 14.36 19.38 9.5 20.2 9.03 20.2 13.89" style="fill:#b4caed"/><polygon points="17.98 7.07 19.38 9.5 19.38 14.36 17.98 15.16 13.77 12.74 12.37 10.31 12.37 5.45 13.77 4.64 17.98 7.07" style="fill:#b4d2e0"/><polygon points="16.98 7.52 18.49 10.14 18.49 15.39 16.98 16.27 12.43 13.64 10.92 11.02 10.92 5.77 12.43 4.9 16.98 7.52" style="fill:#f5a52e"/><polygon points="12.65 10.46 13.7 12.28 16.85 14.11 16.2 14.48 13.05 12.66 12 10.84 12 7.19 12.65 6.82 12.65 10.46" style="fill:#ffec7a"/><polygon points="12.65 10.46 12 10.84 12 7.19 12.65 6.82 12.65 10.46" style="fill:#f5a52e"/><rect x="153.69" y="386.83" width="0.75" height="2.1" transform="matrix(0.86, -0.5, 0.5, 0.86, -315.9, -245.57)" style="fill:#f5d358"/><polygon points="16.2 8.41 17.25 10.23 17.25 13.87 16.85 14.11 13.7 12.28 12.65 10.46 12.65 6.82 13.05 6.59 16.2 8.41" style="fill:#b4caed"/><polygon points="18.11 6.87 16.98 7.52 12.43 4.9 13.56 4.24 18.11 6.87" style="fill:#ffec7a"/><rect x="158.86" y="383.32" width="1.31" height="3.03" transform="translate(-313.11 -243.89) rotate(-30.19)" style="fill:#f5d358"/><polygon points="19.62 14.74 18.49 15.39 18.49 10.14 19.62 9.49 19.62 14.74" style="fill:#f5a52e"/><polygon points="22.01 9.84 20.69 10.6 20.69 9.18 22.01 8.42 22.01 9.84" style="fill:#fff"/><polygon points="21.85 8.82 20.84 9.4 20.84 9.27 21.85 8.69 21.85 8.82" style="fill:#b4d2e0"/><polygon points="21.85 9.17 20.84 9.75 20.84 9.62 21.85 9.03 21.85 9.17" style="fill:#b4d2e0"/><polygon points="21.85 9.52 20.84 10.1 20.84 9.97 21.85 9.38 21.85 9.52" style="fill:#b4d2e0"/><polygon points="21.42 9.99 20.84 10.33 20.84 10.2 21.42 9.87 21.42 9.99" style="fill:#b4d2e0"/><polygon points="22.01 10.77 20.69 11.53 20.69 10.86 22.01 10.09 22.01 10.77" style="fill:#fff"/><polygon points="21.52 10.8 21.49 10.82 21.49 10.51 21.52 10.49 21.52 10.8" style="fill:#303033"/><polygon points="21.84 10.62 21.81 10.64 21.81 10.32 21.84 10.3 21.84 10.62" style="fill:#303033"/><polygon points="21.09 11.05 21.06 11.07 21.06 10.76 21.09 10.74 21.09 11.05" style="fill:#303033"/><polygon points="21.01 11.1 20.97 11.12 20.97 10.81 21.01 10.79 21.01 11.1" style="fill:#303033"/><polygon points="21.95 10.55 21.9 10.59 21.9 10.27 21.95 10.24 21.95 10.55" style="fill:#303033"/><polygon points="21.61 10.75 21.56 10.78 21.56 10.47 21.61 10.44 21.61 10.75" style="fill:#303033"/><polygon points="21.41 10.87 21.4 10.88 21.4 10.56 21.41 10.55 21.41 10.87" style="fill:#303033"/><polygon points="21.72 10.69 21.71 10.7 21.71 10.39 21.72 10.38 21.72 10.69" style="fill:#303033"/><polygon points="21.36 10.9 21.34 10.91 21.34 10.59 21.36 10.59 21.36 10.9" style="fill:#303033"/><polygon points="21.31 10.93 21.3 10.94 21.3 10.62 21.31 10.62 21.31 10.93" style="fill:#303033"/><polygon points="21.77 10.67 21.75 10.67 21.75 10.36 21.77 10.35 21.77 10.67" style="fill:#303033"/><polygon points="21.15 11.02 21.14 11.03 21.14 10.71 21.15 10.7 21.15 11.02" style="fill:#303033"/><polygon points="20.93 11.15 20.92 11.15 20.92 10.84 20.93 10.83 20.93 11.15" style="fill:#303033"/><polygon points="21.46 10.84 21.45 10.85 21.45 10.54 21.46 10.52 21.46 10.84" style="fill:#303033"/><polygon points="21.67 10.72 21.65 10.73 21.65 10.42 21.67 10.4 21.67 10.72" style="fill:#303033"/><polygon points="21.25 10.96 21.2 10.99 21.2 10.68 21.25 10.65 21.25 10.96" style="fill:#303033"/><polygon points="20.85 11.19 20.8 11.22 20.8 10.91 20.85 10.88 20.85 11.19" style="fill:#303033"/><polygon points="25.84 6.38 25.84 7.27 26.97 6.14 26.97 5.24 25.84 6.38" style="fill:#383838"/><polygon points="25.84 9.21 26.97 8.08 26.97 7.18 25.84 8.32 25.84 9.21" style="fill:#383838"/><polygon points="25.84 11.15 26.97 10.02 26.97 9.12 25.84 10.26 25.84 11.15" style="fill:#383838"/><polygon points="23.91 3.04 23.13 2.59 24.68 2.18 25.45 2.63 23.91 3.04" style="fill:#575757"/><polygon points="21.45 1.62 23 1.21 23.77 1.66 22.23 2.07 21.45 1.62" style="fill:#575757"/><polygon points="19.77 0.65 21.32 0.24 22.1 0.69 20.55 1.1 19.77 0.65" style="fill:#575757"/><polygon points="16.56 7.28 15.79 6.83 17.34 6.42 18.11 6.87 16.56 7.28" style="fill:#575757"/><polygon points="14.11 5.87 15.65 5.45 16.43 5.9 14.88 6.31 14.11 5.87" style="fill:#575757"/><polygon points="12.43 4.9 13.98 4.48 14.75 4.93 13.2 5.34 12.43 4.9" style="fill:#575757"/><polygon points="18.48 10.62 18.48 11.52 19.62 10.38 19.62 9.49 18.48 10.62" style="fill:#383838"/><polygon points="18.48 13.45 19.62 12.32 19.62 11.42 18.48 12.56 18.48 13.45" style="fill:#383838"/><polygon points="18.48 15.39 19.62 14.26 19.62 13.36 18.48 14.49 18.48 15.39" style="fill:#383838"/><polygon points="14.77 8.79 16.28 11.42 16.28 16.67 14.77 17.54 10.22 14.91 8.71 12.29 8.71 7.04 10.22 6.17 14.77 8.79" style="fill:#050505"/><polygon points="15.9 8.14 14.77 8.79 10.22 6.17 11.35 5.52 15.9 8.14" style="fill:#ffec7a"/><polygon points="17.41 10.76 16.28 11.42 14.77 8.79 15.9 8.14 17.41 10.76" style="fill:#f5d358"/><polygon points="17.41 16.01 16.28 16.67 16.28 11.42 17.41 10.76 17.41 16.01" style="fill:#f5a52e"/><polygon points="14.6 9.03 13.78 9.49 9.57 7.06 10.39 6.59 14.6 9.03" style="fill:#fff"/><rect x="155.63" y="385.4" width="0.94" height="2.8" transform="translate(-313.64 -246.52) rotate(-29.99)" style="fill:#dae5f8"/><polygon points="16 16.31 15.18 16.78 15.18 11.92 16 11.45 16 16.31" style="fill:#b4caed"/><polygon points="9.57 7.06 13.78 9.49 15.18 11.92 15.18 16.78 13.78 17.59 9.57 15.16 8.17 12.73 8.17 7.87 9.57 7.06" style="fill:#b4d2e0"/><polygon points="9.41 11.89 10.92 14.51 10.92 19.76 9.41 20.63 4.86 18.01 3.35 15.39 3.35 10.14 4.86 9.27 9.41 11.89" style="fill:#517fa2"/><polygon points="13.91 9.29 9.41 11.89 4.86 9.27 9.36 6.66 13.91 9.29" style="fill:#fff"/><rect x="151.03" y="386.71" width="5.2" height="3.03" transform="translate(-314.69 -247.56) rotate(-29.99)" style="fill:#dae5f8"/><polygon points="15.43 17.16 10.92 19.76 10.92 14.51 15.43 11.91 15.43 17.16" style="fill:#b4caed"/><polygon points="9.24 12.11 8.43 12.59 4.21 10.16 5.03 9.69 9.24 12.11" style="fill:#fff"/><rect x="150.27" y="388.49" width="0.94" height="2.8" transform="translate(-315.91 -248.78) rotate(-29.99)" style="fill:#dae5f8"/><polygon points="10.64 19.4 9.82 19.87 9.82 15.02 10.64 14.54 10.64 19.4" style="fill:#b4caed"/><polygon points="8.43 12.59 9.82 15.02 9.82 19.87 8.43 20.68 4.21 18.25 2.81 15.83 2.81 10.97 4.21 10.16 8.43 12.59" style="fill:#b4d2e0"/><polygon points="7.42 13.04 8.94 15.66 8.94 20.91 7.42 21.78 2.88 19.15 1.36 16.54 1.36 11.29 2.88 10.41 7.42 13.04" style="fill:#ffc654"/><polygon points="3.09 15.98 4.14 17.8 7.3 19.62 6.65 20 3.5 18.18 2.44 16.36 2.44 12.71 3.09 12.34 3.09 15.98" style="fill:#ffec7a"/><polygon points="3.09 15.98 2.44 16.36 2.44 12.71 3.09 12.34 3.09 15.98" style="fill:#f5a52e"/><rect x="144.13" y="392.35" width="0.75" height="2.1" transform="translate(-319.86 -249.79) rotate(-30.28)" style="fill:#f5d358"/><polygon points="6.65 13.93 7.7 15.75 7.7 19.39 7.3 19.62 4.14 17.8 3.09 15.98 3.09 12.34 3.5 12.11 6.65 13.93" style="fill:#b4caed"/><polygon points="8.55 12.38 7.42 13.04 2.88 10.41 4 9.76 8.55 12.38" style="fill:#ffec7a"/><rect x="149.3" y="388.83" width="1.31" height="3.03" transform="translate(-317.29 -247.82) rotate(-30.22)" style="fill:#f5d358"/><polygon points="10.06 20.26 8.94 20.91 8.94 15.66 10.06 15 10.06 20.26" style="fill:#f5a52e"/><polygon points="12.45 15.35 11.13 16.12 11.13 14.7 12.45 13.93 12.45 15.35" style="fill:#fff"/><polygon points="12.3 14.34 11.29 14.91 11.29 14.78 12.3 14.2 12.3 14.34" style="fill:#b4d2e0"/><polygon points="12.3 14.68 11.29 15.27 11.29 15.13 12.3 14.55 12.3 14.68" style="fill:#b4d2e0"/><polygon points="12.3 15.03 11.29 15.61 11.29 15.48 12.3 14.9 12.3 15.03" style="fill:#b4d2e0"/><polygon points="11.86 15.51 11.29 15.84 11.29 15.71 11.86 15.38 11.86 15.51" style="fill:#b4d2e0"/><polygon points="12.45 16.29 11.13 17.05 11.13 16.38 12.45 15.61 12.45 16.29" style="fill:#fff"/><polygon points="11.97 16.32 11.94 16.34 11.94 16.02 11.97 16 11.97 16.32" style="fill:#303033"/><polygon points="12.29 16.14 12.26 16.15 12.26 15.84 12.29 15.82 12.29 16.14" style="fill:#303033"/><polygon points="11.54 16.57 11.5 16.59 11.5 16.28 11.54 16.26 11.54 16.57" style="fill:#303033"/><polygon points="11.45 16.62 11.42 16.64 11.42 16.32 11.45 16.3 11.45 16.62" style="fill:#303033"/><polygon points="12.4 16.07 12.35 16.11 12.35 15.79 12.4 15.76 12.4 16.07" style="fill:#303033"/><polygon points="12.06 16.27 12.01 16.3 12.01 15.98 12.06 15.96 12.06 16.27" style="fill:#303033"/><polygon points="11.86 16.39 11.84 16.39 11.84 16.08 11.86 16.07 11.86 16.39" style="fill:#303033"/><polygon points="12.16 16.21 12.15 16.22 12.15 15.9 12.16 15.89 12.16 16.21" style="fill:#303033"/><polygon points="11.8 16.42 11.79 16.43 11.79 16.11 11.8 16.11 11.8 16.42" style="fill:#303033"/><polygon points="11.75 16.45 11.74 16.45 11.74 16.14 11.75 16.13 11.75 16.45" style="fill:#303033"/><polygon points="12.21 16.18 12.2 16.19 12.2 15.87 12.21 15.87 12.21 16.18" style="fill:#303033"/><polygon points="11.6 16.54 11.59 16.54 11.59 16.23 11.6 16.22 11.6 16.54" style="fill:#303033"/><polygon points="11.37 16.66 11.36 16.67 11.36 16.36 11.37 16.35 11.37 16.66" style="fill:#303033"/><polygon points="11.91 16.36 11.89 16.37 11.89 16.05 11.91 16.04 11.91 16.36" style="fill:#303033"/><polygon points="12.12 16.24 12.1 16.24 12.1 15.93 12.12 15.92 12.12 16.24" style="fill:#303033"/><polygon points="11.7 16.48 11.65 16.51 11.65 16.19 11.7 16.16 11.7 16.48" style="fill:#303033"/><polygon points="11.3 16.71 11.25 16.74 11.25 16.43 11.3 16.39 11.3 16.71" style="fill:#303033"/><polygon points="16.28 11.89 16.28 12.79 17.41 11.65 17.41 10.76 16.28 11.89" style="fill:#383838"/><polygon points="16.28 14.73 17.41 13.59 17.41 12.7 16.28 13.83 16.28 14.73" style="fill:#383838"/><polygon points="16.28 16.67 17.41 15.53 17.41 14.64 16.28 15.77 16.28 16.67" style="fill:#383838"/><polygon points="14.35 8.56 13.58 8.11 15.13 7.69 15.9 8.14 14.35 8.56" style="fill:#575757"/><polygon points="11.9 7.14 13.45 6.73 14.22 7.17 12.67 7.59 11.9 7.14" style="fill:#575757"/><polygon points="10.22 6.17 11.77 5.76 12.54 6.21 10.99 6.62 10.22 6.17" style="fill:#575757"/><polygon points="7.01 12.8 6.23 12.35 7.78 11.94 8.55 12.38 7.01 12.8" style="fill:#575757"/><polygon points="4.55 11.38 6.1 10.97 6.88 11.41 5.33 11.83 4.55 11.38" style="fill:#575757"/><polygon points="2.87 10.41 4.42 10 5.2 10.44 3.65 10.86 2.87 10.41" style="fill:#575757"/><polygon points="8.93 16.14 8.93 17.03 10.06 15.9 10.06 15 8.93 16.14" style="fill:#383838"/><polygon points="8.93 18.97 10.06 17.84 10.06 16.94 8.93 18.07 8.93 18.97" style="fill:#383838"/><polygon points="8.93 20.91 10.06 19.77 10.06 18.88 8.93 20.01 8.93 20.91" style="fill:#383838"/><polygon points="32.61 8.06 34.12 10.69 34.12 15.93 32.61 16.81 28.06 14.18 26.55 11.56 26.55 6.31 28.06 5.44 32.61 8.06" style="fill:#050505"/><polygon points="33.74 7.41 32.61 8.06 28.06 5.44 29.2 4.78 33.74 7.41" style="fill:#ffec7a"/><rect x="174.49" y="383.86" width="1.31" height="3.03" transform="translate(-310.53 -236.98) rotate(-30.02)" style="fill:#f5d358"/><polygon points="35.26 15.28 34.12 15.93 34.12 10.69 35.26 10.03 35.26 15.28" style="fill:#f5a52e"/><polygon points="32.44 8.29 31.62 8.76 27.41 6.33 28.23 5.86 32.44 8.29" style="fill:#fff"/><polygon points="33.84 10.72 33.02 11.19 31.62 8.76 32.44 8.29 33.84 10.72" style="fill:#dae5f8"/><polygon points="33.84 15.58 33.02 16.05 33.02 11.19 33.84 10.72 33.84 15.58" style="fill:#b4caed"/><polygon points="27.41 6.33 31.62 8.76 33.02 11.19 33.02 16.05 31.62 16.86 27.41 14.43 26.01 12 26.02 7.14 27.41 6.33" style="fill:#b4d2e0"/><polygon points="27.25 11.16 28.77 13.78 28.77 19.03 27.25 19.9 22.7 17.27 21.19 14.66 21.19 9.4 22.7 8.53 27.25 11.16" style="fill:#517fa2"/><polygon points="31.75 8.56 27.25 11.16 22.7 8.53 27.21 5.93 31.75 8.56" style="fill:#fff"/><rect x="168.87" y="385.98" width="5.2" height="3.03" transform="translate(-311.92 -238.77) rotate(-29.98)" style="fill:#dae5f8"/><polygon points="33.27 16.43 28.77 19.03 28.77 13.78 33.27 11.18 33.27 16.43" style="fill:#b4caed"/><polygon points="27.08 11.38 26.27 11.86 22.06 9.43 22.87 8.95 27.08 11.38" style="fill:#fff"/><rect x="168.11" y="387.76" width="0.95" height="2.8" transform="translate(-313.12 -240.01) rotate(-29.98)" style="fill:#dae5f8"/><polygon points="28.48 18.67 27.66 19.14 27.66 14.28 28.48 13.81 28.48 18.67" style="fill:#b4caed"/><polygon points="26.27 11.86 27.66 14.28 27.66 19.14 26.27 19.95 22.06 17.52 20.66 15.1 20.66 10.23 22.06 9.43 26.27 11.86" style="fill:#b4d2e0"/><polygon points="25.26 12.3 26.78 14.93 26.78 20.18 25.26 21.05 20.72 18.42 19.2 15.8 19.2 10.55 20.72 9.68 25.26 12.3" style="fill:#f5a52e"/><polygon points="20.93 15.25 21.98 17.06 25.14 18.89 24.49 19.26 21.34 17.44 20.29 15.62 20.29 11.98 20.93 11.61 20.93 15.25" style="fill:#ffec7a"/><polygon points="20.93 15.25 20.29 15.62 20.29 11.98 20.93 11.61 20.93 15.25" style="fill:#f5a52e"/><rect x="161.97" y="391.62" width="0.75" height="2.1" transform="translate(-317.21 -240.69) rotate(-30.31)" style="fill:#f5d358"/><polygon points="24.49 13.19 25.54 15.01 25.54 18.66 25.14 18.89 21.98 17.06 20.93 15.25 20.93 11.61 21.34 11.37 24.49 13.19" style="fill:#b4caed"/><polygon points="26.39 11.65 25.26 12.3 20.72 9.68 21.85 9.03 26.39 11.65" style="fill:#ffec7a"/><rect x="167.15" y="388.1" width="1.31" height="3.03" transform="translate(-314.28 -239.23) rotate(-30.17)" style="fill:#f5d358"/><polygon points="27.91 19.52 26.78 20.18 26.78 14.93 27.91 14.27 27.91 19.52" style="fill:#f5a52e"/><polygon points="30.3 14.62 28.98 15.38 28.98 13.97 30.3 13.2 30.3 14.62" style="fill:#fff"/><polygon points="30.14 13.6 29.13 14.18 29.13 14.05 30.14 13.47 30.14 13.6" style="fill:#b4d2e0"/><polygon points="30.14 13.95 29.13 14.53 29.13 14.4 30.14 13.82 30.14 13.95" style="fill:#b4d2e0"/><polygon points="30.14 14.3 29.13 14.88 29.13 14.75 30.14 14.17 30.14 14.3" style="fill:#b4d2e0"/><polygon points="29.7 14.78 29.13 15.11 29.13 14.98 29.7 14.65 29.7 14.78" style="fill:#b4d2e0"/><polygon points="30.3 15.55 28.98 16.32 28.98 15.64 30.3 14.88 30.3 15.55" style="fill:#fff"/><polygon points="29.81 15.59 29.78 15.61 29.78 15.29 29.81 15.27 29.81 15.59" style="fill:#303033"/><polygon points="30.13 15.4 30.1 15.42 30.1 15.11 30.13 15.09 30.13 15.4" style="fill:#303033"/><polygon points="29.38 15.84 29.34 15.86 29.34 15.54 29.38 15.53 29.38 15.84" style="fill:#303033"/><polygon points="29.29 15.89 29.26 15.91 29.26 15.59 29.29 15.57 29.29 15.89" style="fill:#303033"/><polygon points="30.24 15.34 30.19 15.37 30.19 15.06 30.24 15.03 30.24 15.34" style="fill:#303033"/><polygon points="29.9 15.54 29.85 15.56 29.85 15.25 29.9 15.22 29.9 15.54" style="fill:#303033"/><polygon points="29.7 15.65 29.68 15.66 29.68 15.35 29.7 15.34 29.7 15.65" style="fill:#303033"/><polygon points="30.01 15.48 29.99 15.48 29.99 15.17 30.01 15.16 30.01 15.48" style="fill:#303033"/><polygon points="29.64 15.69 29.63 15.69 29.63 15.38 29.64 15.37 29.64 15.69" style="fill:#303033"/><polygon points="29.59 15.71 29.58 15.72 29.58 15.4 29.59 15.4 29.59 15.71" style="fill:#303033"/><polygon points="30.05 15.45 30.04 15.46 30.04 15.14 30.05 15.13 30.05 15.45" style="fill:#303033"/><polygon points="29.44 15.8 29.43 15.81 29.43 15.5 29.44 15.49 29.44 15.8" style="fill:#303033"/><polygon points="29.22 15.93 29.2 15.94 29.2 15.62 29.22 15.62 29.22 15.93" style="fill:#303033"/><polygon points="29.75 15.62 29.73 15.64 29.73 15.32 29.75 15.31 29.75 15.62" style="fill:#303033"/><polygon points="29.96 15.51 29.94 15.51 29.94 15.2 29.96 15.19 29.96 15.51" style="fill:#303033"/><polygon points="29.54 15.74 29.49 15.77 29.49 15.46 29.54 15.43 29.54 15.74" style="fill:#303033"/><polygon points="29.14 15.98 29.09 16 29.09 15.69 29.14 15.66 29.14 15.98" style="fill:#303033"/><polygon points="34.12 11.16 34.12 12.06 35.26 10.92 35.26 10.03 34.12 11.16" style="fill:#383838"/><polygon points="34.12 13.99 35.26 12.86 35.26 11.97 34.12 13.1 34.12 13.99" style="fill:#383838"/><polygon points="34.12 15.93 35.26 14.8 35.26 13.9 34.12 15.04 34.12 15.93" style="fill:#383838"/><polygon points="32.19 7.82 31.42 7.38 32.97 6.96 33.74 7.41 32.19 7.82" style="fill:#575757"/><polygon points="29.74 6.41 31.29 5.99 32.06 6.44 30.52 6.86 29.74 6.41" style="fill:#575757"/><polygon points="28.06 5.44 29.61 5.02 30.38 5.47 28.84 5.88 28.06 5.44" style="fill:#575757"/><polygon points="24.85 12.06 24.07 11.62 25.62 11.2 26.39 11.65 24.85 12.06" style="fill:#575757"/><polygon points="22.39 10.65 23.94 10.23 24.72 10.68 23.17 11.1 22.39 10.65" style="fill:#575757"/><polygon points="20.71 9.68 22.26 9.27 23.04 9.71 21.49 10.13 20.71 9.68" style="fill:#575757"/><polygon points="26.77 15.4 26.77 16.3 27.91 15.16 27.91 14.27 26.77 15.4" style="fill:#383838"/><polygon points="26.77 18.24 27.91 17.11 27.91 16.21 26.77 17.34 26.77 18.24" style="fill:#383838"/><polygon points="26.77 20.18 27.91 19.04 27.91 18.15 26.77 19.28 26.77 20.18" style="fill:#383838"/><polygon points="23.06 13.58 24.57 16.2 24.57 21.45 23.06 22.32 18.51 19.7 17 17.08 17 11.83 18.51 10.96 23.06 13.58" style="fill:#050505"/><polygon points="24.19 12.93 23.06 13.58 18.51 10.96 19.64 10.3 24.19 12.93" style="fill:#ffec7a"/><rect x="164.94" y="389.37" width="1.31" height="3.03" transform="translate(-314.49 -241.13) rotate(-30)" style="fill:#f5d358"/><polygon points="25.7 20.8 24.57 21.45 24.57 16.2 25.7 15.54 25.7 20.8" style="fill:#f5a52e"/><polygon points="22.89 13.81 22.07 14.28 17.86 11.85 18.68 11.38 22.89 13.81" style="fill:#fff"/><rect x="163.92" y="390.18" width="0.94" height="2.8" transform="translate(-314.83 -241.87) rotate(-29.97)" style="fill:#dae5f8"/><polygon points="24.29 21.09 23.47 21.56 23.47 16.7 24.29 16.23 24.29 21.09" style="fill:#b4caed"/><polygon points="17.86 11.85 22.07 14.28 23.47 16.7 23.47 21.56 22.07 22.38 17.86 19.94 16.46 17.52 16.46 12.66 17.86 11.85" style="fill:#b4d2e0"/><polygon points="17.7 16.68 19.21 19.29 19.21 24.54 17.7 25.42 13.15 22.79 11.64 20.17 11.64 14.92 13.15 14.05 17.7 16.68" style="fill:#517fa2"/><polygon points="22.2 14.07 17.7 16.68 13.15 14.05 17.65 11.45 22.2 14.07" style="fill:#fff"/><rect x="159.32" y="391.5" width="5.2" height="3.03" transform="translate(-315.97 -242.78) rotate(-29.99)" style="fill:#dae5f8"/><polygon points="23.71 21.95 19.21 24.54 19.21 19.29 23.71 16.69 23.71 21.95" style="fill:#b4caed"/><polygon points="17.53 16.9 16.71 17.38 12.5 14.94 13.32 14.47 17.53 16.9" style="fill:#fff"/><rect x="158.56" y="393.27" width="0.94" height="2.8" transform="translate(-317.43 -243.69) rotate(-30.04)" style="fill:#dae5f8"/><polygon points="18.93 24.19 18.11 24.66 18.11 19.8 18.93 19.33 18.93 24.19" style="fill:#b4caed"/><polygon points="16.71 17.38 18.11 19.8 18.11 24.66 16.71 25.46 12.5 23.04 11.1 20.61 11.1 15.75 12.5 14.94 16.71 17.38" style="fill:#b4d2e0"/><polygon points="15.71 17.82 17.23 20.44 17.23 25.69 15.71 26.57 11.16 23.94 9.65 21.32 9.65 16.07 11.16 15.2 15.71 17.82" style="fill:#ffc654"/><polygon points="11.38 20.77 12.43 22.58 15.59 24.41 14.94 24.78 11.78 22.96 10.73 21.14 10.73 17.5 11.38 17.12 11.38 20.77" style="fill:#ffec7a"/><polygon points="11.38 20.77 10.73 21.14 10.73 17.5 11.38 17.12 11.38 20.77" style="fill:#f5a52e"/><polygon points="12.43 22.58 11.78 22.96 10.73 21.14 11.38 20.77 12.43 22.58" style="fill:#f5d358"/><polygon points="14.94 18.71 15.99 20.53 15.99 24.17 15.59 24.41 12.43 22.58 11.38 20.77 11.38 17.12 11.78 16.89 14.94 18.71" style="fill:#b4caed"/><polygon points="16.84 17.17 15.71 17.82 11.16 15.2 12.29 14.54 16.84 17.17" style="fill:#ffec7a"/><rect x="157.59" y="393.62" width="1.31" height="3.03" transform="translate(-318.55 -243.02) rotate(-30.21)" style="fill:#f5d358"/><polygon points="18.35 25.04 17.23 25.69 17.23 20.44 18.35 19.79 18.35 25.04" style="fill:#f5a52e"/><polygon points="20.74 20.14 19.42 20.9 19.42 19.48 20.74 18.72 20.74 20.14" style="fill:#fff"/><polygon points="20.58 19.12 19.58 19.7 19.58 19.57 20.58 18.99 20.58 19.12" style="fill:#b4d2e0"/><polygon points="20.58 19.47 19.58 20.05 19.58 19.92 20.58 19.34 20.58 19.47" style="fill:#b4d2e0"/><polygon points="20.58 19.82 19.58 20.4 19.58 20.27 20.58 19.68 20.58 19.82" style="fill:#b4d2e0"/><polygon points="20.15 20.3 19.58 20.63 19.58 20.5 20.15 20.17 20.15 20.3" style="fill:#b4d2e0"/><polygon points="20.74 21.07 19.42 21.83 19.42 21.16 20.74 20.39 20.74 21.07" style="fill:#fff"/><polygon points="20.26 21.11 20.23 21.12 20.23 20.81 20.26 20.79 20.26 21.11" style="fill:#303033"/><polygon points="20.58 20.92 20.55 20.94 20.55 20.62 20.58 20.61 20.58 20.92" style="fill:#303033"/><polygon points="19.82 21.36 19.79 21.38 19.79 21.06 19.82 21.04 19.82 21.36" style="fill:#303033"/><polygon points="19.74 21.4 19.71 21.42 19.71 21.11 19.74 21.09 19.74 21.4" style="fill:#303033"/><polygon points="20.69 20.86 20.63 20.89 20.63 20.57 20.69 20.54 20.69 20.86" style="fill:#303033"/><polygon points="20.35 21.05 20.3 21.08 20.3 20.77 20.35 20.74 20.35 21.05" style="fill:#303033"/><polygon points="20.14 21.17 20.13 21.18 20.13 20.86 20.14 20.86 20.14 21.17" style="fill:#303033"/><polygon points="20.45 20.99 20.44 21 20.44 20.69 20.45 20.68 20.45 20.99" style="fill:#303033"/><polygon points="20.09 21.2 20.07 21.21 20.07 20.89 20.09 20.89 20.09 21.2" style="fill:#303033"/><polygon points="20.04 21.23 20.03 21.23 20.03 20.92 20.04 20.92 20.04 21.23" style="fill:#303033"/><polygon points="20.5 20.97 20.48 20.97 20.48 20.66 20.5 20.65 20.5 20.97" style="fill:#303033"/><polygon points="19.89 21.32 19.87 21.33 19.87 21.01 19.89 21 19.89 21.32" style="fill:#303033"/><polygon points="19.66 21.45 19.65 21.46 19.65 21.14 19.66 21.14 19.66 21.45" style="fill:#303033"/><polygon points="20.19 21.14 20.18 21.15 20.18 20.84 20.19 20.83 20.19 21.14" style="fill:#303033"/><polygon points="20.4 21.02 20.39 21.03 20.39 20.72 20.4 20.71 20.4 21.02" style="fill:#303033"/><polygon points="19.99 21.26 19.94 21.29 19.94 20.98 19.99 20.95 19.99 21.26" style="fill:#303033"/><polygon points="19.59 21.49 19.54 21.52 19.54 21.21 19.59 21.18 19.59 21.49" style="fill:#303033"/><polygon points="24.57 16.68 24.57 17.57 25.7 16.44 25.7 15.54 24.57 16.68" style="fill:#383838"/><polygon points="24.57 19.51 25.7 18.38 25.7 17.48 24.57 18.62 24.57 19.51" style="fill:#383838"/><polygon points="24.57 21.45 25.7 20.32 25.7 19.42 24.57 20.56 24.57 21.45" style="fill:#383838"/><polygon points="22.64 13.34 21.86 12.89 23.41 12.48 24.19 12.93 22.64 13.34" style="fill:#575757"/><polygon points="20.18 11.92 21.73 11.51 22.51 11.96 20.96 12.37 20.18 11.92" style="fill:#575757"/><polygon points="18.5 10.96 20.05 10.54 20.83 10.99 19.28 11.4 18.5 10.96" style="fill:#575757"/><polygon points="15.29 17.58 14.52 17.13 16.07 16.72 16.84 17.17 15.29 17.58" style="fill:#575757"/><polygon points="12.84 16.16 14.39 15.75 15.16 16.2 13.62 16.61 12.84 16.16" style="fill:#575757"/><polygon points="11.16 15.2 12.71 14.78 13.48 15.23 11.94 15.64 11.16 15.2" style="fill:#575757"/><polygon points="17.22 20.92 17.22 21.82 18.35 20.68 18.35 19.79 17.22 20.92" style="fill:#383838"/><polygon points="17.22 23.75 18.35 22.62 18.35 21.73 17.22 22.86 17.22 23.75" style="fill:#383838"/><polygon points="17.22 25.69 18.35 24.56 18.35 23.66 17.22 24.8 17.22 25.69" style="fill:#383838"/><polygon points="40.89 12.84 42.4 15.46 42.4 20.71 40.89 21.59 36.34 18.96 34.83 16.34 34.83 11.09 36.34 10.22 40.89 12.84" style="fill:#050505"/><polygon points="42.02 12.19 40.89 12.84 36.34 10.22 37.48 9.56 42.02 12.19" style="fill:#ffec7a"/><rect x="182.77" y="388.64" width="1.31" height="3.03" transform="matrix(0.87, -0.5, 0.5, 0.87, -311.76, -232.27)" style="fill:#f5d358"/><polygon points="43.54 20.06 42.4 20.71 42.4 15.46 43.54 14.81 43.54 20.06" style="fill:#f5a52e"/><polygon points="40.72 13.07 39.91 13.54 35.7 11.11 36.51 10.64 40.72 13.07" style="fill:#fff"/><polygon points="42.12 15.5 41.31 15.97 39.91 13.54 40.72 13.07 42.12 15.5" style="fill:#dae5f8"/><polygon points="42.12 20.36 41.31 20.83 41.31 15.97 42.12 15.5 42.12 20.36" style="fill:#b4caed"/><polygon points="35.7 11.11 39.91 13.54 41.31 15.97 41.31 20.83 39.91 21.64 35.7 19.21 34.29 16.78 34.3 11.92 35.7 11.11" style="fill:#b4d2e0"/><polygon points="35.53 15.94 37.05 18.56 37.05 23.81 35.53 24.68 30.99 22.06 29.47 19.44 29.47 14.19 30.99 13.31 35.53 15.94" style="fill:#517fa2"/><polygon points="40.03 13.34 35.53 15.94 30.99 13.31 35.49 10.71 40.03 13.34" style="fill:#fff"/><rect x="177.15" y="390.76" width="5.2" height="3.03" transform="translate(-313.24 -233.94) rotate(-29.99)" style="fill:#dae5f8"/><polygon points="41.55 21.21 37.05 23.81 37.05 18.56 41.55 15.96 41.55 21.21" style="fill:#b4caed"/><polygon points="35.36 16.16 34.55 16.64 30.34 14.21 31.15 13.73 35.36 16.16" style="fill:#fff"/><rect x="176.4" y="392.54" width="0.95" height="2.8" transform="translate(-314.32 -235.35) rotate(-29.96)" style="fill:#dae5f8"/><polygon points="36.77 23.45 35.95 23.92 35.95 19.06 36.77 18.59 36.77 23.45" style="fill:#b4caed"/><polygon points="34.55 16.64 35.95 19.06 35.95 23.92 34.55 24.73 30.34 22.3 28.94 19.88 28.94 15.02 30.34 14.21 34.55 16.64" style="fill:#b4d2e0"/><polygon points="33.55 17.09 35.06 19.71 35.06 24.96 33.55 25.83 29 23.2 27.49 20.59 27.49 15.33 29 14.46 33.55 17.09" style="fill:#f5a52e"/><polygon points="29.22 20.03 30.27 21.84 33.42 23.67 32.77 24.05 29.62 22.22 28.57 20.4 28.57 16.76 29.22 16.39 29.22 20.03" style="fill:#ffec7a"/><polygon points="29.22 20.03 28.57 20.4 28.57 16.76 29.22 16.39 29.22 20.03" style="fill:#f5a52e"/><rect x="170.26" y="396.4" width="0.75" height="2.1" transform="translate(-318.59 -235.73) rotate(-30.34)" style="fill:#f5d358"/><polygon points="32.77 17.98 33.82 19.8 33.82 23.44 33.42 23.67 30.27 21.84 29.22 20.03 29.22 16.39 29.62 16.15 32.77 17.98" style="fill:#b4caed"/><polygon points="34.68 16.43 33.55 17.09 29 14.46 30.13 13.81 34.68 16.43" style="fill:#ffec7a"/><rect x="175.43" y="392.88" width="1.31" height="3.03" transform="translate(-315.34 -234.72) rotate(-30.12)" style="fill:#f5d358"/><polygon points="36.19 24.3 35.06 24.96 35.06 19.71 36.19 19.05 36.19 24.3" style="fill:#f5a52e"/><polygon points="38.58 19.4 37.26 20.16 37.26 18.75 38.58 17.98 38.58 19.4" style="fill:#fff"/><polygon points="38.42 18.38 37.41 18.96 37.41 18.83 38.42 18.25 38.42 18.38" style="fill:#b4d2e0"/><polygon points="38.42 18.73 37.41 19.31 37.41 19.18 38.42 18.6 38.42 18.73" style="fill:#b4d2e0"/><polygon points="38.42 19.08 37.41 19.66 37.41 19.53 38.42 18.95 38.42 19.08" style="fill:#b4d2e0"/><polygon points="37.98 19.56 37.41 19.89 37.41 19.76 37.98 19.43 37.98 19.56" style="fill:#b4d2e0"/><polygon points="38.58 20.33 37.26 21.1 37.26 20.42 38.58 19.66 38.58 20.33" style="fill:#fff"/><polygon points="38.09 20.37 38.06 20.39 38.06 20.07 38.09 20.05 38.09 20.37" style="fill:#303033"/><polygon points="38.41 20.18 38.38 20.2 38.38 19.89 38.41 19.87 38.41 20.18" style="fill:#303033"/><polygon points="37.66 20.62 37.63 20.64 37.63 20.32 37.66 20.31 37.66 20.62" style="fill:#303033"/><polygon points="37.58 20.67 37.54 20.69 37.54 20.37 37.58 20.35 37.58 20.67" style="fill:#303033"/><polygon points="38.52 20.12 38.47 20.15 38.47 19.84 38.52 19.81 38.52 20.12" style="fill:#303033"/><polygon points="38.18 20.32 38.13 20.35 38.13 20.03 38.18 20 38.18 20.32" style="fill:#303033"/><polygon points="37.98 20.44 37.97 20.44 37.97 20.13 37.98 20.12 37.98 20.44" style="fill:#303033"/><polygon points="38.29 20.26 38.27 20.27 38.27 19.95 38.29 19.94 38.29 20.26" style="fill:#303033"/><polygon points="37.93 20.47 37.91 20.48 37.91 20.16 37.93 20.15 37.93 20.47" style="fill:#303033"/><polygon points="37.88 20.49 37.87 20.5 37.87 20.18 37.88 20.18 37.88 20.49" style="fill:#303033"/><polygon points="38.34 20.23 38.32 20.24 38.32 19.92 38.34 19.92 38.34 20.23" style="fill:#303033"/><polygon points="37.72 20.59 37.71 20.59 37.71 20.28 37.72 20.27 37.72 20.59" style="fill:#303033"/><polygon points="37.5 20.71 37.48 20.72 37.48 20.4 37.5 20.4 37.5 20.71" style="fill:#303033"/><polygon points="38.03 20.4 38.01 20.42 38.01 20.1 38.03 20.09 38.03 20.4" style="fill:#303033"/><polygon points="38.24 20.29 38.22 20.29 38.22 19.98 38.24 19.97 38.24 20.29" style="fill:#303033"/><polygon points="37.82 20.53 37.77 20.56 37.77 20.24 37.82 20.21 37.82 20.53" style="fill:#303033"/><polygon points="37.42 20.76 37.37 20.79 37.37 20.47 37.42 20.44 37.42 20.76" style="fill:#303033"/><polygon points="42.4 15.94 42.4 16.84 43.54 15.71 43.54 14.81 42.4 15.94" style="fill:#383838"/><polygon points="42.4 18.78 43.54 17.64 43.54 16.75 42.4 17.88 42.4 18.78" style="fill:#383838"/><polygon points="42.4 20.71 43.54 19.58 43.54 18.69 42.4 19.82 42.4 20.71" style="fill:#383838"/><polygon points="40.47 12.61 39.7 12.16 41.25 11.74 42.02 12.19 40.47 12.61" style="fill:#575757"/><polygon points="38.02 11.19 39.57 10.77 40.34 11.22 38.8 11.64 38.02 11.19" style="fill:#575757"/><polygon points="36.34 10.22 37.89 9.8 38.66 10.25 37.12 10.67 36.34 10.22" style="fill:#575757"/><polygon points="33.13 16.85 32.35 16.4 33.9 15.98 34.68 16.43 33.13 16.85" style="fill:#575757"/><polygon points="30.68 15.43 32.22 15.02 33 15.46 31.45 15.88 30.68 15.43" style="fill:#575757"/><polygon points="29 14.46 30.55 14.05 31.32 14.49 29.77 14.91 29 14.46" style="fill:#575757"/><polygon points="35.05 20.18 35.05 21.08 36.19 19.95 36.19 19.05 35.05 20.18" style="fill:#383838"/><polygon points="35.05 23.02 36.19 21.89 36.19 20.99 35.05 22.12 35.05 23.02" style="fill:#383838"/><polygon points="35.05 24.96 36.19 23.82 36.19 22.93 35.05 24.06 35.05 24.96" style="fill:#383838"/><polygon points="31.34 18.36 32.85 20.98 32.85 26.23 31.34 27.11 26.79 24.48 25.28 21.86 25.28 16.61 26.79 15.73 31.34 18.36" style="fill:#050505"/><polygon points="32.47 17.71 31.34 18.36 26.79 15.73 27.92 15.08 32.47 17.71" style="fill:#ffec7a"/><rect x="173.22" y="394.16" width="1.31" height="3.03" transform="translate(-315.97 -236.08) rotate(-30.05)" style="fill:#f5d358"/><polygon points="33.98 25.58 32.85 26.23 32.85 20.98 33.98 20.33 33.98 25.58" style="fill:#f5a52e"/><polygon points="31.17 18.59 30.35 19.06 26.14 16.63 26.96 16.16 31.17 18.59" style="fill:#fff"/><polygon points="32.57 21.02 31.75 21.48 30.35 19.06 31.17 18.59 32.57 21.02" style="fill:#dae5f8"/><polygon points="32.57 25.87 31.75 26.34 31.75 21.48 32.57 21.02 32.57 25.87" style="fill:#b4caed"/><polygon points="26.14 16.63 30.35 19.06 31.75 21.48 31.75 26.34 30.35 27.16 26.14 24.72 24.74 22.3 24.74 17.44 26.14 16.63" style="fill:#b4d2e0"/><polygon points="25.98 21.46 27.49 24.07 27.49 29.32 25.98 30.2 21.43 27.57 19.92 24.95 19.92 19.7 21.43 18.83 25.98 21.46" style="fill:#517fa2"/><polygon points="30.48 18.86 25.98 21.46 21.43 18.83 25.93 16.23 30.48 18.86" style="fill:#fff"/><rect x="167.6" y="396.28" width="5.2" height="3.03" transform="translate(-317.3 -237.94) rotate(-30)" style="fill:#dae5f8"/><polygon points="32 26.73 27.49 29.32 27.49 24.07 32 21.48 32 26.73" style="fill:#b4caed"/><polygon points="25.81 21.68 24.99 22.16 20.78 19.73 21.6 19.25 25.81 21.68" style="fill:#fff"/><rect x="166.84" y="398.05" width="0.95" height="2.8" transform="translate(-318.55 -239.12) rotate(-30.01)" style="fill:#dae5f8"/><polygon points="27.21 28.97 26.39 29.44 26.39 24.58 27.21 24.11 27.21 28.97" style="fill:#b4caed"/><polygon points="24.99 22.16 26.39 24.58 26.39 29.44 24.99 30.25 20.78 27.82 19.38 25.39 19.38 20.53 20.78 19.73 24.99 22.16" style="fill:#b4d2e0"/><polygon points="23.99 22.6 25.5 25.22 25.5 30.47 23.99 31.35 19.44 28.72 17.93 26.1 17.93 20.85 19.44 19.98 23.99 22.6" style="fill:#ffc654"/><polygon points="19.66 25.55 20.71 27.36 23.87 29.19 23.22 29.56 20.06 27.74 19.02 25.92 19.02 22.28 19.66 21.91 19.66 25.55" style="fill:#ffec7a"/><polygon points="19.66 25.55 19.02 25.92 19.02 22.28 19.66 21.91 19.66 25.55" style="fill:#f5a52e"/><rect x="160.7" y="401.92" width="0.75" height="2.1" transform="translate(-322.68 -239.8) rotate(-30.34)" style="fill:#f5d358"/><polygon points="23.22 23.49 24.27 25.31 24.27 28.95 23.87 29.19 20.71 27.36 19.66 25.55 19.66 21.91 20.06 21.67 23.22 23.49" style="fill:#b4caed"/><polygon points="25.12 21.95 23.99 22.6 19.44 19.98 20.57 19.32 25.12 21.95" style="fill:#ffec7a"/><rect x="165.87" y="398.4" width="1.31" height="3.03" transform="translate(-319.37 -238.81) rotate(-30.11)" style="fill:#f5d358"/><polygon points="26.64 29.82 25.5 30.47 25.5 25.22 26.64 24.57 26.64 29.82" style="fill:#f5a52e"/><polygon points="29.02 24.92 27.7 25.68 27.7 24.26 29.02 23.5 29.02 24.92" style="fill:#fff"/><polygon points="28.87 23.9 27.86 24.48 27.86 24.35 28.87 23.77 28.87 23.9" style="fill:#b4d2e0"/><polygon points="28.87 24.25 27.86 24.83 27.86 24.7 28.87 24.12 28.87 24.25" style="fill:#b4d2e0"/><polygon points="28.87 24.6 27.86 25.18 27.86 25.05 28.87 24.47 28.87 24.6" style="fill:#b4d2e0"/><polygon points="28.43 25.08 27.86 25.41 27.86 25.28 28.43 24.95 28.43 25.08" style="fill:#b4d2e0"/><polygon points="29.02 25.85 27.7 26.61 27.7 25.94 29.02 25.17 29.02 25.85" style="fill:#fff"/><polygon points="28.54 25.89 28.51 25.9 28.51 25.59 28.54 25.57 28.54 25.89" style="fill:#303033"/><polygon points="28.86 25.7 28.83 25.72 28.83 25.41 28.86 25.39 28.86 25.7" style="fill:#303033"/><polygon points="28.1 26.14 28.07 26.16 28.07 25.84 28.1 25.82 28.1 26.14" style="fill:#303033"/><polygon points="28.02 26.18 27.99 26.2 27.99 25.89 28.02 25.87 28.02 26.18" style="fill:#303033"/><polygon points="28.97 25.64 28.92 25.67 28.92 25.35 28.97 25.32 28.97 25.64" style="fill:#303033"/><polygon points="28.63 25.84 28.58 25.86 28.58 25.55 28.63 25.52 28.63 25.84" style="fill:#303033"/><polygon points="28.42 25.95 28.41 25.96 28.41 25.65 28.42 25.64 28.42 25.95" style="fill:#303033"/><polygon points="28.73 25.77 28.72 25.78 28.72 25.47 28.73 25.46 28.73 25.77" style="fill:#303033"/><polygon points="28.37 25.99 28.36 25.99 28.36 25.68 28.37 25.67 28.37 25.99" style="fill:#303033"/><polygon points="28.32 26.01 28.31 26.02 28.31 25.7 28.32 25.7 28.32 26.01" style="fill:#303033"/><polygon points="28.78 25.75 28.77 25.75 28.77 25.44 28.78 25.43 28.78 25.75" style="fill:#303033"/><polygon points="28.17 26.1 28.15 26.11 28.15 25.79 28.17 25.79 28.17 26.1" style="fill:#303033"/><polygon points="27.94 26.23 27.93 26.24 27.93 25.92 27.94 25.92 27.94 26.23" style="fill:#303033"/><polygon points="28.48 25.92 28.46 25.93 28.46 25.62 28.48 25.61 28.48 25.92" style="fill:#303033"/><polygon points="28.68 25.8 28.67 25.81 28.67 25.5 28.68 25.49 28.68 25.8" style="fill:#303033"/><polygon points="28.27 26.04 28.22 26.07 28.22 25.76 28.27 25.73 28.27 26.04" style="fill:#303033"/><polygon points="27.87 26.27 27.82 26.3 27.82 25.99 27.87 25.96 27.87 26.27" style="fill:#303033"/><polygon points="32.85 21.46 32.85 22.36 33.98 21.22 33.98 20.33 32.85 21.46" style="fill:#383838"/><polygon points="32.85 24.29 33.98 23.16 33.98 22.27 32.85 23.4 32.85 24.29" style="fill:#383838"/><polygon points="32.85 26.23 33.98 25.1 33.98 24.2 32.85 25.34 32.85 26.23" style="fill:#383838"/><polygon points="30.92 18.12 30.14 17.68 31.69 17.26 32.47 17.71 30.92 18.12" style="fill:#575757"/><polygon points="28.47 16.71 30.02 16.29 30.79 16.74 29.24 17.15 28.47 16.71" style="fill:#575757"/><polygon points="26.79 15.74 28.34 15.32 29.11 15.77 27.56 16.18 26.79 15.74" style="fill:#575757"/><polygon points="23.58 22.36 22.8 21.92 24.35 21.5 25.12 21.95 23.58 22.36" style="fill:#575757"/><polygon points="21.12 20.95 22.67 20.53 23.45 20.98 21.9 21.39 21.12 20.95" style="fill:#575757"/><polygon points="19.44 19.98 20.99 19.56 21.77 20.01 20.22 20.43 19.44 19.98" style="fill:#575757"/><polygon points="25.5 25.7 25.5 26.6 26.64 25.46 26.64 24.57 25.5 25.7" style="fill:#383838"/><polygon points="25.5 28.54 26.64 27.4 26.64 26.51 25.5 27.64 25.5 28.54" style="fill:#383838"/><polygon points="25.5 30.47 26.64 29.34 26.64 28.45 25.5 29.58 25.5 30.47" style="fill:#383838"/><polygon points="5.89 14.31 6.95 16.13 6.95 19.77 5.89 20.38 2.74 18.56 1.69 16.74 1.69 13.1 2.74 12.49 5.89 14.31" style="fill:#89c75b;opacity:0.7000000000000001"/><path d="M144.79,394.06a.66.66,0,0,1-.25-.27l-.88-1.51c-.14-.24-.14-.5,0-.58s.36.05.5.29l.66,1.14,2.12-.65c.15-.05.38.11.49.36s.09.49-.06.54l-2.37.72A.28.28,0,0,1,144.79,394.06Z" transform="translate(-141.21 -376.32)" style="fill:#fff;opacity:0.7000000000000001"/><polygon points="22.51 33.31 23.56 35.13 23.56 38.77 22.51 39.37 19.35 37.55 18.3 35.73 18.3 32.09 19.35 31.48 22.51 33.31" style="fill:#eb5c44;opacity:0.7000000000000001"/><g style="opacity:0.7000000000000001"><path d="M162.31,410.91a.72.72,0,0,0-.37-.62.45.45,0,0,0-.5,0l-.45-.73a.93.93,0,0,1,1.06,0,2,2,0,0,1,1,1.7c0,.79-.83.54-.76,1.34l-.71-.41C161.51,411.28,162.31,411.38,162.31,410.91Zm-.83,2.2c0-.34.21-.48.49-.32a1.09,1.09,0,0,1,.49.88c0,.33-.21.47-.49.3A1.06,1.06,0,0,1,161.48,413.11Z" transform="translate(-141.21 -376.32)" style="fill:#fff"/></g><polygon points="14.21 28.52 15.26 30.33 15.26 33.98 14.21 34.58 11.05 32.76 10 30.94 10 27.3 11.05 26.69 14.21 28.52" style="fill:#eb5c44;opacity:0.7000000000000001"/><g style="opacity:0.7000000000000001"><path d="M154,406.11a.71.71,0,0,0-.37-.61.45.45,0,0,0-.5,0l-.45-.73a.93.93,0,0,1,1.06,0,2,2,0,0,1,1,1.69c0,.79-.83.55-.76,1.35l-.71-.41C153.21,406.49,154,406.59,154,406.11Zm-.83,2.2c0-.33.21-.47.49-.31a1.08,1.08,0,0,1,.49.88c0,.33-.21.46-.49.3A1.06,1.06,0,0,1,153.18,408.31Z" transform="translate(-141.21 -376.32)" style="fill:#fff"/></g><polygon points="5.89 23.72 6.95 25.54 6.95 29.18 5.89 29.78 2.74 27.96 1.69 26.14 1.69 22.5 2.74 21.9 5.89 23.72" style="fill:#eb5c44;opacity:0.7000000000000001"/><g style="opacity:0.7000000000000001"><path d="M145.7,401.32a.72.72,0,0,0-.37-.62.45.45,0,0,0-.5,0l-.45-.73a.93.93,0,0,1,1.06,0,2,2,0,0,1,1,1.7c0,.79-.83.54-.76,1.34l-.71-.41C144.9,401.69,145.7,401.79,145.7,401.32Zm-.83,2.2c0-.34.21-.48.49-.32a1.09,1.09,0,0,1,.49.88c0,.33-.21.47-.49.3A1.06,1.06,0,0,1,144.87,403.52Z" transform="translate(-141.21 -376.32)" style="fill:#fff"/></g><polygon points="14.21 19.11 15.26 20.93 15.26 24.57 14.21 25.18 11.05 23.36 10 21.54 10 17.9 11.05 17.29 14.21 19.11" style="fill:#89c75b;opacity:0.7000000000000001"/><path d="M153.1,398.85a.63.63,0,0,1-.25-.26l-.88-1.51c-.14-.24-.14-.5,0-.58s.36.05.5.28l.66,1.14,2.12-.64c.15,0,.37.11.49.36s.09.49-.06.53l-2.37.72A.24.24,0,0,1,153.1,398.85Z" transform="translate(-141.21 -376.32)" style="fill:#fff;opacity:0.7000000000000001"/><polygon points="22.51 23.9 23.56 25.72 23.56 29.36 22.51 29.97 19.35 28.15 18.3 26.33 18.3 22.69 19.35 22.08 22.51 23.9" style="fill:#eb5c44;opacity:0.7000000000000001"/><g style="opacity:0.7000000000000001"><path d="M162.31,401.5a.71.71,0,0,0-.37-.61.43.43,0,0,0-.5,0l-.45-.73a.93.93,0,0,1,1.06,0,2,2,0,0,1,1,1.69c0,.79-.83.55-.76,1.35l-.71-.41C161.51,401.88,162.31,402,162.31,401.5Zm-.83,2.2c0-.33.21-.47.49-.31a1.08,1.08,0,0,1,.49.88c0,.33-.21.46-.49.3A1.08,1.08,0,0,1,161.48,403.7Z" transform="translate(-141.21 -376.32)" style="fill:#fff"/></g><path d="M145.85,400.69l-.14,1.73.22.05s.28,0,.28.57-.24.56-.24.56a1.85,1.85,0,0,1-1.44-.24,14.47,14.47,0,0,1-.22-3.12s-.08-1.37,1.15-1.27C146.4,399.05,145.85,400.69,145.85,400.69Z" transform="translate(-141.21 -376.32)" style="fill:#dae5f8"/><path d="M146,417.43a4.89,4.89,0,0,1,4.44,0,1.36,1.36,0,0,1,0,2.57,4.89,4.89,0,0,1-4.44,0A1.36,1.36,0,0,1,146,417.43Z" transform="translate(-141.21 -376.32)" style="opacity:0.30000000000000004"/><path d="M147.56,417.41s.35.39.13.54c-.43.45-.64,1.11-.85,1.19a.55.55,0,0,1-.63-.18c-.15-.19,0-.92,0-1A6.54,6.54,0,0,1,147.56,417.41Z" transform="translate(-141.21 -376.32)" style="fill:#003552"/><path d="M149.21,418.4a11.91,11.91,0,0,0,1.5.35c.34,0,.36.94-.54,1a17.48,17.48,0,0,1-2.71.08c-.23-.11-.07-1.16-.07-1.16Z" transform="translate(-141.21 -376.32)" style="fill:#003552"/><path d="M147.56,417.27s.35.38.13.54c-.43.44-.64,1.11-.85,1.19a.55.55,0,0,1-.63-.18c-.15-.19,0-.93,0-1A7.14,7.14,0,0,1,147.56,417.27Z" transform="translate(-141.21 -376.32)" style="fill:#fff"/><path d="M147.78,399.23a.9.9,0,0,1,.76.86c0,.26-.46.62-.61.53a5.74,5.74,0,0,1-.67-1C147.23,399.49,147.61,399.22,147.78,399.23Z" transform="translate(-141.21 -376.32)" style="fill:#b4caed"/><path d="M145.25,399.23l2.65.69.42.53.09.16.53.21a1.55,1.55,0,0,1,.63.41,9.94,9.94,0,0,1,0,2.07l-.25,1.79-1.36-.08-1.78-1-.69-1.65-.46-.46a3.91,3.91,0,0,1-.29-1.84C144.87,399.33,145.25,399.23,145.25,399.23Z" transform="translate(-141.21 -376.32)" style="fill:#fff"/><path d="M152.76,399.05a2,2,0,0,1,.21-.39c.2-.21.37-.09.37-.09s.7-.82.78-.67-.41.69-.41.69c.09.17.38.8.25,1a4.68,4.68,0,0,1-.69.48l-.76,2s-.95-.26-.93-.38a17.6,17.6,0,0,0,1-1.83A2.76,2.76,0,0,1,152.76,399.05Z" transform="translate(-141.21 -376.32)" style="fill:#f0c6b4"/><path d="M148.09,407.88l.39,5s-.18,3.44-.39,4.39-2.2,1.08-2.2.14-.16-2.56,0-4.95c0-.52-.58-2.67-.74-5.11C145.36,407,148.09,407.88,148.09,407.88Z" transform="translate(-141.21 -376.32)" style="fill:#517fa2"/><path d="M149.21,418.26a11.91,11.91,0,0,0,1.5.35c.34,0,.36.93-.54,1a17.48,17.48,0,0,1-2.71.08c-.23-.11-.07-1.16-.07-1.16Z" transform="translate(-141.21 -376.32)" style="fill:#fff"/><path d="M149.39,402.62c0-.14.24-.13.34.07a13.51,13.51,0,0,0-.13,2.41l-.21.89-.56-.28-.13-.67.41-.37S149.35,404.35,149.39,402.62Z" transform="translate(-141.21 -376.32)" style="fill:#659ec9"/><path d="M151.48,401.52a.89.89,0,0,1,1.09.34c.12.23-.06.77-.24.76a4.78,4.78,0,0,1-1.07-.47C151.14,402,151.33,401.61,151.48,401.52Z" transform="translate(-141.21 -376.32)" style="fill:#fff"/><path d="M149.11,404.67v.83l-.19.41h-1.8l-.92-.72a2.68,2.68,0,0,1-.31-.85,18.5,18.5,0,0,1-.93-2.7,21.09,21.09,0,0,0,2.2,1.27C147.83,405.06,149.11,404.67,149.11,404.67Z" transform="translate(-141.21 -376.32)" style="fill:#659ec9"/><path d="M148.35,405.53c1.2.12,1.25-.43,1.25-.43a27.56,27.56,0,0,1-.24,7.8,26.43,26.43,0,0,0-.07,5.32c.1,1.13-2.1.88-2,.09s-.14-3.41.06-4.95a22.55,22.55,0,0,0-.37-4.76s-1.51-.33-1.76-1.05c-.38-1.07.72-3.21.72-3.21A3.6,3.6,0,0,0,148.35,405.53Z" transform="translate(-141.21 -376.32)" style="fill:#659ec9"/><path d="M148.56,400.54a.86.86,0,0,1,.41.31c-1.69-.59-1.81,2.06-1.81,2.06l-.58.09-.19-.49S147,399.76,148.56,400.54Z" transform="translate(-141.21 -376.32)" style="fill:#659ec9"/><path d="M145.49,399c.2-.12.43.21.56.19-1.31.87-.44,2.9-.44,2.9l-.29.19-.36-.62S144.56,399.71,145.49,399Z" transform="translate(-141.21 -376.32)" style="fill:#659ec9"/><polygon points="7.5 21.88 8.22 21.21 8.22 20.3 7.5 20.98 7.5 21.88" style="fill:#383838"/><polygon points="7.76 20.87 8.22 20.43 8.22 21.08 7.76 21.52 7.76 20.87" style="fill:#adadad"/><polygon points="7.9 20.97 8.22 20.67 8.22 20.85 7.9 21.16 7.9 20.97" style="fill:#4fbeff"/><polygon points="7.37 21.81 7.5 21.88 7.5 20.98 7.37 20.9 7.37 21.81" style="fill:#050505"/><path d="M148.58,397.22a.89.89,0,0,0,.11-.82l-.26-.32.41.19.59.36-.71.67Z" transform="translate(-141.21 -376.32)" style="fill:#666"/><path d="M147.16,395.27a1.47,1.47,0,0,1,1.6.71c.44,1-.14,3.33.15,4.24-.72.38-1-.07-1.29-.26-.15,0-.23.29-.09.44a2.49,2.49,0,0,1-2.13-.58c-.16,0,0,.3,0,.3a1.46,1.46,0,0,1-.47-1.31C145,397.94,145.2,395,147.16,395.27Z" transform="translate(-141.21 -376.32)" style="fill:#9c5725"/><path d="M147.16,395.27s-.62.5-.75.39S147.16,395.27,147.16,395.27Z" transform="translate(-141.21 -376.32)" style="fill:#572b26"/><path d="M150,401.43l1.23.72.13-.19s.14-.24.63,0,.44.43.44.43a1.86,1.86,0,0,1-.76,1.25,11,11,0,0,1-2.65-.89s-1.3-.43-.76-1.53C148.64,400.32,150,401.43,150,401.43Z" transform="translate(-141.21 -376.32)" style="fill:#dae5f8"/></svg>