<svg id="Layer_1" data-name="Layer 1" xmlns="http://www.w3.org/2000/svg" viewBox="0 0 54.86 65.93"><polygon points="28.69 25.59 21.95 21.7 28.69 17.81 35.42 21.7 28.69 25.59" style="fill:#fff"/><polygon points="28.69 54.05 21.95 50.16 21.95 21.7 28.69 25.59 28.69 54.05" style="fill:#dae5f8"/><polygon points="28.69 54.05 35.42 50.16 35.42 21.7 28.69 25.59 28.69 54.05" style="fill:#b4caed"/><polygon points="28.69 10.74 23.97 8.01 28.69 5.29 33.41 8.01 28.69 10.74" style="fill:#659ec9"/><polygon points="28.69 24.41 23.97 21.69 23.97 8.01 28.69 10.74 28.69 24.41" style="fill:#517fa2"/><polygon points="28.69 24.41 33.41 21.69 33.41 8.01 28.69 10.74 28.69 24.41" style="fill:#295e87"/><polygon points="23.6 65.93 11.64 59.02 11.64 57.49 23.6 64.4 23.6 65.93" style="fill:#1078ad"/><polygon points="51.69 48.19 23.6 64.4 11.64 57.49 39.72 41.28 51.69 48.19" style="fill:#003552"/><polygon points="51.69 49.72 23.6 65.93 23.6 64.4 51.69 48.19 51.69 49.72" style="fill:#00537d"/><path d="M223.06,313.78l26.28-20.11-11.94-6.89h0a2.08,2.08,0,0,0-2.12.2l-22.1,12.75a6.65,6.65,0,0,0-3,5.19,2.12,2.12,0,0,0,.87,1.94h0Z" transform="translate(-199.34 -253.24)" style="fill:gray"/><path d="M247.24,300.8l-22.1,12.76c-1.65.95-3,.18-3-1.73a6.62,6.62,0,0,1,3-5.19l22.1-12.76c1.65-.95,3-.17,3,1.73A6.62,6.62,0,0,1,247.24,300.8Z" transform="translate(-199.34 -253.24)" style="fill:#383838"/><path d="M249.89,294.78l-.78-.54a1.74,1.74,0,0,0-1.87.14l-22.1,12.75a5.68,5.68,0,0,0-2.57,4.45,1.87,1.87,0,0,0,.68,1.62l.8.55.09-.34a2.58,2.58,0,0,0,1-.34l22.1-12.76a5.68,5.68,0,0,0,2.57-4.45,3.06,3.06,0,0,0-.09-.71Z" transform="translate(-199.34 -253.24)" style="fill:#fff"/><path d="M248,294.93l-22.09,12.75a5.69,5.69,0,0,0-2.58,4.45c0,1.64,1.16,2.3,2.58,1.48L248,300.86a5.68,5.68,0,0,0,2.57-4.45C250.6,294.77,249.45,294.11,248,294.93Z" transform="translate(-199.34 -253.24)" style="fill:#b4caed"/><path d="M249.59,296.35l-.49-.28h0a1.06,1.06,0,0,0-1.07.1,3.31,3.31,0,0,0-1.49,2.58,1.08,1.08,0,0,0,.39.94l.61.35.15-.28a1.42,1.42,0,0,0,.34-.15,3.29,3.29,0,0,0,1.49-2.58,1.53,1.53,0,0,0-.06-.45Z" transform="translate(-199.34 -253.24)" style="fill:#659ec9"/><path d="M250.05,297.33a3.29,3.29,0,0,1-1.5,2.59c-.82.47-1.49.09-1.49-.86a3.31,3.31,0,0,1,1.49-2.59C249.38,296,250.05,296.38,250.05,297.33Z" transform="translate(-199.34 -253.24)" style="fill:#295e87"/><path d="M227.49,309.11l-.49-.28h0a1,1,0,0,0-1.06.1,3.28,3.28,0,0,0-1.5,2.58,1.08,1.08,0,0,0,.4.94l.6.35.16-.28a1.42,1.42,0,0,0,.34-.15,3.29,3.29,0,0,0,1.49-2.58,1.52,1.52,0,0,0-.07-.45Z" transform="translate(-199.34 -253.24)" style="fill:#659ec9"/><path d="M228,310.09a3.29,3.29,0,0,1-1.49,2.58c-.82.48-1.49.09-1.49-.86a3.29,3.29,0,0,1,1.49-2.58C227.28,308.75,228,309.14,228,310.09Z" transform="translate(-199.34 -253.24)" style="fill:#295e87"/><polygon points="31.35 62.44 30.5 61.95 30.5 53.34 31.35 53.83 32.5 57.21 31.35 62.44" style="fill:#dae5f8"/><polygon points="34.37 52.09 33.26 54.92 31.35 53.83 30.5 53.34 33.52 51.6 34.37 52.09" style="fill:#fff"/><polygon points="34.37 60.69 31.35 62.44 31.35 53.83 34.37 52.09 34.37 60.69" style="fill:#b4caed"/><polygon points="37.26 59.02 36.41 58.54 36.41 49.93 37.26 50.42 38.41 53.8 37.26 59.02" style="fill:#dae5f8"/><polygon points="40.27 48.68 39.16 51.51 37.26 50.42 36.41 49.93 39.43 48.19 40.27 48.68" style="fill:#fff"/><polygon points="40.27 57.28 37.26 59.02 37.26 50.42 40.27 48.68 40.27 57.28" style="fill:#b4caed"/><polygon points="43.16 55.62 42.32 55.13 42.32 46.52 43.16 47.01 44.31 50.39 43.16 55.62" style="fill:#dae5f8"/><polygon points="46.18 45.27 45.07 48.1 43.16 47.01 42.32 46.52 45.34 44.78 46.18 45.27" style="fill:#fff"/><polygon points="46.18 53.87 43.16 55.62 43.16 47.01 46.18 45.27 46.18 53.87" style="fill:#b4caed"/><polygon points="40.01 42.7 31.52 47.6 23.95 43.23 32.44 38.33 40.01 42.7" style="opacity:0.30000000000000004"/><polygon points="37.36 33.74 38.87 36.36 38.87 41.61 37.36 42.49 32.81 39.86 31.3 37.24 31.3 31.99 32.81 31.11 37.36 33.74" style="fill:#050505"/><polygon points="38.49 33.09 37.36 33.74 32.81 31.11 33.94 30.46 38.49 33.09" style="fill:#ffec7a"/><rect x="237.37" y="286.45" width="1.31" height="3.03" transform="translate(-311.53 -95.37) rotate(-30.04)" style="fill:#f5d358"/><polygon points="40.01 40.96 38.87 41.61 38.87 36.36 40.01 35.71 40.01 40.96" style="fill:#f5a52e"/><polygon points="37.19 33.97 36.37 34.44 32.16 32.01 32.98 31.54 37.19 33.97" style="fill:#fff"/><polygon points="38.59 36.4 37.77 36.86 36.37 34.44 37.19 33.97 38.59 36.4" style="fill:#dae5f8"/><polygon points="38.59 41.25 37.77 41.73 37.77 36.86 38.59 36.4 38.59 41.25" style="fill:#b4caed"/><polygon points="32.16 32.01 36.37 34.44 37.77 36.86 37.77 41.73 36.37 42.53 32.16 40.1 30.76 37.68 30.77 32.82 32.16 32.01" style="fill:#b4d2e0"/><polygon points="32 36.84 33.52 39.45 33.52 44.7 32 45.58 27.46 42.95 25.94 40.34 25.94 35.08 27.46 34.21 32 36.84" style="fill:#517fa2"/><polygon points="36.5 34.24 32 36.84 27.46 34.21 31.96 31.61 36.5 34.24" style="fill:#fff"/><rect x="231.75" y="288.57" width="5.2" height="3.02" transform="translate(-312.92 -97.36) rotate(-29.97)" style="fill:#dae5f8"/><polygon points="38.02 42.11 33.52 44.7 33.52 39.45 38.02 36.86 38.02 42.11" style="fill:#b4caed"/><polygon points="31.83 37.06 31.02 37.54 26.81 35.1 27.62 34.63 31.83 37.06" style="fill:#fff"/><rect x="230.99" y="290.35" width="0.95" height="2.8" transform="translate(-314.22 -98.37) rotate(-30.01)" style="fill:#dae5f8"/><polygon points="33.23 44.35 32.41 44.82 32.41 39.96 33.23 39.49 33.23 44.35" style="fill:#b4caed"/><polygon points="31.02 37.54 32.41 39.96 32.41 44.82 31.02 45.63 26.81 43.2 25.41 40.77 25.41 35.91 26.81 35.1 31.02 37.54" style="fill:#b4d2e0"/><polygon points="30.02 37.98 31.53 40.6 31.53 45.85 30.02 46.73 25.47 44.1 23.95 41.48 23.95 36.23 25.47 35.36 30.02 37.98" style="fill:#ffc654"/><polygon points="25.68 40.93 26.73 42.74 29.89 44.57 29.24 44.94 26.09 43.12 25.04 41.3 25.04 37.66 25.68 37.28 25.68 40.93" style="fill:#ffec7a"/><polygon points="25.68 40.93 25.04 41.3 25.04 37.66 25.68 37.28 25.68 40.93" style="fill:#f5a52e"/><polygon points="26.73 42.74 26.09 43.12 25.04 41.3 25.68 40.93 26.73 42.74" style="fill:#f5d358"/><polygon points="29.24 38.87 30.29 40.69 30.29 44.34 29.89 44.57 26.73 42.74 25.68 40.93 25.68 37.28 26.09 37.05 29.24 38.87" style="fill:#b4caed"/><polygon points="31.15 37.33 30.02 37.98 25.47 35.36 26.6 34.7 31.15 37.33" style="fill:#ffec7a"/><rect x="230.02" y="290.69" width="1.31" height="3.03" transform="translate(-314.86 -97.94) rotate(-30.13)" style="fill:#f5d358"/><polygon points="32.66 45.2 31.53 45.85 31.53 40.6 32.66 39.95 32.66 45.2" style="fill:#f5a52e"/><polygon points="35.05 40.3 33.73 41.06 33.73 39.64 35.05 38.88 35.05 40.3" style="fill:#fff"/><polygon points="34.89 39.28 33.88 39.86 33.88 39.73 34.89 39.15 34.89 39.28" style="fill:#b4d2e0"/><polygon points="34.89 39.63 33.88 40.21 33.88 40.08 34.89 39.5 34.89 39.63" style="fill:#b4d2e0"/><polygon points="34.89 39.98 33.88 40.56 33.88 40.43 34.89 39.85 34.89 39.98" style="fill:#b4d2e0"/><polygon points="34.45 40.46 33.88 40.79 33.88 40.66 34.45 40.33 34.45 40.46" style="fill:#b4d2e0"/><polygon points="35.05 41.23 33.73 41.99 33.73 41.32 35.05 40.55 35.05 41.23" style="fill:#fff"/><polygon points="34.56 41.27 34.53 41.28 34.53 40.97 34.56 40.95 34.56 41.27" style="fill:#303033"/><polygon points="34.88 41.08 34.85 41.1 34.85 40.79 34.88 40.77 34.88 41.08" style="fill:#303033"/><polygon points="34.13 41.52 34.09 41.54 34.09 41.22 34.13 41.2 34.13 41.52" style="fill:#303033"/><polygon points="34.04 41.57 34.01 41.59 34.01 41.27 34.04 41.25 34.04 41.57" style="fill:#303033"/><polygon points="34.99 41.02 34.94 41.05 34.94 40.73 34.99 40.7 34.99 41.02" style="fill:#303033"/><polygon points="34.65 41.22 34.6 41.24 34.6 40.93 34.65 40.9 34.65 41.22" style="fill:#303033"/><polygon points="34.45 41.33 34.44 41.34 34.44 41.02 34.45 41.02 34.45 41.33" style="fill:#303033"/><polygon points="34.76 41.15 34.74 41.16 34.74 40.85 34.76 40.84 34.76 41.15" style="fill:#303033"/><polygon points="34.4 41.36 34.38 41.37 34.38 41.05 34.4 41.05 34.4 41.36" style="fill:#303033"/><polygon points="34.34 41.39 34.34 41.4 34.34 41.08 34.34 41.08 34.34 41.39" style="fill:#303033"/><polygon points="34.8 41.13 34.79 41.13 34.79 40.82 34.8 40.81 34.8 41.13" style="fill:#303033"/><polygon points="34.19 41.48 34.18 41.49 34.18 41.17 34.19 41.17 34.19 41.48" style="fill:#303033"/><polygon points="33.97 41.61 33.95 41.62 33.95 41.3 33.97 41.3 33.97 41.61" style="fill:#303033"/><polygon points="34.5 41.3 34.48 41.31 34.48 41 34.5 40.99 34.5 41.3" style="fill:#303033"/><polygon points="34.71 41.19 34.69 41.19 34.69 40.88 34.71 40.87 34.71 41.19" style="fill:#303033"/><polygon points="34.29 41.42 34.24 41.45 34.24 41.14 34.29 41.11 34.29 41.42" style="fill:#303033"/><polygon points="33.89 41.65 33.84 41.68 33.84 41.37 33.89 41.34 33.89 41.65" style="fill:#303033"/><polygon points="38.87 36.84 38.87 37.73 40.01 36.6 40.01 35.71 38.87 36.84" style="fill:#383838"/><polygon points="38.87 39.67 40.01 38.54 40.01 37.65 38.87 38.78 38.87 39.67" style="fill:#383838"/><polygon points="38.87 41.61 40.01 40.48 40.01 39.58 38.87 40.72 38.87 41.61" style="fill:#383838"/><polygon points="36.94 33.5 36.17 33.06 37.72 32.64 38.49 33.09 36.94 33.5" style="fill:#575757"/><polygon points="34.49 32.09 36.04 31.67 36.81 32.12 35.27 32.53 34.49 32.09" style="fill:#575757"/><polygon points="32.81 31.12 34.36 30.7 35.13 31.15 33.59 31.57 32.81 31.12" style="fill:#575757"/><polygon points="29.6 37.74 28.82 37.3 30.37 36.88 31.15 37.33 29.6 37.74" style="fill:#575757"/><polygon points="27.15 36.33 28.69 35.91 29.47 36.36 27.92 36.77 27.15 36.33" style="fill:#575757"/><polygon points="25.47 35.36 27.02 34.94 27.79 35.39 26.24 35.81 25.47 35.36" style="fill:#575757"/><polygon points="31.52 41.08 31.52 41.98 32.66 40.84 32.66 39.95 31.52 41.08" style="fill:#383838"/><polygon points="31.52 43.91 32.66 42.78 32.66 41.89 31.52 43.02 31.52 43.91" style="fill:#383838"/><polygon points="31.52 45.85 32.66 44.72 32.66 43.82 31.52 44.96 31.52 45.85" style="fill:#383838"/><polygon points="45.64 35.4 38.91 31.51 45.64 27.62 52.38 31.51 45.64 35.4" style="fill:#fff"/><polygon points="45.64 63.86 38.91 59.97 38.91 31.51 45.64 35.4 45.64 63.86" style="fill:#dae5f8"/><polygon points="45.64 63.86 52.38 59.97 52.38 31.51 45.64 35.4 45.64 63.86" style="fill:#b4caed"/><polygon points="54.76 6.96 54.75 14.31 52.82 15.41 52.83 8.07 54.76 6.96" style="fill:#b4caed"/><polygon points="54.76 6.96 52.83 8.07 47.05 4.73 48.98 3.62 54.76 6.96" style="fill:#fff"/><polygon points="52.83 8.07 52.82 15.41 47.04 12.08 47.05 4.73 52.83 8.07" style="fill:#dae5f8"/><polygon points="9.35 40.61 8.27 44.33 9.02 48.74 7.73 49.49 5.93 45.76 5.03 40.41 7.01 39.26 9.35 40.61" style="fill:#a7a9ac"/><polygon points="7.37 41.75 6.98 45.08 7.73 49.49 6.31 48.67 3.99 43.52 5.03 40.41 7.37 41.75" style="fill:#6d6e71"/><polygon points="16.29 43.48 17.8 46.1 17.8 51.35 16.29 52.23 11.74 49.6 10.23 46.98 10.23 41.73 11.74 40.85 16.29 43.48" style="fill:#050505"/><polygon points="17.42 42.83 16.29 43.48 11.74 40.85 12.87 40.2 17.42 42.83" style="fill:#ffec7a"/><rect x="216.29" y="296.19" width="1.31" height="3.03" transform="translate(-319.19 -104.72) rotate(-30.03)" style="fill:#f5d358"/><polygon points="18.93 50.7 17.8 51.35 17.8 46.1 18.93 45.45 18.93 50.7" style="fill:#f5a52e"/><polygon points="16.12 43.71 15.3 44.18 11.09 41.75 11.91 41.28 16.12 43.71" style="fill:#fff"/><polygon points="17.52 46.13 16.7 46.6 15.3 44.18 16.12 43.71 17.52 46.13" style="fill:#dae5f8"/><polygon points="17.52 50.99 16.7 51.46 16.7 46.6 17.52 46.13 17.52 50.99" style="fill:#b4caed"/><polygon points="11.09 41.75 15.3 44.18 16.7 46.6 16.7 51.46 15.3 52.27 11.09 49.84 9.69 47.42 9.69 42.56 11.09 41.75" style="fill:#b4d2e0"/><polygon points="10.93 46.57 12.44 49.19 12.44 54.44 10.93 55.32 6.38 52.69 4.87 50.07 4.87 44.82 6.38 43.95 10.93 46.57" style="fill:#517fa2"/><polygon points="15.43 43.98 10.93 46.57 6.38 43.95 10.88 41.35 15.43 43.98" style="fill:#fff"/><rect x="210.67" y="298.31" width="5.2" height="3.03" transform="translate(-320.64 -106.52) rotate(-29.99)" style="fill:#dae5f8"/><polygon points="16.94 51.85 12.44 54.44 12.44 49.19 16.94 46.59 16.94 51.85" style="fill:#b4caed"/><polygon points="10.76 46.8 9.94 47.27 5.73 44.84 6.55 44.37 10.76 46.8" style="fill:#fff"/><rect x="209.92" y="300.09" width="0.94" height="2.8" transform="translate(-321.77 -107.91) rotate(-29.96)" style="fill:#dae5f8"/><polygon points="12.16 54.09 11.34 54.56 11.34 49.7 12.16 49.23 12.16 54.09" style="fill:#b4caed"/><polygon points="9.94 47.27 11.34 49.7 11.34 54.56 9.94 55.36 5.73 52.94 4.33 50.51 4.33 45.65 5.73 44.84 9.94 47.27" style="fill:#b4d2e0"/><polygon points="8.94 47.72 10.45 50.34 10.45 55.59 8.94 56.47 4.39 53.84 2.88 51.22 2.88 45.97 4.39 45.1 8.94 47.72" style="fill:#ffc654"/><polygon points="4.61 50.66 5.66 52.48 8.82 54.31 8.17 54.68 5.01 52.86 3.96 51.04 3.96 47.4 4.61 47.02 4.61 50.66" style="fill:#ffec7a"/><polygon points="4.61 50.66 3.96 51.04 3.96 47.4 4.61 47.02 4.61 50.66" style="fill:#f5a52e"/><polygon points="5.66 52.48 5.01 52.86 3.96 51.04 4.61 50.66 5.66 52.48" style="fill:#f5d358"/><polygon points="8.17 48.61 9.22 50.43 9.22 54.07 8.82 54.31 5.66 52.48 4.61 50.66 4.61 47.02 5.01 46.79 8.17 48.61" style="fill:#b4caed"/><polygon points="10.07 47.07 8.94 47.72 4.39 45.1 5.52 44.44 10.07 47.07" style="fill:#ffec7a"/><polygon points="11.58 49.69 10.45 50.34 8.94 47.72 10.07 47.07 11.58 49.69" style="fill:#f5d358"/><polygon points="11.58 54.94 10.45 55.59 10.45 50.34 11.58 49.69 11.58 54.94" style="fill:#f5a52e"/><polygon points="13.97 50.04 12.65 50.8 12.65 49.38 13.97 48.62 13.97 50.04" style="fill:#fff"/><polygon points="13.82 49.02 12.81 49.6 12.81 49.47 13.82 48.89 13.82 49.02" style="fill:#b4d2e0"/><polygon points="13.82 49.37 12.81 49.95 12.81 49.82 13.82 49.23 13.82 49.37" style="fill:#b4d2e0"/><polygon points="13.82 49.72 12.81 50.3 12.81 50.17 13.82 49.58 13.82 49.72" style="fill:#b4d2e0"/><polygon points="13.38 50.2 12.81 50.53 12.81 50.4 13.38 50.07 13.38 50.2" style="fill:#b4d2e0"/><polygon points="13.97 50.97 12.65 51.73 12.65 51.06 13.97 50.29 13.97 50.97" style="fill:#fff"/><polygon points="13.49 51.01 13.46 51.02 13.46 50.71 13.49 50.69 13.49 51.01" style="fill:#303033"/><polygon points="13.81 50.82 13.78 50.84 13.78 50.52 13.81 50.51 13.81 50.82" style="fill:#303033"/><polygon points="13.05 51.26 13.02 51.27 13.02 50.96 13.05 50.94 13.05 51.26" style="fill:#303033"/><polygon points="12.97 51.3 12.94 51.32 12.94 51.01 12.97 50.99 12.97 51.3" style="fill:#303033"/><polygon points="13.92 50.76 13.86 50.79 13.86 50.47 13.92 50.44 13.92 50.76" style="fill:#303033"/><polygon points="13.58 50.95 13.53 50.98 13.53 50.67 13.58 50.64 13.58 50.95" style="fill:#303033"/><polygon points="13.37 51.07 13.36 51.08 13.36 50.77 13.37 50.76 13.37 51.07" style="fill:#303033"/><polygon points="13.68 50.89 13.67 50.9 13.67 50.59 13.68 50.58 13.68 50.89" style="fill:#303033"/><polygon points="13.32 51.1 13.3 51.11 13.3 50.79 13.32 50.79 13.32 51.1" style="fill:#303033"/><polygon points="13.27 51.13 13.26 51.13 13.26 50.82 13.27 50.82 13.27 51.13" style="fill:#303033"/><polygon points="13.73 50.87 13.72 50.87 13.72 50.56 13.73 50.55 13.73 50.87" style="fill:#303033"/><polygon points="13.12 51.22 13.1 51.23 13.1 50.91 13.12 50.9 13.12 51.22" style="fill:#303033"/><polygon points="12.89 51.35 12.88 51.36 12.88 51.04 12.89 51.03 12.89 51.35" style="fill:#303033"/><polygon points="13.42 51.04 13.41 51.05 13.41 50.74 13.42 50.73 13.42 51.04" style="fill:#303033"/><polygon points="13.63 50.92 13.62 50.93 13.62 50.62 13.63 50.61 13.63 50.92" style="fill:#303033"/><polygon points="13.22 51.16 13.17 51.19 13.17 50.88 13.22 50.85 13.22 51.16" style="fill:#303033"/><polygon points="12.82 51.39 12.77 51.42 12.77 51.11 12.82 51.08 12.82 51.39" style="fill:#303033"/><polygon points="17.8 46.58 17.8 47.47 18.93 46.34 18.93 45.45 17.8 46.58" style="fill:#383838"/><polygon points="17.8 49.41 18.93 48.28 18.93 47.38 17.8 48.52 17.8 49.41" style="fill:#383838"/><polygon points="17.8 51.35 18.93 50.22 18.93 49.32 17.8 50.45 17.8 51.35" style="fill:#383838"/><polygon points="15.87 43.24 15.09 42.79 16.64 42.38 17.42 42.83 15.87 43.24" style="fill:#575757"/><polygon points="13.41 41.82 14.96 41.41 15.74 41.86 14.19 42.27 13.41 41.82" style="fill:#575757"/><polygon points="11.73 40.85 13.28 40.44 14.06 40.89 12.51 41.3 11.73 40.85" style="fill:#575757"/><polygon points="8.53 47.48 7.75 47.03 9.3 46.62 10.07 47.07 8.53 47.48" style="fill:#575757"/><polygon points="6.07 46.06 7.62 45.65 8.39 46.1 6.85 46.51 6.07 46.06" style="fill:#575757"/><polygon points="4.39 45.1 5.94 44.68 6.72 45.13 5.17 45.54 4.39 45.1" style="fill:#575757"/><polygon points="10.45 50.82 10.45 51.72 11.58 50.58 11.58 49.69 10.45 50.82" style="fill:#383838"/><polygon points="10.45 53.65 11.58 52.52 11.58 51.63 10.45 52.76 10.45 53.65" style="fill:#383838"/><polygon points="10.45 55.59 11.58 54.46 11.58 53.56 10.45 54.7 10.45 55.59" style="fill:#383838"/><polygon points="17.87 45.54 19.09 50.41 16.27 53.36 14.98 54.11 15.29 50.64 13.56 45.34 15.54 44.2 17.87 45.54" style="fill:#a7a9ac"/><polygon points="15.9 46.69 17.28 51.46 14.98 54.11 13.56 53.29 14.29 49.9 13.56 45.34 15.9 46.69" style="fill:#6d6e71"/><path d="M216.71,292.73v3.49a2.94,2.94,0,0,1-1.74,2.43,9.26,9.26,0,0,1-8.42,0,2.94,2.94,0,0,1-1.75-2.43v-3.49Z" transform="translate(-199.34 -253.24)" style="fill:#b4caed"/><path d="M206.55,295.16a9.32,9.32,0,0,0,8.42,0c2.32-1.34,2.32-3.52,0-4.85a9.2,9.2,0,0,0-8.42,0C204.22,291.64,204.22,293.82,206.55,295.16Z" transform="translate(-199.34 -253.24)" style="fill:#fff"/><path d="M216.05,290.86v1.56a2.63,2.63,0,0,1-1.55,2.17,8.26,8.26,0,0,1-7.5,0,2.61,2.61,0,0,1-1.55-2.17v-1.56Z" transform="translate(-199.34 -253.24)" style="fill:#b4caed"/><path d="M207,293a8.32,8.32,0,0,0,7.5,0c2.06-1.2,2.06-3.14,0-4.33a8.26,8.26,0,0,0-7.5,0C204.94,289.9,204.94,291.84,207,293Z" transform="translate(-199.34 -253.24)" style="fill:#fff"/><path d="M214.76,288.17v2.33a2,2,0,0,1-1.16,1.62,6.23,6.23,0,0,1-5.61,0,2,2,0,0,1-1.17-1.62v-2.33Z" transform="translate(-199.34 -253.24)" style="fill:#295e87"/><path d="M208,289.79a6.23,6.23,0,0,0,5.61,0c1.54-.89,1.54-2.35,0-3.23a6.11,6.11,0,0,0-5.61,0C206.44,287.44,206.44,288.9,208,289.79Z" transform="translate(-199.34 -253.24)" style="fill:#659ec9"/><polygon points="6.85 40.29 51.87 14.3 51.87 13.73 6.85 39.72 6.85 40.29" style="fill:#295e87"/><polygon points="6.85 40.29 6.85 39.72 2.81 37.39 2.81 37.95 6.85 40.29" style="fill:#517fa2"/><polygon points="6.85 39.72 51.87 13.73 47.83 11.4 2.81 37.39 6.85 39.72" style="fill:#659ec9"/><polygon points="5.47 35.82 50.48 9.83 49.23 9.1 4.21 35.09 5.47 35.82" style="fill:#00537d"/><polygon points="4.59 35.09 4.83 35.23 49.2 9.61 49.83 9.97 50.06 9.84 49.2 9.34 4.59 35.09" style="fill:#003552"/><polygon points="4.83 35.23 5.46 35.59 49.83 9.97 49.2 9.61 4.83 35.23" style="fill:#1078ad"/><polygon points="7.21 39.94 52.23 13.95 52.23 8.98 7.21 34.97 7.21 39.94" style="fill:#b4caed"/><polygon points="7.21 39.94 7.21 34.97 2.44 32.22 2.44 37.19 7.21 39.94" style="fill:#dae5f8"/><polygon points="7.21 34.97 52.23 8.98 47.46 6.23 2.44 32.22 7.21 34.97" style="fill:#fff"/><polygon points="6.85 34.77 51.87 8.78 51.87 8.21 6.85 34.2 6.85 34.77" style="fill:#295e87"/><polygon points="6.85 34.77 6.85 34.2 2.81 31.86 2.81 32.43 6.85 34.77" style="fill:#517fa2"/><polygon points="6.85 34.2 51.87 8.21 47.83 5.88 2.81 31.86 6.85 34.2" style="fill:#659ec9"/><polygon points="5.47 33.4 50.48 7.41 49.23 6.68 4.21 32.67 5.47 33.4" style="fill:#00537d"/><polygon points="4.59 32.67 4.83 32.81 49.2 7.19 49.83 7.56 50.06 7.42 49.2 6.92 4.59 32.67" style="fill:#003552"/><polygon points="4.83 32.81 5.46 33.17 49.83 7.56 49.2 7.19 4.83 32.81" style="fill:#1078ad"/><polygon points="45.64 20.54 40.92 17.81 45.64 15.09 50.36 17.81 45.64 20.54" style="fill:#659ec9"/><polygon points="45.64 34.23 40.92 31.5 40.92 17.81 45.64 20.54 45.64 34.23" style="fill:#517fa2"/><polygon points="45.64 34.23 50.36 31.5 50.36 17.81 45.64 20.54 45.64 34.23" style="fill:#295e87"/><polygon points="35.76 17.53 42.51 13.64 42.51 12.12 35.76 16.02 35.76 17.53" style="fill:#003552"/><polygon points="35.76 17.53 35.76 16.02 31.72 13.68 31.72 15.2 35.76 17.53" style="fill:#00537d"/><polygon points="35.76 16.02 42.51 12.12 38.46 9.79 31.72 13.68 35.76 16.02" style="fill:#dae5f8"/><polygon points="45.64 17.56 45.64 21.72 52.38 17.83 52.38 13.67 45.64 17.56" style="fill:#b4caed"/><polygon points="21.95 3.89 21.95 8.05 45.64 21.72 45.64 17.56 21.95 3.89" style="fill:#dae5f8"/><polygon points="21.95 3.89 28.69 0 52.38 13.67 45.64 17.56 21.95 3.89" style="fill:#fff"/><polygon points="7.72 34.11 7.71 41.46 5.78 42.57 5.79 35.23 7.72 34.11" style="fill:#b4caed"/><polygon points="7.72 34.11 5.79 35.23 0.01 31.89 1.94 30.77 7.72 34.11" style="fill:#fff"/><polygon points="5.79 35.23 5.78 42.57 0 39.23 0.01 31.89 5.79 35.23" style="fill:#dae5f8"/><polygon points="51.33 49.45 47.49 51.66 46.62 51.66 46.47 51.07 50.31 48.86 51.33 49.45" style="fill:#1078ad"/><polygon points="47.49 54.1 45.64 53.04 45.64 51.88 46.47 51.07 47.49 51.66 47.49 54.1" style="fill:#003552"/><polygon points="48.87 53.81 48.38 49.62 47.77 49.28 47.49 49.29 47.49 54.1 48.13 54.47 48.87 53.81" style="fill:#dae5f8"/><polygon points="54.86 50.58 54.86 45.77 48.13 49.66 48.13 54.47 54.86 50.58" style="fill:#b4caed"/><polygon points="54.86 45.77 48.13 49.66 47.49 49.29 54.23 45.41 54.86 45.77" style="fill:#fff"/><polygon points="48.21 49.04 48.21 49.43 47.9 49.25 47.9 48.86 48.21 49.04" style="fill:#303033"/><polygon points="54.48 45.81 48.21 49.43 48.21 49.04 54.48 45.42 54.48 45.81" style="fill:#121214"/><polygon points="54.48 45.42 48.21 49.04 47.9 48.86 54.16 45.24 54.48 45.42" style="fill:#535359"/><g style="opacity:0.5"><polygon points="48.12 36.68 48.12 48.99 47.99 48.91 47.99 36.61 48.12 36.68" style="fill:#295e87"/><polygon points="54.39 45.37 48.12 48.99 48.12 36.68 54.39 33.06 54.39 45.37" style="fill:#517fa2"/><polygon points="54.39 33.06 54.39 45.37 54.26 45.3 54.26 32.99 54.39 33.06" style="fill:#295e87"/><polygon points="54.39 33.06 48.12 36.68 47.99 36.61 54.26 32.99 54.39 33.06" style="fill:#659ec9"/><polygon points="54.39 45.37 48.12 48.99 47.99 48.91 54.26 45.3 54.39 45.37" style="fill:#659ec9"/></g><g style="opacity:0.8"><path d="M251.65,294.94a.67.67,0,0,0,.65,0,1.9,1.9,0,0,0,.65-.67,2,2,0,0,0,.29-.91.65.65,0,0,0-.25-.61.6.6,0,0,0-.64,0,1.77,1.77,0,0,0-.66.67,2,2,0,0,0-.29.91A.69.69,0,0,0,251.65,294.94Zm.3-1.36a1.15,1.15,0,0,1,.39-.4.37.37,0,0,1,.38,0,.39.39,0,0,1,.14.36h0a1.09,1.09,0,0,1-.16.54,1.15,1.15,0,0,1-.39.4.37.37,0,0,1-.38,0,.4.4,0,0,1-.15-.36A1.1,1.1,0,0,1,252,293.58Z" transform="translate(-199.34 -253.24)" style="fill:#fff"/><path d="M253,295.89a.6.6,0,0,0-.64,0,1.84,1.84,0,0,0-.66.67,2,2,0,0,0-.29.91.68.68,0,0,0,.25.61.64.64,0,0,0,.65,0,1.82,1.82,0,0,0,.65-.67,2,2,0,0,0,.29-.91h0A.65.65,0,0,0,253,295.89Zm-.29,1.35a1.15,1.15,0,0,1-.39.4.38.38,0,0,1-.38,0,.41.41,0,0,1-.15-.37,1.1,1.1,0,0,1,.17-.53,1.07,1.07,0,0,1,.39-.4.38.38,0,0,1,.38,0,.41.41,0,0,1,.14.37A1.05,1.05,0,0,1,252.7,297.24Z" transform="translate(-199.34 -253.24)" style="fill:#8dd5ff"/><polygon points="48.97 46.66 51.15 45.4 51.15 45.11 48.97 46.37 48.97 46.66" style="fill:#fff"/><polygon points="48.97 46.13 51.15 44.87 51.15 44.58 48.97 45.84 48.97 46.13" style="fill:#8dd5ff"/><polygon points="48.79 42.76 51.2 41.37 51.2 40.57 48.79 41.96 48.79 42.76" style="fill:#8dd5ff"/><path d="M250,295.26a1.24,1.24,0,0,0-.57,1c0,.36.25.51.57.33a1.25,1.25,0,0,0,.56-1C250.53,295.23,250.28,295.08,250,295.26Z" transform="translate(-199.34 -253.24)" style="fill:#fff"/><polygon points="49.46 44.01 49.89 43.76 49.89 43.23 49.46 43.48 49.46 44.01" style="fill:#fff"/><polygon points="49.89 42.47 49.46 42.71 49.46 43.24 49.89 43 49.89 42.47" style="fill:#fff"/><polygon points="49.21 43.62 48.79 43.87 48.79 44.4 49.21 44.15 49.21 43.62" style="fill:#8dd5ff"/><polygon points="49.21 42.86 48.79 43.1 48.79 43.63 49.21 43.39 49.21 42.86" style="fill:#fff"/><polygon points="48.87 37.39 48.6 37.54 48.6 40.91 48.87 40.76 48.87 37.39" style="fill:#fff"/><polygon points="49.59 38.02 49.32 38.18 49.32 40.5 49.59 40.34 49.59 38.02" style="fill:#fff"/><polygon points="50.31 37.24 50.04 37.4 50.04 40.09 50.31 39.93 50.31 37.24" style="fill:#fff"/><polygon points="51.03 37.97 50.76 38.12 50.76 39.67 51.03 39.52 51.03 37.97" style="fill:#fff"/><polygon points="51.47 39.26 51.74 39.1 51.74 37.03 51.47 37.19 51.47 39.26" style="fill:#fff"/><polygon points="52.46 36.36 52.19 36.52 52.19 38.84 52.46 38.69 52.46 36.36" style="fill:#fff"/><polygon points="53.18 36.43 52.91 36.58 52.91 38.43 53.18 38.27 53.18 36.43" style="fill:#fff"/><polygon points="53.9 36.31 53.63 36.46 53.63 38.01 53.9 37.86 53.9 36.31" style="fill:#fff"/></g><path d="M250.82,283.29a4.93,4.93,0,0,0-1.69,1.8.47.47,0,0,0-.07.25.18.18,0,0,0,.07.16c.09.06.25,0,.35-.2a4.09,4.09,0,0,1,1.34-1.44,1.31,1.31,0,0,1,1.35-.11c.1.06.26,0,.36-.19s.1-.35,0-.42A1.64,1.64,0,0,0,250.82,283.29Z" transform="translate(-199.34 -253.24)" style="fill:#4fbeff"/><path d="M253.86,280.19a3.28,3.28,0,0,0-3.07.37,9.37,9.37,0,0,0-3,3.13.7.7,0,0,0-.08.26.2.2,0,0,0,.07.16c.1.06.26,0,.36-.2a8.4,8.4,0,0,1,2.67-2.78,2.94,2.94,0,0,1,2.72-.33c.09.05.25,0,.35-.21S254,280.24,253.86,280.19Z" transform="translate(-199.34 -253.24)" style="fill:#4fbeff"/><path d="M250.84,281.84a7.43,7.43,0,0,0-2.38,2.56.53.53,0,0,0-.07.25.2.2,0,0,0,.06.16c.1.06.26,0,.36-.19a6.33,6.33,0,0,1,2-2.2,2,2,0,0,1,2-.16c.1.06.26,0,.36-.19s.1-.35,0-.42A2.32,2.32,0,0,0,250.84,281.84Z" transform="translate(-199.34 -253.24)" style="fill:#4fbeff"/><path d="M250.84,284.81a1.69,1.69,0,0,0-.75,1.3c0,.48.34.68.75.44a1.64,1.64,0,0,0,.75-1.3C251.59,284.77,251.26,284.57,250.84,284.81Z" transform="translate(-199.34 -253.24)" style="fill:#4fbeff"/></svg>