<svg id="Layer_1" data-name="Layer 1" xmlns="http://www.w3.org/2000/svg" viewBox="0 0 46.46 44.34"><polygon points="12.76 41.1 0.79 34.19 0.79 32.66 12.76 39.57 12.76 41.1" style="fill:#1078ad"/><polygon points="40.84 23.35 12.76 39.57 0.79 32.66 28.88 16.45 40.84 23.35" style="fill:#003552"/><polygon points="40.84 24.88 12.76 41.1 12.76 39.57 40.84 23.35 40.84 24.88" style="fill:#00537d"/><path d="M194.65,307.56l26.28-20.12L209,280.55h0a2.1,2.1,0,0,0-2.13.2l-22.09,12.76a6.63,6.63,0,0,0-3,5.19,2.11,2.11,0,0,0,.87,1.93h0Z" transform="translate(-181.77 -271.84)" style="fill:gray"/><path d="M218.82,294.58l-22.09,12.75c-1.65,1-3,.18-3-1.73a6.61,6.61,0,0,1,3-5.18l22.09-12.76c1.66-1,3-.18,3,1.73A6.62,6.62,0,0,1,218.82,294.58Z" transform="translate(-181.77 -271.84)" style="fill:#383838"/><path d="M221.48,288.55l-.78-.54a1.76,1.76,0,0,0-1.88.14l-22.09,12.76a5.68,5.68,0,0,0-2.57,4.45,1.86,1.86,0,0,0,.68,1.61l.8.56.08-.35a2.32,2.32,0,0,0,1-.34l22.09-12.76a5.68,5.68,0,0,0,2.57-4.45,3,3,0,0,0-.08-.7Z" transform="translate(-181.77 -271.84)" style="fill:#fff"/><path d="M219.62,288.7l-22.1,12.76a5.68,5.68,0,0,0-2.57,4.45c0,1.63,1.15,2.3,2.57,1.48l22.1-12.76a5.68,5.68,0,0,0,2.57-4.45C222.19,288.54,221,287.88,219.62,288.7Z" transform="translate(-181.77 -271.84)" style="fill:#b4caed"/><path d="M221.17,290.13l-.48-.28h0a1,1,0,0,0-1.06.09,3.31,3.31,0,0,0-1.5,2.59,1.07,1.07,0,0,0,.4.93l.61.36.15-.28a2,2,0,0,0,.34-.15,3.31,3.31,0,0,0,1.49-2.58,1.65,1.65,0,0,0-.06-.46Z" transform="translate(-181.77 -271.84)" style="fill:#659ec9"/><path d="M221.63,291.11a3.27,3.27,0,0,1-1.49,2.58c-.82.48-1.49.09-1.49-.86a3.29,3.29,0,0,1,1.49-2.58C221,289.77,221.63,290.16,221.63,291.11Z" transform="translate(-181.77 -271.84)" style="fill:#295e87"/><path d="M199.08,302.89l-.49-.29h0a1.06,1.06,0,0,0-1.07.1,3.29,3.29,0,0,0-1.49,2.58,1.08,1.08,0,0,0,.39.94l.61.35.16-.28a1.21,1.21,0,0,0,.33-.15,3.27,3.27,0,0,0,1.49-2.58,1.53,1.53,0,0,0-.06-.45Z" transform="translate(-181.77 -271.84)" style="fill:#659ec9"/><path d="M199.54,303.86a3.33,3.33,0,0,1-1.49,2.59c-.83.47-1.49.09-1.49-.86a3.3,3.3,0,0,1,1.49-2.59C198.87,302.53,199.54,302.91,199.54,303.86Z" transform="translate(-181.77 -271.84)" style="fill:#295e87"/><polygon points="20.5 37.6 19.65 37.11 19.65 28.51 20.5 29 21.65 32.38 20.5 37.6" style="fill:#dae5f8"/><polygon points="23.52 27.26 22.41 30.08 20.5 29 19.65 28.51 22.67 26.77 23.52 27.26" style="fill:#fff"/><polygon points="23.52 35.86 20.5 37.6 20.5 29 23.52 27.26 23.52 35.86" style="fill:#b4caed"/><polygon points="26.41 34.19 25.56 33.7 25.56 25.1 26.41 25.59 27.56 28.97 26.41 34.19" style="fill:#dae5f8"/><polygon points="29.43 23.85 28.32 26.67 26.41 25.59 25.56 25.1 28.58 23.36 29.43 23.85" style="fill:#fff"/><polygon points="29.43 32.45 26.41 34.19 26.41 25.59 29.43 23.85 29.43 32.45" style="fill:#b4caed"/><polygon points="32.32 30.78 31.47 30.29 31.47 21.69 32.32 22.18 33.47 25.56 32.32 30.78" style="fill:#dae5f8"/><polygon points="35.34 20.43 34.23 23.26 32.32 22.18 31.47 21.69 34.49 19.95 35.34 20.43" style="fill:#fff"/><polygon points="35.34 29.04 32.32 30.78 32.32 22.18 35.34 20.43 35.34 29.04" style="fill:#b4caed"/><path d="M190.62,296.06a3,3,0,0,1-2.71,0,.83.83,0,0,1,0-1.57,3,3,0,0,1,2.71,0A.83.83,0,0,1,190.62,296.06Z" transform="translate(-181.77 -271.84)" style="opacity:0.30000000000000004"/><path d="M189.49,295.4v.2l.49.45a.53.53,0,0,0,.46,0l.49-.29v-.2Z" transform="translate(-181.77 -271.84)" style="fill:#659ec9"/><path d="M189.89,295v.35l.9.11c.18,0,.32-.08.32-.19v-.39Z" transform="translate(-181.77 -271.84)" style="fill:#659ec9"/><path d="M190.79,294.46v.19h0a.17.17,0,0,1-.1.14l-.77.28-.43-.24Z" transform="translate(-181.77 -271.84)" style="fill:#659ec9"/><polygon points="7.98 22.28 7.97 22.48 7.78 23 7.18 23 6.96 22.29 6.96 22.09 7.98 22.28" style="fill:#659ec9"/><path d="M188.58,295.07l.42-.24-.49-.45a.53.53,0,0,0-.46,0l-.49.08v.2Z" transform="translate(-181.77 -271.84)" style="fill:#659ec9"/><path d="M188.6,295.39V295l-.89-.12c-.18,0-.33.09-.33.19v.4Z" transform="translate(-181.77 -271.84)" style="fill:#659ec9"/><path d="M188.9,295.48v.21l-.6.49-.49-.28a.15.15,0,0,1-.09-.12h0v-.23l.18.08h0Z" transform="translate(-181.77 -271.84)" style="fill:#659ec9"/><path d="M189.76,296.09l-1-.19v.2c0,.11.14.19.32.19h.69Z" transform="translate(-181.77 -271.84)" style="fill:#659ec9"/><path d="M189.92,295.15l-.43.25.49.44a.47.47,0,0,0,.46,0l.49-.28Z" transform="translate(-181.77 -271.84)" style="fill:#295e87"/><path d="M189.88,294.89v.35l.9.11c.18,0,.32-.08.32-.19v-.39Z" transform="translate(-181.77 -271.84)" style="fill:#295e87"/><path d="M189.49,294.63l.43.24.77-.28c.13-.08.13-.2,0-.27l-.48-.28Z" transform="translate(-181.77 -271.84)" style="fill:#295e87"/><path d="M189,294.64h.6l.2-.52c0-.1-.15-.19-.33-.19h-.69Z" transform="translate(-181.77 -271.84)" style="fill:#295e87"/><path d="M188.58,294.87l.42-.25-.49-.44a.47.47,0,0,0-.46,0l-.49.28Z" transform="translate(-181.77 -271.84)" style="fill:#295e87"/><path d="M188.6,295.18v-.34l-.89-.12c-.18,0-.33.09-.33.19v.4Z" transform="translate(-181.77 -271.84)" style="fill:#295e87"/><path d="M189,295.4l-.42-.25-.78.29a.14.14,0,0,0,0,.26l.49.28Z" transform="translate(-181.77 -271.84)" style="fill:#295e87"/><path d="M189.55,295.38h-.61l-.19.52c0,.1.14.19.32.19h.69Z" transform="translate(-181.77 -271.84)" style="fill:#295e87"/><path d="M189.89,294.64a1.42,1.42,0,0,0-1.27,0,.39.39,0,0,0,0,.74,1.39,1.39,0,0,0,1.27,0C190.24,295.17,190.24,294.85,189.89,294.64Z" transform="translate(-181.77 -271.84)" style="fill:#808285"/><path d="M189.78,294.71a1.14,1.14,0,0,0-1.05,0,.33.33,0,0,0-.2.39c0-.12.06-.23.22-.32a1.12,1.12,0,0,1,1,0,.42.42,0,0,1,.21.21A.41.41,0,0,0,189.78,294.71Z" transform="translate(-181.77 -271.84)" style="fill:#bcbec0"/><path d="M189.79,294.78a1.12,1.12,0,0,0-1,0c-.16.09-.23.2-.22.32a.44.44,0,0,0,.2.21,1.14,1.14,0,0,0,1.05,0A.38.38,0,0,0,190,295,.42.42,0,0,0,189.79,294.78Z" transform="translate(-181.77 -271.84)" style="fill:#939598"/><path d="M189.38,294.89h.12V295h0s0,.07-.07.1a.36.36,0,0,1-.35,0A.11.11,0,0,1,189,295h0v-.14h.14A.36.36,0,0,1,189.38,294.89Z" transform="translate(-181.77 -271.84)" style="fill:#659ec9"/><path d="M189.43,294.78a.43.43,0,0,0-.35,0c-.1.06-.1.15,0,.21a.43.43,0,0,0,.35,0C189.53,294.93,189.53,294.84,189.43,294.78Z" transform="translate(-181.77 -271.84)" style="fill:#295e87"/><path d="M211.45,283.78a3,3,0,0,1-2.71,0,.82.82,0,0,1,0-1.56,3,3,0,0,1,2.71,0A.83.83,0,0,1,211.45,283.78Z" transform="translate(-181.77 -271.84)" style="opacity:0.30000000000000004"/><path d="M210.32,283.12v.2l.49.45a.49.49,0,0,0,.47,0l.48-.28v-.2Z" transform="translate(-181.77 -271.84)" style="fill:#659ec9"/><path d="M210.72,282.77v.34l.9.12c.18,0,.33-.09.33-.19v-.4Z" transform="translate(-181.77 -271.84)" style="fill:#659ec9"/><path d="M211.62,282.19v.19h0a.14.14,0,0,1-.1.13l-.77.29-.43-.25Z" transform="translate(-181.77 -271.84)" style="fill:#659ec9"/><polygon points="28.81 10 28.81 10.2 28.61 10.72 28.01 10.72 27.79 10.02 27.79 9.81 28.81 10" style="fill:#659ec9"/><path d="M209.41,282.8l.43-.25-.49-.45a.55.55,0,0,0-.47,0l-.48.08v.2Z" transform="translate(-181.77 -271.84)" style="fill:#659ec9"/><path d="M209.44,283.11v-.35l-.89-.11c-.18,0-.33.08-.33.18v.4Z" transform="translate(-181.77 -271.84)" style="fill:#659ec9"/><path d="M209.73,283.21v.21l-.6.49-.49-.28c-.06,0-.09-.08-.09-.13h0v-.22l.18.07h0Z" transform="translate(-181.77 -271.84)" style="fill:#659ec9"/><path d="M210.59,283.81l-1-.18v.2c0,.1.14.19.32.19h.69Z" transform="translate(-181.77 -271.84)" style="fill:#659ec9"/><path d="M210.75,282.88l-.43.24.49.45a.52.52,0,0,0,.47,0l.48-.28Z" transform="translate(-181.77 -271.84)" style="fill:#295e87"/><path d="M210.71,282.61V283l.9.12c.18,0,.32-.09.32-.19v-.4Z" transform="translate(-181.77 -271.84)" style="fill:#295e87"/><path d="M210.32,282.35l.43.25.77-.29a.14.14,0,0,0,0-.27l-.49-.28Z" transform="translate(-181.77 -271.84)" style="fill:#295e87"/><path d="M209.78,282.36h.6l.2-.51c0-.11-.14-.19-.32-.19h-.69Z" transform="translate(-181.77 -271.84)" style="fill:#295e87"/><path d="M209.41,282.59l.43-.24-.49-.45a.55.55,0,0,0-.47,0l-.48.28Z" transform="translate(-181.77 -271.84)" style="fill:#295e87"/><path d="M209.44,282.91v-.35l-.9-.11c-.18,0-.33.08-.33.19V283Z" transform="translate(-181.77 -271.84)" style="fill:#295e87"/><path d="M209.83,283.12l-.42-.24-.78.28c-.12.07-.12.19,0,.27l.48.28Z" transform="translate(-181.77 -271.84)" style="fill:#295e87"/><path d="M210.38,283.11h-.6l-.2.52c0,.1.14.18.32.18h.69Z" transform="translate(-181.77 -271.84)" style="fill:#295e87"/><path d="M210.72,282.37a1.42,1.42,0,0,0-1.27,0,.39.39,0,0,0,0,.73,1.42,1.42,0,0,0,1.27,0A.39.39,0,0,0,210.72,282.37Z" transform="translate(-181.77 -271.84)" style="fill:#808285"/><path d="M210.61,282.43a1.21,1.21,0,0,0-1.05,0c-.18.11-.25.26-.2.39a.35.35,0,0,1,.22-.32,1.19,1.19,0,0,1,1,0,.44.44,0,0,1,.21.22A.38.38,0,0,0,210.61,282.43Z" transform="translate(-181.77 -271.84)" style="fill:#bcbec0"/><path d="M210.62,282.5a1.19,1.19,0,0,0-1,0,.35.35,0,0,0-.22.32.46.46,0,0,0,.2.22,1.21,1.21,0,0,0,1.05,0,.39.39,0,0,0,.22-.32A.44.44,0,0,0,210.62,282.5Z" transform="translate(-181.77 -271.84)" style="fill:#939598"/><path d="M210.21,282.61h.12v.12h0a.13.13,0,0,1-.07.1.43.43,0,0,1-.35,0,.18.18,0,0,1-.07-.09h0v-.15H210A.45.45,0,0,1,210.21,282.61Z" transform="translate(-181.77 -271.84)" style="fill:#659ec9"/><path d="M210.26,282.51a.36.36,0,0,0-.35,0c-.09.06-.09.15,0,.2a.36.36,0,0,0,.35,0C210.36,282.66,210.36,282.57,210.26,282.51Z" transform="translate(-181.77 -271.84)" style="fill:#295e87"/><polygon points="27.02 13.42 22.91 15.79 20.42 14.36 24.53 11.98 27.02 13.42" style="opacity:0.30000000000000004"/><path d="M206.86,283.66h0a.23.23,0,0,1,.22,0l1,.59a.69.69,0,0,1,.31.53V285l-4,2.32L202.83,286Z" transform="translate(-181.77 -271.84)" style="fill:#6d6e71"/><path d="M204.08,286.61l-1-.6c-.17-.1-.31,0-.31.18v.19l1.65.94v-.18A.67.67,0,0,0,204.08,286.61Z" transform="translate(-181.77 -271.84)" style="fill:#414042"/><path d="M206.59,283.75l-.54-.31a.22.22,0,0,0-.21,0l.5-.28h0a.21.21,0,0,1,.23,0l.54.31V284l-.41-.23-.11.06Z" transform="translate(-181.77 -271.84)" style="fill:#bcbec0"/><path d="M206.59,283.75v.54l-.41-.23-.37.21-.1-.06v-.57a.23.23,0,0,1,.34-.2Z" transform="translate(-181.77 -271.84)" style="fill:#808285"/><polygon points="24.82 12.45 25.34 12.15 25.34 11.61 24.82 11.9 24.82 12.45" style="fill:#939598"/><path d="M205.84,284.18l-.53-.31a.22.22,0,0,0-.21,0l.49-.28h0a.25.25,0,0,1,.24,0l.53.31v.54l-.41-.23-.11.06Z" transform="translate(-181.77 -271.84)" style="fill:#bcbec0"/><path d="M205.84,284.18v.54l-.41-.23-.36.21-.1-.06v-.57a.23.23,0,0,1,.34-.2Z" transform="translate(-181.77 -271.84)" style="fill:#808285"/><polygon points="24.07 12.88 24.59 12.58 24.59 12.04 24.07 12.34 24.07 12.88" style="fill:#939598"/><path d="M205.14,284.59l-.54-.31a.22.22,0,0,0-.21,0l.49-.28h0a.25.25,0,0,1,.24,0l.53.31v.54l-.41-.23-.1.06Z" transform="translate(-181.77 -271.84)" style="fill:#bcbec0"/><path d="M205.14,284.59v.54l-.41-.23-.37.21-.1-.06v-.57a.23.23,0,0,1,.34-.2Z" transform="translate(-181.77 -271.84)" style="fill:#808285"/><polygon points="23.36 13.29 23.88 12.99 23.88 12.45 23.36 12.74 23.36 13.29" style="fill:#939598"/><path d="M204.42,285l-.54-.3a.22.22,0,0,0-.21,0l.49-.29h0a.23.23,0,0,1,.24,0l.53.31v.54l-.41-.24-.1.06Z" transform="translate(-181.77 -271.84)" style="fill:#bcbec0"/><path d="M204.42,285v.55l-.42-.24-.36.22-.1-.06v-.58a.22.22,0,0,1,.34-.19Z" transform="translate(-181.77 -271.84)" style="fill:#808285"/><polygon points="22.64 13.7 23.16 13.4 23.16 12.86 22.64 13.16 22.64 13.7" style="fill:#939598"/><path d="M203.71,285.41l-.54-.3a.22.22,0,0,0-.21,0l.49-.29h0a.23.23,0,0,1,.24,0l.53.31v.54l-.41-.24-.1.07Z" transform="translate(-181.77 -271.84)" style="fill:#bcbec0"/><path d="M203.71,285.41V286l-.41-.24-.37.21-.1-.05v-.58a.22.22,0,0,1,.34-.19Z" transform="translate(-181.77 -271.84)" style="fill:#808285"/><polygon points="21.93 14.11 22.45 13.82 22.45 13.27 21.93 13.57 21.93 14.11" style="fill:#939598"/><path d="M207.81,283.83v.36h0a.23.23,0,0,1-.14.19.72.72,0,0,1-.64,0,.22.22,0,0,1-.13-.19v-.36Z" transform="translate(-181.77 -271.84)" style="fill:#295e87"/><path d="M207,284a.66.66,0,0,0,.64,0,.19.19,0,0,0,0-.37.72.72,0,0,0-.64,0A.19.19,0,0,0,207,284Z" transform="translate(-181.77 -271.84)" style="fill:#659ec9"/><path d="M207,284.3v.37h0a.22.22,0,0,1-.13.19.74.74,0,0,1-.65,0,.24.24,0,0,1-.13-.19v-.37Z" transform="translate(-181.77 -271.84)" style="fill:#295e87"/><path d="M206.2,284.49a.74.74,0,0,0,.65,0,.19.19,0,0,0,0-.37.68.68,0,0,0-.65,0A.2.2,0,0,0,206.2,284.49Z" transform="translate(-181.77 -271.84)" style="fill:#659ec9"/><path d="M206.15,284.78v.37h0a.22.22,0,0,1-.13.19.74.74,0,0,1-.65,0,.22.22,0,0,1-.13-.19v-.37Z" transform="translate(-181.77 -271.84)" style="fill:#295e87"/><path d="M205.37,285a.74.74,0,0,0,.65,0,.2.2,0,0,0,0-.37.68.68,0,0,0-.65,0A.19.19,0,0,0,205.37,285Z" transform="translate(-181.77 -271.84)" style="fill:#659ec9"/><path d="M205.32,285.26v.37h0a.23.23,0,0,1-.14.19.72.72,0,0,1-.64,0,.22.22,0,0,1-.13-.19v-.37Z" transform="translate(-181.77 -271.84)" style="fill:#295e87"/><path d="M204.54,285.45a.72.72,0,0,0,.64,0,.19.19,0,0,0,0-.37.66.66,0,0,0-.64,0A.19.19,0,0,0,204.54,285.45Z" transform="translate(-181.77 -271.84)" style="fill:#659ec9"/><path d="M204.48,285.75v.37h0a.23.23,0,0,1-.14.18.66.66,0,0,1-.64,0,.22.22,0,0,1-.13-.18v-.37Z" transform="translate(-181.77 -271.84)" style="fill:#295e87"/><path d="M203.7,285.93a.66.66,0,0,0,.64,0,.19.19,0,0,0,0-.37.72.72,0,0,0-.64,0A.19.19,0,0,0,203.7,285.93Z" transform="translate(-181.77 -271.84)" style="fill:#659ec9"/><path d="M207.78,283.88l.51.3a.67.67,0,0,1,.31.53v.61l-.52.3-.19-.87-.62-.57Z" transform="translate(-181.77 -271.84)" style="fill:#bcbec0"/><path d="M207.27,284.18l.51.3a.65.65,0,0,1,.3.52v.62l-.37-.21v-.2a.39.39,0,0,0-.21-.35l-.23-.14Z" transform="translate(-181.77 -271.84)" style="fill:#808285"/><path d="M207.07,284.29l.51.3a.67.67,0,0,1,.31.53v.61l-.52.3-.19-.87-.62-.57Z" transform="translate(-181.77 -271.84)" style="fill:#bcbec0"/><path d="M206.56,284.59l.51.3a.65.65,0,0,1,.3.53V286l-.37-.21v-.2a.39.39,0,0,0-.21-.35l-.23-.14Z" transform="translate(-181.77 -271.84)" style="fill:#808285"/><path d="M206.36,284.7l.52.3a.68.68,0,0,1,.3.53v.61l-.52.3-.19-.87-.62-.57Z" transform="translate(-181.77 -271.84)" style="fill:#bcbec0"/><path d="M205.85,285l.51.29a.68.68,0,0,1,.3.54v.61l-.37-.21V286a.39.39,0,0,0-.21-.35l-.23-.14Z" transform="translate(-181.77 -271.84)" style="fill:#808285"/><path d="M205.64,285.12l.51.29a.69.69,0,0,1,.31.53v.62l-.52.3-.19-.87-.62-.57Z" transform="translate(-181.77 -271.84)" style="fill:#bcbec0"/><path d="M205.13,285.42l.5.29a.69.69,0,0,1,.31.53v.62l-.38-.22v-.19a.41.41,0,0,0-.2-.36l-.23-.13Z" transform="translate(-181.77 -271.84)" style="fill:#808285"/><path d="M204.93,285.53l.51.29a.69.69,0,0,1,.31.54V287l-.52.29-.19-.86-.63-.57Z" transform="translate(-181.77 -271.84)" style="fill:#bcbec0"/><path d="M204.41,285.83l.51.29a.69.69,0,0,1,.31.53v.61l-.37-.21v-.19a.39.39,0,0,0-.21-.35l-.23-.14Z" transform="translate(-181.77 -271.84)" style="fill:#808285"/><polygon points="21.51 16.58 16.89 19.25 14.1 17.63 18.72 14.96 21.51 16.58" style="opacity:0.30000000000000004"/><path d="M200.71,287.38l1.77,1c.14.08.26,0,.29-.12l.36-2.09a.64.64,0,0,0-.29-.58l-2.5-1.44c-.18-.11-.32,0-.29.24l.37,2.51A.61.61,0,0,0,200.71,287.38Z" transform="translate(-181.77 -271.84)" style="fill:#303030"/><path d="M200.14,284.15l-4,2.34,0,.12,4.21-2.43A.23.23,0,0,0,200.14,284.15Z" transform="translate(-181.77 -271.84)" style="fill:#292929"/><polygon points="21.07 13.77 17.04 16.1 14.54 14.66 18.57 12.33 21.07 13.77" style="fill:#454545"/><path d="M202.68,288.43l-4,2.32.08-.13,4-2.33A.19.19,0,0,1,202.68,288.43Z" transform="translate(-181.77 -271.84)" style="fill:#232323"/><path d="M198.81,287.94l4-2.32a.6.6,0,0,1,.29.58l-4,2.32Z" transform="translate(-181.77 -271.84)" style="fill:#232323"/><path d="M196.68,289.71l1.77,1c.14.09.26,0,.29-.11l.36-2.1a.63.63,0,0,0-.29-.58l-2.49-1.44c-.19-.1-.33,0-.3.25l.36,2.51A.66.66,0,0,0,196.68,289.71Z" transform="translate(-181.77 -271.84)" style="fill:#0d0d0d"/><path d="M196.2,286.88a.61.61,0,0,0,.26.46c.15.08.26,0,.26-.16a.58.58,0,0,0-.26-.45A.16.16,0,0,0,196.2,286.88Z" transform="translate(-181.77 -271.84)" style="fill:#454545"/><path d="M196.53,289.26a.4.4,0,0,0,.17.3c.1.05.17,0,.17-.1a.38.38,0,0,0-.17-.3C196.61,289.11,196.53,289.15,196.53,289.26Z" transform="translate(-181.77 -271.84)" style="fill:#454545"/><path d="M198.24,290.25a.4.4,0,0,0,.17.3c.1.05.17,0,.17-.1a.36.36,0,0,0-.17-.3C198.32,290.1,198.24,290.14,198.24,290.25Z" transform="translate(-181.77 -271.84)" style="fill:#454545"/><path d="M198.41,288.16a.57.57,0,0,0,.26.45c.15.09.27,0,.27-.15a.57.57,0,0,0-.27-.45A.16.16,0,0,0,198.41,288.16Z" transform="translate(-181.77 -271.84)" style="fill:#454545"/><path d="M197.39,288.44a.42.42,0,0,0,.17.31c.1.05.18,0,.18-.11a.39.39,0,0,0-.18-.3C197.47,288.29,197.39,288.33,197.39,288.44Z" transform="translate(-181.77 -271.84)" style="fill:#141414"/><polygon points="21 16.45 16.97 18.77 17.33 16.68 21.36 14.35 21 16.45" style="fill:#0d0d0d"/><polygon points="23.86 17.99 23.86 18.92 26.39 18.92 26.39 17.99 23.86 17.99" style="fill:#121214"/><polygon points="26.39 17.99 26.39 17.55 24.1 16.23 23.86 17.99 26.39 17.99" style="fill:#303033"/><polygon points="25.75 18.38 25.75 18.07 24.53 18.07 24.54 18.38 25.75 18.38" style="fill:#295e87"/><rect x="24.54" y="18.38" width="1.22" height="0.71" style="fill:#659ec9"/><polygon points="21.02 19.87 21.02 20.8 23.55 20.8 23.55 19.87 21.02 19.87" style="fill:#121214"/><polygon points="23.55 19.87 23.55 19.44 21.26 18.12 21.02 19.87 23.55 19.87" style="fill:#303033"/><rect x="203.47" y="291.8" width="1.22" height="0.32" transform="translate(-183.52 -270.62) rotate(-0.34)" style="fill:#295e87"/><rect x="21.69" y="20.27" width="1.22" height="0.71" style="fill:#659ec9"/><polygon points="18.23 21.41 18.22 22.35 20.75 22.35 20.75 21.41 18.23 21.41" style="fill:#121214"/><polygon points="20.75 21.41 20.75 20.98 18.47 19.66 18.23 21.41 20.75 21.41" style="fill:#303033"/><rect x="200.67" y="293.34" width="1.22" height="0.32" transform="translate(-184.45 -269.99) rotate(-0.52)" style="fill:#295e87"/><rect x="18.9" y="21.81" width="1.22" height="0.71" style="fill:#659ec9"/><polygon points="32.54 13.11 32.53 14.05 35.07 14.05 35.07 13.11 32.54 13.11" style="fill:#121214"/><polygon points="35.07 13.11 35.07 12.68 32.78 11.36 32.54 13.11 35.07 13.11" style="fill:#303033"/><polygon points="34.43 13.51 34.43 13.19 33.22 13.19 33.22 13.51 34.43 13.51" style="fill:#295e87"/><rect x="33.22" y="13.51" width="1.22" height="0.71" style="fill:#659ec9"/><polygon points="29.7 15 29.7 15.93 32.23 15.93 32.23 15 29.7 15" style="fill:#121214"/><polygon points="32.23 15 32.23 14.56 29.94 13.24 29.7 15 32.23 15" style="fill:#303033"/><rect x="212.15" y="286.92" width="1.22" height="0.32" transform="matrix(1, 0, 0, 1, -182.68, -271.17)" style="fill:#295e87"/><rect x="30.37" y="15.39" width="1.22" height="0.71" style="fill:#659ec9"/><polygon points="26.9 16.54 26.9 17.48 29.43 17.48 29.43 16.54 26.9 16.54" style="fill:#121214"/><polygon points="29.43 16.54 29.43 16.11 27.14 14.79 26.9 16.54 29.43 16.54" style="fill:#303033"/><rect x="209.35" y="288.47" width="1.22" height="0.32" transform="translate(-184.4 -269.92) rotate(-0.52)" style="fill:#295e87"/><rect x="27.58" y="16.94" width="1.22" height="0.71" style="fill:#659ec9"/><polygon points="15.48 23.06 15.47 24 18 24 18.01 23.06 15.48 23.06" style="fill:#121214"/><polygon points="18.01 23.06 18 22.63 15.72 21.31 15.48 23.06 18.01 23.06" style="fill:#303033"/><rect x="197.92" y="294.99" width="1.22" height="0.32" transform="translate(-182.7 -271.22) rotate(-0.18)" style="fill:#295e87"/><rect x="197.92" y="295.3" width="1.22" height="0.71" transform="translate(-182.15 -271.59) rotate(-0.07)" style="fill:#659ec9"/><polygon points="12.5 24.73 12.5 25.66 15.03 25.66 15.03 24.73 12.5 24.73" style="fill:#121214"/><polygon points="15.03 24.73 15.03 24.29 12.74 22.97 12.5 24.73 15.03 24.73" style="fill:#303033"/><polygon points="14.39 25.12 14.39 24.81 13.18 24.8 13.18 25.12 14.39 25.12" style="fill:#295e87"/><rect x="13.18" y="25.12" width="1.22" height="0.71" style="fill:#659ec9"/><polygon points="9.84 26.39 9.84 27.33 12.37 27.33 12.37 26.4 9.84 26.39" style="fill:#121214"/><polygon points="12.37 26.4 12.37 25.96 10.08 24.64 9.84 26.39 12.37 26.4" style="fill:#303033"/><polygon points="11.73 26.79 11.73 26.48 10.52 26.48 10.52 26.79 11.73 26.79" style="fill:#295e87"/><rect x="10.52" y="26.79" width="1.22" height="0.71" style="fill:#659ec9"/><polygon points="15.21 20.29 11.1 22.66 8.62 21.23 12.72 18.85 15.21 20.29" style="opacity:0.30000000000000004"/><path d="M195.05,290.54h0s.13,0,.22,0l1,.59a.69.69,0,0,1,.31.53v.19l-4,2.33L191,292.86Z" transform="translate(-181.77 -271.84)" style="fill:#6d6e71"/><path d="M192.27,293.48l-1-.6c-.17-.09-.31,0-.31.18v.19l1.65.95V294A.67.67,0,0,0,192.27,293.48Z" transform="translate(-181.77 -271.84)" style="fill:#414042"/><path d="M194.78,290.62l-.54-.31a.22.22,0,0,0-.21,0l.5-.29h0a.21.21,0,0,1,.23,0l.54.3v.55l-.41-.24-.11.06Z" transform="translate(-181.77 -271.84)" style="fill:#bcbec0"/><path d="M194.78,290.62v.54l-.41-.23-.37.21-.1-.06v-.57a.23.23,0,0,1,.34-.2Z" transform="translate(-181.77 -271.84)" style="fill:#808285"/><polygon points="13.01 19.32 13.53 19.02 13.53 18.48 13.01 18.78 13.01 19.32" style="fill:#939598"/><path d="M194,291.05l-.53-.3a.2.2,0,0,0-.21,0l.49-.29h0a.23.23,0,0,1,.24,0l.53.3v.55l-.41-.24-.11.06Z" transform="translate(-181.77 -271.84)" style="fill:#bcbec0"/><path d="M194,291.05v.55l-.41-.24-.36.21-.1-.05v-.58a.22.22,0,0,1,.34-.19Z" transform="translate(-181.77 -271.84)" style="fill:#808285"/><polygon points="12.26 19.75 12.78 19.45 12.78 18.91 12.26 19.21 12.26 19.75" style="fill:#939598"/><path d="M193.33,291.46l-.54-.31a.22.22,0,0,0-.21,0l.5-.28h0a.21.21,0,0,1,.23,0l.53.3v.55l-.41-.24-.1.06Z" transform="translate(-181.77 -271.84)" style="fill:#bcbec0"/><path d="M193.33,291.46V292l-.41-.23-.37.21-.1-.06v-.57a.23.23,0,0,1,.34-.2Z" transform="translate(-181.77 -271.84)" style="fill:#808285"/><polygon points="11.55 20.16 12.07 19.86 12.07 19.32 11.55 19.62 11.55 20.16" style="fill:#939598"/><path d="M192.61,291.88l-.54-.31a.22.22,0,0,0-.21,0l.49-.29h0a.25.25,0,0,1,.24,0l.53.31v.54l-.41-.23-.1.06Z" transform="translate(-181.77 -271.84)" style="fill:#bcbec0"/><path d="M192.61,291.88v.54l-.41-.24-.37.22-.1-.06v-.57a.23.23,0,0,1,.34-.2Z" transform="translate(-181.77 -271.84)" style="fill:#808285"/><polygon points="10.84 20.57 11.35 20.28 11.35 19.73 10.84 20.03 10.84 20.57" style="fill:#939598"/><path d="M191.9,292.29l-.54-.31a.22.22,0,0,0-.21,0l.5-.29h0a.21.21,0,0,1,.23,0l.54.31v.54l-.42-.23-.1.06Z" transform="translate(-181.77 -271.84)" style="fill:#bcbec0"/><path d="M191.9,292.29v.54l-.41-.24-.37.22-.1-.06v-.57a.23.23,0,0,1,.34-.2Z" transform="translate(-181.77 -271.84)" style="fill:#808285"/><polygon points="10.13 20.99 10.64 20.69 10.64 20.14 10.13 20.44 10.13 20.99" style="fill:#939598"/><path d="M196,290.7v.37h0a.22.22,0,0,1-.13.18.68.68,0,0,1-.65,0,.22.22,0,0,1-.13-.18v-.37Z" transform="translate(-181.77 -271.84)" style="fill:#295e87"/><path d="M195.22,290.88a.68.68,0,0,0,.65,0,.2.2,0,0,0,0-.37.74.74,0,0,0-.65,0A.19.19,0,0,0,195.22,290.88Z" transform="translate(-181.77 -271.84)" style="fill:#659ec9"/><path d="M195.17,291.17v.37h0a.22.22,0,0,1-.13.19.72.72,0,0,1-.64,0,.22.22,0,0,1-.14-.19v-.37Z" transform="translate(-181.77 -271.84)" style="fill:#295e87"/><path d="M194.4,291.36a.72.72,0,0,0,.64,0,.19.19,0,0,0,0-.37.66.66,0,0,0-.64,0A.19.19,0,0,0,194.4,291.36Z" transform="translate(-181.77 -271.84)" style="fill:#659ec9"/><path d="M194.34,291.65V292h0a.22.22,0,0,1-.13.19.74.74,0,0,1-.65,0,.22.22,0,0,1-.13-.19v-.37Z" transform="translate(-181.77 -271.84)" style="fill:#295e87"/><path d="M193.56,291.84a.74.74,0,0,0,.65,0,.19.19,0,0,0,0-.37.74.74,0,0,0-.65,0A.19.19,0,0,0,193.56,291.84Z" transform="translate(-181.77 -271.84)" style="fill:#659ec9"/><path d="M193.51,292.14v.36h0a.24.24,0,0,1-.13.19.74.74,0,0,1-.65,0,.23.23,0,0,1-.14-.19v-.36Z" transform="translate(-181.77 -271.84)" style="fill:#295e87"/><path d="M192.73,292.32a.74.74,0,0,0,.65,0,.2.2,0,0,0,0-.37.74.74,0,0,0-.65,0A.19.19,0,0,0,192.73,292.32Z" transform="translate(-181.77 -271.84)" style="fill:#659ec9"/><path d="M192.67,292.62V293h0a.22.22,0,0,1-.13.18.68.68,0,0,1-.65,0,.23.23,0,0,1-.14-.18v-.37Z" transform="translate(-181.77 -271.84)" style="fill:#295e87"/><path d="M191.89,292.81a.74.74,0,0,0,.65,0,.21.21,0,0,0,0-.38.74.74,0,0,0-.65,0C191.71,292.54,191.71,292.7,191.89,292.81Z" transform="translate(-181.77 -271.84)" style="fill:#659ec9"/><path d="M196,290.75l.52.3a.69.69,0,0,1,.3.53v.61l-.52.3-.19-.87-.62-.57Z" transform="translate(-181.77 -271.84)" style="fill:#bcbec0"/><path d="M195.46,291.05l.51.3a.66.66,0,0,1,.3.53v.61l-.37-.21v-.2a.42.42,0,0,0-.2-.35l-.24-.14Z" transform="translate(-181.77 -271.84)" style="fill:#808285"/><path d="M195.26,291.16l.51.3a.67.67,0,0,1,.31.53v.61l-.52.3-.19-.87-.62-.57Z" transform="translate(-181.77 -271.84)" style="fill:#bcbec0"/><path d="M194.75,291.46l.51.3a.66.66,0,0,1,.3.53v.61l-.37-.21v-.2a.4.4,0,0,0-.21-.35l-.23-.14Z" transform="translate(-181.77 -271.84)" style="fill:#808285"/><path d="M194.56,291.57l.51.3a.66.66,0,0,1,.3.53V293l-.51.3-.2-.87-.62-.57Z" transform="translate(-181.77 -271.84)" style="fill:#bcbec0"/><path d="M194,291.87l.51.3a.66.66,0,0,1,.31.53v.61l-.38-.21v-.2a.4.4,0,0,0-.21-.35l-.23-.14Z" transform="translate(-181.77 -271.84)" style="fill:#808285"/><path d="M193.83,292l.51.3a.66.66,0,0,1,.31.53v.61l-.52.3-.19-.87-.62-.57Z" transform="translate(-181.77 -271.84)" style="fill:#bcbec0"/><path d="M193.32,292.29l.51.29a.71.71,0,0,1,.3.53v.62l-.38-.22v-.19a.38.38,0,0,0-.2-.35l-.23-.14Z" transform="translate(-181.77 -271.84)" style="fill:#808285"/><path d="M193.12,292.4l.51.3a.66.66,0,0,1,.31.53v.61l-.52.3-.19-.87-.63-.57Z" transform="translate(-181.77 -271.84)" style="fill:#bcbec0"/><path d="M192.6,292.7l.52.29a.71.71,0,0,1,.3.54v.61l-.37-.22v-.19a.39.39,0,0,0-.21-.35l-.23-.14Z" transform="translate(-181.77 -271.84)" style="fill:#808285"/><polygon points="18.37 44.34 46.45 28.13 46.45 18.7 18.37 34.92 18.37 44.34" style="fill:#b4caed"/><polygon points="18.37 44.34 18.37 34.92 13.6 32.16 13.6 41.59 18.37 44.34" style="fill:#dae5f8"/><polygon points="18.37 34.92 46.45 18.7 41.69 15.95 13.6 32.16 18.37 34.92" style="fill:#fff"/><polygon points="18.02 34.71 46.1 18.5 46.1 17.93 18.02 34.15 18.02 34.71" style="fill:#295e87"/><polygon points="18.02 34.71 18.02 34.15 13.97 31.81 13.97 32.38 18.02 34.71" style="fill:#517fa2"/><polygon points="18.02 34.15 46.1 17.93 42.06 15.6 13.97 31.81 18.02 34.15" style="fill:#659ec9"/><polygon points="16.63 33.35 44.71 17.13 43.46 16.4 15.37 32.62 16.63 33.35" style="fill:#00537d"/><polygon points="15.76 32.62 15.99 32.75 43.42 16.92 44.05 17.28 44.28 17.14 43.42 16.64 15.76 32.62" style="fill:#003552"/><polygon points="15.99 32.75 16.62 33.12 44.05 17.28 43.42 16.92 15.99 32.75" style="fill:#1078ad"/><path d="M223.26,287.92a1.54,1.54,0,0,0-.68-1.19.48.48,0,0,0-.5,0h0l-.75.43,1,1.67.74-.42h0A.49.49,0,0,0,223.26,287.92Z" transform="translate(-181.77 -271.84)" style="fill:#295e87"/><path d="M222.51,288.36c0,.44-.31.61-.69.39a1.52,1.52,0,0,1-.69-1.19c0-.43.31-.61.69-.39A1.52,1.52,0,0,1,222.51,288.36Z" transform="translate(-181.77 -271.84)" style="fill:#535359"/><path d="M222.77,287.77c-.35-.83-1.08-1.41-1.62-1.31l-4.56.4a.85.85,0,0,0-.24.09l-1.08.63.74,1.69.19-.13c.48,1.05,1.41,1.78,2.1,1.65l3.11-1,.1.24,1.12-.65h0C223,289.16,223.09,288.49,222.77,287.77Z" transform="translate(-181.77 -271.84)" style="fill:#b4caed"/><path d="M220.05,287.1c.53-.1,1.26.48,1.62,1.31s.21,1.58-.32,1.68l-4.16,1.34c-.7.13-1.66-.64-2.13-1.72s-.28-2.07.43-2.21Z" transform="translate(-181.77 -271.84)" style="fill:#fff"/><polygon points="39.74 10.44 38.19 19.75 39.89 18.76 41.91 11.35 39.74 10.44" style="fill:#dae5f8"/><path d="M220.25,283.27a3.43,3.43,0,0,1-.55-1.12l-2,7.39,2.29,2,2-7.41h0C221.5,284.36,220.8,284,220.25,283.27Z" transform="translate(-181.77 -271.84)" style="fill:#fff"/><path d="M224.12,282.26a3.24,3.24,0,0,0-1.45-2.53,1,1,0,0,0-1.07-.08h0l-1.59.91,2.12,3.55,1.57-.91h0A1,1,0,0,0,224.12,282.26Z" transform="translate(-181.77 -271.84)" style="fill:#295e87"/><path d="M222.52,283.18c0,.93-.65,1.31-1.46.85a3.26,3.26,0,0,1-1.46-2.53c0-.93.66-1.31,1.46-.85A3.23,3.23,0,0,1,222.52,283.18Z" transform="translate(-181.77 -271.84)" style="fill:#659ec9"/><path d="M211.35,273.76l-.86,1.28-.35,1.75,1.6-.92,1.21-2h0Z" transform="translate(-181.77 -271.84)" style="fill:#b4caed"/><path d="M210.75,274.42a1.78,1.78,0,0,1-.42-.74h0l-.8,2.46.62.65,1.21-2h0A1,1,0,0,1,210.75,274.42Z" transform="translate(-181.77 -271.84)" style="fill:#fff"/><path d="M213.41,273.29a1.69,1.69,0,0,0-.77-1.34.56.56,0,0,0-.55-.05h0l-1.6.93,1.13,1.86,1.56-.9h0A.53.53,0,0,0,213.41,273.29Z" transform="translate(-181.77 -271.84)" style="fill:#295e87"/><path d="M211.81,274.21c0,.49-.34.69-.77.45a1.71,1.71,0,0,1-.77-1.34c0-.49.34-.69.77-.45A1.71,1.71,0,0,1,211.81,274.21Z" transform="translate(-181.77 -271.84)" style="fill:#659ec9"/><polygon points="34.11 0.58 30.82 0.08 29.22 1 31.31 1.99 32.52 1.5 34.11 0.58" style="fill:#dae5f8"/><polygon points="32.88 0.67 32.7 0.77 31.28 0.56 30.66 0.91 30.45 0.88 31.25 0.42 32.88 0.67" style="fill:#fff"/><polygon points="32.7 0.77 32.09 1.13 30.66 0.91 31.28 0.56 32.7 0.77" style="fill:#003552"/><path d="M214.81,275.25a2,2,0,0,1-.19-.22,1.68,1.68,0,0,1-.33-1.69l-3.3-.49a1.29,1.29,0,0,1,.34.26,1.44,1.44,0,0,1,.42,1.41.37.37,0,0,1-.27.23h0l3.33.5Z" transform="translate(-181.77 -271.84)" style="fill:#fff"/><path d="M217.77,274a2.2,2.2,0,0,0-1-1.73.7.7,0,0,0-.73-.05h0l-1.58.91,1.47,2.41,1.53-.88,0,0h0A.69.69,0,0,0,217.77,274Z" transform="translate(-181.77 -271.84)" style="fill:#295e87"/><path d="M216.17,275c0,.63-.45.89-1,.57a2.21,2.21,0,0,1-1-1.73c0-.63.45-.89,1-.57A2.21,2.21,0,0,1,216.17,275Z" transform="translate(-181.77 -271.84)" style="fill:#659ec9"/><polygon points="35.87 1.54 34.26 2.47 37.35 7.85 38.83 8.63 40.44 7.7 35.87 1.54" style="fill:#dae5f8"/><path d="M216,274.31a1.24,1.24,0,0,1,0,1.2c-.22.25-.59.21-1-.05l4.57,6.16a1.29,1.29,0,0,1,.24-.92.76.76,0,0,1,.75-.22Z" transform="translate(-181.77 -271.84)" style="fill:#fff"/><path d="M216.37,287.36a1.31,1.31,0,0,0-1.4-.1h0l-1.64.94.71,1.15.59-.27,1.94,7.08,1.71-1v-4.51A4.21,4.21,0,0,0,216.37,287.36Z" transform="translate(-181.77 -271.84)" style="fill:#295e87"/><path d="M214.66,288.35c-1.06-.61-1.91-.12-1.91,1.1V294l3.82,2.2v-4.51A4.23,4.23,0,0,0,214.66,288.35Z" transform="translate(-181.77 -271.84)" style="fill:#659ec9"/><path d="M220,289.36c-.36-.83-1.09-1.42-1.62-1.31l-4.57.4-.24.09-1.08.62.75,1.69.18-.12c.48,1,1.41,1.78,2.1,1.64l3.11-1,.1.25,1.13-.65h0C220.27,290.74,220.34,290.08,220,289.36Z" transform="translate(-181.77 -271.84)" style="fill:#b4caed"/><path d="M217.3,288.69c.54-.11,1.26.48,1.62,1.3s.21,1.58-.32,1.69L214.44,293c-.7.14-1.65-.63-2.12-1.71s-.29-2.08.42-2.21Z" transform="translate(-181.77 -271.84)" style="fill:#fff"/><path d="M218.65,290.59a1.52,1.52,0,0,0-.69-1.19.46.46,0,0,0-.5,0h0l-.75.43,1,1.67.73-.43h0A.49.49,0,0,0,218.65,290.59Z" transform="translate(-181.77 -271.84)" style="fill:#295e87"/><path d="M217.89,291c0,.44-.31.62-.69.4a1.54,1.54,0,0,1-.68-1.19c0-.44.31-.62.68-.4A1.52,1.52,0,0,1,217.89,291Z" transform="translate(-181.77 -271.84)" style="fill:#659ec9"/><path d="M214.42,291.57a1.89,1.89,0,0,0-.87-1.49.57.57,0,0,0-.62-.05h0l-.94.54,1.25,2.09.92-.53h0A.61.61,0,0,0,214.42,291.57Z" transform="translate(-181.77 -271.84)" style="fill:#295e87"/><path d="M213.47,292.11c0,.55-.38.77-.86.5a1.88,1.88,0,0,1-.86-1.49c0-.55.38-.77.86-.5A1.89,1.89,0,0,1,213.47,292.11Z" transform="translate(-181.77 -271.84)" style="fill:#659ec9"/></svg>