<svg id="Layer_1" data-name="Layer 1" xmlns="http://www.w3.org/2000/svg" viewBox="0 0 16.96 27.41"><path d="M184.91,313.39a3.75,3.75,0,0,1-1.7-2.95v-1.67l1.7,1Z" transform="translate(-181.28 -295.89)" style="fill:#295e87"/><polygon points="0 12.13 0 12.71 3.56 15.75 3.89 14.27 0 12.13" style="fill:#b4caed"/><polygon points="3.7 14.27 0 12.13 5.9 8.72 9.6 10.86 3.7 14.27" style="fill:#fff"/><path d="M186.62,310.88l-2,1.05a13.46,13.46,0,0,0,0,6.31c.74,2.94,6.1,4.35,6.1,4.35l5.26-3,.61.35,0-.72s-6.25-2.1-6.25-7.5Z" transform="translate(-181.28 -295.89)" style="fill:#fff"/><path d="M188.51,312.11a.24.24,0,0,1,.24,0l.66.38-.12,0-.14.08c0,.12-.11.19-.2.3h0l0,.4-.68-.39h0a.23.23,0,0,1-.09-.21A.76.76,0,0,1,188.51,312.11Z" transform="translate(-181.28 -295.89)" style="fill:#295e87"/><path d="M189.17,312.5c.19-.11.34,0,.34.19a.71.71,0,0,1-.34.58c-.18.11-.33,0-.33-.19A.76.76,0,0,1,189.17,312.5Z" transform="translate(-181.28 -295.89)" style="fill:#174666"/><path d="M189.08,313.13a.54.54,0,0,0,.25-.43.21.21,0,0,0,0-.12c.07,0,.12.07.12.17a.54.54,0,0,1-.24.42c-.09.05-.17,0-.21,0Z" transform="translate(-181.28 -295.89)" style="fill:#517fa2"/><path d="M189.17,312.61a.14.14,0,0,1,.12,0,.21.21,0,0,1,0,.12.54.54,0,0,1-.25.43l-.12,0a.22.22,0,0,1,0-.13A.54.54,0,0,1,189.17,312.61Z" transform="translate(-181.28 -295.89)" style="fill:#1d374e"/><path d="M191.51,314.27A4.28,4.28,0,0,1,189,313c-.08-.09,0-.2,0-.3a.17.17,0,0,1,.29,0s1.52,1.51,2.71,1c.76-.31,1.67-1.58,1.67-5.82a.22.22,0,0,1,.22-.22.22.22,0,0,1,.23.22c0,3.61-.66,5.71-2,6.24A1.87,1.87,0,0,1,191.51,314.27Z" transform="translate(-181.28 -295.89)" style="fill:#eb5c44"/><path d="M187.29,312.82a.27.27,0,0,1,.24,0l.66.39-.12.05-.14.07c0,.13-.11.2-.2.3h0l0,.41-.68-.39h0a.24.24,0,0,1-.09-.22A.76.76,0,0,1,187.29,312.82Z" transform="translate(-181.28 -295.89)" style="fill:#295e87"/><path d="M188,313.2c.19-.11.34,0,.34.2a.74.74,0,0,1-.34.58c-.18.11-.33,0-.33-.19A.76.76,0,0,1,188,313.2Z" transform="translate(-181.28 -295.89)" style="fill:#174666"/><path d="M187.86,313.83a.54.54,0,0,0,.25-.42.22.22,0,0,0,0-.13c.07,0,.12.07.12.17a.56.56,0,0,1-.24.43c-.09.05-.17,0-.21,0A.15.15,0,0,0,187.86,313.83Z" transform="translate(-181.28 -295.89)" style="fill:#517fa2"/><path d="M188,313.31l.12,0a.22.22,0,0,1,0,.13.54.54,0,0,1-.25.42.15.15,0,0,1-.12,0,.21.21,0,0,1,0-.12A.54.54,0,0,1,188,313.31Z" transform="translate(-181.28 -295.89)" style="fill:#1d374e"/><path d="M190.26,315a4.24,4.24,0,0,1-2.5-1.24c-.09-.09,0-.22.05-.32a.17.17,0,0,1,.27,0s1.51,1.51,2.7,1c.76-.31,1.67-1.58,1.67-5.81a.23.23,0,1,1,.45,0c0,3.6-.65,5.7-2,6.23A1.84,1.84,0,0,1,190.26,315Z" transform="translate(-181.28 -295.89)" style="fill:#4fbeff"/><path d="M186.14,313.48a.24.24,0,0,1,.24,0l.66.38-.12.05-.14.07c0,.13-.11.2-.2.31h0l0,.4-.68-.39h0a.23.23,0,0,1-.09-.21A.76.76,0,0,1,186.14,313.48Z" transform="translate(-181.28 -295.89)" style="fill:#295e87"/><path d="M186.81,313.87c.18-.11.33,0,.33.19a.74.74,0,0,1-.33.58c-.19.11-.34,0-.34-.19A.71.71,0,0,1,186.81,313.87Z" transform="translate(-181.28 -295.89)" style="fill:#174666"/><path d="M186.71,314.49a.51.51,0,0,0,.25-.42.25.25,0,0,0,0-.13c.07,0,.12.07.12.18a.56.56,0,0,1-.24.42c-.09,0-.17,0-.21,0A.21.21,0,0,0,186.71,314.49Z" transform="translate(-181.28 -295.89)" style="fill:#517fa2"/><path d="M186.8,314a.21.21,0,0,1,.12,0,.25.25,0,0,1,0,.13.51.51,0,0,1-.25.42.21.21,0,0,1-.12,0,.25.25,0,0,1,0-.13A.51.51,0,0,1,186.8,314Z" transform="translate(-181.28 -295.89)" style="fill:#1d374e"/><path d="M189.15,315.64a4.19,4.19,0,0,1-2.5-1.25c-.09-.09-.05-.2,0-.29s.21-.11.29,0,1.52,1.5,2.71,1c.76-.32,1.67-1.58,1.67-5.82a.23.23,0,1,1,.45,0c0,3.6-.66,5.7-1.95,6.23A1.89,1.89,0,0,1,189.15,315.64Z" transform="translate(-181.28 -295.89)" style="fill:#ffc654"/><polygon points="15.38 23.99 9.45 27.41 9.49 26.69 15.38 23.29 15.38 23.99" style="fill:#dae5f8"/><polygon points="10.32 16.89 3.56 12.99 9.46 9.58 16.22 13.49 10.32 16.89" style="fill:#fff"/><path d="M193.62,307v-.25a.34.34,0,0,0-.33,0l-1.7-1a.33.33,0,0,0-.32,0l-5.47,3.15a.34.34,0,0,0-.34,0v.25h0a.12.12,0,0,0,.08.11l2,1.13a.4.4,0,0,0,.32,0l5.75-3.31a.12.12,0,0,0,.06-.09Z" transform="translate(-181.28 -295.89)" style="fill:#3d3d3d"/><path d="M193.62,307v-.25a.34.34,0,0,0-.33,0l-1.7-1a.33.33,0,0,0-.32,0l-5.47,3.15a.34.34,0,0,0-.34,0v.25h0a.12.12,0,0,0,.08.11l2,1.13a.4.4,0,0,0,.32,0l5.75-3.31a.12.12,0,0,0,.06-.09Z" transform="translate(-181.28 -295.89)" style="fill:#b4caed"/><path d="M193.56,306.86l-5.75,3.31a.33.33,0,0,1-.32,0l-2-1.13c-.1,0-.11-.14,0-.18l5.76-3.32a.36.36,0,0,1,.32,0l1.95,1.13C193.64,306.73,193.65,306.81,193.56,306.86Z" transform="translate(-181.28 -295.89)" style="fill:#fff"/><polygon points="9.95 10.89 9.72 11.02 9.49 10.88 9.71 10.75 9.95 10.89" style="fill:#659ec9"/><polygon points="9.39 10.88 9.17 11.01 8.93 10.86 9.15 10.74 9.39 10.88" style="fill:#659ec9"/><polygon points="9.66 10.72 9.44 10.85 9.2 10.71 9.42 10.58 9.66 10.72" style="fill:#659ec9"/><polygon points="9.93 10.57 9.71 10.69 9.47 10.56 9.69 10.43 9.93 10.57" style="fill:#659ec9"/><polygon points="6.95 12.29 5.63 13.06 5.38 12.92 6.71 12.15 6.95 12.29" style="fill:#659ec9"/><polygon points="6.75 14.07 6.53 14.2 6.32 14.08 6.54 13.96 6.75 14.07" style="fill:#659ec9"/><polygon points="7.99 13.36 6.89 13.99 6.69 13.87 7.78 13.24 7.99 13.36" style="fill:#659ec9"/><polygon points="9.26 12.63 8.17 13.26 7.97 13.14 9.06 12.51 9.26 12.63" style="fill:#659ec9"/><polygon points="10.53 11.9 9.44 12.52 9.23 12.41 10.33 11.78 10.53 11.9" style="fill:#659ec9"/><polygon points="11.38 11.4 10.62 11.84 10.42 11.72 11.18 11.28 11.38 11.4" style="fill:#659ec9"/><polygon points="5.3 13.24 5.08 13.37 4.84 13.23 5.06 13.1 5.3 13.24" style="fill:#659ec9"/><polygon points="5.57 13.09 5.35 13.21 5.11 13.07 5.33 12.95 5.57 13.09" style="fill:#659ec9"/><polygon points="6.97 13.58 6.75 13.7 6.5 13.56 6.72 13.44 6.97 13.58" style="fill:#659ec9"/><polygon points="7.25 13.41 7.03 13.54 6.79 13.4 7.01 13.28 7.25 13.41" style="fill:#659ec9"/><polygon points="7.53 13.26 7.31 13.38 7.07 13.24 7.29 13.11 7.53 13.26" style="fill:#659ec9"/><polygon points="7.81 13.09 7.58 13.22 7.34 13.08 7.56 12.96 7.81 13.09" style="fill:#659ec9"/><polygon points="8.01 11.68 7.79 11.81 7.55 11.67 7.77 11.54 8.01 11.68" style="fill:#659ec9"/><polygon points="9.09 11.06 8.57 11.36 8.33 11.22 8.84 10.92 9.09 11.06" style="fill:#659ec9"/><polygon points="5.85 13.25 5.61 13.11 5.12 13.39 5.36 13.54 5.85 13.25" style="fill:#659ec9"/><polygon points="6.13 13.09 5.9 13.22 5.66 13.08 5.88 12.95 6.13 13.09" style="fill:#659ec9"/><polygon points="6.41 12.93 6.19 13.06 5.94 12.92 6.17 12.79 6.41 12.93" style="fill:#659ec9"/><polygon points="6.69 12.77 6.46 12.9 6.22 12.76 6.45 12.63 6.69 12.77" style="fill:#659ec9"/><polygon points="6.96 12.61 6.74 12.74 6.5 12.6 6.72 12.47 6.96 12.61" style="fill:#659ec9"/><polygon points="8.29 11.85 8.07 11.97 7.83 11.83 8.05 11.71 8.29 11.85" style="fill:#659ec9"/><polygon points="6.13 13.41 5.89 13.27 5.4 13.56 5.64 13.69 6.13 13.41" style="fill:#659ec9"/><polygon points="6.41 13.25 6.18 13.38 5.94 13.24 6.16 13.11 6.41 13.25" style="fill:#659ec9"/><polygon points="6.69 13.09 6.46 13.22 6.22 13.08 6.45 12.95 6.69 13.09" style="fill:#659ec9"/><polygon points="6.97 12.93 6.74 13.06 6.5 12.92 6.72 12.79 6.97 12.93" style="fill:#659ec9"/><polygon points="7.24 12.77 7.02 12.9 6.78 12.76 7 12.63 7.24 12.77" style="fill:#659ec9"/><polygon points="8.57 12.01 8.35 12.13 8.11 11.99 8.33 11.86 8.57 12.01" style="fill:#659ec9"/><polygon points="9.37 11.23 9.12 11.08 8.61 11.38 8.85 11.52 9.13 11.36 9.41 11.52 9.64 11.39 9.37 11.23 9.37 11.23" style="fill:#659ec9"/><polygon points="6.34 13.61 6.1 13.47 5.67 13.72 5.92 13.86 6.34 13.61" style="fill:#659ec9"/><polygon points="6.68 13.41 6.46 13.54 6.22 13.4 6.44 13.28 6.68 13.41" style="fill:#659ec9"/><polygon points="6.96 13.25 6.74 13.38 6.5 13.24 6.72 13.11 6.96 13.25" style="fill:#659ec9"/><polygon points="7.24 13.09 7.02 13.22 6.78 13.08 7 12.95 7.24 13.09" style="fill:#659ec9"/><polygon points="7.52 12.93 7.3 13.06 7.06 12.92 7.28 12.79 7.52 12.93" style="fill:#659ec9"/><polygon points="8.07 12.94 7.85 13.07 7.61 12.93 7.83 12.8 8.07 12.94" style="fill:#659ec9"/><polygon points="7.23 12.46 7.01 12.58 6.77 12.44 6.99 12.31 7.23 12.46" style="fill:#659ec9"/><polygon points="7.51 12.62 7.29 12.74 7.05 12.6 7.27 12.48 7.51 12.62" style="fill:#659ec9"/><polygon points="7.79 12.78 7.57 12.9 7.33 12.76 7.55 12.64 7.79 12.78" style="fill:#659ec9"/><polygon points="7.22 12.14 7 12.27 6.75 12.13 6.98 12 7.22 12.14" style="fill:#659ec9"/><polygon points="7.5 12.3 7.27 12.43 7.03 12.29 7.25 12.16 7.5 12.3" style="fill:#659ec9"/><polygon points="7.78 12.46 7.55 12.59 7.31 12.45 7.54 12.32 7.78 12.46" style="fill:#659ec9"/><polygon points="8.06 12.62 7.83 12.75 7.59 12.61 7.81 12.48 8.06 12.62" style="fill:#659ec9"/><polygon points="7.49 11.98 7.27 12.11 7.03 11.97 7.25 11.85 7.49 11.98" style="fill:#659ec9"/><polygon points="7.77 12.15 7.55 12.27 7.31 12.13 7.53 12.01 7.77 12.15" style="fill:#659ec9"/><polygon points="8.05 12.31 7.83 12.43 7.58 12.3 7.81 12.17 8.05 12.31" style="fill:#659ec9"/><polygon points="8.33 12.47 8.11 12.6 7.86 12.46 8.09 12.33 8.33 12.47" style="fill:#659ec9"/><polygon points="7.75 11.83 7.53 11.96 7.29 11.82 7.51 11.69 7.75 11.83" style="fill:#659ec9"/><polygon points="8.03 11.99 7.81 12.12 7.57 11.98 7.79 11.85 8.03 11.99" style="fill:#659ec9"/><polygon points="8.31 12.15 8.09 12.28 7.85 12.14 8.07 12.02 8.31 12.15" style="fill:#659ec9"/><polygon points="8.59 12.32 8.37 12.44 8.13 12.3 8.35 12.18 8.59 12.32" style="fill:#659ec9"/><polygon points="8.85 12.17 8.63 12.3 8.39 12.15 8.61 12.03 8.85 12.17" style="fill:#659ec9"/><polygon points="9.92 11.55 9.41 11.85 9.17 11.71 9.68 11.41 9.92 11.55" style="fill:#659ec9"/><polygon points="6.42 13.89 6.2 14.02 5.96 13.88 6.18 13.75 6.42 13.89" style="fill:#659ec9"/><polygon points="6.69 13.73 6.47 13.86 6.23 13.72 6.45 13.59 6.69 13.73" style="fill:#659ec9"/><polygon points="8.61 12.63 8.39 12.76 8.14 12.62 8.36 12.49 8.61 12.63" style="fill:#659ec9"/><polygon points="8.34 12.79 8.11 12.91 7.87 12.77 8.09 12.65 8.34 12.79" style="fill:#659ec9"/><polygon points="8.87 12.48 8.65 12.61 8.4 12.47 8.63 12.34 8.87 12.48" style="fill:#659ec9"/><polygon points="9.13 12.33 8.91 12.46 8.66 12.32 8.89 12.19 9.13 12.33" style="fill:#659ec9"/><polygon points="8.27 11.53 8.05 11.66 7.81 11.52 8.03 11.39 8.27 11.53" style="fill:#659ec9"/><polygon points="8.55 11.7 8.33 11.82 8.08 11.68 8.31 11.56 8.55 11.7" style="fill:#659ec9"/><polygon points="8.83 11.86 8.61 11.98 8.36 11.85 8.59 11.72 8.83 11.86" style="fill:#659ec9"/><polygon points="9.11 12.02 8.89 12.15 8.64 12.01 8.87 11.88 9.11 12.02" style="fill:#659ec9"/><polygon points="9.39 12.18 9.17 12.31 8.92 12.17 9.14 12.04 9.39 12.18" style="fill:#659ec9"/><polygon points="8.53 11.39 8.31 11.51 8.06 11.37 8.29 11.25 8.53 11.39" style="fill:#659ec9"/><polygon points="10.23 11.38 10.01 11.5 9.76 11.36 9.99 11.23 10.23 11.38" style="fill:#659ec9"/><polygon points="10.5 11.22 10.27 11.35 10.03 11.2 10.26 11.08 10.5 11.22" style="fill:#659ec9"/><polygon points="10.77 11.06 10.55 11.19 10.3 11.05 10.53 10.92 10.77 11.06" style="fill:#659ec9"/><polygon points="10.51 11.54 10.29 11.66 10.04 11.52 10.27 11.4 10.51 11.54" style="fill:#659ec9"/><polygon points="10.78 11.38 10.55 11.51 10.31 11.37 10.54 11.24 10.78 11.38" style="fill:#659ec9"/><polygon points="11.05 11.22 10.82 11.35 10.58 11.21 10.8 11.08 11.05 11.22" style="fill:#659ec9"/><polygon points="10.24 10.4 10.02 10.53 9.78 10.39 10 10.26 10.24 10.4" style="fill:#659ec9"/><polygon points="10.51 10.24 10.29 10.37 10.05 10.23 10.27 10.1 10.51 10.24" style="fill:#659ec9"/><polygon points="10.78 10.09 10.56 10.21 10.32 10.08 10.54 9.95 10.78 10.09" style="fill:#659ec9"/><polygon points="10.52 10.56 10.3 10.69 10.06 10.55 10.28 10.42 10.52 10.56" style="fill:#659ec9"/><polygon points="10.79 10.4 10.57 10.53 10.33 10.39 10.55 10.27 10.79 10.4" style="fill:#659ec9"/><polygon points="10.8 10.72 10.58 10.85 10.34 10.71 10.56 10.58 10.8 10.72" style="fill:#659ec9"/><polygon points="11.07 10.57 10.85 10.7 10.61 10.56 10.83 10.43 11.07 10.57" style="fill:#659ec9"/><polygon points="10.82 10.11 10.6 10.24 11.12 10.54 11.34 10.41 10.82 10.11" style="fill:#659ec9"/><polygon points="11.08 10.88 10.86 11.01 10.62 10.87 10.84 10.75 11.08 10.88" style="fill:#659ec9"/><polygon points="11.35 10.73 11.13 10.86 10.89 10.72 11.11 10.59 11.35 10.73" style="fill:#659ec9"/><polygon points="11.63 10.89 11.39 10.75 10.9 11.03 11.14 11.17 11.63 10.89" style="fill:#659ec9"/><polygon points="11.38 10.44 11.16 10.56 11.68 10.86 11.9 10.73 11.38 10.44" style="fill:#659ec9"/><polygon points="8.81 11.55 8.59 11.67 8.34 11.54 8.56 11.41 8.81 11.55" style="fill:#659ec9"/><polygon points="9.09 11.71 8.87 11.83 8.62 11.7 8.85 11.57 9.09 11.71" style="fill:#659ec9"/><polygon points="9.35 11.55 9.13 11.68 8.89 11.54 9.11 11.41 9.35 11.55" style="fill:#659ec9"/><polygon points="9.37 11.87 9.14 12 8.9 11.86 9.12 11.73 9.37 11.87" style="fill:#659ec9"/><polygon points="9.64 12.03 9.42 12.16 9.18 12.02 9.4 11.89 9.64 12.03" style="fill:#659ec9"/><polygon points="9.91 11.88 9.69 12.01 9.45 11.86 9.67 11.74 9.91 11.88" style="fill:#659ec9"/><polygon points="10.2 11.71 9.95 11.86 9.71 11.72 9.96 11.57 10.2 11.71" style="fill:#659ec9"/><polygon points="11.85 10.9 11.44 11.14 11.41 11.12 11.82 10.88 11.85 10.9" style="fill:#659ec9"/><polygon points="11.94 10.95 11.53 11.19 11.49 11.16 11.9 10.93 11.94 10.95" style="fill:#659ec9"/><polygon points="12.02 11 11.61 11.23 11.58 11.22 11.99 10.98 12.02 11" style="fill:#659ec9"/><polygon points="11.85 11.09 11.78 11.14 11.74 11.12 11.82 11.07 11.85 11.09" style="fill:#75c425"/><polygon points="8.51 9.59 8.54 9.76 9.34 9.77 9.35 9.52 9.3 9.31 8.93 9.27 8.63 9.37 8.51 9.59" style="fill:#517fa2"/><path d="M189.92,306.31c0,.24-.16.41-.27.39s-.16-.22-.13-.45.16-.41.27-.39S190,306.08,189.92,306.31Z" transform="translate(-181.28 -295.89)" style="fill:#295e87"/><path d="M189.71,306.35a2,2,0,0,1,.11-.72c.23-.22.74,0,.79,0a1.38,1.38,0,0,1,.23.71Z" transform="translate(-181.28 -295.89)" style="fill:#fff"/><path d="M189.71,306.35a2,2,0,0,1,.11-.72.49.49,0,0,1,.29-.11,5.8,5.8,0,0,1,0,.85Z" transform="translate(-181.28 -295.89)" style="fill:#dae5f8"/><path d="M189.71,306.35a2.85,2.85,0,0,0,0,.59.55.55,0,0,0,.45.4c.26,0,.72-.51.66-.94C190.81,306.17,189.71,306.18,189.71,306.35Z" transform="translate(-181.28 -295.89)" style="fill:#517fa2"/><path d="M189.1,303.9c.05.41.46.86.69,1.59a.6.6,0,0,1,.84-.07,3.87,3.87,0,0,0-.64-2.21C189.24,303.24,189.08,303.72,189.1,303.9Z" transform="translate(-181.28 -295.89)" style="fill:#fff"/><path d="M189.1,303.9c.05.41.46.86.69,1.59a.75.75,0,0,1,.27-.17,6.63,6.63,0,0,0-.73-1.89A.6.6,0,0,0,189.1,303.9Z" transform="translate(-181.28 -295.89)" style="fill:#dae5f8"/><path d="M191.59,313.49s-4.47-2.31-5.89-1.75-1.19,3.35-1.19,3.35c0,5.39,6.25,7.5,6.25,7.5l0,.71L183.21,319l1.62-10.08,6.76,3.91Z" transform="translate(-181.28 -295.89)" style="fill:#b4caed"/><polygon points="16.22 14.19 10.32 17.59 10.32 16.89 16.22 13.49 16.22 14.19" style="fill:#dae5f8"/><polygon points="9.32 13.96 9.32 15.2 9.03 15.03 9.03 13.79 9.32 13.96" style="fill:#659ec9"/><polygon points="13.45 11.57 13.45 12.81 9.32 15.2 9.32 13.96 13.45 11.57" style="fill:#517fa2"/><polygon points="13.15 11.4 13.45 11.57 9.32 13.96 9.03 13.79 13.15 11.4" style="fill:#535359"/><path d="M187.06,311.66v-.88l-.35-.19h-.16v1a.12.12,0,0,0,.06.12h0l.37.21Z" transform="translate(-181.28 -295.89)" style="fill:#dae5f8"/><path d="M187.12,311.91l10.91-6.3a.41.41,0,0,0,.2-.34v-1l-11.3,6.52v1A.12.12,0,0,0,187.12,311.91Z" transform="translate(-181.28 -295.89)" style="fill:#b4caed"/><polygon points="16.96 8.38 5.65 14.91 5.29 14.7 16.59 8.17 16.96 8.38" style="fill:#fff"/><polygon points="5.7 14.56 5.7 14.78 5.52 14.67 5.52 14.45 5.7 14.56" style="fill:#303033"/><polygon points="16.74 8.4 5.7 14.78 5.7 14.56 16.74 8.18 16.74 8.4" style="fill:#121214"/><polygon points="16.74 8.18 5.7 14.56 5.52 14.45 16.56 8.08 16.74 8.18" style="fill:#535359"/><polygon points="5.61 6.37 5.61 14.5 16.65 8.13 16.65 0 5.61 6.37" style="fill:#517fa2;opacity:0.5"/><polygon points="12.51 3.58 15.12 2.07 15.12 6.87 14.3 8.15 11.78 9.62 11.78 4.74 12.51 3.58" style="fill:#517fa2;opacity:0.7000000000000001"/><polygon points="10.78 4.58 10.78 10.2 6.82 12.48 6.82 6.88 10.78 4.58" style="fill:#517fa2;opacity:0.7000000000000001"/><g style="opacity:0.7000000000000001"><path d="M193.56,302.43v.73s0,0,0,0l.93.53a.15.15,0,0,0,.16,0l1.18-.68a.05.05,0,0,0,0-.05v-.73Z" transform="translate(-181.28 -295.89)" style="fill:#dae5f8"/><path d="M194.68,302.36v1.38l1.18-.68a.05.05,0,0,0,0-.05v-.73Z" transform="translate(-181.28 -295.89)" style="fill:#b4caed"/><path d="M194.68,303a.15.15,0,0,1-.16,0l-.93-.53c-.05,0-.05-.07,0-.1l1.18-.68a.22.22,0,0,1,.16,0l.93.54s0,.07,0,.09Z" transform="translate(-181.28 -295.89)" style="fill:#fff"/><path d="M193.64,302.25v.17a.05.05,0,0,0,0,.05l.85.5a.19.19,0,0,0,.15,0l1.09-.63s0,0,0,0v-.17Z" transform="translate(-181.28 -295.89)" style="fill:#5a87c4"/><polygon points="12.91 6.7 12.91 6.87 13.26 7.07 13.26 6.88 12.91 6.7" style="fill:#9de368"/><path d="M194.68,302.79a.14.14,0,0,1-.15,0l-.85-.49c-.05,0-.05-.07,0-.09l1.08-.63a.22.22,0,0,1,.16,0l.85.5a0,0,0,0,1,0,.08Z" transform="translate(-181.28 -295.89)" style="fill:gray"/><path d="M193.56,301.78v.48s0,0,0,.05l.93.53a.15.15,0,0,0,.16,0l1.18-.68a.05.05,0,0,0,0-.05v-.47Z" transform="translate(-181.28 -295.89)" style="fill:#dae5f8"/><path d="M194.68,301.71v1.13l1.18-.68a.05.05,0,0,0,0-.05v-.47Z" transform="translate(-181.28 -295.89)" style="fill:#b4caed"/><path d="M194.68,302.37a.22.22,0,0,1-.16,0l-.93-.54c-.05,0-.05-.07,0-.1l1.18-.67a.15.15,0,0,1,.16,0l.93.53s0,.07,0,.09Z" transform="translate(-181.28 -295.89)" style="fill:#fff"/><path d="M193.64,301.61v.17s0,0,0,0l.85.5a.19.19,0,0,0,.15,0l1.09-.63a.05.05,0,0,0,0,0v-.18Z" transform="translate(-181.28 -295.89)" style="fill:#5a87c4"/><polygon points="12.91 6.05 12.91 6.22 13.26 6.42 13.26 6.26 12.91 6.05" style="fill:#9de368"/><path d="M194.68,302.15a.19.19,0,0,1-.15,0l-.85-.5c-.05,0-.05-.06,0-.09l1.08-.63a.22.22,0,0,1,.16,0l.85.5s0,.07,0,.09Z" transform="translate(-181.28 -295.89)" style="fill:gray"/><path d="M193.56,301.14v.47a.05.05,0,0,0,0,.05l.93.53a.15.15,0,0,0,.16,0l1.18-.67s0,0,0,0V301Z" transform="translate(-181.28 -295.89)" style="fill:#dae5f8"/><path d="M194.68,301.07v1.12l1.18-.67s0,0,0,0V301Z" transform="translate(-181.28 -295.89)" style="fill:#b4caed"/><path d="M194.68,301.72a.15.15,0,0,1-.16,0l-.93-.54c-.05,0-.05-.06,0-.09l1.18-.68a.15.15,0,0,1,.16,0l.93.54s0,.06,0,.09Z" transform="translate(-181.28 -295.89)" style="fill:#fff"/><path d="M193.64,301v.17a.05.05,0,0,0,0,.05l.85.49a.14.14,0,0,0,.15,0l1.09-.63s0,0,0,0v-.17Z" transform="translate(-181.28 -295.89)" style="fill:#5a87c4"/><polygon points="12.91 5.43 12.91 5.58 13.26 5.78 13.26 5.61 12.91 5.43" style="fill:#9de368"/><path d="M194.68,301.5a.19.19,0,0,1-.15,0l-.85-.49c-.05,0-.05-.07,0-.09l1.08-.63a.22.22,0,0,1,.16,0l.85.49s0,.07,0,.09Z" transform="translate(-181.28 -295.89)" style="fill:gray"/><path d="M193.56,300.46V301a.05.05,0,0,0,0,0l.93.54a.15.15,0,0,0,.16,0l1.18-.68a.05.05,0,0,0,0-.05v-.5Z" transform="translate(-181.28 -295.89)" style="fill:#dae5f8"/><path d="M194.68,300.39v1.16l1.18-.68a.05.05,0,0,0,0-.05v-.5Z" transform="translate(-181.28 -295.89)" style="fill:#b4caed"/><path d="M194.68,301a.15.15,0,0,1-.16,0l-.93-.53c-.05,0-.05-.07,0-.09l1.18-.68a.15.15,0,0,1,.16,0l.93.53a.06.06,0,0,1,0,.1Z" transform="translate(-181.28 -295.89)" style="fill:#fff"/></g><g style="opacity:0.8"><path d="M191.29,303.71a.31.31,0,0,0-.32,0,.92.92,0,0,0-.32.33.88.88,0,0,0-.14.45.33.33,0,0,0,.12.31.32.32,0,0,0,.32,0,.79.79,0,0,0,.32-.33,1,1,0,0,0,.15-.45h0A.33.33,0,0,0,191.29,303.71Zm-.14.67a.55.55,0,0,1-.2.2.17.17,0,0,1-.18,0,.19.19,0,0,1-.08-.18.58.58,0,0,1,.09-.27A.5.5,0,0,1,191,304a.19.19,0,0,1,.19,0,.2.2,0,0,1,.07.18A.53.53,0,0,1,191.15,304.38Z" transform="translate(-181.28 -295.89)" style="fill:#fff"/><path d="M191.29,305.29a.29.29,0,0,0-.32,0,.92.92,0,0,0-.32.33.88.88,0,0,0-.14.45.33.33,0,0,0,.12.31.32.32,0,0,0,.32,0,.79.79,0,0,0,.32-.33,1,1,0,0,0,.15-.45A.33.33,0,0,0,191.29,305.29Zm-.14.67a.55.55,0,0,1-.2.2.17.17,0,0,1-.18,0,.19.19,0,0,1-.08-.18.58.58,0,0,1,.09-.27.61.61,0,0,1,.19-.2.21.21,0,0,1,.19,0,.2.2,0,0,1,.07.18A.53.53,0,0,1,191.15,306Z" transform="translate(-181.28 -295.89)" style="fill:#8dd5ff"/><polygon points="7.7 11.38 8.78 10.76 8.78 10.61 7.7 11.24 7.7 11.38" style="fill:#fff"/><polygon points="7.7 11.12 8.78 10.49 8.78 10.35 7.7 10.97 7.7 11.12" style="fill:#fff"/><polygon points="7.6 9.45 8.8 8.76 8.8 8.36 7.6 9.05 7.6 9.45" style="fill:#fff"/><path d="M189.79,305a.61.61,0,0,0-.28.48c0,.18.13.26.28.17a.64.64,0,0,0,.29-.49C190.08,305,190,304.88,189.79,305Z" transform="translate(-181.28 -295.89)" style="fill:#fff"/><polygon points="7.94 10.06 8.15 9.94 8.15 9.68 7.94 9.8 7.94 10.06" style="fill:#fff"/><polygon points="8.15 9.3 7.94 9.42 7.94 9.69 8.15 9.56 8.15 9.3" style="fill:#fff"/><polygon points="7.82 9.88 7.6 10 7.6 10.26 7.82 10.14 7.82 9.88" style="fill:#fff"/><polygon points="7.82 9.5 7.6 9.62 7.6 9.88 7.82 9.76 7.82 9.5" style="fill:#fff"/><polygon points="7.51 8.53 7.65 8.45 7.65 6.78 7.51 6.86 7.51 8.53" style="fill:#8dd5ff"/><polygon points="7.87 8.32 8 8.25 8 7.1 7.87 7.17 7.87 8.32" style="fill:#8dd5ff"/><polygon points="8.23 8.12 8.36 8.04 8.36 6.71 8.23 6.79 8.23 8.12" style="fill:#8dd5ff"/><polygon points="8.58 7.91 8.71 7.84 8.71 7.07 8.58 7.15 8.58 7.91" style="fill:#8dd5ff"/><polygon points="8.94 7.71 9.07 7.63 9.07 6.61 8.94 6.68 8.94 7.71" style="fill:#8dd5ff"/><polygon points="9.29 7.5 9.43 7.43 9.43 6.28 9.29 6.35 9.29 7.5" style="fill:#8dd5ff"/><polygon points="9.65 7.3 9.78 7.22 9.78 6.3 9.65 6.38 9.65 7.3" style="fill:#8dd5ff"/><polygon points="10.01 6.32 10.01 7.09 10.14 7.01 10.14 6.25 10.01 6.32" style="fill:#8dd5ff"/></g></svg>