<svg xmlns="http://www.w3.org/2000/svg" xmlns:xlink="http://www.w3.org/1999/xlink" viewBox="0 0 369.75 188.57"><defs><radialGradient id="New_Gradient_Swatch_9" cx="185.1" cy="547.93" r="5.09" gradientTransform="translate(4072.79 886.93) rotate(180) scale(20.61 1)" gradientUnits="userSpaceOnUse"><stop offset="0" stop-color="#fff"/><stop offset="0.05" stop-color="#75e8ff"/><stop offset="0.07" stop-color="#62cedb"/><stop offset="0.09" stop-color="#4aadac"/><stop offset="0.12" stop-color="#369186"/><stop offset="0.14" stop-color="#277c68"/><stop offset="0.16" stop-color="#1c6c53"/><stop offset="0.19" stop-color="#156346"/><stop offset="0.21" stop-color="#136042"/><stop offset="0.22" stop-color="#125a3e"/><stop offset="0.29" stop-color="#0c3e2b"/><stop offset="0.36" stop-color="#08271b"/><stop offset="0.44" stop-color="#04160f"/><stop offset="0.54" stop-color="#020906"/><stop offset="0.68" stop-color="#000201"/><stop offset="1"/></radialGradient><radialGradient id="New_Gradient_Swatch_9-2" cx="440.29" cy="486.33" r="0.11" gradientTransform="translate(434.36 2278.75) rotate(180) scale(1 4.25)" xlink:href="#New_Gradient_Swatch_9"/><radialGradient id="New_Gradient_Swatch_9-3" cx="180.12" cy="409.72" r="5.09" gradientTransform="translate(434.36 5387.71) rotate(180) scale(1 12.32)" xlink:href="#New_Gradient_Swatch_9"/></defs><g style="isolation:isolate"><g id="Layer_1" data-name="Layer 1"><path d="M257,344.09c-57.94,0-104.9-2.28-104.9-5.09s47-5.09,104.9-5.09,104.9,2.28,104.9,5.09S314.93,344.09,257,344.09Z" transform="translate(7.85 -213.49)" style="mix-blend-mode:color-dodge;fill:url(#New_Gradient_Swatch_9)"/><path d="M-7.74,214.46c-.06,0-.11-.21-.11-.48s0-.49.11-.49.12.22.12.49S-7.68,214.46-7.74,214.46Z" transform="translate(7.85 -213.49)" style="mix-blend-mode:color-dodge;fill:url(#New_Gradient_Swatch_9-2)"/><path d="M253.51,402.06c-2.83,0-5.11-28.07-5.11-62.69s2.28-62.7,5.11-62.7,5.1,28.07,5.1,62.7S256.33,402.06,253.51,402.06Z" transform="translate(7.85 -213.49)" style="mix-blend-mode:color-dodge;fill:url(#New_Gradient_Swatch_9-3)"/></g></g></svg>